<?xml version="1.0" encoding="UTF-8" standalone="no"?>
<svg
   xmlns:dc="http://purl.org/dc/elements/1.1/"
   xmlns:cc="http://creativecommons.org/ns#"
   xmlns:rdf="http://www.w3.org/1999/02/22-rdf-syntax-ns#"
   xmlns:svg="http://www.w3.org/2000/svg"
   xmlns="http://www.w3.org/2000/svg"
   xmlns:sodipodi="http://sodipodi.sourceforge.net/DTD/sodipodi-0.dtd"
   xmlns:inkscape="http://www.inkscape.org/namespaces/inkscape"
   id="Layer_1"
   data-name="Layer 1"
   viewBox="0 0 286.38361 323.87039"
   version="1.1"
    width="286.38361"
   height="323.87039"
  >
    
  <path
     class="cls-10"
     d="m 284.98206,177.29922 c 0,0 -5.59,-33.7 -24.71,-45.19 0.64,-1.07 1.25,-2.16 1.81,-3.31 9.74,-20.06 1.86,-43.660005 -17.6,-52.710005 a 38.67,38.67 0 0 0 -31.49,-0.34 105.63,105.63 0 0 0 -58.36,-38.14 c 2.19,-13.71 -2.34,-26.92 -13,-33.5399996 -15,-9.38 -36.38,-2 -47.7,16.5499996 a 45.44,45.44 0 0 0 -6.8,22.87 105.55,105.55 0 0 0 -47.17,40.81 c -13.13,4.63 -23.47,12.68 -30,23.340005 -9.47000001,15.49 -12.2,31.7 -8.14,48.2 0.35,1.41 0.76,2.81 1.21,4.21 a 103.76,103.76 0 0 0 16.94,43.25 c 6.11,31.84 17.11,66.87 36.94,91.82 0,0 2.71,3.19 6.12,6.5 4,3.39 13.3,9.24 27.43,7.33 v 0 a 12.87,12.87 0 0 0 3.56,-0.8 v 0 c 0.26,-0.11 0.51,-0.22 0.75,-0.34 10.29,-4.42 7.57,-17.78 7.57,-17.78 l -4.24,-31.33 v 0 l -1.77,-16.47 a 133,133 0 0 0 27.27,5.67 c 2.86,27.85 9.77,55 24.4,71.28 a 17.29,17.29 0 0 0 10.81,4.61 c 5.61,0.27 13.64,0 20.45,-2.9 v 0 a 26.69,26.69 0 0 0 16.61,-21.7 l 0.57,-18.71 0.06,-0.43 1,-55.86 a 116.82,116.82 0 0 0 22,-26.49 112.28,112.28 0 0 0 9.89,-21 107.48,107.48 0 0 0 5.46,-25.8 41.37,41.37 0 0 0 21.18,-13.09 c 2.31,21.07 3.75,76.51 -41.46,94.59 l -1.55,45.72 v 1.28 c 0,4.82 2.66,21.34 24.08,18.08 0.58,-0.12 1.37,-0.31 2.23,-0.58 a 54,54 0 0 0 25.21,-19.15 c 29.83,-41.73 20.44,-100.45 20.44,-100.45 z m -73.26,15.55 c -29.33,48 -79.7,59.43 -134.74,30.63 q -29.56,-17.5 -46.31,-35.69 a 107.83,107.83 0 0 1 -21.3,-43.97 c -0.55,-10.63 2.28,-21.11 8.49,-31.27 a 43.94,43.94 0 0 1 14.51,-14.410005 c -0.21,10.290005 1.42,16.440005 16.76,14.310005 0,0 16.88,-2.93 22.33,-2.82 5.45,0.11 19.38,-20.550005 -8.89,-31.760005 a 45,45 0 0 0 -5.33,-1.19 c 30.59,-34.83 82.49,-43.6 123,-18.32 a 96.44,96.44 0 0 1 24.47,22 41.75,41.75 0 0 0 -9.78,10 12.07,12.07 0 0 1 2,2.9 c 8.51,17.860005 12,37.100005 14.53,56.380005 a 38,38 0 0 0 14,2.56 97.56,97.56 0 0 1 -13.74,40.6 z"
     id="path0" />
  <path
     class="cls-10"
     d="m 125.06206,152.99922 c 3.85,7.38 11.39,32.52 11.39,32.52 8.9,26.49 20.3,19.07 38.33,9 31.14,-17.45 -1,-50.87 -1,-50.87 -34.3,-31.17 -52.57,1.96 -48.72,9.35 z"
     id="path1" />
  <path
     class="cls-10"
     d="m 92.66206,160.07922 c -22.72,-8.21 -25.43,-18.67 -25.43,-18.67 -6.16,5.91 -1.41,11.51 -1.3,13.57 0.11,2.06 0.36,3 0.86,9.3 0.5,6.3 7.77,4.91 11.45,2.1 3.68,-2.81 15.25,1.68 20.32,-1.92 a 11.51,11.51 0 0 1 4.3,-2.11 c -0.73,0.06 -3.79,0.04 -10.2,-2.27 z"
     id="path2" />
</svg>
