<?xml version="1.0" encoding="UTF-8"?>
<svg width="20px" height="20px" viewBox="0 0 20 20" version="1.1" xmlns="http://www.w3.org/2000/svg" xmlns:xlink="http://www.w3.org/1999/xlink">
    <title>telegram_icon</title>
    <g id="页面-3" stroke="none" stroke-width="1" fill="none" fill-rule="evenodd">
        <g id="telegram_icon" fill="#5E5E5E">
            <path d="M13.27,14.5871429 L14.9107143,6.85285715 C15.0557143,6.17214287 14.665,5.90428572 14.2185714,6.07142857 L4.57571428,9.78785715 C3.91714285,10.0442857 3.92857143,10.4128571 4.46428572,10.58 L6.93071428,11.35 L12.6564286,7.745 C12.9242857,7.56642857 13.17,7.66714285 12.9692857,7.84571428 L8.33785715,12.0307143 L8.15928572,14.5757143 C8.4157143,14.5757143 8.52785715,14.4642857 8.66142857,14.33 L9.86642857,13.1692857 L12.3664286,15.0107143 C12.8242857,15.2671429 13.1478571,15.1335714 13.2707143,14.5864286 L13.27,14.5871429 Z M20,10 C20,15.5242857 15.5242857,20 10,20 C4.47571428,20 0,15.5242857 0,10 C0,4.47571428 4.47571428,0 10,0 C15.5242857,0 20,4.47571428 20,10 Z" id="形状"></path>
        </g>
    </g>
</svg>