<?xml version="1.0" encoding="UTF-8"?>
<svg width="20px" height="20px" viewBox="0 0 20 20" version="1.1" xmlns="http://www.w3.org/2000/svg" xmlns:xlink="http://www.w3.org/1999/xlink">
    <title>wechat_icon</title>
    <g id="页面-3" stroke="none" stroke-width="1" fill="none" fill-rule="evenodd">
        <g id="wechat_icon">
            <circle id="椭圆形" fill="#5E5E5E" cx="10" cy="10" r="10"></circle>
            <g id="wechat" transform="translate(3.000000, 4.000000)" fill="#FFFFFF">
                <path d="M0.227967741,4.21166045 C0.227967741,5.53466045 0.983967741,6.70366044 2.17396775,7.47366044 L1.62796775,9.11166044 L3.37796774,8.06166044 C4.00096773,8.27866044 4.68696774,8.41166043 5.41496774,8.41166045 C5.22808511,7.96843315 5.13055338,7.49266861 5.12796774,7.01166045 C5.12796774,4.69466043 7.31896775,2.81166044 10.0279677,2.81166044 C10.1609677,2.81166044 10.2939677,2.81166044 10.4199677,2.83266044 C9.70596774,1.19466044 7.77396774,0.0116604536 5.47796774,0.0116604536 C2.57996774,0.0116604536 0.227967741,1.89466045 0.227967741,4.21166045 Z M4.07796774,2.46166045 C4.07796774,2.84666045 3.76296774,3.16166045 3.37796774,3.16166045 C2.99296773,3.16166045 2.67796775,2.84666045 2.67796775,2.46166045 C2.67796775,2.07666044 2.99296775,1.76166044 3.37796774,1.76166044 C3.76296774,1.76166044 4.07796774,2.07666044 4.07796774,2.46166045 Z M7.57796774,2.46166045 C7.57796774,2.84666045 7.26296774,3.16166045 6.87796775,3.16166045 C6.49296776,3.16166045 6.17796774,2.84666045 6.17796774,2.46166045 C6.17796774,2.07666044 6.49296774,1.76166044 6.87796775,1.76166044 C7.26296775,1.76166044 7.57796774,2.07666044 7.57796774,2.46166045 Z M5.82796775,7.01166045 C5.82796775,8.94366044 7.71096774,10.5116604 10.0279677,10.5116604 C10.4969677,10.5116604 10.9449677,10.4556605 11.3649677,10.3366604 L12.8279677,11.2116604 L12.3939677,9.90266045 C13.4929677,9.26566044 14.2279677,8.20866044 14.2279677,7.01166045 C14.2279677,5.07966044 12.3449677,3.51166045 10.0279677,3.51166045 C7.71096774,3.51166045 5.82796775,5.07966044 5.82796775,7.01166045 Z M9.32796774,5.96166044 C9.32796774,6.34666043 9.01296774,6.66166044 8.62796773,6.66166044 C8.24296773,6.66166044 7.92796775,6.34666044 7.92796775,5.96166044 C7.92796775,5.57666043 8.24296775,5.26166045 8.62796773,5.26166045 C9.01296774,5.26166045 9.32796774,5.57666045 9.32796774,5.96166044 Z M11.4279677,5.26166045 C11.8129677,5.26166045 12.1279677,5.57666045 12.1279677,5.96166044 C12.1279677,6.34666043 11.8129677,6.66166044 11.4279677,6.66166044 C11.0429677,6.66166044 10.7279677,6.34666044 10.7279677,5.96166044 C10.7279677,5.57666043 11.0429677,5.26166045 11.4279677,5.26166045 Z" id="形状"></path>
            </g>
        </g>
    </g>
</svg>