<?xml version="1.0" encoding="UTF-8"?>
<svg width="24px" height="24px" viewBox="0 0 24 24" version="1.1" xmlns="http://www.w3.org/2000/svg" xmlns:xlink="http://www.w3.org/1999/xlink">
    <title>brand / javascript</title>
    <defs>
        <rect id="path-1" x="0" y="0" width="24" height="24"></rect>
    </defs>
    <g id="页面-1" stroke="none" stroke-width="1" fill="none" fill-rule="evenodd">
        <g id="画板" transform="translate(-1341.000000, -3780.000000)">
            <g id="编组-11" transform="translate(1271.000000, 3780.000000)">
                <g id="brand-/-javascript" transform="translate(70.000000, 0.000000)">
                    <g>
                        <mask id="mask-2" fill="white">
                            <use xlink:href="#path-1"></use>
                        </mask>
                        <g id="brand-/-javascript-(Background/Mask)"></g>
                        <path d="M21,3 L21,21 L3,21 L3,3 L21,3 Z M17.2730007,14.552 C16.7210007,14.293 16.1079998,14.114 15.9239998,13.698 C15.8559998,13.45 15.8460003,13.3159997 15.8900003,13.1689997 C16.0030003,12.6849997 16.5770004,12.5399998 17.0270004,12.6739998 C17.3200004,12.7639998 17.5900008,12.9890004 17.7590008,13.3500004 C18.5340008,12.8430004 18.5340008,12.8429996 19.0750008,12.5059996 C18.8720008,12.1919996 18.7709997,12.0550001 18.6359997,11.9200001 C18.1629997,11.3920001 17.5330002,11.1220005 16.5100002,11.1450005 L15.9820004,11.2119999 C15.4750003,11.3359999 14.9910004,11.6069996 14.6990004,11.9659996 C13.8440003,12.9339996 14.0910004,14.6209997 15.1260004,15.3199997 C16.1490004,16.0849997 17.6469993,16.2529995 17.8379993,16.9729996 C18.0179994,17.8509996 17.1860009,18.1320001 16.3630009,18.0310001 C15.7560009,17.8950001 15.4179999,17.5919994 15.0469999,17.0289993 L13.6750002,17.8169994 C13.8320002,18.1759994 14.0119996,18.3340002 14.2819996,18.6490002 C15.5869995,19.9650002 18.8499995,19.8980005 19.4349995,17.8950005 C19.4559995,17.8280005 19.6149992,17.3670009 19.4909992,16.6580009 L19.5249996,16.7070007 C19.3939996,15.8860008 18.8590007,15.196 17.2730007,14.552 Z M11.1020002,11.2729998 C11.1020002,12.7259997 11.0950003,14.1709999 11.0950003,15.6269999 C11.0950003,16.5509999 11.1420002,17.3989998 10.9910002,17.6599998 C10.7440002,18.1769999 10.105,18.1109991 9.81599998,18.0189991 C9.51899999,17.8729991 9.36799984,17.6700003 9.19299984,17.3780003 C9.14599984,17.3000003 9.11099957,17.2320004 9.09799957,17.2320004 L7.73000002,18.0760002 C7.95900002,18.5490002 8.29299998,18.9549994 8.72399998,19.2129993 C9.36499995,19.5959993 10.2260002,19.7199997 11.1280003,19.5179996 C11.7160003,19.3479996 12.223,18.9989997 12.4860001,18.4589996 C12.8700001,17.7619996 12.7879998,16.9059998 12.7849998,15.9499998 C12.7929998,14.4089998 12.7849998,12.8669996 12.7849998,11.3149996 L12.7880001,11.2729998 L11.1020002,11.2729998 Z" fill="#5E5E5E" mask="url(#mask-2)"></path>
                    </g>
                </g>
            </g>
        </g>
    </g>
</svg>