<?xml version="1.0" encoding="UTF-8"?>
<svg width="24px" height="24px" viewBox="0 0 24 24" version="1.1" xmlns="http://www.w3.org/2000/svg" xmlns:xlink="http://www.w3.org/1999/xlink">
    <title>brand / github</title>
    <defs>
        <rect id="path-1" x="0" y="0" width="24" height="24"></rect>
    </defs>
    <g id="页面-1" stroke="none" stroke-width="1" fill="none" fill-rule="evenodd">
        <g id="画板" transform="translate(-1271.000000, -3780.000000)">
            <g id="编组-11" transform="translate(1271.000000, 3780.000000)">
                <g id="brand-/-github">
                    <g>
                        <mask id="mask-2" fill="white">
                            <use xlink:href="#path-1"></use>
                        </mask>
                        <g id="brand-/-github-(Background/Mask)"></g>
                        <path d="M12.0260019,2 C6.51700211,2 2.05200195,6.46500015 2.05200195,11.974 C2.05200195,16.3800001 4.90900207,20.1189991 8.87300205,21.4389992 C9.37200207,21.5289992 9.55200195,21.2220002 9.55200195,20.9580002 C9.55200195,20.7210002 9.54400227,20.0929991 9.54100227,19.2619991 C7.69100221,19.6633325 6.5706687,19.2173327 6.18000174,17.9239998 C5.87866841,17.1559998 5.50966845,16.6696666 5.07300186,16.4650002 C4.46966855,16.0523335 4.49266863,15.8506666 5.14200211,15.8599997 C5.81000209,15.9066663 6.31900207,16.2493333 6.66900206,16.8880005 C7.55900204,18.4120005 9.00500202,17.971999 9.57100201,17.7169991 C9.662002,17.0719991 9.92200223,16.6319994 10.2060022,16.3829994 C7.99200225,16.1319994 5.66400194,15.276 5.66400194,11.4530001 C5.66400194,10.3660001 6.05300212,9.47399986 6.68800211,8.77799988 C6.58700211,8.52499989 6.24200207,7.50999999 6.78700209,6.13800001 C7.34500217,5.95866664 8.25900221,6.29899995 9.52900219,7.15899992 C10.3270022,6.93799992 11.1780015,6.82699995 12.0250015,6.82299995 C12.8740015,6.82699995 13.7260018,6.93799992 14.5210018,7.15899992 C15.7916685,6.29833325 16.7056687,5.95799994 17.2630024,6.13800001 C17.8080024,7.50999999 17.4660014,8.52499989 17.3620014,8.77799988 C18.0020014,9.47399986 18.3860016,10.365 18.3860016,11.4530001 C18.3860016,15.286 16.0560014,16.128 13.8340015,16.375 C14.1890015,16.683 14.5090017,17.2910007 14.5090017,18.2210007 C14.5090017,19.5550007 14.4970016,20.6310002 14.4970016,20.9580002 C14.4970016,21.2250002 14.6750019,21.5350003 15.1840019,21.4370003 C19.1460018,20.1150002 22.0000019,16.3790002 22.0000019,11.974 C22.0000019,6.46500015 17.5350018,2 12.0260019,2 C8.35333538,2 8.35333538,2 12.0260019,2 Z" fill="#5E5E5E" mask="url(#mask-2)"></path>
                    </g>
                </g>
            </g>
        </g>
    </g>
</svg>