<svg id="Layer_1" data-name="Layer 1" xmlns="http://www.w3.org/2000/svg" xmlns:xlink="http://www.w3.org/1999/xlink" viewBox="0 0 381 134"><defs><style>.cls-1{fill:#1c1c23;}.cls-2{fill:url(#linear-gradient);}.cls-3{fill:url(#linear-gradient-2);}.cls-4{fill:url(#linear-gradient-3);}.cls-5{fill:url(#linear-gradient-4);}.cls-6{fill:url(#linear-gradient-5);}.cls-7{fill:url(#linear-gradient-6);}</style><linearGradient id="linear-gradient" x1="57.57" y1="115.26" x2="92.41" y2="113.14" gradientUnits="userSpaceOnUse"><stop offset="0.02" stop-color="#ff8235"/><stop offset="0.98" stop-color="#f71f3d"/></linearGradient><linearGradient id="linear-gradient-2" x1="18.13" y1="78.98" x2="2.41" y2="56.03" gradientUnits="userSpaceOnUse"><stop offset="0" stop-color="#ff8235"/><stop offset="0.42" stop-color="#fc5b38"/><stop offset="1" stop-color="#f71f3d"/></linearGradient><linearGradient id="linear-gradient-3" x1="30.22" y1="122.27" x2="34.1" y2="65.31" gradientUnits="userSpaceOnUse"><stop offset="0.2" stop-color="#ff8235"/><stop offset="1" stop-color="#f71f3d"/></linearGradient><linearGradient id="linear-gradient-4" x1="33.26" y1="21.46" x2="53.66" y2="61.4" gradientUnits="userSpaceOnUse"><stop offset="0" stop-color="#ff8235"/><stop offset="1" stop-color="#f71f3d"/></linearGradient><linearGradient id="linear-gradient-5" x1="78.56" y1="0.45" x2="97.26" y2="43.36" gradientUnits="userSpaceOnUse"><stop offset="0" stop-color="#ff8235"/><stop offset="0.3" stop-color="#fc5a38"/><stop offset="0.59" stop-color="#f93a3b"/><stop offset="0.83" stop-color="#f8263c"/><stop offset="1" stop-color="#f71f3d"/></linearGradient><linearGradient id="linear-gradient-6" x1="102.47" y1="96.94" x2="86.32" y2="65.5" gradientUnits="userSpaceOnUse"><stop offset="0.2" stop-color="#ff8235"/><stop offset="1" stop-color="#f71f3d"/></linearGradient></defs><title>Saito Horizontal Primary Logo RGB</title><path class="cls-1" d="M163.64,79l-13.29,7.67c3.29,10.79,13.84,17.87,27.55,17.87,15.59,0,27.88-9,27.88-24.27,0-14.36-10.53-19.62-22.52-22.52l-2.66-.63c-8.13-2-13.45-3.92-13.45-8.87,0-4,3.83-6.61,9.3-6.61,6.76,0,10.73,3.81,11.83,9.92l1.22.41,11.88-6.85c-3.16-8.88-11.36-14.93-24.73-14.93-14,0-24.47,7.13-24.47,19,0,8.63,5.06,13.69,12.78,17a57.35,57.35,0,0,0,8.7,2.77c1.81.42,3.56.84,5.18,1.31,6.66,1.87,11.45,4.45,11.45,11.08s-4.86,10.22-11.57,10.22c-7.27,0-12.9-4.22-14-12.2Z"/><path class="cls-1" d="M261.37,92.56a4.85,4.85,0,0,1-2,.31c-2.27,0-3.72-1.55-3.72-4.86V69.53c0-12.18-9.29-18.69-22-18.69-10.74,0-19.21,5.37-21.38,15.9l.52.62,12.18,1c.62-4.33,3.62-7.12,8.47-7.12,5.37,0,8.47,2.69,8.47,7.43V71L228,72.42c-11.15,1.14-18.17,6.92-18.17,16.42,0,9.81,7.64,15.7,16.41,15.7,6.92,0,11.67-2.79,16.22-7.44h.72c2.37,5.27,6.91,7,11.57,7a22.2,22.2,0,0,0,7.12-1V93.17ZM242,86.05c-3.72,4.75-7.23,7.54-12.39,7.54-3.61,0-6.4-2.07-6.4-5.58s2.58-5.89,7.43-6.5L242,80.06Z"/><rect class="cls-1" x="266.72" y="51.87" width="14.46" height="51.63"/><path class="cls-1" d="M274,29.46a8.37,8.37,0,1,0,8.36,8.37A8.47,8.47,0,0,0,274,29.46Z"/><path class="cls-1" d="M309.49,63.85V87.61c0,3.4,2.07,5.16,5.57,5.16A13.46,13.46,0,0,0,319.2,92l.72.41v11a36.1,36.1,0,0,1-9.08,1c-9.2,0-15.71-4.76-15.71-15.7v-25H286v-12h9.18V39.05l13-7.52h1.33V51.87h10.95v12Z"/><path class="cls-1" d="M350.56,50.84c-16.42,0-28.09,11.46-28.09,26.84s11.67,26.86,28.09,26.86,28.19-11.47,28.19-26.86S367.08,50.84,350.56,50.84Zm0,41.2c-7.85,0-13.63-5.37-13.63-14.36s5.78-14.35,13.63-14.35,13.73,5.37,13.73,14.35S358.4,92,350.56,92Z"/><path class="cls-2" d="M59.66,99.49l54.14,0a1.53,1.53,0,0,1-.3.25L59.66,130.78Z"/><path class="cls-3" d="M29.36,52.42,2.29,98.81a2,2,0,0,1,0-.35V36.77Z"/><polygon class="cls-4" points="56.79 68.26 56.79 130.78 4.55 100.61 31.84 53.86 56.79 68.26"/><path class="cls-5" d="M84.56,50.58,58.23,65.78l-55-31.73L56.51,3.31,84.27,50.23A1.11,1.11,0,0,0,84.56,50.58Z"/><path class="cls-6" d="M113.19,34.05,86.91,49.22a1.33,1.33,0,0,0-.18-.45L59.79,3.22Z"/><polygon class="cls-7" points="114.21 36.77 114.21 96.58 59.66 96.62 59.66 68.26 114.21 36.77"/></svg>