<!-- Created with Inkscape (http://www.inkscape.org/) --><svg xmlns:svg="http://www.w3.org/2000/svg" width="100" id="svg2" height="100" xmlns="http://www.w3.org/2000/svg" version="1.0">
  <defs id="defs5">
    <filter x="-0.10506912" width="1.2101382" id="filter3256" height="1.2101382" y="-0.10506912" color-interpolation-filters="sRGB">
      <feGaussianBlur stdDeviation="3.8963134" id="feGaussianBlur3258"/>
    </filter>
    <filter color-interpolation-filters="sRGB" id="filter4795">
      <feGaussianBlur stdDeviation="2.2698653" id="feGaussianBlur4797"/>
    </filter>
  </defs>
  <rect x="5.5812325" y="5.8613443" width="89" style="opacity:0.89671362;fill:#000000;fill-opacity:1;stroke:none;filter:url(#filter3256)" rx="11" id="rect2384" ry="11" height="89"/>
  <rect x="2.5" y="2.5" width="89" style="fill:#008fd5;fill-opacity:1;stroke:#ffffff;stroke-width:4;stroke-linecap:square;stroke-linejoin:miter;stroke-miterlimit:4;stroke-opacity:0.48235294;stroke-dasharray:none" rx="11" id="rect2392" ry="11" height="89"/>
  <path d="m 82.539682,-49.682544 -29.791908,-21.033236 -27.6908,20.786319 10.797591,-34.833416 -28.3258923,-19.912193 36.4651863,-0.49499 10.184435,-33.09273 11.739134,34.52749 34.620222,-0.54025 -29.210005,21.834165 11.212037,32.758841 z" id="path3171" style="fill:#000000;fill-opacity:1;stroke:none;filter:url(#filter4795)" transform="matrix(0.5720625,0,0,0.5720625,19.647397,113.09899)"/>
  <path d="m 82.539682,-49.682544 -29.791908,-21.033236 -27.6908,20.786319 10.797591,-34.833416 -28.3258923,-19.912193 36.4651863,-0.49499 10.184435,-33.09273 11.739134,34.52749 34.620222,-0.54025 -29.210005,21.834165 11.212037,32.758841 z" id="path2913" style="fill:#ffffff;fill-opacity:1;stroke:none" transform="matrix(0.5720625,0,0,0.5720625,17.647397,111.09899)"/>
  <rect x="1.6781328" y="1.6781328" width="90.643738" style="fill:none;stroke:#000000;stroke-width:2.03693795;stroke-linecap:square;stroke-linejoin:miter;stroke-miterlimit:4;stroke-opacity:1;stroke-dasharray:none" rx="11.203158" id="rect3606" ry="11.203158" height="90.643738"/>
</svg>