<?xml version="1.0" encoding="UTF-8" standalone="no"?>
<!-- Created with Inkscape (http://www.inkscape.org/) -->

<svg
   xmlns:dc="http://purl.org/dc/elements/1.1/"
   xmlns:cc="http://creativecommons.org/ns#"
   xmlns:rdf="http://www.w3.org/1999/02/22-rdf-syntax-ns#"
   xmlns:svg="http://www.w3.org/2000/svg"
   xmlns="http://www.w3.org/2000/svg"
   xmlns:sodipodi="http://sodipodi.sourceforge.net/DTD/sodipodi-0.dtd"
   xmlns:inkscape="http://www.inkscape.org/namespaces/inkscape"
   version="1.0"
   width="127"
   height="127"
   id="svg2"
   inkscape:version="0.48.2 r9819"
   sodipodi:docname="Available.svg">
  <metadata
     id="metadata15">
    <rdf:RDF>
      <cc:Work
         rdf:about="">
        <dc:format>image/svg+xml</dc:format>
        <dc:type
           rdf:resource="http://purl.org/dc/dcmitype/StillImage" />
        <dc:title />
      </cc:Work>
    </rdf:RDF>
  </metadata>
  <sodipodi:namedview
     pagecolor="#ffffff"
     bordercolor="#666666"
     borderopacity="1"
     objecttolerance="10"
     gridtolerance="10"
     guidetolerance="10"
     inkscape:pageopacity="0"
     inkscape:pageshadow="2"
     inkscape:window-width="2560"
     inkscape:window-height="1308"
     id="namedview13"
     showgrid="false"
     inkscape:zoom="2.19"
     inkscape:cx="-50.130021"
     inkscape:cy="71.423512"
     inkscape:window-x="0"
     inkscape:window-y="0"
     inkscape:window-maximized="1"
     inkscape:current-layer="svg2" />
  <defs
     id="defs5">
    <filter
       id="filter4191-1"
       color-interpolation-filters="sRGB">
      <feGaussianBlur
         stdDeviation="2.2698653"
         id="feGaussianBlur4193-7" />
    </filter>
    <filter
       id="filter3256-9"
       color-interpolation-filters="sRGB"
       height="1.2101382"
       width="1.2101382"
       y="-0.10506912"
       x="-0.10506912">
      <feGaussianBlur
         stdDeviation="3.8963134"
         id="feGaussianBlur3258-9" />
    </filter>
  </defs>
  <path
     style="font-size:medium;font-style:normal;font-variant:normal;font-weight:normal;font-stretch:normal;text-indent:0;text-align:start;text-decoration:none;line-height:normal;letter-spacing:normal;word-spacing:normal;text-transform:none;direction:ltr;block-progression:tb;writing-mode:lr-tb;text-anchor:start;baseline-shift:baseline;color:#000000;fill:#09eb03;fill-opacity:1;stroke:#000000;stroke-width:6.03700018;stroke-miterlimit:4;stroke-opacity:1;stroke-dasharray:none;marker:none;visibility:visible;display:inline;overflow:visible;enable-background:accumulate;font-family:Sans;-inkscape-font-specification:Sans"
     d="M 30.25,2.8125 C 17.217397,2.8125 6.34375,13.717396 6.34375,26.75 l 0,13.015625 c 4.324446,-0.177097 8.65379,-0.02867 13,0 l 0,-13.140625 c 0,-6.206549 4.98095,-11.21875 11.1875,-11.21875 l 12.671875,0 c 0.117047,-4.151407 0.345498,-8.6442138 0,-12.59375 z m 55.1875,0 c 0.171576,4.1825844 0.02441,8.379674 0,12.59375 l 13.34375,0 c 6.20655,0 11.1875,5.012201 11.1875,11.21875 l 0,13.140625 c 4.12353,-0.06477 8.34913,-0.134302 12.4375,0 l 0,-13.015625 C 122.40625,13.717394 111.5326,2.8125 98.5,2.8125 z m -79.09375,79.125 0,13.03125 c 0,13.0326 10.873644,23.9375 23.90625,23.9375 l 12.953125,0 c -0.174971,-4.26535 -0.027,-8.54601 0,-12.84375 l -12.671875,0 c -6.20655,0 -11.1875,-5.0122 -11.1875,-11.21875 l 0,-12.90625 c -4.462535,-0.04999 -9.124475,0.105347 -13,0 z m 116.0625,0 c -4.13783,0.169454 -8.27944,0.02284 -12.4375,0 l 0,12.90625 c 0,6.20655 -4.98095,11.21875 -11.1875,11.21875 l -13.34375,0 c 0.04015,4.24932 0.142065,8.62499 0,12.84375 l 13.0625,0 c 13.03261,0 23.90625,-10.90489 23.90625,-23.9375 z"
     id="rect4071"
     inkscape:connector-curvature="0"
     sodipodi:nodetypes="ssccssccsccssccssccssccssccccssccssc" />
</svg>
