<!-- Created with Inkscape (http://www.inkscape.org/) --><svg xmlns:svg="http://www.w3.org/2000/svg" width="100" id="svg2" height="100" xmlns="http://www.w3.org/2000/svg" version="1.0">
  <defs id="defs5">
    <filter x="-0.10506912" width="1.2101382" id="filter3256" height="1.2101382" y="-0.10506912" color-interpolation-filters="sRGB">
      <feGaussianBlur stdDeviation="3.8963134" id="feGaussianBlur3258"/>
    </filter>
    <filter color-interpolation-filters="sRGB" id="filter4795">
      <feGaussianBlur stdDeviation="2.2698653" id="feGaussianBlur4797"/>
    </filter>
    <clipPath id="clipPath3482">
      <path style="fill:#000000;fill-opacity:1;fill-rule:evenodd;stroke:none;stroke-width:0.30000001;marker:none;visibility:visible;display:inline;overflow:visible;enable-background:accumulate" id="path3484" d="M 101.40056,-7.5630252 -8.9635855,103.92157 109.2437,112.60504 101.40056,-7.5630252 z"/>
    </clipPath>
  </defs>
  <rect x="5.5812325" y="5.8613443" width="89" style="opacity:0.89671362;fill:#000000;fill-opacity:1;stroke:none;filter:url(#filter3256)" rx="11" id="rect2384" ry="11" height="89"/>
  <rect x="2.5" y="2.5" width="89" style="fill:#d2232a;fill-opacity:1;stroke:#ffffff;stroke-width:4;stroke-linecap:square;stroke-linejoin:miter;stroke-miterlimit:4;stroke-opacity:0.48235294;stroke-dasharray:none" rx="11" id="rect3608" ry="11" height="89"/>
  <rect x="2.5" y="2.5" clip-path="url(#clipPath3482)" width="89" style="fill:#008fd5;fill-opacity:1;stroke:#ffffff;stroke-width:4;stroke-linecap:square;stroke-linejoin:miter;stroke-miterlimit:4;stroke-opacity:0.48235294;stroke-dasharray:none" rx="11" id="rect2392" ry="11" height="89"/>
  <path style="fill:#ffd700;fill-rule:nonzero;stroke:none" id="path3231" d="m 28.718295,9.828251 c 3.571653,1.272308 6.877513,3.278612 9.665944,5.84648 2.674593,2.492515 4.943963,5.546007 6.024017,9.074052 0.732037,2.26864 0.581405,4.720138 0.0975,7.023209 -0.483392,2.145474 -1.427371,4.190582 -2.801928,5.911632 1.558965,1.524232 3.102992,3.063728 4.666003,4.583956 -0.208167,0.77883 -0.527168,1.574782 -1.167586,2.099815 -0.535485,0.462217 -1.221058,0.685689 -1.89572,0.853714 -1.526435,-1.585876 -3.060597,-3.163797 -4.587891,-4.748885 -1.902506,1.299667 -4.198353,1.984784 -6.490993,2.086042 -2.887629,0.127631 -5.774205,-0.803161 -8.1303,-2.456512 -1.270508,-0.873175 -2.415664,-1.917217 -3.466216,-3.042491 -0.179933,0.176998 -0.376307,0.335822 -0.578233,0.487085 0.05008,0.377603 0.104331,0.754718 0.156394,1.132406 -0.394274,0.02268 -0.787881,0.119095 -1.119169,0.341255 -1.02215,0.647768 -1.731952,1.653351 -2.457455,2.597364 -0.899623,1.167921 -1.70821,2.464275 -2.961939,3.291538 -0.759783,0.469366 -1.884056,0.270973 -2.349352,-0.517951 -0.486657,-0.774028 -0.205937,-1.77306 0.318245,-2.452055 1.281105,-1.882877 3.568442,-2.687611 5.000498,-4.422328 0.372456,-0.46606 0.654118,-1.006247 0.793851,-1.587761 0.365762,0.02337 0.731574,0.04715 1.097471,0.07098 0.309919,-0.314334 0.621335,-0.627071 0.93006,-0.942414 0.344215,-0.0088 0.695016,0.02789 1.034874,-0.03847 0.354745,-0.312888 0.637558,-0.697572 0.957932,-1.044143 0.350919,0.0983 0.550337,0.427475 0.804279,0.66253 1.569629,1.429548 3.364588,2.675366 5.410402,3.31067 2.616118,0.838095 5.530692,0.571841 7.984679,-0.647643 -4.915308,-5.060678 -9.81417,-10.137705 -14.722407,-15.205381 -1.100692,1.158897 -2.197094,2.322261 -3.313496,3.466047 -1.363431,-1.390907 -2.740177,-2.768685 -4.110527,-4.152737 2.582965,-2.58553 5.194802,-5.142037 7.792006,-7.713255 2.245418,0.611287 4.487952,1.233319 6.735474,1.837314 -1.535846,1.394337 -3.097064,2.760391 -4.638284,4.148749 5.121316,5.020807 10.217318,10.068137 15.346847,15.080896 1.23829,-1.506611 1.93518,-3.425022 2.029988,-5.367293 0.174677,-2.569962 -0.420006,-5.126554 -1.267143,-7.537306 -1.197495,-3.18155 -3.48694,-5.80083 -5.975285,-8.053962 -1.555246,-1.38236 -3.158095,-2.713109 -4.812539,-3.97514 l 0,0 0,0 z"/>
  <g id="g2676" transform="matrix(0.70632172,0,0,0.70632172,28.224795,21.785152)">
    <path d="m 82.539682,-49.682544 -29.791908,-21.033236 -27.6908,20.786319 10.797591,-34.833416 -28.3258923,-19.912193 36.4651863,-0.49499 10.184435,-33.09273 11.739134,34.52749 34.620222,-0.54025 -29.210005,21.834165 11.212037,32.758841 z" id="path3171" style="fill:#000000;fill-opacity:1;stroke:none;filter:url(#filter4795)" transform="matrix(0.5720625,0,0,0.5720625,19.647397,113.09899)"/>
    <path d="m 82.539682,-49.682544 -29.791908,-21.033236 -27.6908,20.786319 10.797591,-34.833416 -28.3258923,-19.912193 36.4651863,-0.49499 10.184435,-33.09273 11.739134,34.52749 34.620222,-0.54025 -29.210005,21.834165 11.212037,32.758841 z" id="path2913" style="fill:#ffffff;fill-opacity:1;stroke:none" transform="matrix(0.5720625,0,0,0.5720625,17.647397,111.09899)"/>
  </g>
  <rect x="1.6781328" y="1.6781328" width="90.643738" style="fill:none;stroke:#000000;stroke-width:2.03693795;stroke-linecap:square;stroke-linejoin:miter;stroke-miterlimit:4;stroke-opacity:1;stroke-dasharray:none" rx="11.203158" id="rect3606" ry="11.203158" height="90.643738"/>
</svg>