<!-- Created with Inkscape (http://www.inkscape.org/) --><svg width="32" xmlns:xlink="http://www.w3.org/1999/xlink" xmlns:svg="http://www.w3.org/2000/svg" id="svg2" height="32" xmlns="http://www.w3.org/2000/svg" version="1.0">
  <defs id="defs5">
    <filter x="-0.042308822" width="1.0846176" id="filter3996" height="1.2062366" y="-0.10311828" color-interpolation-filters="sRGB">
      <feGaussianBlur stdDeviation="0.35342501" id="feGaussianBlur3998"/>
    </filter>
    <filter x="-0.1121947" width="1.2243894" id="filter3964" height="1.3205931" y="-0.16029654" color-interpolation-filters="sRGB">
      <feGaussianBlur stdDeviation="0.93721377" id="feGaussianBlur3966"/>
    </filter>
    <clipPath id="clipPath4155">
      <path style="font-size:medium;font-style:normal;font-variant:normal;font-weight:normal;font-stretch:normal;text-indent:0;text-align:start;text-decoration:none;line-height:normal;letter-spacing:normal;word-spacing:normal;text-transform:none;direction:ltr;block-progression:tb;writing-mode:lr-tb;text-anchor:start;color:#000000;fill:#828282;fill-opacity:1;fill-rule:nonzero;stroke:none;stroke-width:0.99999988;marker:none;visibility:visible;display:inline;overflow:visible;enable-background:accumulate;font-family:Adobe Caslon Pro;-inkscape-font-specification:Adobe Caslon Pro" id="path4157" d="m 13.75,16.3125 c -0.185225,0 -0.371487,0.0564 -0.53125,0.125 -0.159763,0.0686 -0.314701,0.12805 -0.4375,0.34375 l -2.84375,5 c -0.1593565,0.280042 -0.2125351,0.619033 -0.0625,0.9375 0.150035,0.318467 0.512838,0.5 0.84375,0.5 l 13.53125,0 c 0.330916,0 0.693718,-0.181523 0.84375,-0.5 0.150032,-0.318477 0.0656,-0.657465 -0.09375,-0.9375 l -2.78125,-4.875 c -0.0089,-0.02153 -0.01939,-0.04243 -0.03125,-0.0625 l -0.03125,-0.0625 c -0.01937,-0.03402 -0.04133,-0.03438 -0.0625,-0.0625 -0.0099,-0.01087 -0.02038,-0.0213 -0.03125,-0.03125 -0.01097,-0.01274 -0.01993,-0.01972 -0.03125,-0.03125 -0.02876,-0.02427 -0.06028,-0.04528 -0.09375,-0.0625 -0.02548,-0.01888 -0.06748,-0.01588 -0.09375,-0.03125 -0.0099,-0.01087 -0.02038,-0.0213 -0.03125,-0.03125 -0.03752,-0.0199 -0.05595,-0.07752 -0.09375,-0.09375 -0.159763,-0.0686 -0.346029,-0.125 -0.53125,-0.125 l -7.4375,0 z"/>
    </clipPath>
    <filter x="-0.10888912" width="1.2177782" id="filter4187" height="1.267272" y="-0.13363601" color-interpolation-filters="sRGB">
      <feGaussianBlur stdDeviation="0.59381183" id="feGaussianBlur4189"/>
    </filter>
  </defs>
  <path d="m 25.455056,1031.1619 c 0,0 3.95758,6.9545 3.95758,6.9545 0.29397,0.5166 0.0964,0.9554 -0.45922,0.9554 0,0 -18.858539,0 -18.858539,0 -0.55558,0 -0.75319,-0.4388 -0.45922,-0.9554 0,0 3.95758,-6.9545 3.95758,-6.9545 0.10094,-0.1773 0.42633,-0.3158 0.73262,-0.3158 0,0 10.396579,0 10.396579,0 0.30629,0 0.63167,0.1385 0.73262,0.3158 0,0 0,0 0,0" id="use4000" style="fill:#000000;fill-opacity:0.36123346;stroke:none;filter:url(#filter3996)" transform="matrix(0.57740152,0,0,0.71736799,7.5455659,-722.89121)"/>
  <g style="fill:#000000;fill-opacity:0.57709255;filter:url(#filter3964)" id="g3874" transform="matrix(0.71736799,0,0,0.71736799,6.9885676,-720.49085)">
    <path style="fill:#000000;fill-opacity:0.57709255;stroke:none" id="use3719" d="m 22.455056,1037.9684 c 0,0 3.95758,6.9545 3.95758,6.9545 0.29397,0.5166 0.0964,0.9554 -0.45922,0.9554 0,0 -18.8585392,0 -18.8585392,0 -0.55558,0 -0.75319,-0.4388 -0.45922,-0.9554 0,0 3.9575802,-6.9545 3.9575802,-6.9545 0.10094,-0.1773 0.42633,-0.3158 0.73262,-0.3158 0,0 10.396579,0 10.396579,0 0.30629,0 0.63167,0.1385 0.73262,0.3158 0,0 0,0 0,0"/>
    <path style="fill:#000000;fill-opacity:0.57709255;stroke:none" id="use3721" d="m 22.455056,1036.0329 c 0,0 3.95758,6.9545 3.95758,6.9545 0.29397,0.5166 0.0964,0.9554 -0.45922,0.9554 0,0 -18.8585392,0 -18.8585392,0 -0.55558,0 -0.75319,-0.4388 -0.45922,-0.9554 0,0 3.9575802,-6.9545 3.9575802,-6.9545 0.10094,-0.1773 0.42633,-0.3158 0.73262,-0.3158 0,0 10.396579,0 10.396579,0 0.30629,0 0.63167,0.1385 0.73262,0.3158 0,0 0,0 0,0"/>
    <path style="fill:#000000;fill-opacity:0.57709255;stroke:none" id="use3723" d="m 22.455056,1034.0974 c 0,0 3.95758,6.9545 3.95758,6.9545 0.29397,0.5166 0.0964,0.9554 -0.45922,0.9554 0,0 -18.8585392,0 -18.8585392,0 -0.55558,0 -0.75319,-0.4388 -0.45922,-0.9554 0,0 3.9575802,-6.9545 3.9575802,-6.9545 0.10094,-0.1773 0.42633,-0.3158 0.73262,-0.3158 0,0 10.396579,0 10.396579,0 0.30629,0 0.63167,0.1385 0.73262,0.3158 0,0 0,0 0,0"/>
    <path style="fill:#000000;fill-opacity:0.57709255;stroke:none" id="path3725" d="m 22.455056,1032.1619 c 0,0 3.95758,6.9545 3.95758,6.9545 0.29397,0.5166 0.0964,0.9554 -0.45922,0.9554 0,0 -18.8585392,0 -18.8585392,0 -0.55558,0 -0.75319,-0.4388 -0.45922,-0.9554 0,0 3.9575802,-6.9545 3.9575802,-6.9545 0.10094,-0.1773 0.42633,-0.3158 0.73262,-0.3158 0,0 10.396579,0 10.396579,0 0.30629,0 0.63167,0.1385 0.73262,0.3158 0,0 0,0 0,0"/>
  </g>
  <use x="0" y="0" transform="translate(0,1.9158981)" width="32" xlink:href="#use3689" id="use3691" height="32"/>
  <use x="0" y="0" transform="translate(0,2.0171645)" width="32" xlink:href="#use3687" id="use3689" height="32"/>
  <use x="0" y="0" transform="translate(0,2.0213833)" width="32" xlink:href="#rect2818-3" id="use3687" height="32"/>
  <path style="fill:#e2f4fe;fill-opacity:1;stroke:#828282;stroke-width:0.99999988;stroke-linecap:round;stroke-linejoin:round;stroke-miterlimit:4;stroke-opacity:1;stroke-dasharray:none" id="rect2818-3" d="m 21.725777,17.0423 c 0,0 2.839041,4.988935 2.839041,4.988935 0.210885,0.370593 0.06915,0.685374 -0.32943,0.685374 0,0 -13.528512,0 -13.528512,0 -0.398555,0 -0.540314,-0.314781 -0.32943,-0.685374 0,0 2.839042,-4.988935 2.839042,-4.988935 0.07241,-0.12719 0.305835,-0.226545 0.525558,-0.226545 0,0 7.458173,0 7.458173,0 0.219722,0 0.453139,0.09935 0.525558,0.226545 0,0 0,0 0,0"/>
  <path d="m 13.950121,11.914191 c 0,0 3.939958,4.265975 3.939958,4.265975 0.235415,0.254895 0.237044,0.56202 -0.0063,0.682812 0,0 -11.0280498,5.474621 -11.0280498,5.474621 -0.434854,0.21587 -0.844265,2.4e-4 -0.907793,-0.468759 0,0 -0.967069,-7.139616 -0.967069,-7.139616 -0.02775,-0.204918 0.181607,-0.436415 0.465393,-0.523199 0,0 7.9355808,-2.425983 7.9355808,-2.425983 0.192749,-0.05892 0.444296,-6.6e-5 0.568257,0.134149 0,0 0,0 0,0" id="path4091" style="fill:none;stroke:#000000;stroke-width:2;stroke-linecap:round;stroke-linejoin:round;stroke-miterlimit:4;stroke-opacity:0.52863434;stroke-dasharray:none;filter:url(#filter4187)" clip-path="url(#clipPath4155)"/>
  <path style="fill:#e2f4fe;fill-opacity:1;stroke:#828282;stroke-width:0.99771941;stroke-linecap:round;stroke-linejoin:round;stroke-miterlimit:4;stroke-opacity:1" id="rect2818" d="m 12.844636,11.597736 c 0,0 3.939958,4.265975 3.939958,4.265975 0.235415,0.254895 0.237044,0.56202 -0.0063,0.682812 0,0 -11.0280501,5.474621 -11.0280501,5.474621 -0.434854,0.21587 -0.8442648,2.4e-4 -0.9077925,-0.468759 0,0 -0.9670694,-7.139616 -0.9670694,-7.139616 -0.027754,-0.204918 0.1816073,-0.436415 0.4653928,-0.523199 0,0 7.9355812,-2.425983 7.9355812,-2.425983 0.192749,-0.05892 0.444296,-6.6e-5 0.568257,0.134149 0,0 0,0 0,0"/>
  <use x="0" y="0" transform="matrix(0.9580028,0.28675882,-0.28675882,0.9580028,7.4747933,-5.7606471)" width="100" xlink:href="#rect2818" style="stroke:#828282;stroke-opacity:1" height="100" id="use3802"/>
  <use x="0" y="0" transform="matrix(0.9917026,0.12855332,-0.12855332,0.9917026,5.5860741,-5.0846033)" width="100" xlink:href="#use3802" style="stroke:#828282;stroke-opacity:1" height="100" id="use3804"/>
  <use x="0" y="0" transform="matrix(0.98919741,0.14658956,-0.14658956,0.98919741,6.8850587,-4.1415902)" width="100" xlink:href="#use3804" style="stroke:#828282;stroke-opacity:1" height="100" id="use3806"/>
</svg>