<?xml version="1.0" encoding="UTF-8" standalone="no"?>
<!-- Created with Inkscape (http://www.inkscape.org/) -->

<svg
   xmlns:svg="http://www.w3.org/2000/svg"
   xmlns="http://www.w3.org/2000/svg"
   version="1.0"
   width="100"
   height="100"
   id="svg2">
  <defs
     id="defs5">
    <filter
       x="-0.10506912"
       y="-0.10506912"
       width="1.2101382"
       height="1.2101382"
       color-interpolation-filters="sRGB"
       id="filter3256">
      <feGaussianBlur
         stdDeviation="3.8963134"
         id="feGaussianBlur3258" />
    </filter>
    <filter
       color-interpolation-filters="sRGB"
       id="filter4795">
      <feGaussianBlur
         stdDeviation="2.2698653"
         id="feGaussianBlur4797" />
    </filter>
    <clipPath
       id="clipPath3482">
      <path
         d="M 101.40056,-7.5630252 -8.9635855,103.92157 109.2437,112.60504 101.40056,-7.5630252 z"
         id="path3484"
         style="fill:#000000;fill-opacity:1;fill-rule:evenodd;stroke:none;stroke-width:0.30000001;marker:none;visibility:visible;display:inline;overflow:visible;enable-background:accumulate" />
    </clipPath>
  </defs>
  <rect
     width="89"
     height="89"
     rx="11"
     ry="11"
     x="5.5812325"
     y="5.8613443"
     id="rect2384"
     style="opacity:0.89671362;fill:#000000;fill-opacity:1;stroke:none;filter:url(#filter3256)" />
  <rect
     width="89"
     height="89"
     rx="11"
     ry="11"
     x="2.5"
     y="2.5"
     id="rect3608"
     style="fill:#d2232a;fill-opacity:1;stroke:#ffffff;stroke-width:4;stroke-linecap:square;stroke-linejoin:miter;stroke-miterlimit:4;stroke-opacity:0.48235294;stroke-dasharray:none" />
  <rect
     width="89"
     height="89"
     rx="11"
     ry="11"
     x="2.5"
     y="2.5"
     clip-path="url(#clipPath3482)"
     id="rect2392"
     style="fill:#008fd5;fill-opacity:1;stroke:#ffffff;stroke-width:4;stroke-linecap:square;stroke-linejoin:miter;stroke-miterlimit:4;stroke-opacity:0.48235294;stroke-dasharray:none" />
  <path
     d="m 26.028488,9.828251 c 3.027301,1.078397 5.829318,2.778922 8.192767,4.955424 2.266961,2.112633 4.190458,4.700745 5.105902,7.691084 0.620468,1.922879 0.492794,4.000747 0.08264,5.952809 -0.409719,1.818484 -1.209827,3.551899 -2.374889,5.010646 1.321364,1.291925 2.630068,2.596788 3.954862,3.88532 -0.176441,0.660129 -0.446823,1.334771 -0.989636,1.779784 -0.453872,0.391771 -1.034957,0.581184 -1.606795,0.7236 -1.293792,-1.344174 -2.594134,-2.681606 -3.888655,-4.025112 -1.612547,1.101586 -3.558486,1.682285 -5.501707,1.76811 -2.447528,0.108179 -4.894164,-0.680752 -6.891169,-2.082117 -1.076871,-0.740095 -2.047495,-1.625016 -2.937933,-2.578788 -0.15251,0.150022 -0.318955,0.28464 -0.490105,0.412849 0.04245,0.320053 0.08843,0.639692 0.132558,0.959817 -0.334183,0.01922 -0.667801,0.100944 -0.948598,0.289245 -0.866365,0.549042 -1.467987,1.401365 -2.082916,2.201502 -0.762513,0.989919 -1.447864,2.088697 -2.510513,2.789878 -0.643985,0.39783 -1.596909,0.229674 -1.99129,-0.439011 -0.412486,-0.656059 -0.17455,-1.502829 0.269742,-2.078339 1.085853,-1.59591 3.024579,-2.277995 4.238377,-3.748326 0.31569,-0.395028 0.554424,-0.852886 0.672861,-1.345772 0.310016,0.01981 0.620075,0.03996 0.930206,0.06016 0.262685,-0.266427 0.526638,-0.5315 0.788311,-0.798782 0.291753,-0.0075 0.589089,0.02364 0.87715,-0.03261 0.300678,-0.265201 0.540388,-0.591256 0.811934,-0.885006 0.297436,0.08332 0.466461,0.362324 0.6817,0.561554 1.330403,1.211672 2.851794,2.267616 4.585808,2.806094 2.217398,0.710362 4.687764,0.484688 6.767742,-0.548936 -4.166171,-4.289385 -8.318402,-8.592627 -12.47858,-12.887944 -0.932936,0.982271 -1.862237,1.968328 -2.808489,2.93779 -1.155632,-1.17892 -2.322549,-2.346712 -3.484046,-3.519822 2.189298,-2.191472 4.403068,-4.358344 6.604434,-6.537685 1.903196,0.518121 3.803948,1.04535 5.708927,1.55729 -1.301769,1.181828 -2.625043,2.339683 -3.931367,3.516443 4.340781,4.25559 8.660106,8.533662 13.007849,12.782431 1.049563,-1.27699 1.640241,-2.903018 1.720599,-4.549269 0.148055,-2.178277 -0.355993,-4.345221 -1.074019,-6.388553 C 34.157164,17.327356 32.216651,15.107278 30.107553,13.197544 28.78934,12.025868 27.43078,10.897937 26.028488,9.828251 l 0,0 0,0 z"
     id="path3231"
     style="fill:#ffd700;fill-rule:nonzero;stroke:none" />
  <text
     x="1.1509802"
     y="69.641716"
     transform="matrix(0.6877961,-0.6878229,0.7269596,0.7269313,0,0)"
     id="text3667"
     xml:space="preserve"
     style="font-size:15.05587482px;font-style:normal;font-variant:normal;font-weight:normal;font-stretch:condensed;text-align:center;line-height:100%;writing-mode:lr-tb;text-anchor:middle;fill:#ffffff;fill-opacity:1;stroke:none;font-family:Impact;-inkscape-font-specification:Impact Condensed"><tspan
       x="1.1509814"
       y="69.641716"
       id="tspan3486">Headline Phase</tspan></text>
  <g
     transform="matrix(0.6042393,0,0,0.6042393,36.419729,30.747364)"
     id="g2676">
    <path
       d="m 82.539682,-49.682544 -29.791908,-21.033236 -27.6908,20.786319 10.797591,-34.833416 -28.3258923,-19.912193 36.4651863,-0.49499 10.184435,-33.09273 11.739134,34.52749 34.620222,-0.54025 -29.210005,21.834165 11.212037,32.758841 z"
       transform="matrix(0.5720625,0,0,0.5720625,19.647397,113.09899)"
       id="path3171"
       style="fill:#000000;fill-opacity:1;stroke:none;filter:url(#filter4795)" />
    <path
       d="m 82.539682,-49.682544 -29.791908,-21.033236 -27.6908,20.786319 10.797591,-34.833416 -28.3258923,-19.912193 36.4651863,-0.49499 10.184435,-33.09273 11.739134,34.52749 34.620222,-0.54025 -29.210005,21.834165 11.212037,32.758841 z"
       transform="matrix(0.5720625,0,0,0.5720625,17.647397,111.09899)"
       id="path2913"
       style="fill:#ffffff;fill-opacity:1;stroke:none" />
  </g>
  <rect
     width="90.643738"
     height="90.643738"
     rx="11.203158"
     ry="11.203158"
     x="1.6781328"
     y="1.6781328"
     id="rect3606"
     style="fill:none;stroke:#000000;stroke-width:2.03693795;stroke-linecap:square;stroke-linejoin:miter;stroke-miterlimit:4;stroke-opacity:1;stroke-dasharray:none" />
</svg>
