<?xml version="1.0" encoding="UTF-8" standalone="no"?>
<!-- Created with Inkscape (http://www.inkscape.org/) -->

<svg
   xmlns:svg="http://www.w3.org/2000/svg"
   xmlns="http://www.w3.org/2000/svg"
   version="1.1"
   width="388"
   height="538"
   id="svg2">
  <defs
     id="defs6">
    <filter
       color-interpolation-filters="sRGB"
       id="filter3849">
      <feGaussianBlur
         id="feGaussianBlur3851"
         stdDeviation="3.8921783" />
    </filter>
  </defs>
  <path
     d="m 32.41379,40.862069 26.2069,158.620691 -27.58621,40.68965 21.89655,68.58621 -17.75862,160.37931 24.13793,20.68966 75.82759,-20.10345 46.4138,19.06897 110.41379,-10.93104 47.32801,21.43566 -26.19008,-53.60807 -1.27586,-99.2069 26.96551,-79 -23.72413,-32 31.82758,-60.82759 L 323.72414,109.89655 346.89655,43.62069 271.03448,58.103448 196.55172,36.724138 64.13793,56.034483 32.41379,40.862069 z"
     id="path3751"
     style="fill:none;stroke:#ffffff;stroke-width:5;stroke-linecap:butt;stroke-linejoin:miter;stroke-miterlimit:4;stroke-opacity:1;stroke-dasharray:none;filter:url(#filter3849)" />
  <path
     d="m 32.413793,40.862069 26.206897,158.620691 -27.586207,40.68965 21.896551,68.58621 -17.75862,160.37931 24.137931,20.68966 75.827585,-20.10345 46.4138,19.06897 110.41379,-10.93104 47.32801,21.43566 -26.19008,-53.60807 -1.27586,-99.2069 26.96551,-79 -23.72413,-32 31.82758,-60.82759 L 323.72414,109.89655 346.89655,43.62069 271.03448,58.103448 196.55172,36.724138 64.137931,56.034483 32.413793,40.862069 z M 25.000002,0 350,0 c 13.85,0 25,11.150001 25,25.000002 L 375,500 c 0,13.85 -11.15,25 -25,25 L 25.000002,525 C 11.150001,525 0,513.85 0,500 L 0,25.000002 C 0,11.150001 11.150001,0 25.000002,0 z"
     id="path3592"
     style="fill:#000000;fill-opacity:0.15859028;stroke:none" />
</svg>
