<?xml version="1.0" encoding="UTF-8" standalone="no"?>
<!-- Created with Inkscape (http://www.inkscape.org/) -->

<svg
   xmlns:svg="http://www.w3.org/2000/svg"
   xmlns="http://www.w3.org/2000/svg"
   version="1.0"
   width="100"
   height="100"
   id="svg2">
  <defs
     id="defs5">
    <filter
       x="-0.10506912"
       y="-0.10506912"
       width="1.2101382"
       height="1.2101382"
       color-interpolation-filters="sRGB"
       id="filter3256">
      <feGaussianBlur
         id="feGaussianBlur3258"
         stdDeviation="3.8963134" />
    </filter>
    <filter
       color-interpolation-filters="sRGB"
       id="filter3818">
      <feGaussianBlur
         id="feGaussianBlur3820"
         stdDeviation="1.5861172" />
    </filter>
  </defs>
  <rect
     width="89"
     height="89"
     rx="11"
     ry="11"
     x="5.5812325"
     y="5.8613443"
     id="rect2384"
     style="opacity:0.89671362;fill:#000000;fill-opacity:1;stroke:none;filter:url(#filter3256)" />
  <g
     id="g6195">
    <g
       transform="translate(111.14566,-1.459384)"
       id="g6199">
      <rect
         width="89"
         height="89"
         rx="11"
         ry="11"
         x="-108.64566"
         y="3.959384"
         id="rect3718"
         style="fill:#d2232a;fill-opacity:1;stroke:#ffffff;stroke-width:4;stroke-linecap:square;stroke-linejoin:miter;stroke-miterlimit:4;stroke-opacity:0.48235294;stroke-dasharray:none" />
      <path
         d="m -64.934813,13.018134 c 4.24688,1.51284 8.17772,3.89844 11.49331,6.95177 3.18023,2.96373 5.87863,6.59449 7.16287,10.78952 0.87043,2.69753 0.69132,5.61249 0.11593,8.35096 -0.57478,2.55108 -1.69722,4.98282 -3.33164,7.02924 1.85369,1.81239 3.68962,3.64293 5.54812,5.45056 -0.24752,0.92607 -0.62683,1.8725 -1.38832,2.49679 -0.63672,0.5496 -1.4519,0.81532 -2.25411,1.01511 -1.81501,-1.88569 -3.63921,-3.76192 -5.45524,-5.64667 -2.26218,1.54537 -4.99206,2.36001 -7.71813,2.48041 -3.43354,0.15176 -6.86583,-0.955 -9.66735,-2.92092 -1.5107,-1.03825 -2.87235,-2.27967 -4.12151,-3.61768 -0.21395,0.21046 -0.44745,0.39931 -0.68755,0.57917 0.05955,0.44899 0.12406,0.8974 0.18596,1.34649 -0.46881,0.02697 -0.93683,0.14161 -1.33075,0.40577 -1.21539,0.77023 -2.05938,1.96592 -2.92204,3.0884 -1.0697,1.38872 -2.03115,2.93015 -3.5219,3.91381 -0.90342,0.5581 -2.24024,0.3222 -2.7935,-0.61587 -0.57866,-0.92036 -0.24487,-2.10826 0.37841,-2.91562 1.5233,-2.23884 4.24306,-3.19571 5.94585,-5.25838 0.44287,-0.55417 0.77778,-1.19648 0.94393,-1.88793 0.43491,0.02779 0.86988,0.05606 1.30495,0.0844 0.36851,-0.37376 0.7388,-0.74562 1.10589,-1.12058 0.40929,-0.01059 0.82641,0.03316 1.23052,-0.04574 0.42181,-0.37204 0.75809,-0.82945 1.13903,-1.24154 0.41726,0.11689 0.65438,0.50829 0.95633,0.78778 1.86637,1.69981 4.00067,3.18115 6.43325,3.93656 3.1107,0.99654 6.57628,0.67995 9.4942,-0.77008 -5.84456,-6.01741 -11.66956,-12.05426 -17.50571,-18.07999 -1.30878,1.37799 -2.61246,2.76129 -3.93992,4.12131 -1.62119,-1.65386 -3.25821,-3.29211 -4.88763,-4.93782 3.07128,-3.07433 6.17689,-6.11415 9.2651,-9.17146 2.66992,0.72685 5.33641,1.46648 8.00883,2.18466 -1.8262,1.65794 -3.68257,3.28225 -5.51516,4.93308 6.08951,5.97 12.14892,11.97154 18.2482,17.93197 1.47239,-1.79144 2.30103,-4.07253 2.41376,-6.38199 0.2077,-3.05582 -0.49941,-6.09574 -1.5067,-8.96225 -1.42388,-3.78304 -4.14615,-6.8975 -7.10492,-9.57659 -1.84927,-1.6437 -3.75514,-3.22603 -5.72236,-4.72665 l 0,0 z"
         id="path3720"
         style="fill:#ffd700;fill-rule:nonzero;stroke:none" />
    </g>
  </g>
  <g
     id="g3815"
     style="fill:#000000;fill-opacity:1;stroke:none;filter:url(#filter3818)" />
  <rect
     width="90.643738"
     height="90.643738"
     rx="11.203158"
     ry="11.203158"
     x="1.6781328"
     y="1.6781328"
     id="rect3606"
     style="fill:none;stroke:#000000;stroke-width:2.03693795;stroke-linecap:square;stroke-linejoin:miter;stroke-miterlimit:4;stroke-opacity:1;stroke-dasharray:none" />
</svg>
