<?xml version="1.0" encoding="UTF-8" standalone="no"?>
<!-- Created with Inkscape (http://www.inkscape.org/) -->

<svg
   xmlns:svg="http://www.w3.org/2000/svg"
   xmlns="http://www.w3.org/2000/svg"
   version="1.0"
   width="388"
   height="538"
   id="svg2">
  <defs
     id="defs6">
    <filter
       color-interpolation-filters="sRGB"
       id="filter3844">
      <feGaussianBlur
         id="feGaussianBlur3846"
         stdDeviation="4.237779" />
    </filter>
  </defs>
  <path
     d="m 375.50115,26.513629 0,473.629141 c 0,13.95335 -11.26693,25.18656 -25.26218,25.18656 l -323.477934,0"
     id="rect3829"
     style="fill:none;stroke:#000000;stroke-width:5;stroke-linecap:round;stroke-linejoin:round;stroke-miterlimit:4;stroke-opacity:1;filter:url(#filter3844)" />
  <rect
     width="374.00229"
     height="524.00226"
     rx="25.262177"
     ry="25.186563"
     x="0.49885973"
     y="0.49890202"
     id="rect2818"
     style="fill:#000000;fill-opacity:1;stroke:#000000;stroke-width:1;stroke-linecap:butt;stroke-linejoin:round;stroke-miterlimit:4;stroke-opacity:1;stroke-dasharray:none" />
  <g
     id="g3710">
    <path
       d="m 93,63.625 -28.5,0"
       id="path3706"
       style="fill:none;stroke:#ffffff;stroke-width:8;stroke-linecap:butt;stroke-linejoin:miter;stroke-miterlimit:4;stroke-opacity:1;stroke-dasharray:none" />
    <path
       d="m 76,93.25 c 0,0 -0.136441,-3.966933 0,-22.75 0.03058,-4.209229 -2.80053,-6.634276 -7.25,-6.75 -8.198465,-0.21323 -11.75,0 -11.75,0"
       id="path3708"
       style="fill:none;stroke:#000000;stroke-width:16;stroke-linecap:butt;stroke-linejoin:miter;stroke-miterlimit:4;stroke-opacity:1;stroke-dasharray:none" />
    <path
       d="m 76,93.25 c 0,0 -0.136441,-3.966933 0,-22.75 0.03058,-4.209229 -2.799056,-6.766451 -7.25,-6.75 -9.948465,0.03677 -11.75,0 -11.75,0"
       id="path3702"
       style="fill:none;stroke:#ffffff;stroke-width:8;stroke-linecap:butt;stroke-linejoin:miter;stroke-miterlimit:4;stroke-opacity:1;stroke-dasharray:none" />
  </g>
  <g
     transform="translate(221,0)"
     id="g3715">
    <path
       d="m 93,63.625 -28.5,0"
       id="path3717"
       style="fill:none;stroke:#ffffff;stroke-width:8;stroke-linecap:butt;stroke-linejoin:miter;stroke-miterlimit:4;stroke-opacity:1;stroke-dasharray:none" />
    <path
       d="m 76,93.25 c 0,0 -0.136441,-3.966933 0,-22.75 0.03058,-4.209229 -2.80053,-6.634276 -7.25,-6.75 -8.198465,-0.21323 -11.75,0 -11.75,0"
       id="path3719"
       style="fill:none;stroke:#000000;stroke-width:16;stroke-linecap:butt;stroke-linejoin:miter;stroke-miterlimit:4;stroke-opacity:1;stroke-dasharray:none" />
    <path
       d="m 76,93.25 c 0,0 -0.136441,-3.966933 0,-22.75 0.03058,-4.209229 -2.799056,-6.766451 -7.25,-6.75 -9.948465,0.03677 -11.75,0 -11.75,0"
       id="path3721"
       style="fill:none;stroke:#ffffff;stroke-width:8;stroke-linecap:butt;stroke-linejoin:miter;stroke-miterlimit:4;stroke-opacity:1;stroke-dasharray:none" />
  </g>
  <g
     transform="translate(29,44)"
     id="g3723">
    <path
       d="m 93,63.625 -28.5,0"
       id="path3725"
       style="fill:none;stroke:#ffffff;stroke-width:8;stroke-linecap:butt;stroke-linejoin:miter;stroke-miterlimit:4;stroke-opacity:1;stroke-dasharray:none" />
    <path
       d="m 76,93.25 c 0,0 -0.136441,-3.966933 0,-22.75 0.03058,-4.209229 -2.80053,-6.634276 -7.25,-6.75 -8.198465,-0.21323 -11.75,0 -11.75,0"
       id="path3727"
       style="fill:none;stroke:#000000;stroke-width:16;stroke-linecap:butt;stroke-linejoin:miter;stroke-miterlimit:4;stroke-opacity:1;stroke-dasharray:none" />
    <path
       d="m 76,93.25 c 0,0 -0.136441,-3.966933 0,-22.75 0.03058,-4.209229 -2.799056,-6.766451 -7.25,-6.75 -9.948465,0.03677 -11.75,0 -11.75,0"
       id="path3729"
       style="fill:none;stroke:#ffffff;stroke-width:8;stroke-linecap:butt;stroke-linejoin:miter;stroke-miterlimit:4;stroke-opacity:1;stroke-dasharray:none" />
  </g>
  <path
     d="m 98.875,60.125 c 0,0 -0.06177,4.486377 0,25.625 0.0069,2.363632 2.88825,4.655318 5.375,4.625 1.90836,-0.02327 3.96097,-1.585746 4.625,-3.375 5.33483,-14.374997 4.62543,-24.470913 11.875,-24.625 7.24957,-0.154087 5.93287,8.151302 12.0625,24.625 0.65969,1.772954 2.67473,3.253018 4.5625,3.375 2.3301,0.150563 5.24808,-2.292784 5.25,-4.625 0.0165,-20.034244 0,-25.625 0,-25.625"
     id="path3731"
     style="fill:none;stroke:#ffffff;stroke-width:8;stroke-linecap:butt;stroke-linejoin:miter;stroke-miterlimit:4;stroke-opacity:1;stroke-dasharray:none" />
  <path
     d="m 153.5,60 0,32.875"
     id="path3733"
     style="fill:none;stroke:#ffffff;stroke-width:8;stroke-linecap:butt;stroke-linejoin:miter;stroke-miterlimit:4;stroke-opacity:1;stroke-dasharray:none" />
  <path
     d="m 168.875,59.9375 -8,0.125 c 0,0 0.0465,3.874554 0,23.5625 -0.007,2.987004 1.50954,5.077663 3.21875,6.6875 1.70921,1.609837 3.80371,2.908945 6.625,2.9375 12.75643,0.129111 17.28125,0 17.28125,0 l -4,-8 c 0,0 -0.53498,0.128375 -13.21875,0 0.22268,0.0023 -0.60737,-0.203596 -1.1875,-0.75 -0.58013,-0.546404 -0.71785,-1.263267 -0.71875,-0.875 0.0465,-19.70305 0,-23.6875 0,-23.6875 z"
     id="path3735"
     style="font-size:medium;font-style:normal;font-variant:normal;font-weight:normal;font-stretch:normal;text-indent:0;text-align:start;text-decoration:none;line-height:normal;letter-spacing:normal;word-spacing:normal;text-transform:none;direction:ltr;block-progression:tb;writing-mode:lr-tb;text-anchor:start;fill:#ffffff;fill-opacity:1;stroke:none;stroke-width:8;marker:none;visibility:visible;display:inline;overflow:visible;enable-background:accumulate;font-family:Adobe Caslon Pro;-inkscape-font-specification:Adobe Caslon Pro" />
  <path
     d="m 195.5,60 0,32.875"
     id="path3741"
     style="fill:none;stroke:#ffffff;stroke-width:8;stroke-linecap:butt;stroke-linejoin:miter;stroke-miterlimit:4;stroke-opacity:1;stroke-dasharray:none" />
  <path
     d="m 240.20779,60.496599 c 0,0 -3.39123,-4.85143 -9.20779,-4.746599 -6.50117,0.11717 -11,4.924868 -11,11 0,6.075132 4.92487,11 11,11 6.07513,0 9.29737,-4.122326 9.6213,-5.682144 0.45098,-2.171661 -0.37257,-4.086866 -2.48156,-4.086866 -5.03045,0 -6.40113,0 -6.40113,0"
     transform="matrix(1.2693083,0,0,1.2693083,-73.147738,-8.038835)"
     id="path3743"
     style="fill:#000000;fill-opacity:0.11013214;stroke:#ffffff;stroke-width:6.30264521;stroke-linecap:butt;stroke-miterlimit:4;stroke-opacity:1;stroke-dasharray:none" />
  <path
     d="m 270.75,60 0,32.875"
     id="path3752"
     style="fill:none;stroke:#ffffff;stroke-width:8;stroke-linecap:butt;stroke-linejoin:miter;stroke-miterlimit:4;stroke-opacity:1;stroke-dasharray:none" />
  <path
     d="m 245.25,60 0,32.875"
     id="path3750"
     style="fill:none;stroke:#ffffff;stroke-width:8;stroke-linecap:butt;stroke-linejoin:miter;stroke-miterlimit:4;stroke-opacity:1;stroke-dasharray:none" />
  <path
     d="m 245.25,60 c 0,0 0.0297,5.389385 0,11.5 -0.0118,2.422378 3.07775,4.722385 5.5,4.75 6.56903,0.07489 8.46388,-0.03585 14.625,0 2.50585,0.01458 5.49639,2.619107 5.5,5.125 0.0126,8.726904 0,11.375 0,11.375"
     id="path3748"
     style="fill:none;stroke:#000000;stroke-width:16;stroke-linecap:butt;stroke-linejoin:miter;stroke-miterlimit:4;stroke-opacity:1;stroke-dasharray:none" />
  <path
     d="m 245.25,60 c 0,0 0.0297,5.389385 0,11.5 -0.0118,2.422378 3.07775,4.722385 5.5,4.75 6.56903,0.07489 8.46388,-0.03585 14.625,0 2.50585,0.01458 5.49639,2.619107 5.5,5.125 0.0126,8.726904 0,11.375 0,11.375"
     id="path3746"
     style="fill:none;stroke:#ffffff;stroke-width:8;stroke-linecap:butt;stroke-linejoin:miter;stroke-miterlimit:4;stroke-opacity:1;stroke-dasharray:none" />
  <path
     d="m 217.75,113.25 c 0,0 -4.30451,-6.15796 -11.68752,-6.0249 -8.25199,0.14873 -13.96239,6.25118 -13.96239,13.96239 0,7.71122 6.25118,13.96239 13.96239,13.96239 7.71121,0 11.80123,-5.2325 12.2124,-7.21239 0.57243,-2.75651 -0.47291,-5.18749 -3.14987,-5.18749 -6.38519,0 -8.12501,0 -8.12501,0"
     id="path3754"
     style="fill:#000000;fill-opacity:0.11013214;stroke:#ffffff;stroke-width:8;stroke-linecap:butt;stroke-miterlimit:4;stroke-opacity:1;stroke-dasharray:none" />
  <path
     d="m 255.5,113.25 c 0,0 -4.30451,-6.15796 -11.68752,-6.0249 -8.25199,0.14873 -13.96239,6.25118 -13.96239,13.96239 0,7.71122 6.25118,13.96239 13.96239,13.96239 7.71121,0 11.80123,-5.2325 12.2124,-7.21239 0.57243,-2.75651 -0.47291,-5.18749 -3.14987,-5.18749 -6.38519,0 -8.12501,0 -8.12501,0"
     id="path3756"
     style="fill:#000000;fill-opacity:0.11013214;stroke:#ffffff;stroke-width:8;stroke-linecap:butt;stroke-miterlimit:4;stroke-opacity:1;stroke-dasharray:none" />
  <path
     d="m 271.625,103.9375 -8,0.125 c 0,0 0.0465,3.87455 0,23.5625 -0.007,2.987 1.50954,5.07766 3.21875,6.6875 1.70921,1.60984 3.80371,2.90895 6.625,2.9375 12.75643,0.12911 17.28125,0 17.28125,0 l -4,-8 c 0,0 -0.53498,0.12838 -13.21875,0 0.22268,0.002 -0.60737,-0.2036 -1.1875,-0.75 -0.58013,-0.5464 -0.71785,-1.26327 -0.71875,-0.875 0.0465,-19.70305 0,-23.6875 0,-23.6875 z"
     id="path3758"
     style="font-size:medium;font-style:normal;font-variant:normal;font-weight:normal;font-stretch:normal;text-indent:0;text-align:start;text-decoration:none;line-height:normal;letter-spacing:normal;word-spacing:normal;text-transform:none;direction:ltr;block-progression:tb;writing-mode:lr-tb;text-anchor:start;fill:#ffffff;fill-opacity:1;stroke:none;stroke-width:8;marker:none;visibility:visible;display:inline;overflow:visible;enable-background:accumulate;font-family:Adobe Caslon Pro;-inkscape-font-specification:Adobe Caslon Pro" />
  <path
     d="m 82.875,107.5 c 0,0 -4.771436,-0.26446 -18.625,0 -2.880484,0.055 -4.951089,3.49823 -4.875,7 0.07784,3.58233 2.291746,6.47928 4.875,6.625 5.069797,0.28599 7.15219,-0.14338 12,0 2.116563,0.0626 4.625,2.75458 4.625,6.25 0,4.37983 -3.122523,6.56494 -6.25,6.625 C 60.137931,134.2758 57,134 57,134"
     id="path3760"
     style="fill:none;stroke:#ffffff;stroke-width:8;stroke-linecap:butt;stroke-linejoin:miter;stroke-miterlimit:4;stroke-opacity:1;stroke-dasharray:none" />
  <path
     d="m 124.375,103.75 0,4 0,29.125 8,0 0,-25.125 14,0 c -0.14038,0 0.4997,0.15744 1.125,0.9375 0.6253,0.78006 1.0001,1.97965 1,2.3125 -3.3e-4,1.09363 -0.099,1.07741 -0.71875,1.625 -0.61978,0.54759 -1.92123,1.23011 -3.53125,2.25 -0.23285,0.1475 -1.26166,0.54984 -2.5625,1.28125 -0.65042,0.3657 -1.40988,0.82256 -2.15625,1.6875 -0.74637,0.86494 -1.41471,2.23302 -1.46875,3.625 l 0,0.0312 c -0.0629,1.89463 0.81287,3.65508 1.59375,4.625 0.7853,0.9754 1.44542,1.48942 1.65625,1.71875 5.67437,6.1722 4.84375,4.71875 4.84375,4.71875 l 10.8125,0 c 0,0 -4.14988,-4.03083 -9.78125,-10.15625 -0.0349,-0.038 -0.0287,-0.0262 -0.0625,-0.0625 0.48692,-0.22797 0.71908,-0.30325 1.375,-0.71875 1.02036,-0.64637 2.7777,-1.42307 4.5625,-3 1.7848,-1.57693 3.43654,-4.383 3.4375,-7.625 8.4e-4,-2.83081 -1.10348,-5.25847 -2.75,-7.3125 -1.64652,-2.05403 -4.07097,-3.9375 -7.375,-3.9375 l -18,0 -4,0 0,5e-5 0,0 z"
     id="path3762"
     style="font-size:medium;font-style:normal;font-variant:normal;font-weight:normal;font-stretch:normal;text-indent:0;text-align:start;text-decoration:none;line-height:normal;letter-spacing:normal;word-spacing:normal;text-transform:none;direction:ltr;block-progression:tb;writing-mode:lr-tb;text-anchor:start;fill:#ffffff;fill-opacity:1;stroke:none;stroke-width:8;marker:none;visibility:visible;display:inline;overflow:visible;enable-background:accumulate;font-family:Adobe Caslon Pro;-inkscape-font-specification:Adobe Caslon Pro" />
  <path
     d="m 162.625,104.125 c 0,0 0,6.76428 0,22.625 0,4.1353 5.24004,8.07205 9.375,8.125 4.2623,0.0546 9.875,-3.86236 9.875,-8.125 0,-16.95726 0,-22.625 0,-22.625"
     id="path3768"
     style="fill:none;stroke:#ffffff;stroke-width:8;stroke-linecap:butt;stroke-linejoin:miter;stroke-miterlimit:4;stroke-opacity:1;stroke-dasharray:none" />
  <path
     d="m 314.25,107.375 c 0,0 -5.37356,-0.0742 -16.5,0 -2.21143,0.0148 -4.375,2.41352 -4.375,4.875 0,2.63119 3.26433,4.3303 5.125,6 1.84293,1.65378 1.95914,3.46831 0,5.625 -1.70348,1.87525 -5.125,3.73152 -5.125,6.125 0,1.92615 1.82385,3.625 4.375,3.625 11.78682,0 16.125,0 16.125,0"
     id="path3770"
     style="fill:none;stroke:#ffffff;stroke-width:8;stroke-linecap:butt;stroke-linejoin:miter;stroke-miterlimit:4;stroke-opacity:1;stroke-dasharray:none" />
  <rect
     width="54"
     height="55"
     rx="5.624999"
     ry="5.624999"
     x="161"
     y="419"
     id="rect4148"
     style="fill:#d21832;fill-opacity:1;stroke:none" />
  <g
     transform="matrix(1.090772,0,0,1.090772,-122.78304,-47.32436)"
     id="g4159">
    <path
       d="m 276.23047,437.65955 c -0.71788,-2.66336 -1.81261,-4.43997 -3.36874,-4.43997 -2.12069,0 -4.30872,4.57329 -4.30872,13.89815 0,7.06147 1.52174,12.38974 4.1554,12.38974 0.58176,0 1.59052,-0.3116 1.8642,-0.79994 0.0516,-0.71157 0.0516,-1.82001 0.0516,-3.10673 0,-4.79653 -0.10317,-6.79483 -0.12036,-7.63817 0.2221,0.0884 0.56456,0.22168 1.26525,0.22168 0.82105,0 1.16351,-0.13332 1.38561,-0.22168 -0.086,0.93171 -0.13756,4.61824 -0.13756,7.45988 0,1.86498 0.0172,4.21673 0.0516,4.88335 -1.48735,1.11154 -3.06067,1.95489 -4.56521,1.95489 -3.93331,0 -6.75611,-5.81816 -6.75611,-14.87637 0,-11.2782 3.0621,-16.91808 7.07994,-16.91808 1.72807,0 2.89015,0.97822 4.12244,2.66491 -0.18914,1.50997 -0.37685,3.01993 -0.48002,4.52834 l -0.23929,0 -3e-5,0 z"
       id="path585"
       style="fill:#ffffff;fill-opacity:1;fill-rule:nonzero;stroke:none" />
    <path
       d="m 281.13814,441.52436 c -0.35965,6.70491 -0.51297,13.45323 -0.68349,20.15814 -0.27512,-0.13178 -0.54737,-0.22169 -0.80529,-0.22169 -0.27225,0 -0.53017,0.0899 -0.80242,0.22169 0.71788,-10.21162 1.28244,-20.42478 1.76103,-30.63795 0.23929,0.13333 0.46139,0.22169 0.70069,0.22169 0.2221,0 0.46139,-0.0884 0.68349,-0.22169 1.24948,7.05992 2.70244,14.96319 3.9505,21.22472 1.35122,-6.61499 2.75402,-14.1648 3.98488,-21.22472 0.24073,0.13333 0.49578,0.22169 0.73651,0.22169 0.23929,0 0.47859,-0.0884 0.71788,-0.22169 0.4442,10.21317 1.04315,24.37796 1.47015,30.63795 -0.46139,-0.13178 -0.92278,-0.22169 -1.38561,-0.22169 -0.46139,0 -0.93998,0.0899 -1.41857,0.22169 -0.12036,-6.17162 -0.41124,-13.71987 -0.68349,-20.60306 l -0.0344,0 c -1.28244,6.88319 -2.54912,13.72142 -3.77998,20.60306 -0.10317,-0.0434 -0.2221,-0.0884 -0.32527,-0.0884 -0.10179,0 -0.22209,0.0449 -0.32383,0.0884 -1.2151,-6.70491 -2.44596,-13.45323 -3.7284,-20.15814 l -0.0344,0 2e-5,0 z"
       id="path587"
       style="fill:#ffffff;fill-opacity:1;fill-rule:nonzero;stroke:none" />
    <path
       d="m 296.99171,438.28275 c 0,-1.68824 0,-3.28656 -0.0516,-3.90822 -0.66773,0 -2.10349,0.26665 -3.12945,0.57825 0.0516,-0.66662 0.086,-1.28827 0.086,-1.95489 0,-0.66506 -0.0344,-1.28827 -0.086,-1.95334 1.55613,0.13333 2.32559,0.22169 4.44628,0.22169 2.12069,0 2.89015,-0.0884 4.34454,-0.22169 -0.0516,0.66507 -0.086,1.28828 -0.086,1.95334 0,0.66662 0.0344,1.28827 0.086,1.95489 -0.92421,-0.3116 -2.36141,-0.57825 -3.0449,-0.57825 -0.0344,0.62166 -0.0344,2.21998 -0.0344,3.90822 l 0,11.09992 c 0,4.97481 0.0344,8.39315 0.13756,12.29983 -0.37685,-0.0884 -0.83825,-0.22169 -1.40281,-0.22169 -0.56456,0 -1.02595,0.13332 -1.4028,0.22169 0.10316,-3.90668 0.13755,-7.32502 0.13755,-12.29983 l 0,-11.09992 3e-5,0 z"
       id="path589"
       style="fill:#ffffff;fill-opacity:1;fill-rule:nonzero;stroke:none" />
    <path
       d="m 272.46625,467.70219 c -0.47859,-0.73948 -1.20793,-1.23247 -2.24392,-1.23247 -1.41283,0 -2.87152,1.26967 -2.87152,3.86017 0,1.95799 1.01306,3.43849 2.76836,3.43849 0.38688,0 1.06034,-0.0868 1.24232,-0.22324 0.0344,-0.19688 0.0344,-0.50383 0.0344,-0.86194 0,-1.33168 -0.0688,-1.88668 -0.0802,-2.12077 0.14759,0.0264 0.37686,0.062 0.84398,0.062 0.54737,0 0.7752,-0.0357 0.92279,-0.062 -0.0573,0.25889 -0.0917,1.28207 -0.0917,2.07116 0,0.51934 0.0115,1.172 0.0344,1.35648 -0.99156,0.3085 -2.04045,0.5426 -3.04204,0.5426 -2.62077,0 -4.50216,-1.61538 -4.50216,-4.12992 0,-3.13154 2.04044,-4.69731 4.71853,-4.69731 1.15061,0 1.92581,0.26975 2.74686,0.73948 -0.12609,0.42012 -0.25219,0.83869 -0.31954,1.25727 l -0.16048,0 -8e-5,0 z"
       id="path591"
       style="fill:#ffffff;fill-opacity:1;fill-rule:nonzero;stroke:none" />
    <path
       d="m 278.23653,471.11743 c -0.331,-0.99683 -0.64911,-1.97195 -1.01449,-2.93311 -0.38689,0.96116 -0.74081,1.93628 -1.07181,2.93311 l 2.0863,0 0,0 z m 3.01911,3.25401 c -0.36396,-0.0233 -0.68349,-0.0604 -1.00303,-0.0604 -0.3181,0 -0.6491,0.0372 -0.96864,0.0604 -0.23929,-0.83715 -0.50151,-1.68824 -0.78522,-2.52694 -0.49005,-0.0124 -0.96864,-0.0233 -1.45869,-0.0233 -0.39978,0 -0.78666,0.0112 -1.18501,0.0233 -0.30807,0.8387 -0.55883,1.67739 -0.7752,2.52694 -0.18197,-0.0233 -0.35392,-0.0604 -0.5359,-0.0604 -0.18198,0 -0.35249,0.0372 -0.57029,0.0604 0.55883,-1.36734 2.26827,-5.75615 3.24838,-8.56678 0.14758,0.0232 0.28514,0.0604 0.43273,0.0604 0.14902,0 0.28515,-0.0372 0.43417,-0.0604 0.9672,2.81063 2.30123,6.55918 3.1667,8.56678"
       id="path593"
       style="fill:#ffffff;fill-opacity:1;fill-rule:nonzero;stroke:none" />
    <path
       d="m 283.34624,468.77652 c -0.2393,1.86032 -0.34247,3.73305 -0.4571,5.59492 -0.18054,-0.0372 -0.36395,-0.0604 -0.53447,-0.0604 -0.18341,0 -0.35392,0.0233 -0.5359,0.0604 0.47859,-2.83389 0.854,-5.67088 1.17354,-8.50632 0.16049,0.0387 0.30807,0.062 0.46713,0.062 0.14902,0 0.30807,-0.0233 0.45566,-0.062 0.83251,1.96109 1.80115,4.15627 2.63223,5.89412 0.89986,-1.83707 1.83554,-3.93303 2.65516,-5.89412 0.16048,0.0387 0.33099,0.062 0.49005,0.062 0.16048,0 0.31953,-0.0233 0.48002,-0.062 0.29517,2.83544 0.69495,6.76847 0.97867,8.50632 -0.30664,-0.0372 -0.61472,-0.0604 -0.92279,-0.0604 -0.30664,0 -0.62618,0.0233 -0.94571,0.0604 -0.0802,-1.71305 -0.27369,-3.80901 -0.45566,-5.72049 l -0.0229,0 c -0.85401,1.91148 -1.69798,3.81056 -2.51903,5.72049 -0.0673,-0.0112 -0.14759,-0.0233 -0.21637,-0.0233 -0.0674,0 -0.14759,0.0124 -0.21637,0.0233 -0.80815,-1.86187 -1.6292,-3.7346 -2.48464,-5.59492 l -0.0214,0 -1.2e-4,0 z"
       id="path595"
       style="fill:#ffffff;fill-opacity:1;fill-rule:nonzero;stroke:none" />
    <path
       d="m 292.46662,469.28036 c 0,-1.37974 -0.0229,-2.33005 -0.0902,-3.41524 0.67203,0.0124 1.35552,0.062 2.02755,0.062 1.11766,0 2.0734,-0.0233 2.38147,-0.062 -0.0216,0.14882 -0.0459,0.2961 -0.0459,0.51779 0,0.25889 0.0244,0.37051 0.0459,0.55499 -0.86547,-0.062 -2.23245,-0.14727 -2.57491,-0.14727 -0.0573,0.89915 -0.0573,1.78746 -0.0573,2.68661 0.99157,-0.0232 1.72091,-0.048 2.58638,-0.0976 -0.0444,0.2837 -0.0558,0.39377 -0.0558,0.55499 0,0.13488 0.0229,0.2465 0.0558,0.50539 -0.86547,-0.0744 -1.71948,-0.11013 -2.58638,-0.11013 0,0.51624 -0.0115,1.04643 -0.0115,1.57662 0,0.51779 0.0115,1.04798 0.0358,1.54097 0.85401,0 1.73094,-0.0496 2.60788,-0.15968 -0.0215,0.17208 -0.0459,0.2961 -0.0459,0.555 0,0.25889 0.0244,0.38136 0.0459,0.52864 -0.40981,-0.0112 -0.94572,-0.0604 -1.99316,-0.0604 -1.85847,0 -2.16511,0.0372 -2.41587,0.0604 0.0673,-1.08364 0.0902,-2.0324 0.0902,-3.41524 l 0,-1.67584 4e-5,0 z"
       id="path597"
       style="fill:#ffffff;fill-opacity:1;fill-rule:nonzero;stroke:none" />
    <path
       d="m 301.63287,467.53011 c -0.2393,-0.70228 -0.6835,-1.06039 -1.37988,-1.06039 -0.69496,0 -1.18501,0.51779 -1.18501,1.10999 0,1.82467 3.46475,1.36889 3.46475,4.16712 0,1.65104 -1.20794,2.78584 -3.01912,2.78584 -0.82105,0 -1.50454,-0.2589 -1.83554,-0.5302 0.14759,-0.56739 0.25076,-1.01077 0.331,-1.56577 l 0.21637,0 c 0.12466,0.71623 0.6491,1.33168 1.57189,1.33168 0.88839,0 1.33402,-0.56739 1.33402,-1.25881 0,-1.86033 -3.39596,-1.36734 -3.39596,-4.16557 0,-1.7022 1.20793,-2.63856 2.56345,-2.63856 0.82105,0 1.43576,0.23409 1.8685,0.60461 -0.13613,0.38136 -0.21494,0.67746 -0.36396,1.22006 l -0.17051,0 0,0 z"
       id="path599"
       style="fill:#ffffff;fill-opacity:1;fill-rule:nonzero;stroke:none" />
  </g>
  <path
     d="m 295,296.5 c 0,59.09447 -47.90553,107 -107,107 -59.09447,0 -107,-47.90553 -107,-107 0,-59.09447 47.90553,-107 107,-107 59.09447,0 107,47.90553 107,107 l 0,0 z"
     id="path2890"
     style="fill:#696975;fill-opacity:1;stroke:none" />
  <path
     d="m 138.5,210 100,173.5 -100.5,0 101,-175 52,88 -201,0 48.5,-86.5 z"
     id="path3664"
     style="fill:#000000;fill-opacity:1;stroke:none" />
  <path
     d="m 154,336 -29.70987,-20.89188 -29.061881,21.78426 10.688501,-34.71171 -29.69867,-20.90779 36.31572,-0.56114 10.7071,-34.70598 11.75585,34.36491 36.31602,-0.54169 L 142.26256,301.6288 154,336 z"
     transform="matrix(0.9998106,0.01946309,-0.01946309,0.9998106,7.1946271,1.645351)"
     id="path3666"
     style="fill:#0072bb;fill-opacity:1;stroke:#ffffff;stroke-width:3;stroke-miterlimit:4;stroke-opacity:1;stroke-dasharray:none" />
  <path
     d="m 239.5625,260.1875 -22.09375,0.0312 -19.15625,19.15625 11.0625,11.0625 7.75,-7.78125 1.21875,-1.25 1.25,1.25 32.375,32.34375 c 1.77167,-1.28008 3.61019,-2.82708 5.5,-4.71875 1.367,-1.36835 2.50355,-2.8123 3.46875,-4.3125 l -32.34375,-32.3125 -1.25,-1.25 1.25,-1.21875 10.96875,-11 0,5e-5 z m 36.25,60.625 c -1.29787,1.70504 -2.73177,3.38627 -4.375,5.03125 -1.50387,1.50562 -3.01536,2.85772 -4.53125,4.09375 l 15.78125,15.75 c 2.50089,2.4967 6.50445,2.49949 9,0 2.49907,-2.50122 2.50012,-6.50382 0,-9 l -15.875,-15.875 z"
     id="path186"
     style="fill:#f0cf14;fill-opacity:1;fill-rule:nonzero;stroke:none" />
  <path
     d="m 245.65625,242.59375 c 6.1764,6.49348 13.41541,16.60345 18.125,27.90625 2.98845,7.17215 4.93906,14.76811 4.6875,22.09375 -0.25156,7.32564 -2.75337,14.40397 -8.5,20.15625 -11.18988,11.20089 -21.69008,12.06705 -29.125,9.8125 -6.41906,-1.9465 -10.02869,-5.56568 -11.0625,-6.65625 -1.18696,0.25363 -8.84429,1.95606 -14.1875,6.3125 l -0.1875,0.15625 -0.25,0.0937 c -5.77858,2.40795 -13.35818,7.69975 -15.21875,9.5625 l -3.28125,3.28125 c -2.94685,2.94899 -2.94959,7.67512 0,10.625 2.95196,2.94542 7.68074,2.9531 10.625,0 l 3.28125,-3.28125 c 1.26416,-1.25982 4.18613,-5.28483 6.59375,-9.46875 l 0.25,-0.40625 0.40625,-0.21875 5,-2.90625 0.96875,-0.5625 0.90625,0.65625 c 0,0 6.96904,5.00151 17.25,6.71875 10.28096,1.71724 23.66284,0.25904 37,-13.09375 9.10529,-9.11498 12.17025,-18.89172 11.6875,-28.59375 -0.48275,-9.70203 -4.61994,-19.36367 -10.1875,-27.78125 -5.56756,-8.41758 -12.55651,-15.56458 -18.53125,-20.25 -2.33264,-1.82927 -4.40865,-3.15708 -6.25,-4.15625 l 0,5e-5 z"
     id="path190"
     style="fill:#f0cf14;fill-opacity:1;fill-rule:nonzero;stroke:none" />
  <g
     id="text3741"
     style="font-size:14.5px;font-style:normal;font-variant:normal;font-weight:bold;font-stretch:normal;text-align:center;line-height:100%;writing-mode:lr-tb;text-anchor:middle;fill:#ffffff;fill-opacity:1;stroke:none;font-family:ITC Kabel LT Demi;-inkscape-font-specification:ITC Kabel LT Demi Bold">
    <path
       d="m 97.659625,155.1445 2.711505,0 0,8.2215 1.91399,-0.116 0,-8.1055 2.4795,0 0,-1.8415 -6.640995,0 -0.464,1.8415"
       id="path3747" />
    <path
       d="m 111.79712,157.189 -4.03099,0 0,-4.118 -1.914,0.232 0,10.063 1.914,-0.116 0,-4.2195 4.03099,0 0,4.3355 1.914,-0.116 0,-10.179 -1.914,0.232 0,3.886"
       id="path3749" />
    <path
       d="m 121.10567,163.25 0.609,-1.8415 -4.2195,0 0,-2.436 3.016,0 0,-1.8415 -3.016,0 0,-1.9865 3.7555,0 -0.319,-1.8415 -5.3505,0 0,9.947 5.5245,0"
       id="path3751" />
    <path
       d="m 133.39216,160.698 c -0.522,0.4205 -1.1455,0.8265 -1.943,0.8265 -1.6675,0 -3.0595,-1.392 -3.0595,-3.248 0,-1.682 1.218,-3.248 2.9725,-3.248 0.8265,0 1.4935,0.29 2.0155,0.7105 l -0.319,-2.3055 c -0.406,-0.2465 -1.131,-0.3625 -1.6095,-0.3625 -2.9725,0 -5.0605,2.3345 -5.0605,5.2055 0,2.9 2.0445,5.2055 5.1185,5.2055 0.4495,0 1.2035,-0.1305 1.624,-0.377 l 0.261,-2.407"
       id="path3753" />
    <path
       d="m 134.37295,158.2765 c 0,2.8855 2.378,5.2055 5.249,5.2055 2.87099,0 5.249,-2.32 5.249,-5.2055 0,-2.8855 -2.37801,-5.2055 -5.249,-5.2055 -2.871,0 -5.249,2.32 -5.249,5.2055 m 2.001,0 c 0,-1.769 1.479,-3.248 3.248,-3.248 1.76899,0 3.248,1.479 3.248,3.248 0,1.769 -1.47901,3.248 -3.248,3.248 -1.769,0 -3.248,-1.479 -3.248,-3.248"
       id="path3755" />
    <path
       d="m 151.28493,163.25 0.4785,-1.8415 -3.625,0 0,-8.3375 -1.914,0.232 0,9.947 5.0605,0"
       id="path3757" />
    <path
       d="m 154.43664,161.4085 0,-6.264 0.928,0 c 1.595,0 2.755,1.363 2.755,3.0595 0,1.5805 -0.9135,3.2045 -2.668,3.2045 l -1.015,0 m -1.914,1.8415 2.639,0 c 2.349,0 4.959,-1.711 4.959,-5.046 0,-2.726 -2.1315,-4.901 -4.582,-4.901 l -3.016,0 0,9.947"
       id="path3759" />
    <path
       d="m 170.62838,159.0015 1.972,4.4805 0.029,0 4.292,-10.179 -2.001,-0.232 -2.436,6.09 -0.957,-2.1315 1.5805,-3.7265 -1.6965,-0.232 -0.783,1.914 -0.783,-1.914 -1.6965,0.232 1.537,3.7265 -0.9715,2.2185 -2.436,-6.177 -1.9865,0.232 4.321,10.179 0.029,0 1.9865,-4.4805"
       id="path3761" />
    <path
       d="m 180.32548,156.58 1.1455,2.697 -2.233,0 1.0875,-2.697 m -3.0015,6.902 1.16,-2.523 3.8135,0 1.189,2.523 2.0445,-0.3045 -5.191,-10.1065 -0.029,0 -5.0025,10.1065 2.0155,0.3045"
       id="path3763" />
    <path
       d="m 186.21203,163.366 1.914,-0.116 0,-4.9735 0.029,0 3.3785,5.2055 2.088,-0.5075 -2.7115,-4.002 c 1.1745,-0.377 1.914,-1.3775 1.914,-2.61 0,-2.1315 -1.508,-3.0595 -3.422,-3.0595 l -3.19,0 0,10.063 m 1.914,-8.2215 0.7395,0 c 0.9425,0 1.8125,0.1305 1.8125,1.276 0,1.1165 -0.9135,1.392 -1.856,1.392 l -0.696,0 0,-2.668"
       id="path3765" />
    <path
       d="m 194.63132,160.93 -1.3485,4.495 1.421,0 1.885,-4.669 -1.9575,0.174"
       id="path3767" />
    <path
       d="m 204.83479,156.29 0,7.134 1.8415,-0.174 0,-10.179 -4.35,3.393 0.754,1.044 1.7545,-1.218"
       id="path3769" />
    <path
       d="m 213.12358,163.482 0.9425,-1.044 c 1.4935,-1.6385 3.219,-3.6395 3.219,-5.6985 0,-1.9575 -1.508,-3.6685 -3.5815,-3.6685 -2.0445,0 -3.8135,1.392 -3.8135,3.4945 0,1.653 1.2905,3.3205 3.132,3.3205 0.406,0 0.783,-0.029 1.131,-0.174 l 0,0.029 c -0.6235,0.8265 -1.4355,1.566 -2.2475,2.262 l -0.667,0.5945 1.885,0.8845 m 2.2475,-6.9165 c 0,0.9715 -0.7975,1.7255 -1.7835,1.7255 -1.0005,0 -1.7835,-0.7395 -1.7835,-1.7255 0,-0.9715 0.7685,-1.7545 1.7835,-1.7545 1.0005,0 1.7835,0.7975 1.7835,1.7545"
       id="path3771" />
    <path
       d="m 221.67337,155.4925 0.029,0 0,3.77 -1.856,0 1.827,-3.77 m 1.8705,-2.1895 -2.1895,0 -3.625,6.873 0,0.7685 3.973,0 0,2.4215 1.8415,-0.116 0,-2.3055 1.3195,0 0.348,-1.682 -1.6675,0 0,-5.9595"
       id="path3773" />
    <path
       d="m 226.87366,158.7115 c 0.725,-0.435 1.2615,-0.6815 2.1605,-0.6815 1.189,0 2.088,0.6815 2.088,1.8705 0,1.044 -0.841,1.8415 -1.8125,1.8415 -1.0875,0 -1.5515,-0.348 -2.291,-0.9425 l -1.1745,1.392 c 0.8265,0.754 2.1025,1.2905 3.2335,1.2905 2.16049,0 3.9585,-1.218 3.9585,-3.4945 0,-1.9865 -1.56601,-3.5525 -3.3205,-3.5525 -0.261,0 -0.5945,0.0145 -0.928,0.087 l 0,-1.479 2.929,0 0.696,-1.74 -5.539,0 0,5.4085"
       id="path3775" />
    <path
       d="m 234.27795,160.3645 3.625,0 0,-1.595 -3.625,0 0,1.595"
       id="path3777" />
    <path
       d="m 241.96272,156.29 0,7.134 1.8415,-0.174 0,-10.179 -4.35,3.393 0.754,1.044 1.7545,-1.218"
       id="path3779" />
    <path
       d="m 250.25151,163.482 0.9425,-1.044 c 1.4935,-1.6385 3.219,-3.6395 3.219,-5.6985 0,-1.9575 -1.508,-3.6685 -3.5815,-3.6685 -2.0445,0 -3.8135,1.392 -3.8135,3.4945 0,1.653 1.2905,3.3205 3.132,3.3205 0.406,0 0.783,-0.029 1.131,-0.174 l 0,0.029 c -0.6235,0.8265 -1.4355,1.566 -2.2475,2.262 l -0.667,0.5945 1.885,0.8845 m 2.2475,-6.9165 c 0,0.9715 -0.7975,1.7255 -1.7835,1.7255 -1.0005,0 -1.7835,-0.7395 -1.7835,-1.7255 0,-0.9715 0.7685,-1.7545 1.7835,-1.7545 1.0005,0 1.7835,0.7975 1.7835,1.7545"
       id="path3781" />
    <path
       d="m 258.5403,158.958 0.1305,-0.0435 0.319,0.116 c 0.5655,0.203 1.392,0.6815 1.392,1.4935 0,0.7395 -0.5365,1.218 -1.711,1.218 -0.87,0 -1.6965,-0.435 -1.6965,-1.218 0,-0.7975 0.8555,-1.363 1.566,-1.566 m 0.0145,-4.147 c 0.725,0 1.537,0.319 1.537,1.16 0,0.638 -0.812,1.2615 -1.421,1.2615 -0.6235,0 -1.4065,-0.6815 -1.4065,-1.334 0,-0.696 0.6525,-1.0875 1.2905,-1.0875 m 0.087,-1.74 c -1.8705,0 -3.2915,0.899 -3.2915,2.929 0,0.8555 0.5945,1.7545 1.3485,2.088 -0.928,0.493 -1.6385,1.247 -1.6385,2.3635 0,2.146 1.682,3.0305 3.5815,3.0305 1.7835,0 3.654,-0.783 3.654,-2.8565 0,-1.1455 -0.58,-2.059 -1.5805,-2.5375 0.9135,-0.5365 1.2905,-1.189 1.2905,-2.233 0,-1.885 -1.682,-2.784 -3.364,-2.784"
       id="path3783" />
    <path
       d="m 266.39409,163.482 0.9425,-1.044 c 1.49349,-1.6385 3.219,-3.6395 3.219,-5.6985 0,-1.9575 -1.50801,-3.6685 -3.5815,-3.6685 -2.0445,0 -3.8135,1.392 -3.8135,3.4945 0,1.653 1.2905,3.3205 3.132,3.3205 0.406,0 0.783,-0.029 1.131,-0.174 l 0,0.029 c -0.6235,0.8265 -1.4355,1.566 -2.2475,2.262 l -0.667,0.5945 1.885,0.8845 m 2.2475,-6.9165 c 0,0.9715 -0.79751,1.7255 -1.7835,1.7255 -1.0005,0 -1.7835,-0.7395 -1.7835,-1.7255 0,-0.9715 0.7685,-1.7545 1.7835,-1.7545 1.00049,0 1.7835,0.7975 1.7835,1.7545"
       id="path3785" />
  </g>
</svg>
