<?xml version="1.0" encoding="UTF-8" standalone="no"?>
<!-- Created with Inkscape (http://www.inkscape.org/) -->

<svg
   xmlns:svg="http://www.w3.org/2000/svg"
   xmlns="http://www.w3.org/2000/svg"
   version="1.1"
   width="388"
   height="538"
   id="svg2">
  <defs
     id="defs6" />
  <text
     x="193.08847"
     y="275.58746"
     transform="scale(0.97008297,1.0308397)"
     id="text4245"
     xml:space="preserve"
     style="font-size:28px;font-style:normal;font-variant:normal;font-weight:bold;font-stretch:normal;text-align:center;line-height:120.00000477%;writing-mode:lr-tb;text-anchor:middle;fill:#000000;fill-opacity:1;stroke:none;font-family:Georgia;-inkscape-font-specification:Georgia Bold"><tspan
       x="193.08847"
       y="275.58746"
       id="tspan3049"
       style="font-size:28px;font-style:normal;font-variant:normal;font-weight:bold;font-stretch:normal;text-align:center;line-height:120.00000477%;writing-mode:lr-tb;text-anchor:middle;font-family:Georgia;-inkscape-font-specification:Georgia Bold">CIA CREATED*</tspan></text>
  <text
     x="188.375"
     y="321"
     id="text4249"
     xml:space="preserve"
     style="font-size:20px;font-style:normal;font-variant:normal;font-weight:normal;font-stretch:normal;text-align:center;line-height:120.00000477%;writing-mode:lr-tb;text-anchor:middle;fill:#000000;fill-opacity:1;stroke:none;font-family:Georgia;-inkscape-font-specification:Georgia"><tspan
       x="188.375"
       y="321"
       id="tspan2978">USSR reveals hand this turn.</tspan></text>
  <text
     x="187.90234"
     y="354"
     id="text3337"
     xml:space="preserve"
     style="font-size:20px;font-style:normal;font-variant:normal;font-weight:normal;font-stretch:normal;text-align:center;line-height:120.00000477%;writing-mode:lr-tb;text-anchor:middle;fill:#000000;fill-opacity:1;stroke:none;font-family:Georgia;-inkscape-font-specification:Georgia"><tspan
       x="187.90234"
       y="354"
       id="tspan2973">Then the US may Conduct</tspan><tspan
       x="187.90234"
       y="378"
       id="tspan2975">Operations as if they played a</tspan><tspan
       x="187.90234"
       y="402"
       id="tspan2977">1 Op card.</tspan></text>
  <g
     transform="matrix(0.2866632,0,0,0.2866637,109.97197,186.82272)"
     id="g3365">
    <g
       transform="translate(4.31437,5.01977)"
       id="g2018">
      <path
         d="M 270.0585,176.20484 C 408.333,174.99704 519.45497,61.931494 518.25496,-76.344194 517.05184,-214.62612 403.97048,-325.74417 265.69068,-324.54417 127.40932,-323.32543 16.292348,-210.2574 17.50485,-71.977971 18.703914,66.296467 131.79307,177.42327 270.0585,176.20484 l 0,0 z"
         id="path13"
         style="fill:#fccc0f;stroke-width:0.5;stroke-miterlimit:4;stroke-dasharray:none" />
      <path
         d="M 270.0585,176.20472 C 408.33292,174.99691 519.45484,61.931432 518.25484,-76.344188 517.05171,-214.62606 403.97041,-325.74405 265.69068,-324.54406 127.40938,-323.32532 16.292469,-210.25734 17.50497,-71.977967 18.704033,66.296403 131.79313,177.42315 270.0585,176.20472 l 0,0 z"
         id="path15"
         style="fill:none;stroke:#000000;stroke-width:1.56248999;stroke-miterlimit:4;stroke-dasharray:none" />
      <path
         d="M 269.98384,167.48245 C 403.4445,166.31119 510.70703,57.179682 509.53203,-76.275714 508.37265,-209.74893 399.23513,-316.99012 265.77009,-315.82137 132.31912,-314.66199 25.055649,-205.52391 26.227524,-72.065068 27.397837,61.393455 136.53723,168.6434 269.98384,167.48245 l 0,0 z"
         id="path17"
         style="fill:#162c77;fill-opacity:1;stroke-width:0.5;stroke-miterlimit:4;stroke-dasharray:none" />
    </g>
    <path
       d="m 207.51882,-153.56844 c 6.75344,8.84688 -11.79282,-12.79062 -12.49,0.50938 -0.68375,13.30313 4.50656,7.2125 2.52062,10.45938 -1.9875,3.22812 16.95188,4.27812 10.01063,-5.72813 -6.93531,-10.01563 0.84219,4.425 6.89625,5.98125 6.05688,1.55313 9.27407,1.5375 7.62407,-3.7 -1.64969,-5.21562 -1.72813,-13.26563 -5.735,-11.62813 -4.01688,1.64688 -13.70876,-2.29375 -8.82657,4.10625 l 0,0 z"
       id="path85"
       style="fill:#ffffff;stroke-width:0.5;stroke-miterlimit:4;stroke-dasharray:none" />
    <path
       d="m 207.51882,-153.56844 c 6.75344,8.84688 -11.79282,-12.79062 -12.49,0.50938 -0.68375,13.30313 4.50656,7.2125 2.52062,10.45938 -1.9875,3.22812 16.95188,4.27812 10.01063,-5.72813 -6.93531,-10.01563 0.84219,4.425 6.89625,5.98125 6.05688,1.55313 9.27407,1.5375 7.62407,-3.7 -1.64969,-5.21562 -1.72813,-13.26563 -5.735,-11.62813 -4.01688,1.64688 -13.70876,-2.29375 -8.82657,4.10625 l 0,0 z"
       id="path87"
       style="fill:none;stroke:#4c4c4c;stroke-width:1.5625;stroke-miterlimit:4;stroke-dasharray:none" />
    <path
       d="m 257.03884,-154.80281 c 6.76344,8.84375 -11.79126,-12.79063 -12.47782,0.50625 -0.69187,13.30625 4.49594,7.2125 2.50406,10.45938 -1.98687,3.23125 16.95563,4.28125 10.02032,-5.73438 -6.93032,-10.00625 0.84843,4.42188 6.90313,5.9875 6.05686,1.55625 9.27656,1.52188 7.625,-3.69687 -1.65719,-5.21563 -1.73189,-13.26876 -5.75188,-11.62813 -4.00781,1.64687 -13.71156,-2.29375 -8.82281,4.10625 l 0,0 z"
       id="path89"
       style="fill:#ffffff;stroke-width:0.5;stroke-miterlimit:4;stroke-dasharray:none" />
    <path
       d="m 257.03884,-154.80281 c 6.76344,8.84375 -11.79126,-12.79063 -12.47782,0.50625 -0.69187,13.30625 4.49594,7.2125 2.50406,10.45938 -1.98687,3.23125 16.95563,4.28125 10.02032,-5.73438 -6.93032,-10.00625 0.84843,4.42188 6.90313,5.9875 6.05686,1.55625 9.27656,1.52188 7.625,-3.69687 -1.65719,-5.21563 -1.73189,-13.26876 -5.75188,-11.62813 -4.00781,1.64687 -13.71156,-2.29375 -8.82281,4.10625 l 0,0 z"
       id="path91"
       style="fill:none;stroke:#4c4c4c;stroke-width:1.5625;stroke-miterlimit:4;stroke-dasharray:none" />
    <path
       d="m 308.18385,-155.65281 c 6.76251,8.85 -11.79688,-12.78751 -12.47813,0.50625 -0.68125,13.30313 4.49063,7.21563 2.50625,10.45938 -1.98125,3.23437 16.95314,4.27812 10.0125,-5.73438 -6.92812,-10.00938 0.85001,4.42188 6.90625,5.99063 6.05313,1.55 9.27814,1.52187 7.61876,-3.69688 -1.6625,-5.21875 -1.72188,-13.27188 -5.74376,-11.62813 -4.00937,1.64375 -13.71249,-2.29687 -8.82187,4.10313 l 0,0 z"
       id="path93"
       style="fill:#ffffff;stroke-width:0.5;stroke-miterlimit:4;stroke-dasharray:none" />
    <path
       d="m 308.18385,-155.65281 c 6.76251,8.85 -11.79688,-12.78751 -12.47813,0.50625 -0.68125,13.30313 4.49063,7.21563 2.50625,10.45938 -1.98125,3.23437 16.95314,4.27812 10.0125,-5.73438 -6.92812,-10.00938 0.85001,4.42188 6.90625,5.99063 6.05313,1.55 9.27814,1.52187 7.61876,-3.69688 -1.6625,-5.21875 -1.72188,-13.27188 -5.74376,-11.62813 -4.00937,1.64375 -13.71249,-2.29687 -8.82187,4.10313 l 0,0 z"
       id="path95"
       style="fill:none;stroke:#4c4c4c;stroke-width:1.5625;stroke-miterlimit:4;stroke-dasharray:none" />
    <path
       d="m 232.48227,-154.18406 c 3.07312,4.02188 1.21531,0.94375 -2.11563,-1.49063 -4.00688,-2.9125 -9.9975,-5.24687 -10.37063,1.99688 -0.68594,13.30625 4.49657,7.2125 2.51219,10.45625 -1.98437,3.23438 16.94969,4.28125 10.01907,-5.73437 -6.94188,-10.00626 0.85281,4.425 6.89687,5.99062 6.05469,1.55313 9.27438,1.525 7.62407,-3.69687 -1.65844,-5.21875 -1.73875,-13.26876 -5.74032,-11.62813 -4.01218,1.64687 -13.71156,-2.29375 -8.82562,4.10625 l 0,0 z"
       id="path97"
       style="fill:#e50f07;stroke-width:0.5;stroke-miterlimit:4;stroke-dasharray:none" />
    <path
       d="m 232.48227,-154.18406 c 3.07312,4.02188 1.21531,0.94375 -2.11563,-1.49063 -4.00688,-2.9125 -9.9975,-5.24687 -10.37063,1.99688 -0.68594,13.30625 4.49657,7.2125 2.51219,10.45625 -1.98437,3.23438 16.94969,4.28125 10.01907,-5.73437 -6.94188,-10.00626 0.85281,4.425 6.89687,5.99062 6.05469,1.55313 9.27438,1.525 7.62407,-3.69687 -1.65844,-5.21875 -1.73875,-13.26876 -5.74032,-11.62813 -4.01218,1.64687 -13.71156,-2.29375 -8.82562,4.10625 l 0,0 z"
       id="path99"
       style="fill:none;stroke:#000000;stroke-width:1.5625;stroke-miterlimit:4;stroke-dasharray:none" />
    <path
       d="m 284.02447,-155.03406 c 6.76563,8.84688 -11.79532,-12.79063 -12.47908,0.50625 -0.69561,13.29375 4.4922,7.21563 2.50783,10.45 -1.9875,3.24063 16.95563,4.275 10.015,-5.72812 -6.93032,-10.00313 0.84375,4.425 6.90625,5.98125 6.05,1.5625 9.27501,1.53125 7.61876,-3.6875 -1.65627,-5.22813 -1.72813,-13.28438 -5.74689,-11.62501 -4,1.64375 -13.70718,-2.30937 -8.82187,4.10313 l 0,0 z"
       id="path101"
       style="fill:#e50f07;stroke-width:0.5;stroke-miterlimit:4;stroke-dasharray:none" />
    <path
       d="m 284.02447,-155.03406 c 6.76563,8.84688 -11.79532,-12.79063 -12.47908,0.50625 -0.69561,13.29375 4.4922,7.21563 2.50783,10.45 -1.9875,3.24063 16.95563,4.275 10.015,-5.72812 -6.93032,-10.00313 0.84375,4.425 6.90625,5.98125 6.05,1.5625 9.27501,1.53125 7.61876,-3.6875 -1.65627,-5.22813 -1.72813,-13.28438 -5.74689,-11.62501 -4,1.64375 -13.70718,-2.30937 -8.82187,4.10313 l 0,0 z"
       id="path103"
       style="fill:none;stroke:#000000;stroke-width:1.5625;stroke-miterlimit:4;stroke-dasharray:none" />
    <path
       d="m 332.34636,-155.46844 c 6.76875,8.86251 -11.78751,-12.78438 -12.46875,0.52188 -0.69063,13.29063 4.48437,7.20625 2.5,10.45 -1.98438,3.2375 16.95938,4.28125 10.01875,-5.72812 -6.92813,-10.00938 0.84999,4.41875 6.90625,5.97812 6.04688,1.55625 9.2625,1.53125 7.61251,-3.69687 -1.65938,-5.21563 -1.71563,-13.27188 -5.73751,-11.62501 -4.01875,1.64063 -13.71251,-2.29375 -8.83125,4.1 l 0,0 z"
       id="path105"
       style="fill:#e50f07;stroke-width:0.5;stroke-miterlimit:4;stroke-dasharray:none" />
    <path
       d="m 332.34636,-155.46844 c 6.76875,8.86251 -11.78751,-12.78438 -12.46875,0.52188 -0.69063,13.29063 4.48437,7.20625 2.5,10.45 -1.98438,3.2375 16.95938,4.28125 10.01875,-5.72812 -6.92813,-10.00938 0.84999,4.41875 6.90625,5.97812 6.04688,1.55625 9.2625,1.53125 7.61251,-3.69687 -1.65938,-5.21563 -1.71563,-13.27188 -5.73751,-11.62501 -4.01875,1.64063 -13.71251,-2.29375 -8.83125,4.1 l 0,0 z"
       id="path107"
       style="fill:none;stroke:#000000;stroke-width:1.5625;stroke-miterlimit:4;stroke-dasharray:none" />
    <path
       d="m 222.34976,-159.87781 c 0,0 12.30688,8.275 19.32501,3.41562 1.70531,-1.18437 -12.49594,8.94063 4.8975,1.14375 12.72812,-5.70625 2.55969,16.28751 14.89407,-0.73125 5.95313,-8.22187 0.18374,5.00626 13.37063,9.75001 0,0 -3.90251,-8.42501 0.50719,-11.28438 7.32875,-4.75625 3.2325,10.97813 16.69281,-1.75313 0,0 3.29063,7.61563 6.07813,4.77813 2.8,-2.84375 1.7875,-3.8375 5.02813,-2.6625 3.225,1.18125 3.10312,-1.15938 9.80625,0.62812 3.94063,1.05 2.63125,1.31563 7.5,3.94375 0.12188,-9.7375 -4.24375,-11.14375 -8.57189,-13.59062 -4.32186,-2.45001 -6.80624,-23.60626 -8.25936,-27.03126 -2.45939,-5.80938 0.75312,-6.85001 -1.99688,-21.12501 -2.72187,-14.27188 -19.86001,-16.13438 -23.89438,-17.10938 -4.04751,-0.96875 -3.8447,-0.375 -14.50813,-0.47188 0,0 -31.8872,4.60313 -7.04876,23.51564 9.58251,7.29062 6.2872,15.84375 6.2872,15.84375 0.0275,4.4625 -12.26407,11.85938 -16.70688,16.30313 -5.39001,5.39688 -8.41594,15.12188 -23.13907,16.04063 l -0.26157,0.39688 0,0 z"
       id="path109"
       style="fill:#ffffff;stroke-width:0.5;stroke-miterlimit:4;stroke-dasharray:none" />
    <path
       d="m 222.34976,-159.87781 c 0,0 12.30688,8.275 19.32501,3.41562 1.70531,-1.18437 -12.49594,8.94063 4.8975,1.14375 12.72812,-5.70625 2.55969,16.28751 14.89407,-0.73125 5.95313,-8.22187 0.18374,5.00626 13.37063,9.75001 0,0 -3.90251,-8.42501 0.50719,-11.28438 7.32875,-4.75625 3.2325,10.97813 16.69281,-1.75313 0,0 3.29063,7.61563 6.07813,4.77813 2.8,-2.84375 1.7875,-3.8375 5.02813,-2.6625 3.225,1.18125 3.10312,-1.15938 9.80625,0.62812 3.94063,1.05 2.63125,1.31563 7.5,3.94375 0.12188,-9.7375 -4.24375,-11.14375 -8.57189,-13.59062 -4.32186,-2.45001 -6.80624,-23.60626 -8.25936,-27.03126 -2.45939,-5.80938 0.75312,-6.85001 -1.99688,-21.12501 -2.72187,-14.27188 -19.86001,-16.13438 -23.89438,-17.10938 -4.04751,-0.96875 -3.8447,-0.375 -14.50813,-0.47188 0,0 -31.8872,4.60313 -7.04876,23.51564 9.58251,7.29062 6.2872,15.84375 6.2872,15.84375 0.0275,4.4625 -12.26407,11.85938 -16.70688,16.30313 -5.39001,5.39688 -8.41594,15.12188 -23.13907,16.04063 l -0.26157,0.39688 0,0 z"
       id="path111"
       style="fill:none;stroke:#7f7f7f;stroke-width:1.5625;stroke-miterlimit:4;stroke-dasharray:none" />
    <path
       d="m 261.79352,-215.24658 c 0,0 1.58844,2.39375 4.01626,3.575 m -6.77407,-8.70313 c 1.83312,2.50625 3.91532,4.5 5.53875,5.09688"
       id="path113"
       style="fill:none;stroke:#8c8c8c;stroke-width:1.5625;stroke-linecap:round;stroke-miterlimit:4;stroke-dasharray:none" />
    <path
       d="m 258.64196,-219.97783 c 2.4925,3.81562 4.72937,6.10625 7.76125,6.89375"
       id="path115"
       style="fill:none;stroke:#8c8c8c;stroke-width:1.5625;stroke-linecap:round;stroke-miterlimit:4;stroke-dasharray:none" />
    <path
       d="m 281.41041,-178.17782 c 0.24467,5.24063 0.22875,3.825 1.85156,5.21563 1.62188,1.4 5.79063,-5.68125 5.76563,-8.09375"
       id="path117"
       style="fill:none;stroke:#8c8c8c;stroke-width:1.5625;stroke-linecap:round;stroke-miterlimit:4;stroke-dasharray:none" />
    <path
       d="m 281.85572,-218.41846 c 2.04063,0.68125 3.25,2.39375 2.84375,3.59376 m -0.43125,-5.23126 c 2.25,0.475 2.82812,0.7875 3.24063,2.79375 m -0.006,-3.82812 c 2.40938,-0.0219 2.82188,0.57187 3.02812,1.57812"
       id="path119"
       style="fill:none;stroke:#8c8c8c;stroke-width:1.5625;stroke-linecap:round;stroke-miterlimit:4;stroke-dasharray:none" />
    <path
       d="m 274.53008,-205.29345 c 0.37376,-3.42813 -1.39311,2.42812 1.4397,3.60625"
       id="path121"
       style="fill:none;stroke:#8c8c8c;stroke-width:1.5625;stroke-linecap:round;stroke-miterlimit:4;stroke-dasharray:none" />
    <path
       d="m 256.80009,-209.19658 c 3.84436,2.3875 8.24969,8.06875 8.28344,12.10001 m -4.73719,-11.30938 c 1.84406,1.70937 4.975,4.7 5.38562,6.3125"
       id="path123"
       style="fill:none;stroke:#8c8c8c;stroke-width:1.5625;stroke-linecap:round;stroke-miterlimit:4;stroke-dasharray:none" />
    <path
       d="m 286.4151,-203.5622 c 0.625,4.2375 0.23437,3.825 2.86561,5.41875 2.64376,1.5875 3.58751,-5.05938 2.55314,-8.68125 m 1.8,-0.425 c 3.27499,5.20625 6.10625,6.79687 3.95936,-8.07813 m -1.46249,16.91876 c 1.25313,4.41875 5.27501,4.7875 2.77501,-4.85626 m -11.58126,10.57188 c 1.65,5.62188 4.82813,-0.85 4.3875,-4.86875 m -1.54062,8.06875 c -1.6625,-5.63125 2.89687,9.23126 4.39374,-2.8625 m -15.84406,10.37188 c -0.0434,-4.84375 2.12406,7.37188 3.95188,4.72813 0.46719,-0.64375 0.89531,-2.21563 1.27031,-5.18125 m -25.93063,0.475 c -0.46407,-7.24688 1.72937,13.27187 6.42905,-2.47501 m -16.01468,11.00938 c 0.75969,-4.43437 -1.92875,9.69063 4.81781,-0.84687 m 14.1197,1.90312 c -1.27252,-6.84375 -1.06938,16.51251 7.24656,-0.0656 m -17.25251,8.20313 c -0.42782,-3.63125 2.48438,6.41875 6.42719,-1.66875 m 27.71688,-9.91251 c 2.86563,6.825 5.68437,7.20313 7.24689,0.74688 m -2.08438,-8.4375 c -1.27188,-7.64688 3.35625,14.45937 5.62187,-1.25938 m -21.98594,19.11563 c -0.86219,-7.64063 2.59532,20.11251 6.87344,1.95625 m 12.42813,-6.14688 c -2.47188,-7.2375 4.13125,12.44688 6.41875,-3.28125 m -13.6375,6.96876 c -2.47188,-6.82813 4.55311,13.65625 6.85938,1.54375 m -31.39189,2.69375 c -1.64344,-4.41875 0.88813,10.05313 5.64562,0.35"
       id="path125"
       style="fill:none;stroke:#8c8c8c;stroke-width:1.5625;stroke-linecap:round;stroke-miterlimit:4;stroke-dasharray:none" />
    <path
       d="m 258.50601,-221.95283 c -0.12968,0.7625 -0.39749,1.7125 -0.39749,1.7125 0,0 3.685,-0.0344 8.81968,2.63437 3.28377,1.7125 5.10408,-2.49062 5.0622,-1.76562 0.15313,-2.55313 -0.0909,-4.53125 0.58063,-6 0,0 -2.34938,0.0469 -2.88625,0.13437 -2.49782,0.39688 -1.67781,-0.009 -3.2875,0 -0.005,0 -7.10752,-1.18437 -7.89127,3.28438 l 0,0 z"
       id="path127"
       style="fill:#727272;stroke-width:0.5;stroke-miterlimit:4;stroke-dasharray:none" />
    <path
       d="m 266.87634,-220.24033 c 1.49749,-0.009 2.19938,-0.92188 2.69313,-1.73438 0.37375,-0.62812 0.74312,-1.49687 0.25717,-1.80937 -0.50124,-0.30938 -2.23155,0.12187 -2.98093,0.12187 -0.8825,0.0125 -1.79593,-0.15312 -2.28812,0.26875 -0.34625,0.2875 -0.40125,1.08125 -0.40125,1.475 0.0122,0.9375 1.22156,1.68438 2.72,1.67813 l 0,0 z"
       id="path129"
       style="fill:#fccc0f;stroke-width:0.5;stroke-miterlimit:4;stroke-dasharray:none" />
    <path
       d="m 258.64196,-208.93408 c 1.70438,1.70938 12.56562,2.03125 10.90688,0.52813 -1.65312,-1.49688 -5.73563,-1.625 -6.56125,-4.04688 0,0 -6.72313,-11.60938 -14.60938,-12.91875 -7.88438,-1.30938 -0.86063,-0.23125 -1.31313,-0.2625 -3.54844,-0.25313 -4.34406,0 -5.25969,0.65937 -6.96937,1.05 -16.17219,-0.65937 -7.38375,18.11563 0.82938,1.75 -0.82156,-2.50312 1.59,-2.725 0,0 22.20751,0.2375 22.63032,0.65 l 0,0 z"
       id="path131"
       style="fill:#fccc0f;stroke-width:0.5;stroke-miterlimit:4;stroke-dasharray:none" />
    <path
       d="m 258.64196,-208.93408 c 1.70438,1.70938 12.56562,2.03125 10.90688,0.52813 -1.65312,-1.49688 -5.73563,-1.625 -6.56125,-4.04688 0,0 -6.72313,-11.60938 -14.60969,-12.91875 -7.88407,-1.30938 -0.86032,-0.23125 -1.31282,-0.2625 -3.54844,-0.25313 -4.34406,0 -5.25969,0.65937 -6.96937,1.05 -16.17219,-0.65937 -7.38375,18.11563 0.82938,1.75 -0.82156,-2.50312 1.59,-2.725 0,0 22.20751,0.2375 22.63032,0.65 l 0,0 z"
       id="path133"
       style="fill:none;stroke:#595959;stroke-width:1.5625;stroke-miterlimit:4;stroke-dasharray:none" />
    <path
       d="m 267.0557,-208.00908 c -15.39093,-3.55625 -22.89124,-9.85938 -25.25031,-16.96563 m -6.96937,18.41251 c 0,0 -0.27157,-4.12813 1.54187,-4.4375 1.81032,-0.32188 5.03219,0.05 20.02156,-0.69375"
       id="path135"
       style="fill:none;stroke:#4c4c4c;stroke-width:1.5625;stroke-miterlimit:4;stroke-dasharray:none" />
    <path
       d="m 267.43009,-221.26846 c 0.44031,-0.0125 0.78438,-0.3625 0.78438,-0.79687 0,-0.425 -0.35563,-0.78125 -0.795,-0.77188 -0.43094,0 -0.77126,0.35938 -0.77126,0.78438 0,0.44375 0.35469,0.78437 0.78188,0.78437 l 0,0 z"
       id="path137"
       style="fill:#000000;stroke-width:0.5;stroke-miterlimit:4;stroke-dasharray:none" />
    <path
       d="m 248.94352,-220.81533 c 0.0669,0.075 0,0.25312 0.0403,0.375 0.10063,0.30625 0.44563,0.4375 0.57688,0.71562 0.24406,0.46875 0.56281,0.71563 0.88187,1.13438 0.66313,0.86875 1.70751,2.06562 2.14313,2.40937 0.16031,-0.73125 -1.38094,-2.6125 -1.995,-3.05937 -0.35781,-0.45 -0.75531,-1.07813 -1.17188,-1.85 -0.27031,0.0312 -0.74468,-0.49688 -0.96218,-0.65 -0.0916,0.42812 0.2275,0.65 0.48687,0.925 l 0,0 z"
       id="path139"
       style="fill:#4c4c4c;stroke-width:0.5;stroke-miterlimit:4;stroke-dasharray:none" />
    <path
       d="m 78.156275,43.108812 c 0,0 64.995655,120.171288 204.930695,110.046288 135.19692,-9.75938 181.66256,-108.6891 186.12818,-122.497542 1.42813,-4.414376 2.88126,-7.825627 -0.27812,-10.683441 -6.73438,-6.090002 -26.96251,-8.84094 -30.43126,-8.45969 -7.30938,0.813438 -6.67188,6.61719 -4.82188,8.386253 1.95624,1.840313 5.07813,0.425 4.48125,1.7 -37.39688,79.95065 -126.94067,98.59785 -154.29692,100.11972 0,0 -112.39004,15.83188 -175.66662,-92.891593 0,0 8.82657,-14.736879 -6.01657,-14.340317 -5.640312,0.1375 -10.527814,13.459692 -20.486254,17.443131 0,0 -7.738753,4.846877 -3.542501,11.177191 l 0,0 z"
       id="path141"
       style="fill:#f9db11;stroke-width:0.5;stroke-miterlimit:4;stroke-dasharray:none" />
    <path
       d="m 79.783775,33.686309 c 0,0 10.925941,0 6.578752,11.711254 C 84.831902,49.551002 96.62253,32.245996 108.19253,29.226308 M 470.3589,22.117243 c 0,0 -1.06563,-1.268751 -2.76562,-1.570938 -2.23438,-0.40125 -5.78125,1.570938 -5.12813,6.051564 0.1375,0.864376 0.74063,1.542813 1.05313,1.782188 4.14999,3.242501 -10.10001,-5.605314 -25.35314,-6.779377"
       id="path143"
       style="fill:none;stroke:#3f3f3f;stroke-width:1.5625;stroke-linecap:round;stroke-miterlimit:4;stroke-dasharray:none" />
    <path
       d="m 61.902519,-29.124024 c -5.876877,2.789064 -5.785314,8.214378 -4.983439,11.604067 1.511563,6.390627 7.450003,10.43344 16.736568,8.233752 8.303753,-1.96625 13.995317,-6.427814 11.924691,-15.172505 -0.733125,-3.092188 -3.474376,-8.102502 -12.062816,-7.778127 l -1.094688,-4.617502 c 13.781567,-1.189375 16.928756,9.481253 17.556881,12.136254 1.896563,8.007815 -1.451251,17.100318 -15.012505,20.3125068 -10.859691,2.5671884 -19.844069,-1.8434378 -22.27407,-12.1118788 -2.152188,-9.08969 2.383439,-15.145005 8.116878,-17.228756 l 1.0925,4.622189 0,0 z"
       id="path145"
       style="fill:#ffffff;stroke-width:0.5;stroke-miterlimit:4;stroke-dasharray:none" />
    <path
       d="m 83.505339,-67.656536 2.024063,26.682509 -36.148762,2.740313 -1.995938,-26.332821 4.329689,-0.326563 1.628126,21.448445 11.074066,-0.84 -1.500001,-19.786882 4.329064,-0.330312 1.502188,19.790006 12.080941,-0.91625 -1.6525,-21.800945 4.329064,-0.3275 0,0 z"
       id="path147"
       style="fill:#ffffff;stroke-width:0.5;stroke-miterlimit:4;stroke-dasharray:none" />
    <path
       d="m 49.29189,-95.934043 0.379375,-4.731247 36.139699,2.906247 -0.440937,5.487499 -30.671885,16.023755 -0.0091,0.10125 29.193134,2.350001 -0.380625,4.730939 -36.139074,-2.909688 0.467812,-5.785627 30.645635,-15.72313 0.0091,-0.1 -29.193135,-2.349999 0,0 z"
       id="path149"
       style="fill:#ffffff;stroke-width:0.5;stroke-miterlimit:4;stroke-dasharray:none" />
    <path
       d="m 50.350328,-105.15592 6.70844,-28.66251 4.227501,0.99063 -2.798438,11.94375 31.075947,7.27188 -1.115313,4.77187 -31.075322,-7.275 -2.795626,11.94688 -4.227189,-0.9875 0,0 z"
       id="path151"
       style="fill:#ffffff;stroke-width:0.5;stroke-miterlimit:4;stroke-dasharray:none" />
    <path
       d="m 94.154405,-129.84655 -1.818751,4.55 -33.678448,-13.46251 6.226252,-15.57188 c 2.211875,-5.53437 6.346877,-10.30312 13.476567,-7.45 4.972189,1.98438 5.788439,5.25 6.192814,7.91563 1.566876,-1.60625 3.180626,-3.19063 7.945315,-1.50625 l 6.210315,2.15625 c 1.895001,0.70625 2.691561,0.75312 4.051881,-0.3375 l 0.74906,0.3 -2.22907,5.58125 c -2.326246,-0.16875 -7.495935,-2.07187 -8.761561,-2.575 -2.768126,-1.10625 -6.230939,-1.8375 -8.404065,3.60313 l -4.405001,11.02188 14.444692,5.775 0,0 z m -18.339694,-7.32813 4.219064,-10.55625 c 1.329063,-3.33125 1.893126,-7.18751 -3.078438,-9.17188 -5.206252,-2.08438 -7.147815,1.54687 -8.048128,3.79687 l -4.538126,11.35313 11.445628,4.57813 0,0 z"
       id="path153"
       style="fill:#ffffff;fill-rule:evenodd;stroke-width:0.5;stroke-miterlimit:4;stroke-dasharray:none" />
    <path
       d="m 97.720968,-163.64656 7.129692,8.65312 -2.58313,4.34063 -24.175943,-30.26251 2.840938,-4.775 37.868755,7.26875 -2.73843,4.6 -10.9022,-2.31875 -7.439682,12.49376 0,0 z m 2.804692,-13.19688 -16.447509,-3.5625 -0.0525,0.0844 10.738441,13.15001 5.761568,-9.67188 0,0 z"
       id="path155"
       style="fill:#ffffff;fill-rule:evenodd;stroke-width:0.5;stroke-miterlimit:4;stroke-dasharray:none" />
    <path
       d="m 118.41285,-184.19032 11.45157,-14.37813 3.39813,2.70313 -14.5072,18.21563 -28.363134,-22.59376 3.053438,-3.83125 24.967196,19.88438 0,0 z"
       id="path157"
       style="fill:#ffffff;stroke-width:0.5;stroke-miterlimit:4;stroke-dasharray:none" />
    <path
       d="m 147.11005,-208.94345 -3.60781,3.3125 -24.52188,-26.70939 3.60968,-3.3125 24.52001,26.70939 0,0 z"
       id="path159"
       style="fill:#ffffff;stroke-width:0.5;stroke-miterlimit:4;stroke-dasharray:none" />
    <path
       d="m 147.37411,-255.21222 3.82219,-2.81875 21.50438,29.18751 -4.43218,3.2625 -32.20814,-12.64688 -0.0816,0.0625 17.37219,23.57501 -3.82156,2.81563 -21.50345,-29.18439 4.67594,-3.44375 31.96189,12.825 0.0816,-0.0625 -17.37126,-23.57188 0,0 z"
       id="path161"
       style="fill:#ffffff;stroke-width:0.5;stroke-miterlimit:4;stroke-dasharray:none" />
    <path
       d="m 155.09568,-260.50909 26.03313,-13.73751 2.02625,3.84375 -10.85063,5.725 14.89126,28.21564 -4.32906,2.29062 -14.89251,-28.22188 -10.84969,5.725 -2.02875,-3.84062 0,0 z"
       id="path163"
       style="fill:#ffffff;stroke-width:0.5;stroke-miterlimit:4;stroke-dasharray:none" />
    <path
       d="m 223.14695,-250.92784 -25.21438,8.96563 -12.14907,-34.15626 24.88251,-8.85001 1.45406,4.09063 -20.26594,7.20625 3.7225,10.46875 18.69563,-6.65 1.45656,4.09063 -18.69813,6.65 4.06188,11.41875 20.59938,-7.32812 1.455,4.09375 0,0 z"
       id="path165"
       style="fill:#ffffff;stroke-width:0.5;stroke-miterlimit:4;stroke-dasharray:none" />
    <path
       d="m 228.36227,-256.24972 18.00094,-3.73437 0.88344,4.25 -22.79657,4.73125 -7.36844,-35.50626 4.79719,-0.99375 6.48344,31.25313 0,0 z"
       id="path167"
       style="fill:#ffffff;stroke-width:0.5;stroke-miterlimit:4;stroke-dasharray:none" />
    <path
       d="m 251.68915,-260.26847 18.31688,-1.50938 0.35531,4.32501 -23.19876,1.9125 -2.97625,-36.12814 4.88157,-0.40625 2.62125,31.80626 0,0 z"
       id="path169"
       style="fill:#ffffff;stroke-width:0.5;stroke-miterlimit:4;stroke-dasharray:none" />
    <path
       d="m 276.43196,-257.01534 -4.90093,-0.0188 0.14812,-36.26252 4.89875,0.0188 -0.14594,36.26252 0,0 z"
       id="path171"
       style="fill:#ffffff;stroke-width:0.5;stroke-miterlimit:4;stroke-dasharray:none" />
    <path
       d="m 298.00259,-274.95285 15.79689,1.87813 -2.2875,19.25625 -3.16564,-0.37187 -0.59999,-4.80625 c -2.85625,3.12187 -7.64062,4.79062 -12.55,4.20625 -6.16875,-0.72813 -8.91251,-3.34688 -10.55,-5.37188 -4.89844,-5.87188 -4.31782,-12.05938 -3.86314,-15.86875 1.04282,-8.77813 7.53501,-18.02189 19.26939,-16.62813 6.71563,0.79687 13.74063,5.49687 13.83438,13.69687 l -4.7125,-0.5625 c -0.81563,-6.45312 -5.925,-8.38125 -9.88125,-8.85 -6.47188,-0.76875 -12.40313,3.7625 -13.52501,13.19063 -0.86875,7.32188 0.64688,15.13126 10.225,16.26876 1.80625,0.2125 4.73751,0.35937 7.64688,-1.43125 3.45624,-2.13126 4.64063,-5.24376 5.1,-9.10938 l -11.23438,-1.33438 0.49687,-4.1625 0,0 z"
       id="path173"
       style="fill:#ffffff;stroke-width:0.5;stroke-miterlimit:4;stroke-dasharray:none" />
    <path
       d="m 340.37135,-245.29971 -25.66874,-7.56876 10.25625,-34.77501 25.325,7.46875 -1.22812,4.16876 -20.62813,-6.08751 -3.14375,10.65626 19.03125,5.61562 -1.22812,4.16251 -19.03126,-5.61251 -3.42812,11.61876 20.96875,6.1875 -1.22501,4.16563 0,0 z"
       id="path175"
       style="fill:#ffffff;stroke-width:0.5;stroke-miterlimit:4;stroke-dasharray:none" />
    <path
       d="m 379.42138,-266.89972 4.27812,2.05937 -15.72814,32.66564 -4.95624,-2.3875 -3.9,-34.38439 -0.0969,-0.0469 -12.70626,26.38751 -4.27499,-2.05938 15.73438,-32.66251 5.22813,2.51875 3.62811,34.25314 0.0875,0.0437 12.70626,-26.38751 0,0 z"
       id="path177"
       style="fill:#ffffff;stroke-width:0.5;stroke-miterlimit:4;stroke-dasharray:none" />
    <path
       d="m 405.95888,-236.63096 c 2.56876,-5.97813 -1.0875,-9.99063 -3.93437,-12.00938 -5.35626,-3.79375 -12.48126,-2.90313 -18.00313,4.88125 -4.93125,6.96563 -6.25938,14.07188 1.07811,19.26876 2.59375,1.84062 7.96252,3.7875 14.19689,-2.12813 l 3.86874,2.74063 c -9.55311,10 -18.96562,4.07187 -21.19374,2.49375 -6.71877,-4.75938 -10.21564,-13.80001 -2.15625,-25.17189 6.45,-9.10312 16.10938,-11.72812 24.72188,-5.625 7.62188,5.4 8.21875,12.94063 5.29062,18.29376 l -3.86875,-2.74375 0,0 z"
       id="path179"
       style="fill:#ffffff;stroke-width:0.5;stroke-miterlimit:4;stroke-dasharray:none" />
    <path
       d="m 415.19014,-193.49032 -19.17501,-18.66876 25.29376,-25.98126 18.91876,18.42501 -3.02813,3.1125 -15.40938,-15.00938 -7.75,7.9625 14.21563,13.84376 -3.03125,3.10937 -14.21252,-13.84063 -8.45937,8.68438 15.66563,15.25001 -3.02812,3.1125 0,0 z"
       id="path181"
       style="fill:#ffffff;stroke-width:0.5;stroke-miterlimit:4;stroke-dasharray:none" />
    <path
       d="m 436.03389,-183.55907 -10.90312,2.63125 -2.77813,-4.21875 37.79064,-8.525 3.05,4.64062 -23.08127,30.89064 -2.9375,-4.47188 6.84375,-8.79375 -7.98437,-12.15313 0,0 z m 10.64062,8.29063 10.40001,-13.24376 -0.0625,-0.0844 -16.51562,3.91562 6.17811,9.41251 0,0 z"
       id="path183"
       style="fill:#ffffff;fill-rule:evenodd;stroke-width:0.5;stroke-miterlimit:4;stroke-dasharray:none" />
    <path
       d="m 463.73077,-152.46844 6.45001,14.54063 -17.71876,7.87188 -1.29062,-2.90937 3.81563,-2.96563 c -4.14063,-0.86875 -8.01251,-4.11875 -10.02188,-8.64375 -2.52188,-5.675 -1.67188,-9.36876 -0.77813,-11.81251 2.54999,-7.2125 8.16875,-9.86875 11.66875,-11.42812 8.08438,-3.58438 19.34375,-2.73438 24.14064,8.06875 2.75,6.18437 2.29375,14.61875 -4.70938,18.8875 l -1.92187,-4.3375 c 5.1375,-3.99687 4.17811,-9.37188 2.5625,-13.01875 -2.64375,-5.95313 -9.56876,-8.73438 -18.25002,-4.88125 -6.73749,2.99062 -12.67187,8.28125 -8.76249,17.09688 0.74062,1.6625 2.1125,4.25625 5.13436,5.84375 3.60002,1.88125 6.88127,1.30937 10.44063,-0.27188 l -4.59375,-10.3375 3.83438,-1.70313 0,0 z"
       id="path185"
       style="fill:#ffffff;stroke-width:0.5;stroke-miterlimit:4;stroke-dasharray:none" />
    <path
       d="m 459.71515,-101.67467 -6.69689,-25.91251 35.10628,-9.07812 6.60936,25.57188 -4.20311,1.0875 -5.38751,-20.82813 -10.75937,2.78125 4.97186,19.21563 -4.19999,1.08437 -4.975,-19.2125 -11.73438,3.03437 5.47187,21.16876 -4.20312,1.0875 0,0 z"
       id="path187"
       style="fill:#ffffff;stroke-width:0.5;stroke-miterlimit:4;stroke-dasharray:none" />
    <path
       d="m 498.29953,-80.230602 0.45626,4.725001 -36.09376,3.479064 -0.52813,-5.480315 27.39064,-21.155321 -0.006,-0.10312 -29.16563,2.80937 -0.45626,-4.724997 36.10315,-3.47812 0.55625,5.784367 -27.41877,20.851259 0.006,0.105312 29.15625,-2.8125 0,0 z"
       id="path189"
       style="fill:#ffffff;stroke-width:0.5;stroke-miterlimit:4;stroke-dasharray:none" />
    <path
       d="m 456.71203,-22.611834 1.10625,-4.771252 14.21875,3.301252 24.19687,-8.433753 -1.29061,5.555002 -19.32188,6.195314 14.61562,14.073755 -1.29374,5.6078139 -18.01563,-18.2275059 -14.21563,-3.300626 0,0 z"
       id="path193"
       style="fill:#ffffff;stroke-width:0.5;stroke-miterlimit:4;stroke-dasharray:none" />
    <path
       d="m 125.55786,64.044444 -9.63158,8.34969 c -3.03936,2.631251 -7.25,2.952501 -10.78031,-1.11625 -3.4575,-3.993127 -2.37937,-7.930628 0.39,-10.329379 l 9.90126,-8.583127 1.73719,2.005 -9.34438,8.096253 c -3.225,2.796251 -2.41156,5.529064 -0.85219,7.328127 1.59531,1.840938 4.23219,3.173126 7.45688,0.376875 l 9.38875,-8.13219 1.73438,2.005001 0,0 z"
       id="path195"
       style="fill:#e50f07;stroke-width:0.5;stroke-miterlimit:4;stroke-dasharray:none" />
    <path
       d="m 137.44442,75.822885 1.84407,1.791251 -13.68658,14.093129 -2.13843,-2.077501 3.89188,-18.339693 -0.0397,-0.03969 -11.05282,11.383128 -1.84718,-1.79375 13.68656,-14.084692 2.25657,2.1875 -4.00845,18.229069 0.0381,0.03344 11.05594,-11.382191 0,0 z"
       id="path197"
       style="fill:#e50f07;stroke-width:0.5;stroke-miterlimit:4;stroke-dasharray:none" />
    <path
       d="m 131.21098,96.475392 -2.00625,-1.734063 12.84407,-14.86063 2.00938,1.7375 -12.8472,14.857193 0,0 z"
       id="path199"
       style="fill:#e50f07;stroke-width:0.5;stroke-miterlimit:4;stroke-dasharray:none" />
    <path
       d="m 145.3188,82.88695 12.60063,9.785315 -1.44438,1.854688 -5.24968,-4.076251 -10.60501,13.659688 -2.09719,-1.62656 10.60407,-13.658441 -5.25063,-4.080939 1.44219,-1.8575 0,0 z"
       id="path201"
       style="fill:#e50f07;stroke-width:0.5;stroke-miterlimit:4;stroke-dasharray:none" />
    <path
       d="m 160.26474,117.7204 -12.11188,-7.95969 10.77657,-16.408757 11.95469,7.850627 -1.29094,1.96531 -9.73906,-6.394061 -3.30125,5.025631 8.98219,5.90188 -1.28938,1.96531 -8.98375,-5.89907 -3.6025,5.48188 9.8975,6.5025 -1.29219,1.96844 0,0 z"
       id="path203"
       style="fill:#e50f07;stroke-width:0.5;stroke-miterlimit:4;stroke-dasharray:none" />
    <path
       d="m 173.56725,102.79196 7.03875,3.71313 c 4.52438,2.39125 5.49406,7.29594 2.84906,12.30562 -2.05687,3.89313 -6.40812,8.02907 -12.11625,5.01532 l -6.945,-3.66719 9.17344,-17.36688 0,0 z m -5.76625,16.59844 4.54781,2.40344 c 3.04875,1.61031 6.29875,0.26219 8.60906,-4.11406 2.31313,-4.38282 1.46782,-7.64063 -1.72593,-9.32844 l -4.3775,-2.31375 -7.05344,13.35281 0,0 z"
       id="path205"
       style="fill:#e50f07;fill-rule:evenodd;stroke-width:0.5;stroke-miterlimit:4;stroke-dasharray:none" />
    <path
       d="m 204.41601,123.09915 c 0.92906,-2.89531 -1.09344,-4.66781 -3.16938,-5.4375 -1.56562,-0.58062 -4.36781,-1.12844 -5.40844,1.66844 -0.57969,1.56187 0.33281,2.48406 1.31313,3.145 l 4.80656,3.15688 c 2.17594,1.445 3.43532,3.55156 2.34813,6.47375 -1.61875,4.35781 -6.11625,4.05562 -9.27126,2.88531 -3.40937,-1.26875 -4.36093,-2.79156 -4.90562,-3.83687 -1.04,-1.99188 -0.77281,-3.64594 -0.13719,-5.36344 l 2.33375,0.86437 c -1.23969,3.33875 1.11625,5.31844 3.47375,6.19657 1.79594,0.66906 4.99188,1.33156 5.97282,-1.30844 0.715,-1.92563 0.0466,-2.87313 -2.71125,-4.71563 l -3.44469,-2.26812 c -1.09813,-0.73344 -3.50282,-2.58813 -2.31094,-5.79376 1.06719,-2.875 3.98688,-4.99593 8.44875,-3.33562 6.43375,2.39031 5.64719,6.47344 4.995,8.53563 l -2.33312,-0.86657 0,0 z"
       id="path207"
       style="fill:#e50f07;stroke-width:0.5;stroke-miterlimit:4;stroke-dasharray:none" />
    <path
       d="m 210.18695,119.07603 15.40375,4.12 -0.60906,2.27437 -6.41782,-1.72062 -4.46906,16.70094 -2.56281,-0.68906 4.46625,-16.69688 -6.41938,-1.71813 0.60813,-2.27062 0,0 z"
       id="path209"
       style="fill:#e50f07;stroke-width:0.5;stroke-miterlimit:4;stroke-dasharray:none" />
    <path
       d="m 228.05726,137.7726 -2.97468,5.29343 -2.69938,-0.45625 10.56219,-18.13281 2.96563,0.50437 3.73594,20.55032 -2.85875,-0.48219 -0.96126,-5.96312 -7.76969,-1.31375 0,0 z m 7.21969,-1.16563 -1.4175,-9.00657 -0.0544,-0.01 -4.54625,7.99938 6.01812,1.01719 0,0 z"
       id="path211"
       style="fill:#e50f07;fill-rule:evenodd;stroke-width:0.5;stroke-miterlimit:4;stroke-dasharray:none" />
    <path
       d="m 243.00008,126.14259 15.89906,1.21375 -0.17874,2.34375 -6.62844,-0.5075 -1.31531,17.23407 -2.64563,-0.20062 1.31594,-17.23095 -6.62625,-0.51125 0.17937,-2.34125 0,0 z"
       id="path213"
       style="fill:#e50f07;stroke-width:0.5;stroke-miterlimit:4;stroke-dasharray:none" />
    <path
       d="m 275.70353,146.84635 -14.49282,0.15781 -0.21438,-19.63344 14.3022,-0.15625 0.0272,2.35219 -11.65219,0.12718 0.0662,6.01813 10.7475,-0.11969 0.0253,2.35375 -10.74594,0.11594 0.07,6.55875 11.83938,-0.12719 0.0275,2.35282 0,0 z"
       id="path215"
       style="fill:#e50f07;stroke-width:0.5;stroke-miterlimit:4;stroke-dasharray:none" />
    <path
       d="m 290.40884,131.66853 c -0.40938,-3.01375 -3.00313,-3.74094 -5.20937,-3.53938 -1.6625,0.14657 -4.42531,0.86594 -4.15625,3.83313 0.15031,1.66156 1.37343,2.10563 2.54063,2.27031 l 5.69999,0.77969 c 2.59062,0.36938 4.63126,1.72344 4.91563,4.82875 0.41563,4.63032 -3.775,6.30251 -7.125,6.60469 -3.625,0.3275 -5.13844,-0.63625 -6.08314,-1.34718 -1.79749,-1.34501 -2.2703,-2.95657 -2.43592,-4.78001 l 2.47875,-0.22406 c 0.32125,3.54219 3.29969,4.31656 5.80905,4.09219 1.90938,-0.17375 5.08126,-0.95375 4.82501,-3.76188 -0.1875,-2.04187 -1.20001,-2.60625 -4.47813,-3.08375 l -4.09062,-0.5625 c -1.31063,-0.18312 -4.27781,-0.82312 -4.5875,-4.22969 -0.27469,-3.05312 1.44406,-6.22937 6.18438,-6.65594 6.84062,-0.61875 7.89062,3.40751 8.19062,5.55188 l -2.47813,0.22375 0,0 z"
       id="path217"
       style="fill:#e50f07;stroke-width:0.5;stroke-miterlimit:4;stroke-dasharray:none" />
    <path
       d="m 315.29323,142.3876 c -7.19376,1.43375 -10.58125,-4.1075 -11.40938,-8.26469 -0.82812,-4.15657 0.17813,-10.57532 7.3625,-12.00719 7.18438,-1.43438 10.58126,4.10687 11.40938,8.2625 0.82813,4.15656 -0.17812,10.57531 -7.3625,12.00938 l 0,0 z m -3.58438,-17.96563 c -4.18437,0.83687 -6.04688,4.63187 -5.14063,9.16531 0.90001,4.53719 4.07813,7.33032 8.26251,6.49782 4.18438,-0.83688 6.04688,-4.63938 5.14063,-9.16907 -0.9,-4.53563 -4.07813,-7.32875 -8.26251,-6.49406 l 0,0 z"
       id="path219"
       style="fill:#e50f07;fill-rule:evenodd;stroke-width:0.5;stroke-miterlimit:4;stroke-dasharray:none" />
    <path
       d="m 331.33699,138.11072 -2.54688,0.73094 -5.42813,-18.87376 13.06876,-3.75219 0.64375,2.26157 -10.51251,3.01969 1.66249,5.78531 9.25314,-2.66125 0.65,2.26156 -9.25626,2.6625 2.46564,8.56563 0,0 z"
       id="path221"
       style="fill:#e50f07;stroke-width:0.5;stroke-miterlimit:4;stroke-dasharray:none" />
    <path
       d="m 353.63387,124.66697 0.33436,6.06687 -2.52186,1.06344 -0.82189,-20.96688 2.77189,-1.17063 14.18125,15.3397 -2.66876,1.12531 -4.01562,-4.51406 -7.25937,3.05625 0,0 z m 5.46875,-4.85688 -6.03438,-6.83813 -0.0469,0.0259 0.45625,9.18344 5.625,-2.37125 0,0 z"
       id="path223"
       style="fill:#e50f07;fill-rule:evenodd;stroke-width:0.5;stroke-miterlimit:4;stroke-dasharray:none" />
    <path
       d="m 385.012,115.67478 -5.58125,-10.16001 c -0.27812,-0.50344 -1.42812,-2.71063 -2.3125,-4.32031 l -0.0437,0.0272 3.09375,17.11439 -2.29375,1.26656 -12.77501,-11.7675 -0.05,0.0213 c 0.87187,1.58312 2.12187,3.74156 2.39061,4.245 l 5.59064,10.16219 -2.25313,1.23844 -9.46251,-17.21282 3.33439,-1.82782 12.9125,11.84907 0.0469,-0.0275 -3.10314,-17.23782 3.30626,-1.815001 9.45313,17.209701 -2.25313,1.235 0,0 z"
       id="path225"
       style="fill:#e50f07;stroke-width:0.5;stroke-miterlimit:4;stroke-dasharray:none" />
    <path
       d="m 403.75887,103.08883 -11.88124,8.31376 -11.25938,-16.089074 11.72188,-8.200627 1.34375,1.925625 -9.54063,6.68094 3.45,4.933126 8.80313,-6.167502 1.35,1.927814 -8.80314,6.165318 3.76252,5.37656 9.7,-6.79406 1.35311,1.92812 0,0 z"
       id="path227"
       style="fill:#e50f07;stroke-width:0.5;stroke-miterlimit:4;stroke-dasharray:none" />
    <path
       d="m 409.66201,98.311955 -2.00625,1.735625 -12.84375,-14.859692 6.875,-5.938752 c 2.44375,-2.111876 5.61562,-3.373751 8.33438,-0.226562 1.89375,2.195 1.47812,3.968126 1.00312,5.349064 1.15313,-0.379375 2.32188,-0.740313 4.19688,1.256563 l 2.45312,2.5825 c 0.73125,0.809376 1.10625,1.030001 2.02812,0.845938 l 0.28751,0.33125 -2.46563,2.129376 c -1.07188,-0.662188 -3.08437,-2.862501 -3.56875,-3.423439 -1.05625,-1.222187 -2.53751,-2.432188 -4.93437,-0.36 l -4.86876,4.205314 5.50938,6.372815 0,0 z m -6.99063,-8.09344 4.65938,-4.021252 c 1.46875,-1.2725 2.69688,-2.986251 0.8,-5.181251 -1.98125,-2.295626 -3.82188,-1.032813 -4.81563,-0.17625 l -5.0125,4.329689 4.36875,5.049064 0,0 z"
       id="path229"
       style="fill:#e00c05;fill-rule:evenodd;stroke-width:0.5;stroke-miterlimit:4;stroke-dasharray:none" />
    <path
       d="m 424.86514,84.33195 -1.87188,1.876563 -13.90937,-13.869379 1.87187,-1.876876 13.90938,13.869692 0,0 z"
       id="path231"
       style="fill:#e50f07;stroke-width:0.5;stroke-miterlimit:4;stroke-dasharray:none" />
    <path
       d="m 427.23701,61.15538 c -3.09688,-1.684063 -5.44687,0.08906 -6.67812,1.522813 -2.30625,2.694689 -2.18438,6.588752 1.73436,9.954066 3.50939,3.007501 7.28127,4.077189 10.44689,0.382813 1.11874,-1.308438 2.44375,-4.108439 -0.43437,-7.763753 l 1.66875,-1.956875 c 4.90937,5.661251 1.24375,10.441565 0.2875,11.563128 -2.90314,3.380626 -7.95625,4.816564 -13.68752,-0.09469 -4.58436,-3.936564 -5.51874,-9.280316 -1.79999,-13.615942 3.29375,-3.842189 7.39687,-3.787189 10.13438,-1.937188 l -1.67188,1.945625 0,0 z"
       id="path233"
       style="fill:#e50f07;stroke-width:0.5;stroke-miterlimit:4;stroke-dasharray:none" />
    <path
       d="m 439.05264,58.75663 3.54688,4.926251 -1.54688,2.256876 -11.99687,-17.211256 1.70625,-2.47875 20.2125,5.263439 -1.64063,2.390313 -5.81874,-1.635626 -4.46251,6.488753 0,0 z m 1.98438,-7.031253 -8.76563,-2.513126 -0.0281,0.045 5.33749,7.491252 3.45626,-5.023127 0,0 z"
       id="path235"
       style="fill:#e50f07;fill-rule:evenodd;stroke-width:0.5;stroke-miterlimit:4;stroke-dasharray:none" />
    <path
       d="m 303.2151,-158.03094 c 5.91875,5.64063 8.14688,5.80626 2.27188,-8.03125 l -2.27188,8.03125 0,0 z"
       id="path237"
       style="fill:#ffffff;stroke-width:0.5;stroke-miterlimit:4;stroke-dasharray:none" />
    <path
       d="m 303.2151,-158.03094 c 5.91875,5.64063 8.14688,5.80626 2.27188,-8.03125 l -2.27188,8.03125 0,0 z"
       id="path239"
       style="fill:none;stroke:#8c8c8c;stroke-width:1.5625;stroke-linecap:round;stroke-miterlimit:4;stroke-dasharray:none" />
    <path
       d="m 271.12884,-224.39658 c -0.24094,0 2.92438,1.07812 5.47032,-2.1125 m -5.69219,1.44687 c -3.35407,0.76875 2.745,0.50938 2.93561,-2.54375"
       id="path241"
       style="fill:none;stroke:#727272;stroke-width:1.5625;stroke-linecap:round;stroke-miterlimit:4;stroke-dasharray:none" />
    <path
       d="m 258.24509,-209.19658 c 3.03719,2.19375 6.9475,7.33438 7.36406,8.94063"
       id="path243"
       style="fill:none;stroke:#8c8c8c;stroke-width:1.5625;stroke-linecap:round;stroke-miterlimit:4;stroke-dasharray:none" />
    <path
       d="m 282.66009,-188.32782 c -0.0359,-4.15938 1.56438,4.23437 3.17063,5.04375 0.72813,0.375 1.46563,-0.82813 2.05938,-5.5"
       id="path245"
       style="fill:none;stroke:#8c8c8c;stroke-width:1.5625;stroke-linecap:round;stroke-miterlimit:4;stroke-dasharray:none" />
    <path
       d="m 168.14667,-135.27694 c 3.88864,1.42153 8.14328,9.24471 8.14328,12.95072 l 1.47167,170.027315 c 1e-5,15.143286 16.18099,25.509008 30.0222,25.509008 0,0 38.85225,0 38.85225,0 12.58685,0 21.49021,1.090157 25.50906,16.090318 4.01886,-15.000161 12.92215,-16.090318 25.50905,-16.090318 0,0 38.95037,0 38.95037,0 13.84119,0 30.0222,-10.365722 30.0222,-25.509008 l 1.47168,-170.027315 c 0,-3.70601 4.25463,-11.52919 8.14326,-12.95072 0,0 -104.09656,0 -104.09656,0 0,0 -103.99846,0 -103.99846,0 z"
       id="path19"
       style="fill:#ffffff;stroke-width:0.5;stroke-miterlimit:4;stroke-dasharray:none" />
    <path
       d="m 330.86624,-53.897469 -58.27409,25.031883 10.09438,3.505626 48.17971,-28.537509 0,0 z"
       id="path21"
       style="fill:#6b0000;stroke-width:0.5;stroke-miterlimit:4;stroke-dasharray:none" />
    <path
       d="m 330.86624,-53.897469 -58.27409,25.031883 10.09438,3.505626 48.17971,-28.537509 0,0 z"
       id="path23"
       style="fill:none;stroke:#000000;stroke-width:1.5625;stroke-miterlimit:4;stroke-dasharray:none" />
    <path
       d="m 247.27402,-87.030917 25.31813,58.165331 3.46594,-10.122503 -28.78407,-48.042828 0,0 z"
       id="path25"
       style="fill:#6b0000;stroke-width:0.5;stroke-miterlimit:4;stroke-dasharray:none" />
    <path
       d="m 247.27402,-87.030917 25.31813,58.165331 3.46594,-10.122503 -28.78407,-48.042828 0,0 z"
       id="path27"
       style="fill:none;stroke:#000000;stroke-width:1.5625;stroke-miterlimit:4;stroke-dasharray:none" />
    <path
       d="m 297.89747,29.29787 -25.30532,-58.163456 9.75563,4.350314 15.54969,53.813142 0,0 z"
       id="path29"
       style="fill:#6b0000;stroke-width:0.5;stroke-miterlimit:4;stroke-dasharray:none" />
    <path
       d="m 297.89747,29.29787 -25.30532,-58.163456 9.75563,4.350314 15.54969,53.813142 0,0 z"
       id="path31"
       style="fill:none;stroke:#000000;stroke-width:1.5625;stroke-miterlimit:4;stroke-dasharray:none" />
    <path
       d="m 213.9237,-4.7574533 58.66845,-24.1081327 -4.56156,9.660316 -54.10689,14.4478167 0,0 z"
       id="path33"
       style="fill:#6b0000;stroke-width:0.5;stroke-miterlimit:4;stroke-dasharray:none" />
    <path
       d="m 213.9237,-4.7574533 58.66845,-24.1081327 -4.56156,9.660316 -54.10689,14.4478167 0,0 z"
       id="path35"
       style="fill:none;stroke:#000000;stroke-width:1.5625;stroke-miterlimit:4;stroke-dasharray:none" />
    <path
       d="m 297.78497,-87.080917 -25.19282,58.215331 9.75563,-4.376251 15.43719,-53.83908 0,0 z"
       id="path37"
       style="fill:#6b0000;stroke-width:0.5;stroke-miterlimit:4;stroke-dasharray:none" />
    <path
       d="m 297.78497,-87.080917 -25.19282,58.215331 9.75563,-4.376251 15.43719,-53.83908 0,0 z"
       id="path39"
       style="fill:none;stroke:#000000;stroke-width:1.5625;stroke-miterlimit:4;stroke-dasharray:none" />
    <path
       d="m 330.92874,-3.9602655 -58.33659,-24.9053205 10.08001,-3.530001 48.25658,28.4353215 0,0 z"
       id="path41"
       style="fill:#6b0000;stroke-width:0.5;stroke-miterlimit:4;stroke-dasharray:none" />
    <path
       d="m 330.92874,-3.9602655 -58.33659,-24.9053205 10.08001,-3.530001 48.25658,28.4353215 0,0 z"
       id="path43"
       style="fill:none;stroke:#000000;stroke-width:1.5625;stroke-miterlimit:4;stroke-dasharray:none" />
    <path
       d="m 246.49121,28.948495 26.10094,-57.814081 3.32188,10.144066 -29.42282,47.670015 0,0 z"
       id="path45"
       style="fill:#6b0000;stroke-width:0.5;stroke-miterlimit:4;stroke-dasharray:none" />
    <path
       d="m 246.49121,28.948495 26.10094,-57.814081 3.32188,10.144066 -29.42282,47.670015 0,0 z"
       id="path47"
       style="fill:none;stroke:#000000;stroke-width:1.5625;stroke-miterlimit:4;stroke-dasharray:none" />
    <path
       d="m 214.25714,-53.786844 58.33501,24.921258 -10.09751,3.530314 -48.2375,-28.451572 0,0 z"
       id="path49"
       style="fill:#6b0000;stroke-width:0.5;stroke-miterlimit:4;stroke-dasharray:none" />
    <path
       d="m 214.25714,-53.786844 58.33501,24.921258 -10.09751,3.530314 -48.2375,-28.451572 0,0 z"
       id="path51"
       style="fill:none;stroke:#000000;stroke-width:1.5625;stroke-miterlimit:4;stroke-dasharray:none" />
    <path
       d="m 214.03495,-4.4780782 58.5572,-24.3875078 -10.06313,-3.633751 -48.49407,28.0212588 0,0 z"
       id="path53"
       style="fill:#e50f07;stroke-width:0.5;stroke-miterlimit:4;stroke-dasharray:none" />
    <path
       d="m 214.03495,-4.4780782 58.5572,-24.3875078 -10.06313,-3.633751 -48.49407,28.0212588 0,0 z"
       id="path55"
       style="fill:none;stroke:#000000;stroke-width:1.5625;stroke-miterlimit:4;stroke-dasharray:none" />
    <path
       d="m 297.88497,29.28787 -25.29282,-58.153456 -3.47906,10.094378 28.77188,48.059078 0,0 z"
       id="path57"
       style="fill:#e50f07;stroke-width:0.5;stroke-miterlimit:4;stroke-dasharray:none" />
    <path
       d="m 297.88497,29.28787 -25.29282,-58.153456 -3.47906,10.094378 28.77188,48.059078 0,0 z"
       id="path59"
       style="fill:none;stroke:#000000;stroke-width:1.5625;stroke-miterlimit:4;stroke-dasharray:none" />
    <path
       d="m 247.28465,-87.034042 25.3075,58.168456 -9.7672,-4.366876 -15.5403,-53.80158 0,0 z"
       id="path61"
       style="fill:#e50f07;stroke-width:0.5;stroke-miterlimit:4;stroke-dasharray:none" />
    <path
       d="m 247.28465,-87.034042 25.3075,58.168456 -9.7672,-4.366876 -15.5403,-53.80158 0,0 z"
       id="path63"
       style="fill:none;stroke:#000000;stroke-width:1.5625;stroke-miterlimit:4;stroke-dasharray:none" />
    <path
       d="m 330.88186,-53.897469 -58.28971,25.031883 4.39468,-9.739691 53.89503,-15.292192 0,0 z"
       id="path65"
       style="fill:#e50f07;stroke-width:0.5;stroke-miterlimit:4;stroke-dasharray:none" />
    <path
       d="m 330.88186,-53.897469 -58.28971,25.031883 4.39468,-9.739691 53.89503,-15.292192 0,0 z"
       id="path67"
       style="fill:none;stroke:#000000;stroke-width:1.5625;stroke-miterlimit:4;stroke-dasharray:none" />
    <path
       d="m 214.24245,-53.765594 58.3497,24.900008 -4.42969,-9.739691 -53.92001,-15.160317 0,0 z"
       id="path69"
       style="fill:#e50f07;stroke-width:0.5;stroke-miterlimit:4;stroke-dasharray:none" />
    <path
       d="m 214.24245,-53.765594 58.3497,24.900008 -4.42969,-9.739691 -53.92001,-15.160317 0,0 z"
       id="path71"
       style="fill:none;stroke:#000000;stroke-width:1.5625;stroke-miterlimit:4;stroke-dasharray:none" />
    <path
       d="m 246.76215,29.070683 25.83,-57.936269 -9.80062,4.267814 -16.02938,53.668455 0,0 z"
       id="path73"
       style="fill:#e50f07;stroke-width:0.5;stroke-miterlimit:4;stroke-dasharray:none" />
    <path
       d="m 246.76215,29.070683 25.83,-57.936269 -9.80062,4.267814 -16.02938,53.668455 0,0 z"
       id="path75"
       style="fill:none;stroke:#000000;stroke-width:1.5625;stroke-miterlimit:4;stroke-dasharray:none" />
    <path
       d="m 330.92874,-3.9602655 -58.33659,-24.9053205 4.42188,9.725316 53.91471,15.1800045 0,0 z"
       id="path77"
       style="fill:#e50f07;stroke-width:0.5;stroke-miterlimit:4;stroke-dasharray:none" />
    <path
       d="m 330.92874,-3.9602655 -58.33659,-24.9053205 4.42188,9.725316 53.91471,15.1800045 0,0 z"
       id="path79"
       style="fill:none;stroke:#000000;stroke-width:1.5625;stroke-miterlimit:4;stroke-dasharray:none" />
    <path
       d="m 297.78497,-87.080917 -25.19282,58.215331 -3.49187,-10.112816 28.68469,-48.102515 0,0 z"
       id="path81"
       style="fill:#e50f07;stroke-width:0.5;stroke-miterlimit:4;stroke-dasharray:none" />
    <path
       d="m 297.78497,-87.080917 -25.19282,58.215331 -3.49187,-10.112816 28.68469,-48.102515 0,0 z"
       id="path83"
       style="fill:none;stroke:#000000;stroke-width:1.5625;stroke-miterlimit:4;stroke-dasharray:none" />
    <path
       d="m 324.16311,-78.965602 -51.57096,50.100016 12.09595,-0.373125 39.47501,-49.726891 0,0 z"
       id="path247"
       style="fill:#6b0000;stroke-width:0.5;stroke-miterlimit:4;stroke-dasharray:none" />
    <path
       d="m 324.16311,-78.965602 -51.57096,50.100016 12.09595,-0.373125 39.47501,-49.726891 0,0 z"
       id="path249"
       style="fill:none;stroke:#000000;stroke-width:1.5625;stroke-miterlimit:4;stroke-dasharray:none" />
    <path
       d="m 322.91311,22.459743 -50.32096,-51.325329 12.08344,0.66 38.23752,50.665329 0,0 z"
       id="path251"
       style="fill:#6b0000;stroke-width:0.5;stroke-miterlimit:4;stroke-dasharray:none" />
    <path
       d="m 322.91311,22.459743 -50.32096,-51.325329 12.08344,0.66 38.23752,50.665329 0,0 z"
       id="path253"
       style="fill:none;stroke:#000000;stroke-width:1.5625;stroke-miterlimit:4;stroke-dasharray:none" />
    <path
       d="m 220.24776,20.405992 52.34439,-49.271578 -0.90406,12.069066 -51.44033,37.202512 0,0 z"
       id="path255"
       style="fill:#6b0000;stroke-width:0.5;stroke-miterlimit:4;stroke-dasharray:none" />
    <path
       d="m 220.24776,20.405992 52.34439,-49.271578 -0.90406,12.069066 -51.44033,37.202512 0,0 z"
       id="path257"
       style="fill:none;stroke:#000000;stroke-width:1.5625;stroke-miterlimit:4;stroke-dasharray:none" />
    <path
       d="m 222.25558,-80.203102 50.33657,51.337516 -12.11095,-0.662813 -38.22562,-50.674703 0,0 z"
       id="path259"
       style="fill:#6b0000;stroke-width:0.5;stroke-miterlimit:4;stroke-dasharray:none" />
    <path
       d="m 222.25558,-80.203102 50.33657,51.337516 -12.11095,-0.662813 -38.22562,-50.674703 0,0 z"
       id="path261"
       style="fill:none;stroke:#000000;stroke-width:1.5625;stroke-miterlimit:4;stroke-dasharray:none" />
    <path
       d="m 222.24339,-80.190915 50.34876,51.325329 -0.43563,-12.112504 -49.91313,-39.212825 0,0 z"
       id="path263"
       style="fill:#e50f07;stroke-width:0.5;stroke-miterlimit:4;stroke-dasharray:none" />
    <path
       d="m 222.24339,-80.190915 50.34876,51.325329 -0.43563,-12.112504 -49.91313,-39.212825 0,0 z"
       id="path265"
       style="fill:none;stroke:#000000;stroke-width:1.5625;stroke-miterlimit:4;stroke-dasharray:none" />
    <path
       d="m 220.47807,20.649117 52.11408,-49.514703 -12.11406,0.231875 -40.00002,49.282828 0,0 z"
       id="path267"
       style="fill:#e50f07;stroke-width:0.5;stroke-miterlimit:4;stroke-dasharray:none" />
    <path
       d="m 220.47807,20.649117 52.11408,-49.514703 -12.11406,0.231875 -40.00002,49.282828 0,0 z"
       id="path269"
       style="fill:none;stroke:#000000;stroke-width:1.5625;stroke-miterlimit:4;stroke-dasharray:none" />
    <path
       d="m 322.91311,22.459743 -50.32096,-51.325329 0.41438,12.094066 49.90658,39.231263 0,0 z"
       id="path271"
       style="fill:#e50f07;stroke-width:0.5;stroke-miterlimit:4;stroke-dasharray:none" />
    <path
       d="m 322.91311,22.459743 -50.32096,-51.325329 0.41438,12.094066 49.90658,39.231263 0,0 z"
       id="path273"
       style="fill:none;stroke:#000000;stroke-width:1.5625;stroke-miterlimit:4;stroke-dasharray:none" />
    <path
       d="m 324.16311,-78.965602 -51.57096,50.100016 0.71188,-12.097191 50.85908,-38.002825 0,0 z"
       id="path275"
       style="fill:#e50f07;stroke-width:0.5;stroke-miterlimit:4;stroke-dasharray:none" />
    <path
       d="m 324.16311,-78.965602 -51.57096,50.100016 0.71188,-12.097191 50.85908,-38.002825 0,0 z"
       id="path277"
       style="fill:none;stroke:#000000;stroke-width:1.5625;stroke-miterlimit:4;stroke-dasharray:none" />
    <path
       d="m 188.01275,-28.107148 84.5794,-0.758438 -9.66656,-9.517503 -74.91284,10.275941 0,0 z"
       id="path279"
       style="fill:#e50f07;stroke-width:0.5;stroke-miterlimit:4;stroke-dasharray:none" />
    <path
       d="m 273.20934,55.691004 -0.61719,-84.55659 -9.78781,9.053753 10.405,75.502837 0,0 z"
       id="path283"
       style="fill:#e50f07;stroke-width:0.5;stroke-miterlimit:4;stroke-dasharray:none" />
    <path
       d="m 273.20934,55.691004 -0.61719,-84.55659 -9.78781,9.053753 10.405,75.502837 0,0 z"
       id="path285"
       style="fill:none;stroke:#000000;stroke-width:1.5625;stroke-miterlimit:4;stroke-dasharray:none" />
    <path
       d="m 272.24497,-113.44342 0.34718,84.577834 -9.66656,-9.633441 9.31938,-74.944393 0,0 z"
       id="path287"
       style="fill:#e50f07;stroke-width:0.5;stroke-miterlimit:4;stroke-dasharray:none" />
    <path
       d="m 272.24497,-113.44342 0.34718,84.577834 -9.66625,-9.633441 9.31907,-74.944393 0,0 z"
       id="path289"
       style="fill:none;stroke:#000000;stroke-width:1.5625;stroke-miterlimit:4;stroke-dasharray:none" />
    <path
       d="m 357.15687,-29.607774 -84.56472,0.742188 9.57781,-9.716878 74.98691,8.97469 0,0 z"
       id="path291"
       style="fill:#e50f07;stroke-width:0.5;stroke-miterlimit:4;stroke-dasharray:none" />
    <path
       d="m 357.15687,-29.607774 -84.56472,0.742188 9.57781,-9.716878 74.98691,8.97469 0,0 z"
       id="path293"
       style="fill:none;stroke:#000000;stroke-width:1.5625;stroke-miterlimit:4;stroke-dasharray:none" />
    <path
       d="m 272.24497,-113.44342 0.34718,84.577834 9.57781,-9.633441 -9.92499,-74.944393 0,0 z"
       id="path295"
       style="fill:#6b0000;stroke-width:0.5;stroke-miterlimit:4;stroke-dasharray:none" />
    <path
       d="m 272.24497,-113.44342 0.34718,84.577834 9.57781,-9.633441 -9.92499,-74.944393 0,0 z"
       id="path297"
       style="fill:none;stroke:#000000;stroke-width:1.5625;stroke-miterlimit:4;stroke-dasharray:none" />
    <path
       d="m 273.21997,55.691004 -0.62782,-84.55659 9.68469,9.514691 -9.05687,75.041899 0,0 z"
       id="path299"
       style="fill:#6b0000;stroke-width:0.5;stroke-miterlimit:4;stroke-dasharray:none" />
    <path
       d="m 273.21997,55.691004 -0.62782,-84.55659 9.68469,9.514691 -9.05687,75.041899 0,0 z"
       id="path301"
       style="fill:none;stroke:#000000;stroke-width:1.5625;stroke-miterlimit:4;stroke-dasharray:none" />
    <path
       d="m 188.01275,-28.128398 84.5794,-0.737188 -9.78781,9.053753 -74.79159,-8.316565 0,0 z"
       id="path303"
       style="fill:#6b0000;stroke-width:0.5;stroke-miterlimit:4;stroke-dasharray:none" />
    <path
       d="m 188.01275,-28.128711 84.5794,-0.736875 -9.78781,9.053753 -74.79159,-8.316878 0,0 z"
       id="path305"
       style="fill:none;stroke:#000000;stroke-width:1.5625;stroke-miterlimit:4;stroke-dasharray:none" />
    <path
       d="m 188.01275,-28.107148 84.5794,-0.758438 -9.66625,-9.517503 -74.91315,10.275941 0,0 z"
       id="path281"
       style="fill:none;stroke:#000000;stroke-width:1.5625;stroke-miterlimit:4;stroke-dasharray:none" />
    <path
       d="m 357.15687,-29.625274 -84.56472,0.759688 9.55063,9.514691 75.01409,-10.274379 0,0 z"
       id="path307"
       style="fill:#6b0000;stroke-width:0.5;stroke-miterlimit:4;stroke-dasharray:none" />
    <path
       d="m 357.15687,-29.625274 -84.56472,0.759688 9.55063,9.514691 75.01409,-10.274379 0,0 z"
       id="path309"
       style="fill:none;stroke:#000000;stroke-width:1.5625;stroke-miterlimit:4;stroke-dasharray:none" />
    <path
       d="m 485.94321,-40.133187 c 6.46723,-0.715239 8.15338,-5.875208 8.50468,-9.347466 0.6571,-6.530709 -3.63298,-12.288648 -13.12835,-13.250852 -8.49181,-0.852444 -15.32817,1.498506 -16.22821,10.444793 -0.32125,3.164205 0.63424,8.794564 8.8557,11.29853 l -0.47503,4.717255 c -13.41151,-3.375429 -12.89923,-14.487372 -12.6259,-17.204035 0.82477,-8.192262 6.96306,-15.69443 20.83086,-14.29512 11.10035,1.118841 18.14946,8.225469 17.09025,18.727898 -0.9364,9.293868 -7.20081,13.533513 -13.30173,13.627799 l 0.47773,-4.718802 0,0 z"
       id="path2462"
       style="fill:#ffffff;stroke-width:0.5;stroke-miterlimit:4;stroke-dasharray:none" />
  </g>
</svg>
