<?xml version="1.0" encoding="UTF-8" standalone="no"?>
<!-- Created with Inkscape (http://www.inkscape.org/) -->

<svg
   xmlns:svg="http://www.w3.org/2000/svg"
   xmlns="http://www.w3.org/2000/svg"
   version="1.1"
   width="388"
   height="538"
   id="svg2">
  <defs
     id="defs6">
    <filter
       color-interpolation-filters="sRGB"
       id="filter9803">
      <feGaussianBlur
         id="feGaussianBlur9805"
         stdDeviation="3.354715" />
    </filter>
  </defs>
  <g
     id="g9002">
    <path
       d="m 306.25496,190.52983 -0.40886,0 -11.85698,-0.40886 -6.13292,-3.67975 -7.76667,6.13291 0.40716,-4.90633 2.0443,-1.63545 -3.27088,0.40887 2.86203,-2.04431 -2.04261,-4.49747 -2.046,2.86202 -0.81773,-3.67975 -0.81773,1.22659 0.40888,-1.22659 -1.63546,0.81773 -1.63543,-2.45317 -0.81773,1.63544 0,-2.86203 -1.22488,1.63545 -5.31689,-3.67975 -0.40887,1.22658 -3.67974,-1.22658 -2.45147,5.31519 2.45147,0.40887 -2.45147,1.22658 -1.22829,-2.04431 -4.90634,6.13292 1.22658,-4.49747 -6.54178,1.22658 8.99496,-2.45317 2.86203,-7.3595 -11.03926,-2.0443 -2.86203,5.72405 -0.40886,-2.86203 -2.45317,2.86203 0,-3.27089 -2.45147,2.86203 2.45147,-5.72406 8.17722,-7.76836 -1.63543,0 1.22827,-3.27089 -4.90803,-2.45317 -3.27089,-13.90128 -1.63545,-1.22658 -0.40716,2.45317 -4.09031,-5.72406 -11.44811,-6.54178 -17.58103,0 -7.76666,-6.95064 -2.04602,3.27089 1.2266,-6.13292 -3.67976,-4.08861 -6.13292,-3.67975 0,1.22658 0.41057,0.81772 0,11.03926 0.40715,0.81772 0,17.58103 0.40886,0.81772 -0.40886,62.55577 -0.40715,0.81772 0,11.03926 -0.41057,0.81772 0,8.99665 -0.40885,0.81602 0,0.81943 6.95062,0 1.2266,0.40715 13.49242,0 0.81771,0.40886 12.26583,0 0.81773,0.40887 10.63039,0 0.81773,0.40886 10.22153,0 0.81772,0.40886 8.99496,0 0.40885,0.40886 8.99495,0 0.81773,0.40886 6.95234,0 0.81601,0.40886 7.77007,0 0.81601,0.40886 6.95066,0 0.81942,0.40886 6.13122,0 0.81772,0.40887 5.72406,0 0.40886,-0.81773 0,-3.67804 0.41057,-0.81943 0,-3.67975 0.40715,-0.81772 0,-3.67975 0.40886,-0.81773 0,-4.90633 0.40887,-0.81773 0,-5.31519 0.40886,-0.81772 0,-7.3595 0.40886,-1.22659 0,-8.99495 0.40886,-0.81772 0,-1.22658 z m -115.70774,-44.56588 -0.40886,-0.81772 0,-17.58103 -0.40715,-0.81772 0,-11.03926 -0.41057,-0.81772 0,-1.22658 -1.22489,-0.81773 -4.0903,0.40886 0,-5.31519 -4.90634,-2.86203 -4.49748,0.40886 -0.81772,-1.22658 -8.58608,0 -0.81773,-0.40886 -30.25572,0 -1.22659,-0.40887 -13.49242,0 0.81772,2.04431 0,2.45317 -4.08862,1.63544 -2.86203,-4.90633 0.81773,-1.22659 -23.305077,0 0.410548,3.27089 -8.178919,5.72406 0.817723,4.08861 -3.270893,8.58609 -1.635446,14.71901 3.269193,2.0443 -0.407162,1.63545 -4.086916,6.13291 -5.316888,1.63545 0.408848,4.08861 -3.270879,0.81772 0.408848,3.67976 -6.541773,1.63544 0,20.44306 0.817723,-0.81772 0.81601,2.45317 -1.633733,4.90633 0,21.66965 6.541773,9.4038 4.906339,11.44812 5.315201,0 1.226599,-0.40886 27.802541,0 0.81772,0.40886 44.97475,0 0.81772,0.40886 22.08021,0 0.81602,0.41057 10.22154,0 0,-0.81943 0.40885,-0.81602 0,-8.99665 0.41057,-0.81772 0,-11.03926 0.40715,-0.81772 0.40886,-62.55577 z m -7.76836,-42.52157 0.40885,-4.088607 -4.49746,0.408862 1.22658,2.862025 -2.86203,1.22659 5.72406,-0.40887 z m -68.68869,0 2.86203,-4.088607 -2.45316,-5.315197 5.31689,-3.27089 -3.68146,-2.453166 -9.81096,7.359502 -5.72576,-0.408862 -0.817728,2.044307 -3.679742,-0.817722 -2.453183,2.044305 -2.862004,4.08861 0,0.81772 23.305077,0 z m 59.69374,0.81773 -2.45316,-2.45317 6.13293,-2.044305 -14.71902,0 3.67975,1.226585 -8.58608,2.45316 -7.35781,-3.679745 -11.85697,0.817725 -1.63543,-4.088615 -7.77007,-2.044307 -2.86204,-4.497473 -1.22658,3.67975 2.86203,-0.408861 0,1.635446 -2.04431,-0.817724 -8.99495,4.497474 2.45317,4.90633 13.49242,0 1.22659,0.40887 30.25572,0 0.81773,0.40886 8.58608,0 z m 8.99495,-0.81773 0.40885,-4.088607 -4.49746,0.408862 1.22658,2.862025 -2.86203,1.22659 5.72406,-0.40887 z m -119.387483,85.04314 -8.177219,5.72406 2.862031,8.99494 -2.044308,2.04431 7.359496,4.90634 0,-21.66965 z m 0,-4.08861 -1.637146,0 0.819423,1.63544 0.817723,-0.81772 0,-0.81772 z m 0,-18.39876 -3.270879,3.27089 1.226571,1.63545 -4.086889,2.45317 0.407148,8.58608 4.086903,2.45317 1.637146,-2.45317 0,-15.94559 z m 0,-4.49747 -0.817723,0.40886 0.817723,2.45317 0,-2.86203 z m 79.727933,-33.93548 2.45319,-5.72406 4.49746,-3.27089 4.90634,-1.63544 4.90634,1.63544 15.53673,-5.72406 0.40885,-1.63544 -1.22659,-5.3152 1.63545,6.54178 2.86203,0.40886 -14.71901,4.08862 -4.90633,1.63544 -4.49747,-1.63544 -4.49578,1.63544 -7.36121,8.99495 z m 29.84688,-9.40381 -0.81773,6.13292 -1.22487,-5.3152 2.0426,-0.81772 z m -109.574813,67.05324 0.410575,-0.81772 -0.410575,0 0,0.81772 z m 79.727933,-57.64943 2.45319,-5.72406 4.49746,-3.27089 4.90634,-1.63544 4.90634,1.63544 15.53673,-5.72406 0.40885,-1.63544 -1.22659,-5.3152 1.63545,6.54178 2.86203,0.40886 -14.71901,4.08862 -4.90633,1.63544 -4.49747,-1.63544 -4.49578,1.63544 -7.36121,8.99495 z m 29.84688,-9.40381 -0.81773,6.13292 -1.22487,-5.3152 2.0426,-0.81772 z m 77.68363,51.92538 2.04602,-2.45317 -4.09033,0.40886 2.04431,2.04431 z m -8.17552,14.31014 -1.22829,-3.67975 5.31521,0.40886 -1.63545,2.45317 0.81772,2.0443 -2.45317,-4.49747 -0.81602,3.27089 z m -21.67133,-47.4279 0.8177,2.45316 -3.27088,0.40887 2.45318,-2.86203 z m 29.84685,33.11776 2.04602,-2.45317 -4.09033,0.40886 2.04431,2.04431 z m -8.17552,14.31014 -1.22829,-3.67975 5.31521,0.40886 -1.63545,2.45317 0.81772,2.0443 -2.45317,-4.49747 -0.81602,3.27089 z m -21.67133,-47.4279 0.8177,2.45316 -3.27088,0.40887 2.45318,-2.86203 z m 101.80814,100.98872 6.94894,-10.22153 1.22658,-7.76666 -1.22658,-10.6321 -1.63545,-2.45316 -7.76836,-1.63545 -6.13121,-8.58608 -7.77007,-6.13292 0,1.22658 -0.40886,0.81772 0,8.99495 -0.40886,1.22659 0,7.3595 -0.40886,0.81772 0,5.31519 -0.40887,0.81773 0,4.90633 -0.40886,0.81773 0,3.67975 -0.40715,0.81772 0,3.67975 -0.41057,0.81943 0,3.67804 -0.40886,0.81773 0.81943,0.40886 6.13121,0 0.81943,0.40886 4.90463,0 1.22658,0.40886 4.49748,0 1.22828,0.40886 z m 0,0 6.94894,-10.22153 1.22658,-7.76666 -1.22658,-10.6321 -1.63545,-2.45316 -7.76836,-1.63545 -6.13121,-8.58608 -7.77007,-6.13292 m -103.4419,150.05378 1.63544,15.12615 0.81774,0.40888 11.44811,0 0.81771,0.40885 9.81268,0 0.81772,0.40886 1.22658,0 2.86373,-4.08862 6.13122,-4.08859 3.27089,-8.17553 -0.81603,-5.31692 3.26919,-4.0903 -1.63374,-1.22317 2.45147,0.40885 4.49918,-4.49918 6.94893,-4.49746 4.90804,0 6.54007,-5.31521 4.08862,1.22489 2.86203,-2.45147 -0.40887,2.04601 5.31521,0.40546 0.81771,-2.86033 5.72407,-2.86203 0,-3.27088 7.3612,-9.40382 0.40716,-1.22659 0,-0.81942 0.40887,-0.81431 0,-0.81944 0.40885,-0.8177 0,-2.04261 0.40887,-0.81943 0,-0.81772 0.40886,-0.81942 0,-1.22489 0.40886,-0.81772 0,-1.63374 0.40886,-0.81943 0,-1.22658 0.40886,-0.81943 0,-1.63374 0.40886,-1.22658 0,-1.63374 0.40886,-0.81943 0,-0.81772 0.40886,-1.22488 0,-1.63715 0.40887,-0.81772 0,-2.04431 0.40886,-0.81772 0,-2.0426 0.40886,-0.81943 0,-1.63715 0.40886,-1.22488 0,-1.63544 0.40886,-0.81602 0,-2.04601 0.41057,-0.81943 0,-2.0426 0.40715,-0.81772 0,-2.86203 0.40886,-0.81772 0,-1.63375 0.40887,-1.22828 0,-2.45317 0.41056,-1.22658 0,-2.45317 0.40716,-1.22658 0,-2.86203 0.40886,-0.81773 0,-2.86202 -5.72406,0 -0.81772,-0.40887 -6.13122,0 -0.81942,-0.40886 -6.95066,0 -0.81601,-0.40886 -7.77007,0 -0.81601,-0.40886 -6.95234,0 -0.81773,-0.40886 -8.99495,0 -0.40885,-0.40886 -8.99496,0 -0.81772,-0.40886 -10.22153,0 -0.81773,-0.40886 -10.63039,0 -0.81773,-0.40887 -12.26583,0 -0.81771,-0.40886 -13.49242,0 -1.2266,-0.40715 -6.95062,0 0,7.35779 -0.40888,1.22829 0,6.54008 -0.40716,0.81772 0,5.72406 -0.41056,0.81772 0,5.72406 -0.40886,0.81772 0,5.72235 -0.40885,0.81943 0,4.49918 -0.40887,1.22317 0,4.49918 -0.40885,0.81772 0,3.68146 -0.40886,0.81772 0,3.67634 -0.40888,1.22829 0,3.67975 -0.40885,0.81943 0,3.67975 -0.40887,0.81431 0,3.67976 -0.40885,0.81942 0,3.67975 -0.40886,0.81773 0,2.86203 -0.40888,0.81942 0,3.67976 -0.40885,0.81431 0,2.45657 -0.40887,1.22318 0,2.45657 -0.40885,0.81431 0,2.86545 -0.40886,0.81602 21.26078,15.94729 z M 74.839489,231.00709 l 3.679755,8.17722 9.405504,13.08527 -1.228272,3.27089 2.862018,4.90463 4.908053,4.90804 22.485653,11.85527 6.95064,6.95064 0.81774,9.81267 0,8.99665 -3.67977,12.67299 0.81773,11.04097 -6.95064,21.25736 1.22657,5.72748 -0.40884,0.40886 0.81942,0.40885 65.00723,-29.84856 0.40886,-0.81602 0,-2.86545 0.40885,-0.81431 0,-2.45657 0.40887,-1.22318 0,-2.45657 0.40885,-0.81431 0,-3.67976 0.40888,-0.81942 0,-2.86203 0.40886,-0.81773 0,-3.67975 0.40885,-0.81942 0,-3.67976 0.40887,-0.81431 0,-3.67975 0.40885,-0.81943 0,-3.67975 0.40888,-1.22829 0,-3.67634 0.40886,-0.81772 0,-3.68146 0.40885,-0.81772 0,-4.49918 0.40887,-1.22317 0,-4.49918 0.40885,-0.81943 0,-5.72235 0.40886,-0.81772 0,-5.72406 0.41056,-0.81772 0,-5.72406 0.40716,-0.81772 0,-6.54008 0.40888,-1.22829 0,-7.35779 -10.22154,0 -0.81602,-0.41057 -22.08021,0 -0.81772,-0.40886 -44.97475,0 -0.81772,-0.40886 -27.802541,0 -1.226599,0.40886 -5.315201,0 z m 218.742471,67.87096 1.63375,-2.04601 2.0443,-7.35609 3.2726,-4.09032 6.54007,-30.66459 0.81772,-1.22658 0.81773,2.45146 2.45316,-2.0426 11.44982,-15.94559 -1.22828,-0.40886 -4.49748,0 -1.22658,-0.40886 -4.90463,0 -0.81943,-0.40886 -6.13121,0 -0.81943,-0.40886 0,2.86202 -0.40886,0.81773 0,2.86203 -0.40716,1.22658 0,2.45317 -0.41056,1.22658 0,2.45317 -0.40887,1.22828 0,1.63375 -0.40886,0.81772 0,2.86203 -0.40715,0.81772 0,2.0426 -0.41057,0.81943 0,2.04601 -0.40886,0.81602 0,1.63544 -0.40886,1.22488 0,1.63715 -0.40886,0.81943 0,2.0426 -0.40886,0.81772 0,2.04431 -0.40887,0.81772 0,1.63715 -0.40886,1.22488 0,0.81772 -0.40886,0.81943 0,1.63374 -0.40886,1.22658 0,1.63374 -0.40886,0.81943 0,1.22658 -0.40886,0.81943 0,1.63374 -0.40886,0.81772 0,1.22489 -0.40886,0.81942 0,0.81772 -0.40887,0.81943 0,2.04261 -0.40885,0.8177 0,0.81944 -0.40887,0.81431 0,0.81942 -0.40716,1.22659 z M 102.2332,458.7428 l 0.40885,0 -0.40885,0 z m 2.04431,-24.53169 0.40885,-2.04258 -2.45316,1.22316 2.04431,0.81942 z m -8.994953,17.98992 2.45487,0.41054 -1.228285,-2.45657 -1.226585,2.04603 z m 8.177223,2.0443 0.40886,-2.86203 1.2266,2.04261 0.40884,-1.63376 1.22659,3.27089 -3.27089,-0.81771 z m 0.81773,-9.4038 1.22657,-2.45147 6.95065,0.40885 -4.90634,0 -3.27088,2.04262 z m 6.95062,-31.07348 2.45319,1.63716 -2.45319,0.40887 0,-2.04603 z m -5.72405,2.86204 0,-2.04431 1.63544,1.63375 -1.63544,0.41056 z m -8.177215,24.53167 1.635447,0.81772 -1.224885,1.22489 -0.410562,-2.04261 z m -1.63546,17.58104 2.046022,-0.40886 -1.228285,-5.72237 -0.817737,3.67976 -2.453156,-0.40885 1.63546,2.45146 2.044295,-2.45146 -1.226599,2.86032 z m 6.541795,0 7.76835,0 1.22658,0.40885 10.63041,0 -0.40887,-1.22658 0.81773,1.22658 2.04431,0 2.0443,-4.49747 8.58607,-4.90462 0.40888,-3.67976 -4.08861,-0.81942 -3.27089,-4.49747 3.67974,-4.09033 6.54179,-1.63373 1.63543,-6.13122 5.3152,-3.2709 -2.86202,-1.63714 2.86202,-0.81943 1.22659,2.04772 2.45487,-1.63716 -0.41058,-2.45315 -3.67974,1.63373 -2.45316,-2.04261 1.22659,-6.95064 5.72405,2.45148 6.95065,-1.22319 1.63544,-8.17892 1.22827,0.40885 -0.81942,-3.27088 5.72408,1.2283 5.72403,-0.81945 0,-1.63714 0.40886,-0.81431 0,-1.22829 0.40888,-0.81772 0,-1.63374 0.41056,-0.81942 0,-1.63715 0.40716,-0.81432 0,-1.22828 0.40885,-0.81774 0,-1.63373 0.40886,-0.81943 0,-0.81772 0.40888,-0.81942 0,-1.63375 0.40885,-0.40886 0,-1.63375 0.40887,-0.81772 0,-1.63715 0.40885,-0.81942 0,-2.45147 0.40886,-0.81942 0,-1.63374 0.40886,-0.81772 0,-1.22489 0.40886,-0.81772 -58.46544,-19.62534 -0.81942,-0.40885 -2.45319,3.67975 0,17.17216 -8.58608,19.21477 -2.86203,1.2283 2.45318,11.44641 -4.08861,8.17892 2.45315,2.86032 2.45319,-0.40885 1.63543,0.40885 1.63545,-0.81771 -2.86204,2.86032 2.45489,1.2283 -0.81945,1.63373 -1.63544,-1.22487 1.63544,1.63373 -1.63544,-0.40886 -1.22657,4.90804 1.63544,2.04261 -2.86202,1.22828 3.27258,2.04261 -4.49918,3.27429 3.67975,0.81601 -3.27087,0.40887 -0.40888,1.63714 1.63545,-0.81942 -2.0443,4.49918 -1.22658,-2.046 -2.451473,0.40885 2.042595,-0.40885 -1.635433,0 1.228271,-1.63376 -1.635433,1.22319 -1.228285,-1.22319 -1.635433,0.40888 2.453156,0.81431 -1.226585,1.63714 -3.681454,1.63375 1.637146,1.2283 -1.226571,-1.2283 2.862004,-1.22317 0.408875,1.63373 2.453157,-0.41056 1.226585,2.45657 -2.453157,1.22489 2.862035,0 -3.679758,1.22657 4.088608,-0.81773 2.45318,2.04603 -2.04431,-0.40888 1.22659,1.63376 -5.315206,-1.22488 3.270896,1.63374 -2.451473,1.22827 1.635433,0.40888 -1.635433,3.27088 1.635433,-1.22829 1.63376,2.45317 -2.862031,-0.41056 0.817723,1.63715 3.270898,0 z m 2.04431,-24.53169 0.40885,-2.04258 -2.45316,1.22316 2.04431,0.81942 z m -8.994953,17.98992 2.45487,0.41054 -1.228285,-2.45657 -1.226585,2.04603 z m 8.177223,2.0443 0.40886,-2.86203 1.2266,2.04261 0.40884,-1.63376 1.22659,3.27089 -3.27089,-0.81771 z m 0.81773,-9.4038 1.22657,-2.45147 6.95065,0.40885 -4.90634,0 -3.27088,2.04262 z m 6.95062,-31.07348 2.45319,1.63716 -2.45319,0.40887 0,-2.04603 z m -5.72405,2.86204 0,-2.04431 1.63544,1.63375 -1.63544,0.41056 z m -8.177215,24.53167 1.635447,0.81772 -1.224885,1.22489 -0.410562,-2.04261 z m 77.683625,-67.05154 -0.40886,0.81772 0,1.22489 -0.40886,0.81772 0,1.63374 -0.40886,0.81942 0,2.45147 -0.40885,0.81942 0,1.63715 -0.40887,0.81772 0,1.63375 -0.40885,0.40886 0,1.63375 -0.40888,0.81942 0,0.81772 -0.40886,0.81943 0,1.63373 -0.40885,0.81774 0,1.22828 -0.40716,0.81432 0,1.63715 -0.41056,0.81942 0,1.63374 -0.40888,0.81772 0,1.22829 -0.40886,0.81431 0,1.63714 7.35951,-1.22657 4.90634,-2.45317 5.72405,-6.13121 0.41056,-3.27089 -2.86373,-2.04773 2.04431,-3.67974 -6.1312,-4.90464 1.22486,-2.86031 2.45318,3.27089 7.76836,2.86033 10.22153,-1.2266 9.81268,-8.99493 3.67974,-6.95064 7.76837,-8.17894 -0.81772,-2.0426 3.27088,2.86203 -9.81266,9.40211 7.76835,-5.72237 4.90634,-6.13291 -1.22658,0 -0.81772,-0.40886 -9.81268,0 -0.81771,-0.40885 -11.44811,0 -0.81774,-0.40888 -29.43801,18.40046 z m -72.36844,84.63258 4.90634,0.81942 -4.08861,0.81431 0,1.63715 -1.22658,-3.27088 0.40885,0 z m 22.89623,22.0768 6.13292,-1.63373 -8.99493,-3.2709 -3.2709,-5.72236 -6.54178,1.22488 0,2.45146 4.08861,0.40888 -3.27088,2.45657 4.08861,1.63373 -1.63546,1.22658 0,-1.63543 -1.22657,0.81771 -4.49748,-1.63373 2.86202,1.63373 -2.04431,0.40888 -0.40884,-1.22659 -4.08862,1.22659 18.80761,1.63373 z m -11.85696,0.40885 2.04431,1.63716 -0.40888,-1.22659 2.45318,0 -0.40887,1.22659 3.2709,0.81943 -3.67976,-2.86544 2.45317,-0.40546 -5.72405,0.81431 z m -11.03927,-4.49405 3.2709,-1.2283 -3.2709,-1.63715 -2.45315,1.2283 2.0443,1.63715 2.04431,-0.81943 -1.63546,0.81943 z m 0.40888,-3.67976 2.04431,1.22319 -0.81773,-1.22319 4.49747,-2.04771 -4.49747,0 -1.22658,2.04771 z m -4.088618,-0.41055 3.679738,1.22486 -6.132908,-2.86202 2.45317,1.63716 z m 11.856978,3.68143 2.45315,1.22319 -0.81771,-2.86034 -1.63544,1.63715 z m -0.40887,1.22319 -2.45145,-1.22319 0,1.22319 2.45145,0 z m -15.127863,-18.39706 -1.63546,0 0.408875,1.63376 1.226585,-1.63376 z m 26.984843,0 0.40887,0.41057 1.63544,-0.41057 -2.04431,0 z m -19.62535,-0.40885 4.90634,0.81942 -4.08861,0.81431 0,1.63715 -1.22658,-3.27088 -3.270888,0 0.81771,1.63373 -3.27088,-0.40543 2.863718,0.81431 0,2.04769 1.63376,-2.04769 1.22658,1.22827 -3.679763,1.2283 2.044303,0.81432 -1.22488,2.04771 2.45147,2.04259 0,-2.04259 0.81772,2.04259 -0.81772,-2.45315 2.86203,1.22827 -3.27088,-1.63715 2.0443,-1.22827 -0.81773,1.63715 2.45319,1.22827 -1.63546,2.86203 0.81773,-2.046 -1.22658,1.63544 0,-1.22659 -2.86203,0 0,3.27089 3.27088,-1.22488 -2.0443,2.04261 1.63545,0.40887 0.40885,-2.45148 5.3152,0 0.40885,2.45148 -2.45316,2.04428 0.81772,-1.63373 -2.45315,0.81431 4.08859,2.04602 2.0443,-4.90804 6.95236,-2.04261 3.26918,0.40887 -2.0443,-3.26918 -2.45317,0 2.45317,0 -1.63544,-2.04771 4.90634,-4.0852 -0.81773,-0.81945 -10.63041,0 -1.22658,-0.40885 -7.3595,0 z m 22.89623,22.0768 6.13292,-1.63373 -8.99493,-3.2709 -3.2709,-5.72236 -6.54178,1.22488 0,2.45146 4.08861,0.40888 -3.27088,2.45657 4.08861,1.63373 -1.63546,1.22658 0,-1.63543 -1.22657,0.81771 -4.49748,-1.63373 2.86202,1.63373 -2.04431,0.40888 -0.40884,-1.22659 -4.08862,1.22659 18.80761,1.63373 z m -11.85696,0.40885 2.04431,1.63716 -0.40888,-1.22659 2.45318,0 -0.40887,1.22659 3.2709,0.81943 -3.67976,-2.86544 2.45317,-0.40546 -5.72405,0.81431 z m -11.03927,-4.49405 3.2709,-1.2283 -3.2709,-1.63715 -2.45315,1.2283 2.0443,1.63715 2.04431,-0.81943 -1.63546,0.81943 z m 0.40888,-3.67976 2.04431,1.22319 -0.81773,-1.22319 4.49747,-2.04771 -4.49747,0 -1.22658,2.04771 z m -4.088618,-0.41055 3.679738,1.22486 -6.132908,-2.86202 2.45317,1.63716 z m 11.856978,3.68143 2.45315,1.22319 -0.81771,-2.86034 -1.63544,1.63715 z m -0.40887,1.22319 -2.45145,-1.22319 0,1.22319 2.45145,0 z m -15.127863,-18.39706 -1.63546,0 0.408875,1.63376 1.226585,-1.63376 z"
       id="path9781"
       style="opacity:0.83739833;fill:#000000;fill-opacity:1;stroke:none;filter:url(#filter9803)" />
    <path
       d="m 303.25496,189.52983 -0.40886,0 -11.85698,-0.40886 -6.13292,-3.67975 -7.76667,6.13291 0.40716,-4.90633 2.0443,-1.63545 -3.27088,0.40887 2.86203,-2.04431 -2.04261,-4.49747 -2.046,2.86202 -0.81773,-3.67975 -0.81773,1.22659 0.40888,-1.22659 -1.63546,0.81773 -1.63543,-2.45317 -0.81773,1.63544 0,-2.86203 -1.22488,1.63545 -5.31689,-3.67975 -0.40887,1.22658 -3.67974,-1.22658 -2.45147,5.31519 2.45147,0.40887 -2.45147,1.22658 -1.22829,-2.04431 -4.90634,6.13292 1.22658,-4.49747 -6.54178,1.22658 8.99496,-2.45317 2.86203,-7.3595 -11.03926,-2.0443 -2.86203,5.72405 -0.40886,-2.86203 -2.45317,2.86203 0,-3.27089 -2.45147,2.86203 2.45147,-5.72406 8.17722,-7.76836 -1.63543,0 1.22827,-3.27089 -4.90803,-2.45317 -3.27089,-13.90128 -1.63545,-1.22658 -0.40716,2.45317 -4.09031,-5.72406 -11.44811,-6.54178 -17.58103,0 -7.76666,-6.95064 -2.04602,3.27089 1.2266,-6.13292 -3.67976,-4.08861 -6.13292,-3.67975 0,1.22658 0.41057,0.81772 0,11.03926 0.40715,0.81772 0,17.58103 0.40886,0.81772 -0.40886,62.55577 -0.40715,0.81772 0,11.03926 -0.41057,0.81772 0,8.99665 -0.40885,0.81602 0,0.81943 6.95062,0 1.2266,0.40715 13.49242,0 0.81771,0.40886 12.26583,0 0.81773,0.40887 10.63039,0 0.81773,0.40886 10.22153,0 0.81772,0.40886 8.99496,0 0.40885,0.40886 8.99495,0 0.81773,0.40886 6.95234,0 0.81601,0.40886 7.77007,0 0.81601,0.40886 6.95066,0 0.81942,0.40886 6.13122,0 0.81772,0.40887 5.72406,0 0.40886,-0.81773 0,-3.67804 0.41057,-0.81943 0,-3.67975 0.40715,-0.81772 0,-3.67975 0.40886,-0.81773 0,-4.90633 0.40887,-0.81773 0,-5.31519 0.40886,-0.81772 0,-7.3595 0.40886,-1.22659 0,-8.99495 0.40886,-0.81772 0,-1.22658 z m -115.70774,-44.56588 -0.40886,-0.81772 0,-17.58103 -0.40715,-0.81772 0,-11.03926 -0.41057,-0.81772 0,-1.22658 -1.22489,-0.81773 -4.0903,0.40886 0,-5.31519 -4.90634,-2.86203 -4.49748,0.40886 -0.81772,-1.22658 -8.58608,0 -0.81773,-0.40886 -30.25572,0 -1.22659,-0.40887 -13.49242,0 0.81772,2.04431 0,2.45317 -4.08862,1.63544 -2.86203,-4.90633 0.81773,-1.22659 -23.305077,0 0.410548,3.27089 -8.178919,5.72406 0.817723,4.08861 -3.270893,8.58609 -1.635446,14.71901 3.269193,2.0443 -0.407162,1.63545 -4.086916,6.13291 -5.316888,1.63545 0.408848,4.08861 -3.270879,0.81772 0.408848,3.67976 -6.541773,1.63544 0,20.44306 0.817723,-0.81772 0.81601,2.45317 -1.633733,4.90633 0,21.66965 6.541773,9.4038 4.906339,11.44812 5.315201,0 1.226599,-0.40886 27.802541,0 0.81772,0.40886 44.97475,0 0.81772,0.40886 22.08021,0 0.81602,0.41057 10.22154,0 0,-0.81943 0.40885,-0.81602 0,-8.99665 0.41057,-0.81772 0,-11.03926 0.40715,-0.81772 0.40886,-62.55577 z m -7.76836,-42.52157 0.40885,-4.088607 -4.49746,0.408862 1.22658,2.862025 -2.86203,1.22659 5.72406,-0.40887 z m -68.68869,0 2.86203,-4.088607 -2.45316,-5.315197 5.31689,-3.27089 -3.68146,-2.453166 -9.81096,7.359502 -5.725765,-0.408862 -0.817723,2.044307 -3.679742,-0.817722 -2.453183,2.044305 -2.862004,4.08861 0,0.81772 23.305077,0 z m 59.69374,0.81773 -2.45316,-2.45317 6.13293,-2.044305 -14.71902,0 3.67975,1.226582 -8.58608,2.453163 -7.35781,-3.679745 -11.85697,0.817722 -1.63543,-4.088612 -7.77007,-2.044307 -2.86204,-4.497473 -1.22658,3.67975 2.86203,-0.408861 0,1.635446 -2.04431,-0.817724 -8.99495,4.497474 2.45317,4.90633 13.49242,0 1.22659,0.40887 30.25572,0 0.81773,0.40886 8.58608,0 z m 8.99495,-0.81773 0.40885,-4.088607 -4.49746,0.408862 1.22658,2.862025 -2.86203,1.22659 5.72406,-0.40887 z m -119.387483,85.04314 -8.177219,5.72406 2.862031,8.99494 -2.044308,2.04431 7.359496,4.90634 0,-21.66965 z m 0,-4.08861 -1.637146,0 0.819423,1.63544 0.817723,-0.81772 0,-0.81772 z m 0,-18.39876 -3.270879,3.27089 1.226571,1.63545 -4.086889,2.45317 0.407148,8.58608 4.086903,2.45317 1.637146,-2.45317 0,-15.94559 z m 0,-4.49747 -0.817723,0.40886 0.817723,2.45317 0,-2.86203 z m 79.727933,-33.93548 2.45319,-5.72406 4.49746,-3.27089 4.90634,-1.63544 4.90634,1.63544 15.53673,-5.72406 0.40885,-1.63544 -1.22659,-5.3152 1.63545,6.54178 2.86203,0.40886 -14.71901,4.08862 -4.90633,1.63544 -4.49747,-1.63544 -4.49578,1.63544 -7.36121,8.99495 z m 29.84688,-9.40381 -0.81773,6.13292 -1.22487,-5.3152 2.0426,-0.81772 z m -109.574813,67.05324 0.410575,-0.81772 -0.410575,0 0,0.81772 z m 79.727933,-57.64943 2.45319,-5.72406 4.49746,-3.27089 4.90634,-1.63544 4.90634,1.63544 15.53673,-5.72406 0.40885,-1.63544 -1.22659,-5.3152 1.63545,6.54178 2.86203,0.40886 -14.71901,4.08862 -4.90633,1.63544 -4.49747,-1.63544 -4.49578,1.63544 -7.36121,8.99495 z m 29.84688,-9.40381 -0.81773,6.13292 -1.22487,-5.3152 2.0426,-0.81772 z m 77.68363,51.92538 2.04602,-2.45317 -4.09033,0.40886 2.04431,2.04431 z m -8.17552,14.31014 -1.22829,-3.67975 5.31521,0.40886 -1.63545,2.45317 0.81772,2.0443 -2.45317,-4.49747 -0.81602,3.27089 z m -21.67133,-47.4279 0.8177,2.45316 -3.27088,0.40887 2.45318,-2.86203 z m 29.84685,33.11776 2.04602,-2.45317 -4.09033,0.40886 2.04431,2.04431 z m -8.17552,14.31014 -1.22829,-3.67975 5.31521,0.40886 -1.63545,2.45317 0.81772,2.0443 -2.45317,-4.49747 -0.81602,3.27089 z m -21.67133,-47.4279 0.8177,2.45316 -3.27088,0.40887 2.45318,-2.86203 z m 101.80814,100.98872 6.94894,-10.22153 1.22658,-7.76666 -1.22658,-10.6321 -1.63545,-2.45316 -7.76836,-1.63545 -6.13121,-8.58608 -7.77007,-6.13292 0,1.22658 -0.40886,0.81772 0,8.99495 -0.40886,1.22659 0,7.3595 -0.40886,0.81772 0,5.31519 -0.40887,0.81773 0,4.90633 -0.40886,0.81773 0,3.67975 -0.40715,0.81772 0,3.67975 -0.41057,0.81943 0,3.67804 -0.40886,0.81773 0.81943,0.40886 6.13121,0 0.81943,0.40886 4.90463,0 1.22658,0.40886 4.49748,0 1.22828,0.40886 z m 0,0 6.94894,-10.22153 1.22658,-7.76666 -1.22658,-10.6321 -1.63545,-2.45316 -7.76836,-1.63545 -6.13121,-8.58608 -7.77007,-6.13292 m -103.4419,150.05378 1.63544,15.12615 0.81774,0.40888 11.44811,0 0.81771,0.40885 9.81268,0 0.81772,0.40886 1.22658,0 2.86373,-4.08862 6.13122,-4.08859 3.27089,-8.17553 -0.81603,-5.31692 3.26919,-4.0903 -1.63374,-1.22317 2.45147,0.40885 4.49918,-4.49918 6.94893,-4.49746 4.90804,0 6.54007,-5.31521 4.08862,1.22489 2.86203,-2.45147 -0.40887,2.04601 5.31521,0.40546 0.81771,-2.86033 5.72407,-2.86203 0,-3.27088 7.3612,-9.40382 0.40716,-1.22659 0,-0.81942 0.40887,-0.81431 0,-0.81944 0.40885,-0.8177 0,-2.04261 0.40887,-0.81943 0,-0.81772 0.40886,-0.81942 0,-1.22489 0.40886,-0.81772 0,-1.63374 0.40886,-0.81943 0,-1.22658 0.40886,-0.81943 0,-1.63374 0.40886,-1.22658 0,-1.63374 0.40886,-0.81943 0,-0.81772 0.40886,-1.22488 0,-1.63715 0.40887,-0.81772 0,-2.04431 0.40886,-0.81772 0,-2.0426 0.40886,-0.81943 0,-1.63715 0.40886,-1.22488 0,-1.63544 0.40886,-0.81602 0,-2.04601 0.41057,-0.81943 0,-2.0426 0.40715,-0.81772 0,-2.86203 0.40886,-0.81772 0,-1.63375 0.40887,-1.22828 0,-2.45317 0.41056,-1.22658 0,-2.45317 0.40716,-1.22658 0,-2.86203 0.40886,-0.81773 0,-2.86202 -5.72406,0 -0.81772,-0.40887 -6.13122,0 -0.81942,-0.40886 -6.95066,0 -0.81601,-0.40886 -7.77007,0 -0.81601,-0.40886 -6.95234,0 -0.81773,-0.40886 -8.99495,0 -0.40885,-0.40886 -8.99496,0 -0.81772,-0.40886 -10.22153,0 -0.81773,-0.40886 -10.63039,0 -0.81773,-0.40887 -12.26583,0 -0.81771,-0.40886 -13.49242,0 -1.2266,-0.40715 -6.95062,0 0,7.35779 -0.40888,1.22829 0,6.54008 -0.40716,0.81772 0,5.72406 -0.41056,0.81772 0,5.72406 -0.40886,0.81772 0,5.72235 -0.40885,0.81943 0,4.49918 -0.40887,1.22317 0,4.49918 -0.40885,0.81772 0,3.68146 -0.40886,0.81772 0,3.67634 -0.40888,1.22829 0,3.67975 -0.40885,0.81943 0,3.67975 -0.40887,0.81431 0,3.67976 -0.40885,0.81942 0,3.67975 -0.40886,0.81773 0,2.86203 -0.40888,0.81942 0,3.67976 -0.40885,0.81431 0,2.45657 -0.40887,1.22318 0,2.45657 -0.40885,0.81431 0,2.86545 -0.40886,0.81602 21.26078,15.94729 z M 71.839489,230.00709 l 3.679755,8.17722 9.405504,13.08527 -1.228272,3.27089 2.862018,4.90463 4.908053,4.90804 22.485653,11.85527 6.95064,6.95064 0.81774,9.81267 0,8.99665 -3.67977,12.67299 0.81773,11.04097 -6.95064,21.25736 1.22657,5.72748 -0.40884,0.40886 0.81942,0.40885 65.00723,-29.84856 0.40886,-0.81602 0,-2.86545 0.40885,-0.81431 0,-2.45657 0.40887,-1.22318 0,-2.45657 0.40885,-0.81431 0,-3.67976 0.40888,-0.81942 0,-2.86203 0.40886,-0.81773 0,-3.67975 0.40885,-0.81942 0,-3.67976 0.40887,-0.81431 0,-3.67975 0.40885,-0.81943 0,-3.67975 0.40888,-1.22829 0,-3.67634 0.40886,-0.81772 0,-3.68146 0.40885,-0.81772 0,-4.49918 0.40887,-1.22317 0,-4.49918 0.40885,-0.81943 0,-5.72235 0.40886,-0.81772 0,-5.72406 0.41056,-0.81772 0,-5.72406 0.40716,-0.81772 0,-6.54008 0.40888,-1.22829 0,-7.35779 -10.22154,0 -0.81602,-0.41057 -22.08021,0 -0.81772,-0.40886 -44.97475,0 -0.81772,-0.40886 -27.802541,0 -1.226599,0.40886 -5.315201,0 z m 218.742471,67.87096 1.63375,-2.04601 2.0443,-7.35609 3.2726,-4.09032 6.54007,-30.66459 0.81772,-1.22658 0.81773,2.45146 2.45316,-2.0426 11.44982,-15.94559 -1.22828,-0.40886 -4.49748,0 -1.22658,-0.40886 -4.90463,0 -0.81943,-0.40886 -6.13121,0 -0.81943,-0.40886 0,2.86202 -0.40886,0.81773 0,2.86203 -0.40716,1.22658 0,2.45317 -0.41056,1.22658 0,2.45317 -0.40887,1.22828 0,1.63375 -0.40886,0.81772 0,2.86203 -0.40715,0.81772 0,2.0426 -0.41057,0.81943 0,2.04601 -0.40886,0.81602 0,1.63544 -0.40886,1.22488 0,1.63715 -0.40886,0.81943 0,2.0426 -0.40886,0.81772 0,2.04431 -0.40887,0.81772 0,1.63715 -0.40886,1.22488 0,0.81772 -0.40886,0.81943 0,1.63374 -0.40886,1.22658 0,1.63374 -0.40886,0.81943 0,1.22658 -0.40886,0.81943 0,1.63374 -0.40886,0.81772 0,1.22489 -0.40886,0.81942 0,0.81772 -0.40887,0.81943 0,2.04261 -0.40885,0.8177 0,0.81944 -0.40887,0.81431 0,0.81942 -0.40716,1.22659 z M 99.233205,457.7428 l 0.408848,0 -0.408848,0 z m 2.044305,-24.53169 0.40885,-2.04258 -2.453155,1.22316 2.044305,0.81942 z m -8.994953,17.98992 2.45487,0.41054 -1.228285,-2.45657 -1.226585,2.04603 z m 8.177223,2.0443 0.40886,-2.86203 1.2266,2.04261 0.40884,-1.63376 1.22659,3.27089 -3.27089,-0.81771 z m 0.81773,-9.4038 1.22657,-2.45147 6.95065,0.40885 -4.90634,0 -3.27088,2.04262 z m 6.95062,-31.07348 2.45319,1.63716 -2.45319,0.40887 0,-2.04603 z m -5.72405,2.86204 0,-2.04431 1.63544,1.63375 -1.63544,0.41056 z m -8.177215,24.53167 1.635447,0.81772 -1.224885,1.22489 -0.410562,-2.04261 z m -1.63546,17.58104 2.046022,-0.40886 -1.228285,-5.72237 -0.817737,3.67976 -2.453156,-0.40885 1.63546,2.45146 2.044295,-2.45146 -1.226599,2.86032 z m 6.5418,0 7.768345,0 1.22658,0.40885 10.63041,0 -0.40887,-1.22658 0.81773,1.22658 2.04431,0 2.0443,-4.49747 8.58607,-4.90462 0.40888,-3.67976 -4.08861,-0.81942 -3.27089,-4.49747 3.67974,-4.09033 6.54179,-1.63373 1.63543,-6.13122 5.3152,-3.2709 -2.86202,-1.63714 2.86202,-0.81943 1.22659,2.04772 2.45487,-1.63716 -0.41058,-2.45315 -3.67974,1.63373 -2.45316,-2.04261 1.22659,-6.95064 5.72405,2.45148 6.95065,-1.22319 1.63544,-8.17892 1.22827,0.40885 -0.81942,-3.27088 5.72408,1.2283 5.72403,-0.81945 0,-1.63714 0.40886,-0.81431 0,-1.22829 0.40888,-0.81772 0,-1.63374 0.41056,-0.81942 0,-1.63715 0.40716,-0.81432 0,-1.22828 0.40885,-0.81774 0,-1.63373 0.40886,-0.81943 0,-0.81772 0.40888,-0.81942 0,-1.63375 0.40885,-0.40886 0,-1.63375 0.40887,-0.81772 0,-1.63715 0.40885,-0.81942 0,-2.45147 0.40886,-0.81942 0,-1.63374 0.40886,-0.81772 0,-1.22489 0.40886,-0.81772 -58.46544,-19.62534 -0.81942,-0.40885 -2.45319,3.67975 0,17.17216 -8.58608,19.21477 -2.86203,1.2283 2.45318,11.44641 -4.088613,8.17892 2.453156,2.86032 2.453187,-0.40885 1.63543,0.40885 1.63545,-0.81771 -2.86204,2.86032 2.45489,1.2283 -0.81945,1.63373 -1.63544,-1.22487 1.63544,1.63373 -1.63544,-0.40886 -1.22657,4.90804 1.63544,2.04261 -2.86202,1.22828 3.27258,2.04261 -4.49918,3.27429 3.67975,0.81601 -3.270875,0.40887 -0.408875,1.63714 1.63545,-0.81942 -2.044298,4.49918 -1.226585,-2.046 -2.45147,0.40885 2.042595,-0.40885 -1.635433,0 1.228271,-1.63376 -1.635433,1.22319 -1.228285,-1.22319 -1.635433,0.40888 2.453156,0.81431 -1.226585,1.63714 -3.681454,1.63375 1.637146,1.2283 -1.226571,-1.2283 2.862004,-1.22317 0.408875,1.63373 2.453157,-0.41056 1.226585,2.45657 -2.453157,1.22489 2.862032,0 -3.679755,1.22657 4.088603,-0.81773 2.453185,2.04603 -2.04431,-0.40888 1.226585,1.63376 -5.315201,-1.22488 3.270893,1.63374 -2.45147,1.22827 1.635433,0.40888 -1.635433,3.27088 1.635433,-1.22829 1.63376,2.45317 -2.862031,-0.41056 0.817723,1.63715 3.270893,0 z m 2.044305,-24.53169 0.40885,-2.04258 -2.453155,1.22316 2.044305,0.81942 z m -8.994953,17.98992 2.45487,0.41054 -1.228285,-2.45657 -1.226585,2.04603 z m 8.177223,2.0443 0.40886,-2.86203 1.2266,2.04261 0.40884,-1.63376 1.22659,3.27089 -3.27089,-0.81771 z m 0.81773,-9.4038 1.22657,-2.45147 6.95065,0.40885 -4.90634,0 -3.27088,2.04262 z m 6.95062,-31.07348 2.45319,1.63716 -2.45319,0.40887 0,-2.04603 z m -5.72405,2.86204 0,-2.04431 1.63544,1.63375 -1.63544,0.41056 z m -8.177215,24.53167 1.635447,0.81772 -1.224885,1.22489 -0.410562,-2.04261 z m 77.683625,-67.05154 -0.40886,0.81772 0,1.22489 -0.40886,0.81772 0,1.63374 -0.40886,0.81942 0,2.45147 -0.40885,0.81942 0,1.63715 -0.40887,0.81772 0,1.63375 -0.40885,0.40886 0,1.63375 -0.40888,0.81942 0,0.81772 -0.40886,0.81943 0,1.63373 -0.40885,0.81774 0,1.22828 -0.40716,0.81432 0,1.63715 -0.41056,0.81942 0,1.63374 -0.40888,0.81772 0,1.22829 -0.40886,0.81431 0,1.63714 7.35951,-1.22657 4.90634,-2.45317 5.72405,-6.13121 0.41056,-3.27089 -2.86373,-2.04773 2.04431,-3.67974 -6.1312,-4.90464 1.22486,-2.86031 2.45318,3.27089 7.76836,2.86033 10.22153,-1.2266 9.81268,-8.99493 3.67974,-6.95064 7.76837,-8.17894 -0.81772,-2.0426 3.27088,2.86203 -9.81266,9.40211 7.76835,-5.72237 4.90634,-6.13291 -1.22658,0 -0.81772,-0.40886 -9.81268,0 -0.81771,-0.40885 -11.44811,0 -0.81774,-0.40888 -29.43801,18.40046 z m -72.368437,84.63258 4.906337,0.81942 -4.08861,0.81431 0,1.63715 -1.226575,-3.27088 0.408848,0 z m 22.896227,22.0768 6.13292,-1.63373 -8.99493,-3.2709 -3.2709,-5.72236 -6.54178,1.22488 0,2.45146 4.08861,0.40888 -3.27088,2.45657 4.08861,1.63373 -1.63546,1.22658 0,-1.63543 -1.22657,0.81771 -4.49748,-1.63373 2.86202,1.63373 -2.04431,0.40888 -0.40884,-1.22659 -4.08862,1.22659 18.80761,1.63373 z m -11.85696,0.40885 2.04431,1.63716 -0.40888,-1.22659 2.45318,0 -0.40887,1.22659 3.2709,0.81943 -3.67976,-2.86544 2.45317,-0.40546 -5.72405,0.81431 z m -11.039267,-4.49405 3.270897,-1.2283 -3.270897,-1.63715 -2.453156,1.2283 2.044308,1.63715 2.044305,-0.81943 -1.635457,0.81943 z m 0.408877,-3.67976 2.04431,1.22319 -0.81773,-1.22319 4.49747,-2.04771 -4.49747,0 -1.22658,2.04771 z m -4.088618,-0.41055 3.679741,1.22486 -6.132911,-2.86202 2.45317,1.63716 z m 11.856978,3.68143 2.45315,1.22319 -0.81771,-2.86034 -1.63544,1.63715 z m -0.40887,1.22319 -2.45145,-1.22319 0,1.22319 2.45145,0 z m -15.127863,-18.39706 -1.63546,0 0.408875,1.63376 1.226585,-1.63376 z m 26.984843,0 0.40887,0.41057 1.63544,-0.41057 -2.04431,0 z m -19.625347,-0.40885 4.906337,0.81942 -4.08861,0.81431 0,1.63715 -1.226575,-3.27088 -3.270893,0 0.81771,1.63373 -3.27088,-0.40543 2.863718,0.81431 0,2.04769 1.63376,-2.04769 1.226585,1.22827 -3.679768,1.2283 2.044308,0.81432 -1.224885,2.04771 2.45147,2.04259 0,-2.04259 0.817723,2.04259 -0.817723,-2.45315 2.86203,1.22827 -3.270878,-1.63715 2.044298,-1.22827 -0.817727,1.63715 2.453187,1.22827 -1.63546,2.86203 0.81773,-2.046 -1.22658,1.63544 0,-1.22659 -2.862033,0 0,3.27089 3.270883,-1.22488 -2.044298,2.04261 1.635448,0.40887 0.40885,-2.45148 5.3152,0 0.40885,2.45148 -2.45316,2.04428 0.81772,-1.63373 -2.45315,0.81431 4.08859,2.04602 2.0443,-4.90804 6.95236,-2.04261 3.26918,0.40887 -2.0443,-3.26918 -2.45317,0 2.45317,0 -1.63544,-2.04771 4.90634,-4.0852 -0.81773,-0.81945 -10.63041,0 -1.22658,-0.40885 -7.359497,0 z m 22.896227,22.0768 6.13292,-1.63373 -8.99493,-3.2709 -3.2709,-5.72236 -6.54178,1.22488 0,2.45146 4.08861,0.40888 -3.27088,2.45657 4.08861,1.63373 -1.63546,1.22658 0,-1.63543 -1.22657,0.81771 -4.49748,-1.63373 2.86202,1.63373 -2.04431,0.40888 -0.40884,-1.22659 -4.08862,1.22659 18.80761,1.63373 z m -11.85696,0.40885 2.04431,1.63716 -0.40888,-1.22659 2.45318,0 -0.40887,1.22659 3.2709,0.81943 -3.67976,-2.86544 2.45317,-0.40546 -5.72405,0.81431 z m -11.039267,-4.49405 3.270897,-1.2283 -3.270897,-1.63715 -2.453156,1.2283 2.044308,1.63715 2.044305,-0.81943 -1.635457,0.81943 z m 0.408877,-3.67976 2.04431,1.22319 -0.81773,-1.22319 4.49747,-2.04771 -4.49747,0 -1.22658,2.04771 z m -4.088618,-0.41055 3.679741,1.22486 -6.132911,-2.86202 2.45317,1.63716 z m 11.856978,3.68143 2.45315,1.22319 -0.81771,-2.86034 -1.63544,1.63715 z m -0.40887,1.22319 -2.45145,-1.22319 0,1.22319 2.45145,0 z m -15.127863,-18.39706 -1.63546,0 0.408875,1.63376 1.226585,-1.63376 z"
       id="path9779"
       style="fill:#aae0fa;fill-opacity:1;stroke:#84c3d5;stroke-width:4;stroke-miterlimit:4;stroke-opacity:1;stroke-dasharray:none" />
    <path
       d="m 303.25496,189.52983 -0.40886,0 -11.85698,-0.40886 -6.13292,-3.67975 -7.76667,6.13291 0.40716,-4.90633 2.0443,-1.63545 -3.27088,0.40887 2.86203,-2.04431 -2.04261,-4.49747 -2.046,2.86202 -0.81773,-3.67975 -0.81773,1.22659 0.40888,-1.22659 -1.63546,0.81773 -1.63543,-2.45317 -0.81773,1.63544 0,-2.86203 -1.22488,1.63545 -5.31689,-3.67975 -0.40887,1.22658 -3.67974,-1.22658 -2.45147,5.31519 2.45147,0.40887 -2.45147,1.22658 -1.22829,-2.04431 -4.90634,6.13292 1.22658,-4.49747 -6.54178,1.22658 8.99496,-2.45317 2.86203,-7.3595 -11.03926,-2.0443 -2.86203,5.72405 -0.40886,-2.86203 -2.45317,2.86203 0,-3.27089 -2.45147,2.86203 2.45147,-5.72406 8.17722,-7.76836 -1.63543,0 1.22827,-3.27089 -4.90803,-2.45317 -3.27089,-13.90128 -1.63545,-1.22658 -0.40716,2.45317 -4.09031,-5.72406 -11.44811,-6.54178 -17.58103,0 -7.76666,-6.95064 -2.04602,3.27089 1.2266,-6.13292 -3.67976,-4.08861 -6.13292,-3.67975 0,1.22658 0.41057,0.81772 0,11.03926 0.40715,0.81772 0,17.58103 0.40886,0.81772 0,42.11271 9.40552,0 5.3135,-4.49747 5.72405,1.22658 3.67975,-4.08861 6.95063,0.40886 2.45318,1.22658 -0.40888,1.63545 2.04431,0 8.99496,-4.90634 -8.17723,4.90634 -5.31519,0.40886 -2.86203,7.3595 1.22657,-8.17722 3.2709,0.40886 -5.72406,-1.22659 3.27261,0 -2.86375,-1.63544 -6.54177,3.67975 -5.3152,-1.22658 -6.95065,6.13292 -6.54177,-1.63545 -1.63545,0.81772 0,0.81773 -0.40886,0.81772 0,17.98989 -0.40715,0.81772 0,11.03926 -0.41057,0.81772 0,8.99665 -0.40885,0.81602 0,0.81943 6.95062,0 1.2266,0.40715 13.49242,0 0.81771,0.40886 12.26583,0 0.81773,0.40887 10.63039,0 0.81773,0.40886 10.22153,0 0.81772,0.40886 8.99496,0 0.40885,0.40886 8.99495,0 0.81773,0.40886 6.95234,0 0.81601,0.40886 7.77007,0 0.81601,0.40886 6.95066,0 0.81942,0.40886 6.13122,0 0.81772,0.40887 5.72406,0 0.40886,-0.81773 0,-3.67804 0.41057,-0.81943 0,-3.67975 0.40715,-0.81772 0,-3.67975 0.40886,-0.81773 0,-4.90633 0.40887,-0.81773 0,-5.31519 0.40886,-0.81772 0,-7.3595 0.40886,-1.22659 0,-8.99495 0.40886,-0.81772 0,-1.22658 z m -115.70774,-1.63545 -11.44811,4.08861 -3.67974,-2.0443 -6.95065,4.90633 -0.81604,-2.45317 2.04261,-0.40886 -8.58606,-4.08861 -0.81774,1.22659 -2.86032,-5.3152 -4.49918,-1.63545 -8.99495,0 -4.90634,6.13292 -6.95062,-0.40886 -2.04261,3.27089 1.22488,0.81772 -3.27089,2.04431 -2.45318,-3.27089 -7.35779,-1.22658 -2.45486,-3.27089 -7.76666,1.63544 2.45145,-1.22658 -1.63544,-0.40886 2.86203,0.40886 4.08862,-0.81772 2.45486,3.67975 7.35779,0.40886 2.86373,3.67975 2.86034,-1.63545 -1.63546,-0.81772 2.45319,-3.27089 7.35949,-0.40886 4.49747,-5.3152 12.67469,-0.81772 6.54179,7.35951 8.17723,3.67974 4.08862,-2.45316 2.862,1.63544 6.13293,-2.0443 0.81772,-2.86203 5.3152,0.40886 -3.67974,-0.81772 -6.5418,-10.22153 -12.673,-6.95064 -17.17216,-0.40887 3.2692,-1.22658 13.49242,0.81772 13.49242,7.35951 9.81266,11.44811 0,-42.11271 -0.40886,-0.81772 0,-17.58103 -0.40715,-0.81772 0,-11.03926 -0.41057,-0.81772 0,-1.22658 -1.22489,-0.81773 -4.0903,0.40886 0,-5.31519 -4.90634,-2.86203 -4.49748,0.40886 -0.81772,-1.22658 -8.58608,0 -0.81773,-0.40886 -30.25572,0 -1.22659,-0.40887 -13.49242,0 0.81772,2.04431 0,2.45317 -4.08862,1.63544 -2.86203,-4.90633 0.81773,-1.22659 -23.305077,0 0.410548,3.27089 -8.178919,5.72406 0.817723,4.08861 -3.270893,8.58609 -1.635446,14.71901 3.269193,2.0443 -0.407162,1.63545 -4.086916,6.13291 -5.316888,1.63545 0.408848,4.08861 -3.270879,0.81772 0.408848,3.67976 -6.541773,1.63544 0,20.44306 0.817723,-0.81772 0.81601,2.45317 -1.633733,4.90633 0,21.66965 6.541773,9.4038 4.906339,11.44812 5.315201,0 1.226599,-0.40886 27.802541,0 0.81772,0.40886 44.97475,0 0.81772,0.40886 22.08021,0 0.81602,0.41057 10.22154,0 0,-0.81943 0.40885,-0.81602 0,-8.99665 0.41057,-0.81772 0,-11.03926 0.40715,-0.81772 0,-17.98989 0.40886,-0.81772 0,-0.81773 z m -7.76836,-85.452 0.40885,-4.088607 -4.49746,0.408862 1.22658,2.862025 -2.86203,1.22659 5.72406,-0.40887 z m -68.68869,0 2.86203,-4.088607 -2.45316,-5.315197 5.31689,-3.27089 -3.68146,-2.453166 -9.81096,7.359502 -5.725765,-0.408862 -0.817723,2.044307 -3.679742,-0.817722 -2.453183,2.044305 -2.862004,4.08861 0,0.81772 23.305077,0 z m 59.69374,0.81773 -2.45316,-2.45317 6.13293,-2.044305 -14.71902,0 3.67975,1.226582 -8.58608,2.453163 -7.35781,-3.679745 -11.85697,0.817722 -1.63543,-4.088612 -7.77007,-2.044307 -2.86204,-4.497473 -1.22658,3.67975 2.86203,-0.408861 0,1.635446 -2.04431,-0.817724 -8.99495,4.497474 2.45317,4.90633 13.49242,0 1.22659,0.40887 30.25572,0 0.81773,0.40886 8.58608,0 z m 8.99495,-0.81773 0.40885,-4.088607 -4.49746,0.408862 1.22658,2.862025 -2.86203,1.22659 5.72406,-0.40887 z m -119.387483,85.04314 -8.177219,5.72406 2.862031,8.99494 -2.044308,2.04431 7.359496,4.90634 0,-21.66965 z m 0,-4.08861 -1.637146,0 0.819423,1.63544 0.817723,-0.81772 0,-0.81772 z m 0,-18.39876 -3.270879,3.27089 1.226571,1.63545 -4.086889,2.45317 0.407148,8.58608 4.086903,2.45317 1.637146,-2.45317 0,-15.94559 z m 0,-4.49747 -0.817723,0.40886 0.817723,2.45317 0,-2.86203 z m 79.727933,-33.93548 2.45319,-5.72406 4.49746,-3.27089 4.90634,-1.63544 4.90634,1.63544 15.53673,-5.72406 0.40885,-1.63544 -1.22659,-5.3152 1.63545,6.54178 2.86203,0.40886 -14.71901,4.08862 -4.90633,1.63544 -4.49747,-1.63544 -4.49578,1.63544 -7.36121,8.99495 z m 29.84688,-9.40381 -0.81773,6.13292 -1.22487,-5.3152 2.0426,-0.81772 z m -109.574813,67.05324 0.410575,-0.81772 -0.410575,0 0,0.81772 z m 79.727933,-57.64943 2.45319,-5.72406 4.49746,-3.27089 4.90634,-1.63544 4.90634,1.63544 15.53673,-5.72406 0.40885,-1.63544 -1.22659,-5.3152 1.63545,6.54178 2.86203,0.40886 -14.71901,4.08862 -4.90633,1.63544 -4.49747,-1.63544 -4.49578,1.63544 -7.36121,8.99495 z m 29.84688,-9.40381 -0.81773,6.13292 -1.22487,-5.3152 2.0426,-0.81772 z m 77.68363,51.92538 2.04602,-2.45317 -4.09033,0.40886 2.04431,2.04431 z m -8.17552,14.31014 -1.22829,-3.67975 5.31521,0.40886 -1.63545,2.45317 0.81772,2.0443 -2.45317,-4.49747 -0.81602,3.27089 z m -21.67133,-47.4279 0.8177,2.45316 -3.27088,0.40887 2.45318,-2.86203 z m -9.81268,39.65954 4.0886,0.81772 0.81774,2.45317 -4.90634,-3.27089 z m -20.44307,11.44811 0.40888,0 -0.40888,0 z m 60.1026,-17.98989 2.04602,-2.45317 -4.09033,0.40886 2.04431,2.04431 z m -8.17552,14.31014 -1.22829,-3.67975 5.31521,0.40886 -1.63545,2.45317 0.81772,2.0443 -2.45317,-4.49747 -0.81602,3.27089 z m -21.67133,-47.4279 0.8177,2.45316 -3.27088,0.40887 2.45318,-2.86203 z m 101.80814,100.98872 6.94894,-10.22153 1.22658,-7.76666 -1.22658,-10.6321 -1.63545,-2.45316 -7.76836,-1.63545 -6.13121,-8.58608 -7.77007,-6.13292 0,1.22658 -0.40886,0.81772 0,8.99495 -0.40886,1.22659 0,7.3595 -0.40886,0.81772 0,5.31519 -0.40887,0.81773 0,4.90633 -0.40886,0.81773 0,3.67975 -0.40715,0.81772 0,3.67975 -0.41057,0.81943 0,3.67804 -0.40886,0.81773 0.81943,0.40886 6.13121,0 0.81943,0.40886 4.90463,0 1.22658,0.40886 4.49748,0 1.22828,0.40886 z m 0,0 6.94894,-10.22153 1.22658,-7.76666 -1.22658,-10.6321 -1.63545,-2.45316 -7.76836,-1.63545 -6.13121,-8.58608 -7.77007,-6.13292 m -126.74529,164.77108 0.81601,-4.49577 1.2266,-1.2283 4.49748,-8.99323 2.86203,-1.63715 13.90127,1.63715 -16.7633,0 -5.3152,11.44641 -0.81773,3.27089 10.63039,0 0.81943,0.40885 13.08185,0 0.81774,0.40888 11.44811,0 0.81771,0.40885 9.81268,0 0.81772,0.40886 1.22658,0 2.86373,-4.08862 6.13122,-4.08859 3.27089,-8.17553 -0.81603,-5.31692 3.26919,-4.0903 -1.63374,-1.22317 2.45147,0.40885 4.49918,-4.49918 6.94893,-4.49746 4.90804,0 6.54007,-5.31521 4.08862,1.22489 2.86203,-2.45147 -0.40887,2.04601 5.31521,0.40546 0.81771,-2.86033 5.72407,-2.86203 0,-3.27088 7.3612,-9.40382 0.40716,-1.22659 0,-0.81942 0.40887,-0.81431 0,-0.81944 0.40885,-0.8177 0,-2.04261 0.40887,-0.81943 0,-0.81772 0.40886,-0.81942 0,-1.22489 0.40886,-0.81772 0,-1.63374 0.40886,-0.81943 0,-1.22658 0.40886,-0.81943 0,-1.63374 0.40886,-1.22658 0,-1.63374 0.40886,-0.81943 0,-0.81772 0.40886,-1.22488 0,-1.63715 0.40887,-0.81772 0,-2.04431 0.40886,-0.81772 0,-2.0426 0.40886,-0.81943 0,-1.63715 0.40886,-1.22488 0,-1.63544 0.40886,-0.81602 0,-2.04601 0.41057,-0.81943 0,-2.0426 0.40715,-0.81772 0,-2.86203 0.40886,-0.81772 0,-1.63375 0.40887,-1.22828 0,-2.45317 0.41056,-1.22658 0,-2.45317 0.40716,-1.22658 0,-2.86203 0.40886,-0.81773 0,-2.86202 -5.72406,0 -0.81772,-0.40887 -6.13122,0 -0.81942,-0.40886 -6.95066,0 -0.81601,-0.40886 -7.77007,0 -0.81601,-0.40886 -6.95234,0 -0.81773,-0.40886 -8.99495,0 -0.40885,-0.40886 -8.99496,0 -0.81772,-0.40886 -10.22153,0 -0.81773,-0.40886 -10.63039,0 -0.81773,-0.40887 -12.26583,0 -0.81771,-0.40886 -13.49242,0 -1.2266,-0.40715 -6.95062,0 0,7.35779 -0.40888,1.22829 0,6.54008 -0.40716,0.81772 0,5.72406 -0.41056,0.81772 0,5.72406 -0.40886,0.81772 0,5.72235 -0.40885,0.81943 0,4.49918 -0.40887,1.22317 0,4.49918 -0.40885,0.81772 0,3.68146 -0.40886,0.81772 0,3.67634 -0.40888,1.22829 0,3.67975 -0.40885,0.81943 0,3.67975 -0.40887,0.81431 0,3.67976 -0.40885,0.81942 0,3.67975 -0.40886,0.81773 0,2.86203 -0.40888,0.81942 0,3.67976 -0.40885,0.81431 0,2.45657 -0.40887,1.22318 0,2.45657 -0.40885,0.81431 0,2.86545 -0.40886,0.81602 0,2.86032 -0.40715,0.81942 0,2.45147 -0.41057,0.81942 0,2.86032 -0.40888,0.81942 0,1.63715 -0.40885,0.81432 0,2.86545 -0.40716,0.81431 0,2.45657 -0.41056,0.81432 0,2.04602 -0.40886,0.81943 0,1.63373 -0.40888,0.81772 0,2.45316 -0.40714,0.81774 0,2.0443 1.63544,0 z M 71.839489,230.00709 l 3.679755,8.17722 9.405504,13.08527 -1.228272,3.27089 2.862018,4.90463 4.908053,4.90804 22.485653,11.85527 6.95064,6.95064 0.81774,9.81267 0,8.99665 -3.67977,12.67299 0.81773,11.04097 -6.95064,21.25736 1.22657,5.72748 -0.40884,0.40886 0.81942,0.40885 36.79579,0 0.40888,0.40546 20.03419,0 0.81772,0.41057 3.2726,0 0,-2.0443 0.40714,-0.81774 0,-2.45316 0.40888,-0.81772 0,-1.63373 0.40886,-0.81943 0,-2.04602 0.41056,-0.81432 0,-2.45657 0.40716,-0.81431 0,-2.86545 0.40885,-0.81432 0,-1.63715 0.40888,-0.81942 0,-2.86032 0.41057,-0.81942 0,-2.45147 0.40715,-0.81942 0,-2.86032 0.40886,-0.81602 0,-2.86545 0.40885,-0.81431 0,-2.45657 0.40887,-1.22318 0,-2.45657 0.40885,-0.81431 0,-3.67976 0.40888,-0.81942 0,-2.86203 0.40886,-0.81773 0,-3.67975 0.40885,-0.81942 0,-3.67976 0.40887,-0.81431 0,-3.67975 0.40885,-0.81943 0,-3.67975 0.40888,-1.22829 0,-3.67634 0.40886,-0.81772 0,-3.68146 0.40885,-0.81772 0,-4.49918 0.40887,-1.22317 0,-4.49918 0.40885,-0.81943 0,-5.72235 0.40886,-0.81772 0,-5.72406 0.41056,-0.81772 0,-5.72406 0.40716,-0.81772 0,-6.54008 0.40888,-1.22829 0,-7.35779 -10.22154,0 -0.81602,-0.41057 -22.08021,0 -0.81772,-0.40886 -44.97475,0 -0.81772,-0.40886 -27.802541,0 -1.226599,0.40886 -5.315201,0 z m 218.742471,67.87096 1.63375,-2.04601 2.0443,-7.35609 3.2726,-4.09032 6.54007,-30.66459 0.81772,-1.22658 0.81773,2.45146 2.45316,-2.0426 11.44982,-15.94559 -1.22828,-0.40886 -4.49748,0 -1.22658,-0.40886 -4.90463,0 -0.81943,-0.40886 -6.13121,0 -0.81943,-0.40886 0,2.86202 -0.40886,0.81773 0,2.86203 -0.40716,1.22658 0,2.45317 -0.41056,1.22658 0,2.45317 -0.40887,1.22828 0,1.63375 -0.40886,0.81772 0,2.86203 -0.40715,0.81772 0,2.0426 -0.41057,0.81943 0,2.04601 -0.40886,0.81602 0,1.63544 -0.40886,1.22488 0,1.63715 -0.40886,0.81943 0,2.0426 -0.40886,0.81772 0,2.04431 -0.40887,0.81772 0,1.63715 -0.40886,1.22488 0,0.81772 -0.40886,0.81943 0,1.63374 -0.40886,1.22658 0,1.63374 -0.40886,0.81943 0,1.22658 -0.40886,0.81943 0,1.63374 -0.40886,0.81772 0,1.22489 -0.40886,0.81942 0,0.81772 -0.40887,0.81943 0,2.04261 -0.40885,0.8177 0,0.81944 -0.40887,0.81431 0,0.81942 -0.40716,1.22659 z M 99.233205,457.7428 l 0.408848,0 -0.408848,0 z m -2.453183,-31.48231 2.453183,-1.22488 0,-6.95065 -2.453183,0 -0.81771,2.45147 -1.224885,4.90461 2.042595,0.81945 z m 4.497488,6.95062 0.40885,-2.04258 -2.453155,1.22316 2.044305,0.81942 z m -8.994953,17.98992 2.45487,0.41054 -1.228285,-2.45657 -1.226585,2.04603 z m 8.177223,2.0443 0.40886,-2.86203 1.2266,2.04261 0.40884,-1.63376 1.22659,3.27089 -3.27089,-0.81771 z m 0.81773,-9.4038 1.22657,-2.45147 6.95065,0.40885 -4.90634,0 -3.27088,2.04262 z m 6.95062,-31.07348 2.45319,1.63716 -2.45319,0.40887 0,-2.04603 z m -5.72405,2.86204 0,-2.04431 1.63544,1.63375 -1.63544,0.41056 z m -8.177215,24.53167 1.635447,0.81772 -1.224885,1.22489 -0.410562,-2.04261 z m -1.63546,17.58104 2.046022,-0.40886 -1.228285,-5.72237 -0.817737,3.67976 -2.453156,-0.40885 1.63546,2.45146 2.044295,-2.45146 -1.226599,2.86032 z m 6.5418,0 7.768345,0 1.22658,0.40885 10.63041,0 -0.40887,-1.22658 0.81773,1.22658 2.04431,0 2.0443,-4.49747 8.58607,-4.90462 0.40888,-3.67976 -4.08861,-0.81942 -3.27089,-4.49747 3.67974,-4.09033 6.54179,-1.63373 1.63543,-6.13122 5.3152,-3.2709 -2.86202,-1.63714 2.86202,-0.81943 1.22659,2.04772 2.45487,-1.63716 -0.41058,-2.45315 -3.67974,1.63373 -2.45316,-2.04261 1.22659,-6.95064 5.72405,2.45148 6.95065,-1.22319 1.63544,-8.17892 1.22827,0.40885 -0.81942,-3.27088 5.72408,1.2283 5.72403,-0.81945 0,-1.63714 0.40886,-0.81431 0,-1.22829 0.40888,-0.81772 0,-1.63374 0.41056,-0.81942 0,-1.63715 0.40716,-0.81432 0,-1.22828 0.40885,-0.81774 0,-1.63373 0.40886,-0.81943 0,-0.81772 0.40888,-0.81942 0,-1.63375 0.40885,-0.40886 0,-1.63375 0.40887,-0.81772 0,-1.63715 0.40885,-0.81942 0,-2.45147 0.40886,-0.81942 0,-1.63374 0.40886,-0.81772 0,-1.22489 0.40886,-0.81772 0,-1.63716 0.40888,-0.81942 0,-1.63373 0.40885,-0.81773 0,-1.63373 0.40886,-0.81942 0,-2.45147 0.40886,-0.81943 0,-1.63714 -4.0886,4.49917 0,6.95064 -0.40888,-7.35951 4.90634,-4.90461 0,-2.04603 0.40888,-0.81942 0,-1.63374 0.41055,-0.81773 0,-0.40885 -3.2726,0 -0.81772,-0.41057 -20.03419,0 -0.40888,-0.40546 -36.79579,0 -0.81942,-0.40885 -2.45319,3.67975 0,17.17216 -8.58608,19.21477 -2.86203,1.2283 2.45318,11.44641 -4.088613,8.17892 2.453156,2.86032 -1.635433,0.81945 4.08862,-1.2283 1.63543,0.40885 1.63545,-0.81771 -2.86204,2.86032 2.45489,1.2283 -0.81945,1.63373 -1.63544,-1.22487 1.63544,1.63373 -1.63544,-0.40886 -1.22657,4.90804 1.63544,2.04261 -2.86202,1.22828 3.27258,2.04261 -4.49918,3.27429 3.67975,0.81601 -3.270875,0.40887 -0.408875,1.63714 1.63545,-0.81942 -2.044298,4.49918 -1.226585,-2.046 -2.45147,0.40885 2.042595,-0.40885 -1.635433,0 1.228271,-1.63376 -1.635433,1.22319 -1.228285,-1.22319 -1.635433,0.40888 2.453156,0.81431 -1.226585,1.63714 -3.681454,1.63375 1.637146,1.2283 -1.226571,-1.2283 2.862004,-1.22317 0.408875,1.63373 2.453157,-0.41056 1.226585,2.45657 -2.453157,1.22489 2.862032,0 -3.679755,1.22657 4.088603,-0.81773 2.453185,2.04603 -2.04431,-0.40888 1.226585,1.63376 -5.315201,-1.22488 3.270893,1.63374 -2.45147,1.22827 1.635433,0.40888 -1.635433,3.27088 1.635433,-1.22829 1.63376,2.45317 -2.862031,-0.41056 0.817723,1.63715 3.270893,0 z m -2.453183,-31.48231 2.453183,-1.22488 0,-6.95065 -2.453183,0 -0.81771,2.45147 -1.224885,4.90461 2.042595,0.81945 z m 4.497488,6.95062 0.40885,-2.04258 -2.453155,1.22316 2.044305,0.81942 z m -8.994953,17.98992 2.45487,0.41054 -1.228285,-2.45657 -1.226585,2.04603 z m 8.177223,2.0443 0.40886,-2.86203 1.2266,2.04261 0.40884,-1.63376 1.22659,3.27089 -3.27089,-0.81771 z m 0.81773,-9.4038 1.22657,-2.45147 6.95065,0.40885 -4.90634,0 -3.27088,2.04262 z m 6.95062,-31.07348 2.45319,1.63716 -2.45319,0.40887 0,-2.04603 z m -5.72405,2.86204 0,-2.04431 1.63544,1.63375 -1.63544,0.41056 z m -8.177215,24.53167 1.635447,0.81772 -1.224885,1.22489 -0.410562,-2.04261 z m 82.589965,-85.86085 -0.40716,3.67974 -2.86373,2.86034 0,1.63714 -0.40886,0.81943 0,2.45147 -0.40886,0.81942 0,1.63373 -0.40885,0.81773 0,1.63373 -0.40888,0.81942 0,1.63716 -0.40886,0.81772 0,1.22489 -0.40886,0.81772 0,1.63374 -0.40886,0.81942 0,2.45147 -0.40885,0.81942 0,1.63715 -0.40887,0.81772 0,1.63375 -0.40885,0.40886 0,1.63375 -0.40888,0.81942 0,0.81772 -0.40886,0.81943 0,1.63373 -0.40885,0.81774 0,1.22828 -0.40716,0.81432 0,1.63715 -0.41056,0.81942 0,1.63374 -0.40888,0.81772 0,1.22829 -0.40886,0.81431 0,1.63714 7.35951,-1.22657 4.90634,-2.45317 5.72405,-6.13121 0.41056,-3.27089 -2.86373,-2.04773 2.04431,-3.67974 -6.1312,-4.90464 2.04258,-7.76835 -0.81772,4.90804 2.45318,3.27089 7.76836,2.86033 10.22153,-1.2266 9.81268,-8.99493 3.67974,-6.95064 7.76837,-8.17894 -0.81772,-2.0426 3.27088,2.86203 -9.81266,9.40211 7.76835,-5.72237 4.90634,-6.13291 -1.22658,0 -0.81772,-0.40886 -9.81268,0 -0.81771,-0.40885 -11.44811,0 -0.81774,-0.40888 -13.08185,0 -0.81943,-0.40885 -10.63039,0 z m -77.274777,103.44189 4.906337,0.81942 -4.08861,0.81431 0,1.63715 -1.226575,-3.27088 0.408848,0 z m 22.896227,22.0768 6.13292,-1.63373 -8.99493,-3.2709 -3.2709,-5.72236 -6.54178,1.22488 0,2.45146 4.08861,0.40888 -3.27088,2.45657 4.08861,1.63373 -1.63546,1.22658 0,-1.63543 -1.22657,0.81771 -4.49748,-1.63373 2.86202,1.63373 -2.04431,0.40888 -0.40884,-1.22659 -4.08862,1.22659 18.80761,1.63373 z m -11.85696,0.40885 2.04431,1.63716 -0.40888,-1.22659 2.45318,0 -0.40887,1.22659 3.2709,0.81943 -3.67976,-2.86544 2.45317,-0.40546 -5.72405,0.81431 z m -11.039267,-4.49405 3.270897,-1.2283 -3.270897,-1.63715 -2.453156,1.2283 2.044308,1.63715 2.044305,-0.81943 -1.635457,0.81943 z m 0.408877,-3.67976 2.04431,1.22319 -0.81773,-1.22319 4.49747,-2.04771 -4.49747,0 -1.22658,2.04771 z m -4.088618,-0.41055 3.679741,1.22486 -6.132911,-2.86202 2.45317,1.63716 z m 11.856978,3.68143 2.45315,1.22319 -0.81771,-2.86034 -1.63544,1.63715 z m -0.40887,1.22319 -2.45145,-1.22319 0,1.22319 2.45145,0 z m -15.127863,-18.39706 -1.63546,0 0.408875,1.63376 1.226585,-1.63376 z m 26.984843,0 0.40887,0.41057 1.63544,-0.41057 -2.04431,0 z m -19.625347,-0.40885 4.906337,0.81942 -4.08861,0.81431 0,1.63715 -1.226575,-3.27088 -3.270893,0 0.81771,1.63373 -3.27088,-0.40543 2.863718,0.81431 0,2.04769 1.63376,-2.04769 1.226585,1.22827 -3.679768,1.2283 2.044308,0.81432 -1.224885,2.04771 2.45147,2.04259 0,-2.04259 0.817723,2.04259 -0.817723,-2.45315 2.86203,1.22827 -3.270878,-1.63715 2.044298,-1.22827 -0.817727,1.63715 2.453187,1.22827 -1.63546,2.86203 0.81773,-2.046 -1.22658,1.63544 0,-1.22659 -2.862033,0 0,3.27089 3.270883,-1.22488 -2.044298,2.04261 1.635448,0.40887 0.40885,-2.45148 5.3152,0 0.40885,2.45148 -2.45316,2.04428 0.81772,-1.63373 -2.45315,0.81431 4.08859,2.04602 2.0443,-4.90804 6.95236,-2.04261 3.26918,0.40887 -2.0443,-3.26918 -2.45317,0 2.45317,0 -1.63544,-2.04771 4.90634,-4.0852 -0.81773,-0.81945 -10.63041,0 -1.22658,-0.40885 -7.359497,0 z m 22.896227,22.0768 6.13292,-1.63373 -8.99493,-3.2709 -3.2709,-5.72236 -6.54178,1.22488 0,2.45146 4.08861,0.40888 -3.27088,2.45657 4.08861,1.63373 -1.63546,1.22658 0,-1.63543 -1.22657,0.81771 -4.49748,-1.63373 2.86202,1.63373 -2.04431,0.40888 -0.40884,-1.22659 -4.08862,1.22659 18.80761,1.63373 z m -11.85696,0.40885 2.04431,1.63716 -0.40888,-1.22659 2.45318,0 -0.40887,1.22659 3.2709,0.81943 -3.67976,-2.86544 2.45317,-0.40546 -5.72405,0.81431 z m -11.039267,-4.49405 3.270897,-1.2283 -3.270897,-1.63715 -2.453156,1.2283 2.044308,1.63715 2.044305,-0.81943 -1.635457,0.81943 z m 0.408877,-3.67976 2.04431,1.22319 -0.81773,-1.22319 4.49747,-2.04771 -4.49747,0 -1.22658,2.04771 z m -4.088618,-0.41055 3.679741,1.22486 -6.132911,-2.86202 2.45317,1.63716 z m 11.856978,3.68143 2.45315,1.22319 -0.81771,-2.86034 -1.63544,1.63715 z m -0.40887,1.22319 -2.45145,-1.22319 0,1.22319 2.45145,0 z m -15.127863,-18.39706 -1.63546,0 0.408875,1.63376 1.226585,-1.63376 z"
       id="path2940"
       style="fill:#aae0fa;fill-opacity:1;stroke:none" />
    <path
       d="m 115.18049,90.994644 -6.95064,4.497476 -3.27088,6.95064 m -44.567593,91.17605 -0.817723,-0.40886 m 0,0 -2.45147,0.81772 2.042608,-3.27088 -1.226571,-3.27089 m 9.814379,-31.07346 9.403804,6.95064 6.950621,-0.81772 9.40383,4.08861 11.856965,14.71901 7.77007,-2.04431 10.63039,3.27089 -4.08862,7.3595 4.90634,2.86203 3.67977,-19.62534 -4.08862,-6.54178 0,-4.49747 5.31519,-0.40886 m 14.7173,68.27982 0.81601,-0.40886 7.76837,-1.22658 0,2.04431 m -28.62028,-36.79752 -4.90634,-1.22658 -13.49242,6.13292 -1.63546,8.58608 -5.724038,6.95065 6.950638,9.40551 -1.63545,2.45146 5.72406,0.81772 0.81601,3.27089 m 2.86373,0 2.45147,0 4.90634,-3.67975 0,3.67975 m 65.82836,-96.49125 0,4.49748 0.81603,0.81772 m -82.1777,-36.38865 -2.45319,4.90633 4.08862,0.81773 2.86203,6.13292 -1.22658,3.67975 4.0869,3.27089 11.03926,0.40886 4.49747,5.31519 12.26583,-0.40886 m -49.472213,39.65954 -2.451456,0 2.862031,5.72406 -2.453156,3.67975 -6.950648,6.54178 -10.628689,5.3152 -4.499191,10.22153 -6.132911,-4.08862 m 97.716153,-54.37854 4.0886,11.03925 4.08861,0.40887 0,2.0443 -13.49413,8.99495 -0.40716,-2.04431 -4.49917,1.63545 -3.67805,-3.27089 m 38.43297,-24.53168 0.81601,1.63545 -2.45146,2.45317 -10.63039,2.86203 -0.81604,3.27088 -11.44979,-4.49747 m 28.21141,-5.72406 -3.67974,0 -4.08862,-4.90633 1.22828,-4.49747 5.31519,-2.04431 -2.86373,-3.27089 2.45317,-2.04431 m -44.157,9.81267 -2.86373,10.22153 4.08861,7.35951 -3.67976,4.08861 m 6.13633,9.81267 -3.2726,-5.72406 -3.27088,2.45317 -1.63546,-1.63545 0,1.63545 -10.62869,0 m 12.673,-6.54178 4.08861,2.45317 2.04431,7.3595 m -18.80592,-3.27089 0,4.08861 3.67807,0.40886 0.40884,2.45317 m 55.19627,-44.97474 2.0443,-1.63544 m 0.40887,23.71395 3.27089,2.86203 -2.86203,6.95064 1.63545,6.13292 5.72405,4.49747 8.99325,-4.90633 5.31519,0.40886 -9.81268,-13.49242 0.40888,-4.90634 4.0869,-1.22658 0,-2.86203 m 5.3186,22.48737 3.27089,0.40886 -0.40716,-4.08861 6.13293,-0.40886 5.31519,3.67975 2.0443,-1.63545 4.90634,1.22659 6.95065,-11.44812 m -17.17387,10.22153 3.67975,-6.95064 -3.27091,-9.40381 2.86204,-5.31519 m -36.7958,-15.94559 0.81601,-0.81772 -0.81601,-1.63545 m -60.92204,164.77108 2.86374,8.99324 3.2709,3.2709 -2.04431,6.13291 4.49746,14.7207 4.90634,1.2283 -2.0426,6.13291 -7.3595,4.49918 0.40886,13.49243 -2.86374,0.40885 -4.90632,7.76666 -2.45147,5.31691 0.81601,4.08861 m 17.17047,-118.98203 6.13463,-4.49748 m 8.58438,0.40887 -0.40714,7.76836 2.45145,4.90633 4.08862,3.27089 7.35949,0.81773 7.35779,6.13291 8.17723,1.63375 -0.81601,8.17893 1.63545,7.3595 1.22658,0 m -73.59504,-40.47727 2.86375,0 m 7.35778,0 -0.81601,6.13292 12.26585,1.22829 6.13291,-2.86373 m -11.44983,1.63544 5.31519,9.81267 -5.31519,19.62534 3.67976,4.49918 -4.90634,5.31349 -1.63545,6.13633 -3.67974,1.22488 m 18.39876,27.80085 5.72405,-6.13291 9.4038,2.86203 1.63545,3.67974 2.45317,-5.31348 6.54179,0.40544 9.4038,11.03927 5.72405,2.45145 m -14.31014,-12.26242 6.54178,-15.53503 10.63039,-2.046 m 1.63546,-19.21648 9.81265,0.40886 -0.81601,6.13292 4.90634,6.13291 -5.31521,12.26755 m 17.9882,42.92872 -11.44982,6.13292 -10.62868,10.22153 m 12.26583,-47.4279 3.67977,2.0426 0.8177,9.81608 6.13292,0.40544 -4.49746,14.31016 -6.95065,5.72576 m -20.44307,-20.03592 2.45147,1.2283 m -0.81601,-0.81943 11.03754,7.77007 -7.3578,10.63039 m -2.45317,-48.65448 10.22154,3.27089 1.22657,7.35949 -1.63543,6.95065 m 15.94559,21.67135 3.67975,0.81601 -1.22659,8.5878 m -25.75826,-10e-4 15.12787,1.2283 m 0.81772,-32.30174 -8.58608,0 m -71.14186,46.20301 0,0.81603 -4.08691,6.54178 2.86203,16.7633 -4.0886,5.72576 0.81772,4.08861 -4.49918,4.49577 1.22829,9.4038 -4.49918,5.31692 -0.81602,13.08357 -2.04431,0.8177 0.81772,10.63041 3.67804,0.81601 -4.49746,1.2283 3.27088,2.45146 -2.45146,1.63714 0.40715,5.31348 -3.27088,3.67977 -1.22659,6.13291 -4.49746,3.2743 0.81601,2.0426 m 89.54402,-103.03474 -1.22829,0.81772 -4.90634,13.08358 m 22.89623,7.76834 0,-3.27088 2.45146,-2.04601 -2.04259,-4.08521 -8.17895,-7.3595 -2.45145,1.22489 -3.2709,-5.72405 -4.0886,0.40884 m -5.3152,13.08358 -2.45146,9.4038 m -80.95623,79.72794 0.817723,3.67975 3.679767,-0.40887 -0.81774,4.08861 2.04431,1.63374 m 12.6747,2.86204 -1.63543,9.81607 m -11.03927,-12.67639 13.49242,2.046"
       id="path1319"
       style="fill:none;stroke:#84c3d5;stroke-width:0.99999827;stroke-linejoin:bevel;stroke-miterlimit:10;stroke-opacity:1;stroke-dasharray:none" />
  </g>
  <text
     x="193.37619"
     y="169.33647"
     transform="scale(0.96902126,1.0319691)"
     id="text4245"
     xml:space="preserve"
     style="font-size:28px;font-style:normal;font-variant:normal;font-weight:bold;font-stretch:normal;text-align:center;line-height:120.00000477%;writing-mode:lr-tb;text-anchor:middle;fill:#000000;fill-opacity:1;stroke:none;font-family:Georgia;-inkscape-font-specification:Georgia Bold"><tspan
       x="193.37619"
       y="169.33647"
       id="tspan2829">LATIN AMERICAN</tspan><tspan
       x="193.37619"
       y="202.93648"
       id="tspan2831">DEBT CRISIS</tspan></text>
  <text
     x="187.67149"
     y="256.29514"
     id="text7157"
     xml:space="preserve"
     style="font-size:20px;font-style:normal;font-variant:normal;font-weight:normal;font-stretch:normal;text-align:center;line-height:120.00000477%;writing-mode:lr-tb;text-anchor:middle;fill:#000000;fill-opacity:1;stroke:none;font-family:Georgia;-inkscape-font-specification:Georgia"><tspan
       x="187.67149"
       y="256.29514"
       id="tspan2833">Unless the US Player immediately</tspan><tspan
       x="187.67149"
       y="280.29514"
       id="tspan2835">discards a 3 or greater Operations</tspan><tspan
       x="187.67149"
       y="304.29514"
       id="tspan2837">card, double USSR Influence in</tspan><tspan
       x="187.67149"
       y="328.29514"
       id="tspan2839">two countries in South America.</tspan></text>
</svg>
