<?xml version="1.0" encoding="UTF-8" standalone="no"?>
<!-- Created with Inkscape (http://www.inkscape.org/) -->

<svg
   xmlns:svg="http://www.w3.org/2000/svg"
   xmlns="http://www.w3.org/2000/svg"
   version="1.1"
   width="388"
   height="538"
   id="svg2">
  <defs
     id="defs6" />
  <text
     x="193.44803"
     y="253.96986"
     transform="scale(0.9693506,1.0316185)"
     id="text4245"
     xml:space="preserve"
     style="font-size:28px;font-style:normal;font-variant:normal;font-weight:bold;font-stretch:normal;text-align:center;line-height:120.00000477%;writing-mode:lr-tb;text-anchor:middle;fill:#000000;fill-opacity:1;stroke:none;font-family:Georgia;-inkscape-font-specification:Georgia Bold"><tspan
       x="193.44803"
       y="253.96986"
       id="tspan2824">MUSLIM</tspan><tspan
       x="193.44803"
       y="287.56985"
       id="tspan2826">REVOLUTION</tspan></text>
  <text
     x="187.75481"
     y="336.54517"
     id="text3835"
     xml:space="preserve"
     style="font-size:20px;font-style:normal;font-variant:normal;font-weight:normal;font-stretch:normal;text-align:center;line-height:120.00000477%;writing-mode:lr-tb;text-anchor:middle;fill:#000000;fill-opacity:1;stroke:none;font-family:Georgia;-inkscape-font-specification:Georgia"><tspan
       x="187.75481"
       y="336.54517"
       id="tspan2828">Remove all US Influence in two of</tspan><tspan
       x="187.75481"
       y="360.54517"
       id="tspan2830">the following countries: Sudan,</tspan><tspan
       x="187.75481"
       y="384.54517"
       id="tspan2832">Iran, Iraq, Egypt, Libya, Saudi</tspan><tspan
       x="187.75481"
       y="408.54517"
       id="tspan2834">Arabia, Syria, Jordan.</tspan></text>
  <path
     d="m 190,97.75 c -27.33809,0 -49.5,26.24731 -49.5,58.625 0,32.37769 22.16191,58.625 49.5,58.625 27.33809,0 49.5,-26.24731 49.5,-58.625 0,-1.48058 -0.0652,-2.95324 -0.15625,-4.40625 C 236.56542,175.55462 218.84967,193.75 197.375,193.75 173.97193,193.75 155,172.14774 155,145.5 155,121.25283 170.69527,101.20046 191.15625,97.78125 190.77285,97.770868 190.38551,97.75 190,97.75 z"
     id="path4149"
     style="fill:#d2232a;fill-opacity:1;fill-rule:nonzero;stroke:#ffffff;stroke-width:0.99999988;stroke-linecap:round;stroke-linejoin:miter;stroke-miterlimit:4;stroke-opacity:1;stroke-dasharray:none" />
  <path
     d="m 199.75,121.98692 4.83303,14.86099 15.62712,0.004 -12.64015,9.18878 4.82507,14.86358 -12.64507,-9.18201 -12.64507,9.182 4.82507,-14.86357 -12.64015,-9.18878 15.62712,-0.004 4.83303,-14.86099 z"
     transform="translate(0.25,0.25)"
     id="path4154"
     style="fill:#d2232a;fill-opacity:1;fill-rule:nonzero;stroke:#ffffff;stroke-width:1;stroke-linecap:round;stroke-linejoin:miter;stroke-miterlimit:4;stroke-opacity:1;stroke-dasharray:none" />
</svg>
