<?xml version="1.0" encoding="UTF-8" standalone="no"?>
<!-- Created with Inkscape (http://www.inkscape.org/) -->

<svg
   xmlns:svg="http://www.w3.org/2000/svg"
   xmlns="http://www.w3.org/2000/svg"
   version="1.1"
   width="388"
   height="538"
   id="svg2">
  <defs
     id="defs6" />
  <g
     transform="matrix(0.93100359,0,0,0.93100359,362.57894,227.88414)"
     id="layer1">
    <path
       d="m -306.62493,-122.49809 0,0 z m -42.16944,2.02736 1.52725,-7.33079 4.88719,2.4436 -0.30544,4.58174 1.83269,0 0.91635,-0.30545 25.96323,-1.2218 0.30544,-0.30545 7.04273,0.11079 -5.06566,3.8426 -3.08371,-1.82133 -0.25407,-3.67303 -1.27143,-1.85167 -2.69815,-2.86037 -6.06793,0.14297 -1.33718,1.82877 -8.7287,0.49063 -10.48711,-4.2079 -7.02132,1.02069 -0.43048,9.42145 3.0545,0 0.6109,-0.30545 0.6109,0 z m 210.14939,82.471423 -1.83269,-1.832699 4.58301,-1.527247 -10.99746,0 2.74905,0.916348 -6.41444,1.832698 -5.49683,-2.749046 -8.85804,0.610899 -1.22179,-3.054497 -5.80482,-1.527249 -2.13815,-3.359946 -0.91762,2.749046 2.13942,-0.305449 0,1.221799 -1.52725,-0.6109 -6.7199,3.359947 1.8327,3.665396 m -3.97085,0 2.13815,-3.054496 -1.83142,-3.970847 3.97084,-2.443598 -2.74904,-1.832697 -7.3308,5.498094 -4.2763,-0.30545 -0.61089,1.527249 -2.74905,-0.610899 -1.83143,1.527248 -2.13815,3.054497 0,0.610899 m 68.72365,0 0.30418,-3.054496 -3.35996,0.30545 0.91636,2.138147 -2.13815,0.916349 4.27757,-0.30545 z m -221.14559,-81.555073 0,0.91635 3.6654,4.8872 -1.83271,2.44359 0.91636,0.91635 -3.35995,0 3.05449,3.6654 1.83271,-1.2218 2.13814,3.6654 -1.52725,5.192642 5.19265,4.887196 0.30546,2.749047 2.44359,-1.527249 -0.30546,-3.359946 -2.74904,-1.221799 0,-8.858041 -2.74905,-4.58175 0.30546,-2.74904 -3.0545,-6.109 m 6.109,-0.30545 0,3.97085 2.13813,3.97085 2.13815,0 -0.91634,2.44359 3.97084,3.97085 -1.83269,2.4436 3.97084,2.44359 0,1.52725 5.4981,7.025345 1.83269,6.108996 -2.13814,3.054496 1.22179,0.610899 -2.13815,0.91635 0.6109,1.527248 6.41444,7.330793 6.109,1.221799 3.0545,3.054497 4.2763,1.527248 m -35.12672,-49.177401 0.30545,0.91635 0.61091,-1.8327 -0.91636,0.91635 z m 30.54497,42.152058 -1.83269,-0.305449 -0.30546,1.527248 -0.6109,-2.749048 2.74905,1.527249 z m -4.88719,-7.636242 0.61089,0.610899 -2.74904,-0.30545 2.13815,-0.305449 z m -25.65778,-34.515816 0.30545,0.91635 0.61091,-1.8327 -0.91636,0.91635 z m 0.91636,-3.97085 0,3.97085 2.13813,3.97085 2.13815,0 -0.91634,2.44359 3.97084,3.97085 -1.83269,2.4436 3.97084,2.44359 0,1.52725 5.4981,7.025345 1.83269,6.108996 -2.13814,3.054496 1.22179,0.610899 -2.13815,0.91635 0.6109,1.527248 6.41444,7.330793 6.109,1.221799 3.0545,3.054497 4.2763,1.527248 0,-0.916349 0.30544,-0.610899 0,-1.832699 0.30546,-0.610898 0,-1.221799 0.30544,-0.6109 0,-1.527248 0.30545,-0.6109 0,-1.221799 0.30546,-0.6109 0,-1.832697 0.30544,-0.610899 0,-1.527249 0.30546,-0.6109 0,-1.221799 0.30544,-0.610899 0,-1.221799 0.30545,-0.6109 0,-0.610899 0.30546,-0.610898 0,-1.221799 0.30544,-0.6109 0,-1.527249 0.30546,-0.610899 0,-1.221799 0.30544,-0.6109 0,-0.610899 0.30545,-0.6109 0,-1.221798 0.30545,-0.610899 0,-1.221799 0.30545,-0.6109 0,-0.610899 0.30546,-0.6109 0,-1.221801 0.30544,-0.6109 0,-0.6109 0.30545,-0.61089 0,-1.2218 0.30545,-0.6109 0,-0.6109 0.30545,-0.6109 0,-1.2218 0.30546,-0.6109 0,-0.6109 0.30544,-0.6109 0,-0.6109 0.30544,-0.6109 0,-1.2218 0.30546,-0.6109 0,-0.6109 0.30545,-0.30545 0,-0.6109 0.30545,-0.61089 0,-0.6109 0.30545,-0.6109 0,-1.2218 0.30544,-0.6109 -7.61885,-4.47096 0.30544,-0.6109 0,-0.6109 0.30546,-0.6109 -7.04273,-0.11079 -0.30544,0.30545 -25.96323,1.2218 -0.91635,0.30545 -1.83269,0 z m -10.3853,0.6109 0,0.91635 3.6654,4.8872 -1.83271,2.44359 0.91636,0.91635 -3.35995,0 3.05449,3.6654 1.83271,-1.2218 2.13814,3.6654 -1.52725,5.192642 5.19265,4.887196 0.30546,2.749047 2.44359,-1.527249 -0.30546,-3.359946 -2.74904,-1.221799 0,-8.858041 -2.74905,-4.58175 0.30546,-2.74904 -3.0545,-6.109 -0.6109,0 -0.6109,0.30545 -3.0545,0 z m 9.46894,3.35995 0.30545,0.91635 0.61091,-1.8327 -0.91636,0.91635 z m 99.27115,78.500573 -1.2218,-1.221799 2.13815,1.221799 8.55259,0 -3.97084,-6.108994 3.6654,-13.745236 -0.91635,-4.276297 -7.3308,-3.054496 -14.05068,1.527249 -3.35994,-0.91635 3.35994,-4.887196 0.91634,-6.108994 -1.22179,0 1.8327,-2.138148 0.6109,2.749048 2.44359,-6.108994 -1.52725,-0.30545 4.8872,-7.330793 -5.80354,-0.916349 -9.46895,2.443598 -2.74904,7.636243 -3.97085,3.970845 -3.35995,-0.916349 -9.16348,3.054498 -3.0545,-2.749048 -2.74905,0 -6.109,-14.356136 0,-2.138149 1.52725,-8.247145 0.6109,-3.05449 1.8327,-0.6109 -0.61091,1.52725 2.13816,-3.97085 -7.01041,-1.60456 -1.09914,-4.75798 -4.60104,-8.12545 -3.46086,-0.67371 -0.30546,0.6109 0,0.6109 -0.30544,0.6109 7.61885,4.47096 -0.30544,0.6109 0,1.2218 -0.30545,0.6109 0,0.6109 -0.30545,0.61089 0,0.6109 -0.30545,0.30545 0,0.6109 -0.30546,0.6109 0,1.2218 -0.30544,0.6109 0,0.6109 -0.30544,0.6109 0,0.6109 -0.30546,0.6109 0,1.2218 -0.30545,0.6109 0,0.6109 -0.30545,0.6109 0,1.2218 -0.30545,0.61089 0,0.6109 -0.30544,0.6109 0,1.221801 -0.30546,0.6109 0,0.610899 -0.30545,0.6109 0,1.221799 -0.30545,0.610899 0,1.221798 -0.30545,0.6109 0,0.610899 -0.30544,0.6109 0,1.221799 -0.30546,0.610899 0,1.527249 -0.30544,0.6109 0,1.221799 -0.30546,0.610898 0,0.610899 -0.30545,0.6109 0,1.221799 -0.30544,0.610899 0,1.221799 -0.30546,0.6109 0,1.527249 -0.30544,0.610899 0,1.832697 -0.30546,0.6109 0,1.221799 -0.30545,0.6109 0,1.527248 -0.30544,0.6109 0,1.221799 -0.30546,0.610898 0,1.832699 -0.30544,0.610899 0,0.916349 13.74524,4.887195 10.07984,-2.443596 12.52343,9.468939 12.52344,3.359948 -1.22179,-0.6109 6.10899,-0.916349 0.30544,2.443598 -1.83269,0 8.85804,8.247142 -1.22181,0.916349 1.22181,0.6109 0,3.359946 3.05449,0 z m 23.21418,11.30164 -2.13687,-3.359948 2.13687,-1.221799 0,-1.527249 0.30673,-0.916347 0,-1.832699 -5.19265,3.054496 -3.97211,-1.832697 0.61088,1.221799 -2.13813,-0.30545 -3.35996,-4.581746 -8.55259,0 0.30546,0.30545 5.19263,4.276296 0,2.749047 1.52725,0 -0.61089,-1.527249 2.4436,3.359947 0.61089,-1.527248 4.58174,0.610899 1.22181,2.443598 2.13942,-1.221799 0.60963,3.359947 2.13942,0 2.13687,-1.527248 z m -26.26867,-11.30164 0,0.610899 2.44359,1.527249 1.22181,-1.221799 -0.61091,-0.916349 -3.05449,0 z"
       id="path2942"
       style="fill:#aae0fa;fill-opacity:1;stroke:none" />
    <path
       d="m -39.679267,26.450581 -0.30545,0 -8.85804,-0.305449 -4.581747,-2.749048 -5.802282,4.581745 0.304177,-3.665396 1.527248,-1.221799 -2.443595,0.30545 2.138151,-1.527249 -1.525981,-3.359946 -1.528516,2.138147 -0.610903,-2.749047 -0.610902,0.91635 0.305458,-0.91635 -1.221805,0.6109 -1.22179,-1.832699 -0.610902,1.221799 0,-2.138148 -0.915079,1.221799 -3.972112,-2.749048 -0.305458,0.91635 -2.749039,-0.91635 -1.831426,3.970847 1.831426,0.30545 -1.831426,0.916349 -0.917628,-1.527249 -3.6654,4.581745 0.916346,-3.359946 -4.88719,0.91635 6.719898,-1.832699 2.138151,-5.498094 -8.247147,-1.527249 -2.138151,4.276295 -0.305444,-2.138148 -1.832707,2.138148 0,-2.443598 -1.831425,2.138149 1.831425,-4.276296 6.108995,-5.8035438 -1.22179,0 0.917614,-2.4435981 -3.666668,-1.8326986 -2.443595,-10.3852895 -1.221805,-0.916349 -0.304176,1.8326981 -3.055766,-4.2762961 -8.552587,-4.887195 -13.13434,0 -5.80227,-5.192645 -1.52853,2.443598 0.91636,-4.581746 -2.74905,-3.054497 -4.58175,-2.749048 0,0.916349 0.30673,0.6109 0,8.247142 0.30417,0.6109 0,13.1343369 0.30545,0.6108995 0,31.4613196 7.02662,0 3.96958,-3.359948 4.27629,0.91635 2.74905,-3.054497 5.19263,0.30545 1.83271,0.916349 -0.30546,1.221798 1.527251,0 6.719898,-3.665396 -6.108996,3.665396 -3.970843,0.30545 -2.13815,5.498096 0.91634,-6.108996 2.44361,0.30545 -4.2763,-0.916349 2.44488,0 -2.13943,-1.221798 -4.88719,2.749047 -3.97085,-0.91635 -5.19265,4.581747 -4.88719,-1.221799 -1.2218,0.610899 0,0.6109 -0.30545,0.610899 0,13.439787 -0.30417,0.6109 0,8.247142 -0.30673,0.610899 0,6.721166 -0.30544,0.609627 0,0.612172 5.19263,0 0.91636,0.304177 10.07984,0 0.61089,0.30545 9.16349,0 0.6109,0.30545 7.941693,0 0.610902,0.30545 7.636244,0 0.610902,0.305448 6.719898,0 0.305444,0.30545 6.719898,0 0.610902,0.30545 5.193917,0 0.60962,0.305449 5.804819,0 0.60962,0.30545 5.192656,0 0.612172,0.30545 4.580473,0 0.610899,0.30545 4.276297,0 0.30545,-0.6109 0,-2.747774 0.306722,-0.612172 0,-2.749048 0.304177,-0.610899 0,-2.749047 0.30545,-0.610899 0,-3.665397 0.305449,-0.6109 0,-3.970845 0.305449,-0.6109 0,-5.498094 0.30545,-0.916349 0,-6.719895 0.30545,-0.610898 0,-0.91635 z m -86.442273,-1.221799 -8.55259,3.054496 -2.74904,-1.527247 -5.19265,3.665396 -0.60964,-1.832699 1.52598,-0.30545 -6.41443,-3.054496 -0.61091,0.91635 -2.13687,-3.970847 -3.36122,-1.221799 -6.7199,0 -3.6654,4.581746 -5.19263,-0.30545 -1.52598,2.443598 0.91508,0.610898 -2.4436,1.527249 -1.83271,-2.443596 -5.49681,-0.91635 -1.83397,-2.443598 -5.80227,1.221799 1.83142,-0.916349 -1.2218,-0.30545 2.13815,0.30545 3.0545,-0.6109 1.83397,2.749048 5.49681,0.30545 2.13942,2.749047 2.13689,-1.2218 -1.22181,-0.610898 1.83271,-2.443598 5.49809,-0.305449 3.35994,-3.970847 9.46894,-0.610899 4.8872,5.498095 6.109,2.749046 3.0545,-1.832697 2.13813,1.221798 4.58175,-1.527248 0.6109,-2.138148 3.97085,0.30545 -2.74904,-0.6109 -4.88721,-7.636242 -9.46767,-5.192645 -12.82888,-0.30545 2.44233,-0.916349 10.07984,0.610899 10.07984,5.498095 7.33079,8.552592 0,-31.4613196 -0.30545,-0.6108995 0,-13.1343369 -0.30417,-0.6109 0,-8.247142 -0.30673,-0.6109 0,-0.916349 -0.91508,-0.6109 -3.05576,0.30545 0,-3.970845 -3.6654,-2.138149 -3.35995,0.30545 -0.6109,-0.916349 -6.41444,0 -0.6109,-0.30545 -22.60327,0 -0.91636,-0.30545 -10.07984,0 0.6109,1.527249 0,1.832699 -3.0545,1.221799 -2.13815,-3.665398 0.6109,-0.916349 -17.41062,0 0.30671,2.443598 -6.11026,4.276296 0.6109,3.054497 -5.19265,-5.498094 -4.88719,-2.138148 -3.35996,-0.30545 -1.52596,0.916349 0,1.832699 -0.30673,0.916347 0,1.527249 4.58175,-2.443596 3.05449,3.054496 1.52725,-0.30545 -1.52725,2.443598 5.19265,6.414444 -1.2218,10.99619 2.44233,1.5272484 -0.30418,1.2217987 -3.05323,4.5817456 -3.97211,1.2217988 0.30544,3.05449705 -2.44359,0.61089895 0.30544,2.7490479 -4.88719,1.221799 0,15.2724856 0.6109,-0.6109 0.60962,1.832697 -1.22052,3.665398 0,16.188834 4.88719,7.025343 3.6654,8.552592 3.97085,0 0.91636,-0.30545 20.77056,0 0.6109,0.30545 33.59948,0 0.6109,0.30545 16.49555,0 0.60963,0.306722 7.63625,0 0,-0.612172 0.30544,-0.609627 0,-6.721166 0.30673,-0.610899 0,-8.247142 0.30417,-0.6109 0,-13.439787 0.30545,-0.610899 0,-0.6109 z m -5.80354,-63.838989 0.30544,-3.054496 -3.35994,0.30545 0.91635,2.138147 -2.13815,0.916349 4.2763,-0.30545 z m -51.31556,0 2.13815,-3.054496 -1.83269,-3.970847 3.97211,-2.443598 -2.75032,-1.832697 -7.32952,5.498094 -4.27757,-0.30545 -0.6109,1.527249 -2.74904,-0.610899 -1.83271,1.527248 -2.13813,3.054497 0,0.610899 17.41062,0 z m 44.59566,0.6109 -1.83269,-1.832699 4.58175,-1.527247 -10.9962,0 2.74905,0.916348 -6.41444,1.832698 -5.49683,-2.749046 -8.85804,0.610899 -1.22179,-3.054497 -5.80482,-1.527249 -2.13815,-3.359946 -0.91635,2.749046 2.13815,-0.305449 0,1.221799 -1.52725,-0.6109 -6.7199,3.359947 1.8327,3.665396 10.07984,0 0.91636,0.30545 22.60327,0 0.6109,0.30545 6.41444,0 z m 6.7199,-0.6109 0.30544,-3.054496 -3.35994,0.30545 0.91635,2.138147 -2.13815,0.916349 4.2763,-0.30545 z m -89.19132,63.53354 -6.10899,4.276295 2.13815,6.719893 -1.52725,1.527249 5.49809,3.665397 0,-16.188834 z m 0,-3.054498 -1.22307,0 0.61217,1.221799 0.6109,-0.6109 0,-0.610899 z m 0,-13.7452366 -2.44359,2.4435976 0.91634,1.2218 -3.05321,1.832697 0.30417,6.414445 3.05322,1.832697 1.22307,-1.832697 0,-11.9125396 z m 0,-3.359946 -0.6109,0.3054498 0.6109,1.8326971 0,-2.1381469 z m 59.56269,-25.3523254 1.83271,-4.276296 3.35994,-2.443598 3.6654,-1.221799 3.6654,1.221799 11.60709,-4.276297 0.30544,-1.221799 -0.91635,-3.970845 1.2218,4.887195 2.13815,0.305449 -10.99619,3.054498 -3.6654,1.221799 -3.35994,-1.221799 -3.35868,1.221799 -5.49937,6.719894 z m 22.29783,-7.025344 -0.6109,4.581746 -0.91507,-3.970846 1.52597,-0.6109 z m -81.86052,50.093751 0.30673,-0.610899 -0.30673,0 0,0.610899 z m 59.56269,-43.068407 1.83271,-4.276296 3.35994,-2.443598 3.6654,-1.221799 3.6654,1.221799 11.60709,-4.276297 0.30544,-1.221799 -0.91635,-3.970845 1.2218,4.887195 2.13815,0.305449 -10.99619,3.054498 -3.6654,1.221799 -3.35994,-1.221799 -3.35868,1.221799 -5.49937,6.719894 z m 22.29783,-7.025344 -0.6109,4.581746 -0.91507,-3.970846 1.52597,-0.6109 z m 58.035441,38.792113 1.528531,-1.8326986 -3.05578,0.3054498 1.527249,1.5272488 z m -6.107714,10.690739 -0.917628,-2.749047 3.970858,0.30545 -1.221804,1.832697 0.610902,1.527249 -1.832707,-3.359946 -0.609621,2.443597 z m -16.190097,-35.432165 0.61088,1.832698 -2.44359,0.30545 1.83271,-2.138148 z m -7.3308,29.628621 3.05449,0.610899 0.61091,1.832699 -3.6654,-2.443598 z m -15.27249,8.552592 0.30546,0 -0.30546,0 z m 44.901101,-13.439787 1.528531,-1.8326986 -3.05578,0.3054498 1.527249,1.5272488 z m -6.107714,10.690739 -0.917628,-2.749047 3.970858,0.30545 -1.221804,1.832697 0.610902,1.527249 -1.832707,-3.359946 -0.609621,2.443597 z m -16.190097,-35.432165 0.61088,1.832698 -2.44359,0.30545 1.83271,-2.138148 z m 76.058244,75.446077 5.191372,-7.636243 0.91635,-5.802272 -0.91635,-7.942964 -1.221799,-1.832699 -5.803544,-1.221799 -4.580473,-6.414444 -5.804817,-4.581745 0,0.91635 -0.30545,0.610898 0,6.719895 -0.30545,0.916349 0,5.498094 -0.305449,0.6109 0,3.970845 -0.305449,0.6109 0,3.665397 -0.30545,0.610899 0,2.749047 -0.304177,0.610899 0,2.749048 -0.306722,0.612172 0,2.747774 -0.30545,0.6109 0.612172,0.305449 4.580473,0 0.612171,0.30545 3.664124,0 0.916349,0.30545 3.359948,0 0.917621,0.30545 z m 0,0 5.191372,-7.636243 0.91635,-5.802272 -0.91635,-7.942964 -1.221799,-1.832699 -5.803544,-1.221799 -4.580473,-6.414444 -5.804817,-4.581745 m -94.688143,123.096239 0.60962,-3.35868 0.91636,-0.91763 3.35995,-6.71861 2.13815,-1.22307 10.38528,1.22307 -12.52343,0 -3.97085,8.55132 -0.6109,2.4436 7.94169,0 0.61217,0.30544 9.77312,0 0.61091,0.30546 8.55259,0 0.61089,0.30544 7.330796,0 0.610902,0.30545 0.916346,0 2.139419,-3.0545 4.580479,-3.05448 2.443595,-6.10773 -0.609634,-3.97213 2.442327,-3.05576 -1.220523,-0.9138 1.831426,0.30544 3.361223,-3.36122 5.191367,-3.35994 3.666668,0 4.885923,-3.97085 3.054497,0.91508 2.138151,-1.83143 -0.305458,1.52852 3.970859,0.30291 0.610888,-2.13688 4.276306,-2.13815 0,-2.44359 5.499368,-7.02535 0.304178,-0.91635 0,-0.61217 0.30545,-0.60835 0,-0.61218 0.305448,-0.61089 0,-1.52598 0.30545,-0.61217 0,-0.6109 0.305449,-0.61217 0,-0.91508 0.30545,-0.610899 0,-1.220526 0.30545,-0.612173 0,-0.916348 0.30545,-0.612173 0,-1.220525 0.305449,-0.91635 0,-1.220525 0.30545,-0.612173 0,-0.6109 0.30545,-0.915076 0,-1.223071 0.30545,-0.610899 0,-1.527249 0.30545,-0.6109 0,-1.525975 0.305449,-0.612173 0,-1.223071 0.30545,-0.915077 0,-1.221798 0.30545,-0.609627 0,-1.528521 0.306722,-0.612173 0,-1.525976 0.304177,-0.610899 0,-2.138147 0.30545,-0.610899 0,-1.220528 0.30545,-0.917621 0,-1.832698 0.306722,-0.91635 0,-1.832698 0.304177,-0.916348 0,-2.138148 0.30545,-0.6109 0,-2.138148 -4.276297,0 -0.610899,-0.30545 -4.580473,0 -0.612172,-0.30545 -5.192656,0 -0.60962,-0.30545 -5.804819,0 -0.60962,-0.305449 -5.193917,0 -0.610902,-0.30545 -6.719898,0 -0.305444,-0.30545 -6.719898,0 -0.610902,-0.305448 -7.636244,0 -0.610902,-0.30545 -7.941693,0 -0.6109,-0.30545 -9.16349,0 -0.61089,-0.30545 -10.07984,0 -0.91636,-0.304177 -5.19263,0 0,5.496822 -0.30546,0.917621 0,4.885923 -0.30418,0.6109 0,4.276296 -0.30672,0.610898 0,4.276297 -0.30545,0.6109 0,4.275023 -0.30544,0.612171 0,3.36122 -0.30546,0.913804 0,3.361219 -0.30544,0.6109 0,2.750319 -0.30545,0.6109 0,2.746502 -0.30546,0.917622 0,2.749049 -0.30544,0.61217 0,2.74905 -0.30546,0.60835 0,2.74905 -0.30544,0.61217 0,2.74905 -0.30545,0.6109 0,2.13815 -0.30546,0.61217 0,2.74905 -0.30544,0.60835 0,1.83524 -0.30546,0.91381 0,1.83524 -0.30544,0.60835 0,2.1407 -0.30545,0.60963 0,2.13687 -0.30417,0.61217 0,1.83143 -0.30673,0.61217 0,2.13687 -0.30546,0.61217 0,1.22307 -0.30544,0.60836 0,2.1407 -0.30418,0.60835 0,1.83524 -0.30672,0.60836 0,1.52853 -0.30545,0.61217 0,1.22052 -0.30546,0.6109 0,1.83269 -0.30417,0.61091 0,1.52725 1.2218,0 z m -78.1964,-92.856718 2.74905,6.108994 7.02661,9.775663 -0.91761,2.443598 2.13814,3.664124 3.66668,3.666669 16.79845,8.856768 5.19265,5.192646 0.61091,7.330796 0,6.72116 -2.74906,9.46767 0.6109,8.24842 -5.19264,15.88083 0.91634,4.27885 -0.30544,0.30545 0.61217,0.30544 27.48919,0 0.30546,0.30291 14.96703,0 0.6109,0.30673 2.44487,0 0,-1.52725 0.30417,-0.61091 0,-1.83269 0.30546,-0.6109 0,-1.22052 0.30545,-0.61217 0,-1.52853 0.30672,-0.60836 0,-1.83524 0.30418,-0.60835 0,-2.1407 0.30544,-0.60836 0,-1.22307 0.30546,-0.61217 0,-2.13687 0.30673,-0.61217 0,-1.83143 0.30417,-0.61217 0,-2.13687 0.30545,-0.60963 0,-2.1407 0.30544,-0.60835 0,-1.83524 0.30546,-0.91381 0,-1.83524 0.30544,-0.60835 0,-2.74905 0.30546,-0.61217 0,-2.13815 0.30545,-0.6109 0,-2.74905 0.30544,-0.61217 0,-2.74905 0.30546,-0.60835 0,-2.74905 0.30544,-0.61217 0,-2.749049 0.30546,-0.917622 0,-2.746502 0.30545,-0.6109 0,-2.750319 0.30544,-0.6109 0,-3.361219 0.30546,-0.913804 0,-3.36122 0.30544,-0.612171 0,-4.275023 0.30545,-0.6109 0,-4.276297 0.30672,-0.610898 0,-4.276296 0.30418,-0.6109 0,-4.885923 0.30546,-0.917621 0,-5.496822 -7.63625,0 -0.60963,-0.306722 -16.49555,0 -0.6109,-0.30545 -33.59948,0 -0.6109,-0.30545 -20.77056,0 -0.91636,0.30545 -3.97085,0 z m 163.416875,50.704648 1.220526,-1.52852 1.527248,-5.49555 2.444871,-3.055768 4.885922,-22.908728 0.6109,-0.916348 0.610899,1.831425 1.832699,-1.525975 8.553864,-11.912539 -0.917621,-0.30545 -3.359948,0 -0.916349,-0.30545 -3.664124,0 -0.612171,-0.30545 -4.580473,0 -0.612172,-0.305449 0,2.138148 -0.30545,0.6109 0,2.138148 -0.304177,0.916348 0,1.832698 -0.306722,0.91635 0,1.832698 -0.30545,0.917621 0,1.220528 -0.30545,0.610899 0,2.138147 -0.304177,0.610899 0,1.525976 -0.306722,0.612173 0,1.528521 -0.30545,0.609627 0,1.221798 -0.30545,0.915077 0,1.223071 -0.305449,0.612173 0,1.525975 -0.30545,0.6109 0,1.527249 -0.30545,0.610899 0,1.223071 -0.30545,0.915076 0,0.6109 -0.30545,0.612173 0,1.220525 -0.305449,0.91635 0,1.220525 -0.30545,0.612173 0,0.916348 -0.30545,0.612173 0,1.220526 -0.30545,0.610899 0,0.91508 -0.305449,0.61217 0,0.6109 -0.30545,0.61217 0,1.52598 -0.305448,0.61089 0,0.61218 -0.30545,0.60835 0,0.61217 -0.304178,0.91635 z m -142.951735,119.43084 0.30544,0 -0.30544,0 z m -1.83271,-23.51962 1.83271,-0.91508 0,-5.19265 -1.83271,0 -0.61089,1.83143 -0.91508,3.66411 1.52597,0.61219 z m 3.35996,5.19263 0.30544,-1.52596 -1.83269,0.91379 1.52725,0.61217 z m -6.7199,13.4398 1.83397,0.30671 -0.91762,-1.83524 -0.91635,1.52853 z m 6.10899,1.52725 0.30545,-2.13815 0.91636,1.52598 0.30544,-1.22054 0.91635,2.4436 -2.4436,-0.61089 z m 0.61091,-7.02534 0.91634,-1.83143 5.19265,0.30544 -3.6654,0 -2.44359,1.52599 z m 5.19263,-23.2142 1.83271,1.22308 -1.83271,0.30546 0,-1.52854 z m -4.27629,2.13816 0,-1.52725 1.22179,1.22053 -1.22179,0.30672 z m -6.10899,18.32698 1.2218,0.6109 -0.91508,0.91508 -0.30672,-1.52598 z m -1.22181,13.13434 1.52853,-0.30545 -0.91762,-4.27503 -0.61091,2.74905 -1.83269,-0.30544 1.22181,1.83142 1.52724,-1.83142 -0.91636,2.13687 z m 4.88721,0 5.80353,0 0.91635,0.30544 7.9417,0 -0.30545,-0.91634 0.6109,0.91634 1.52725,0 1.52725,-3.35994 6.41443,-3.66412 0.30546,-2.74905 -3.05449,-0.61217 -2.4436,-3.35994 2.74904,-3.05578 4.8872,-1.22052 1.22179,-4.58048 3.97085,-2.4436 -2.13814,-1.22307 2.13814,-0.61217 0.91635,1.5298 1.83397,-1.22308 -0.30673,-1.83269 -2.74904,1.22052 -1.83269,-1.52598 0.91635,-5.19265 4.27629,1.83144 5.19265,-0.91381 1.2218,-6.11026 0.91761,0.30544 -0.61217,-2.44359 4.27631,0.91763 4.27628,-0.61219 0,-1.22307 0.30545,-0.60835 0,-0.91762 0.30546,-0.6109 0,-1.22052 0.30672,-0.61217 0,-1.22307 0.30418,-0.60836 0,-0.91762 0.30544,-0.61091 0,-1.22052 0.30545,-0.61217 0,-0.6109 0.30546,-0.61217 0,-1.22053 0.30544,-0.30545 0,-1.22053 0.30546,-0.6109 0,-1.22307 0.30544,-0.61217 0,-1.83143 0.30545,-0.61217 0,-1.22052 0.30545,-0.6109 0,-0.91508 0.30545,-0.6109 0,-1.22308 0.30546,-0.61217 0,-1.22052 0.30544,-0.6109 0,-1.22052 0.30545,-0.61217 0,-1.83143 0.30545,-0.61217 0,-1.22307 -3.05449,3.36122 0,5.19264 -0.30546,-5.4981 3.6654,-3.66411 0,-1.52853 0.30546,-0.61217 0,-1.22053 0.30671,-0.6109 0,-0.30544 -2.44487,0 -0.6109,-0.30673 -14.96703,0 -0.30546,-0.30291 -27.48919,0 -0.61217,-0.30544 -1.83271,2.74905 0,12.82888 -6.41444,14.35486 -2.13815,0.91763 1.83271,8.55132 -3.0545,6.11026 1.83269,2.13687 -1.22179,0.61219 3.0545,-0.91763 1.22179,0.30544 1.2218,-0.61089 -2.13815,2.13687 1.83398,0.91763 -0.61219,1.22052 -1.22179,-0.91507 1.22179,1.22052 -1.22179,-0.30545 -0.91634,3.66667 1.22179,1.52598 -2.13814,0.91762 2.44486,1.52598 -3.36122,2.44614 2.74905,0.60962 -2.44359,0.30545 -0.30546,1.22307 1.2218,-0.61217 -1.52724,3.36122 -0.91635,-1.52851 -1.83143,0.30544 1.52597,-0.30544 -1.22179,0 0.91761,-1.22054 -1.22179,0.91381 -0.91762,-0.91381 -1.22179,0.30546 1.83269,0.60835 -0.91635,1.22307 -2.75032,1.22053 1.22307,0.91763 -0.91634,-0.91763 2.13813,-0.9138 0.30546,1.22052 1.83269,-0.30672 0.91635,1.83524 -1.83269,0.91508 2.13815,0 -2.74905,0.91634 3.05449,-0.6109 1.83271,1.52853 -1.52725,-0.30546 0.91635,1.22054 -3.97085,-0.91508 2.4436,1.22053 -1.83143,0.91761 1.22179,0.30546 -1.22179,2.44359 1.22179,-0.91762 1.22054,1.8327 -2.13815,-0.30672 0.6109,1.22307 2.4436,0 z m -1.83271,-23.51962 1.83271,-0.91508 0,-5.19265 -1.83271,0 -0.61089,1.83143 -0.91508,3.66411 1.52597,0.61219 z m 3.35996,5.19263 0.30544,-1.52596 -1.83269,0.91379 1.52725,0.61217 z m -6.7199,13.4398 1.83397,0.30671 -0.91762,-1.83524 -0.91635,1.52853 z m 6.10899,1.52725 0.30545,-2.13815 0.91636,1.52598 0.30544,-1.22054 0.91635,2.4436 -2.4436,-0.61089 z m 0.61091,-7.02534 0.91634,-1.83143 5.19265,0.30544 -3.6654,0 -2.44359,1.52599 z m 5.19263,-23.2142 1.83271,1.22308 -1.83271,0.30546 0,-1.52854 z m -4.27629,2.13816 0,-1.52725 1.22179,1.22053 -1.22179,0.30672 z m -6.10899,18.32698 1.2218,0.6109 -0.91508,0.91508 -0.30672,-1.52598 z m 61.70084,-64.14443 -0.30418,2.74904 -2.13942,2.13688 0,1.22307 -0.30545,0.61217 0,1.83143 -0.30545,0.61217 0,1.22052 -0.30544,0.6109 0,1.22052 -0.30546,0.61217 0,1.22308 -0.30545,0.6109 0,0.91508 -0.30545,0.6109 0,1.22052 -0.30545,0.61217 0,1.83143 -0.30544,0.61217 0,1.22307 -0.30546,0.6109 0,1.22053 -0.30544,0.30545 0,1.22053 -0.30546,0.61217 0,0.6109 -0.30545,0.61217 0,1.22052 -0.30544,0.61091 0,0.91762 -0.30418,0.60836 0,1.22307 -0.30672,0.61217 0,1.22052 -0.30546,0.6109 0,0.91762 -0.30545,0.60835 0,1.22307 5.4981,-0.91634 3.6654,-1.8327 4.27629,-4.58047 0.30672,-2.4436 -2.13942,-1.5298 1.52725,-2.74904 -4.58046,-3.66413 1.52596,-5.80354 -0.6109,3.66667 1.83271,2.4436 5.80354,2.13688 7.63624,-0.91636 7.3308,-6.71988 2.74904,-5.19265 5.80355,-6.11027 -0.6109,-1.52598 2.443593,2.13815 -7.330783,7.02408 5.80353,-4.27504 3.665404,-4.58174 -0.916346,0 -0.610902,-0.30545 -7.330796,0 -0.61089,-0.30544 -8.55259,0 -0.61091,-0.30546 -9.77312,0 -0.61217,-0.30544 -7.94169,0 z m -57.73,77.27877 3.6654,0.61217 -3.0545,0.60835 0,1.22307 -0.91634,-2.44359 0.30544,0 z m 17.10518,16.49301 4.58175,-1.22052 -6.71988,-2.4436 -2.44361,-4.27503 -4.88719,0.91508 0,1.83142 3.05449,0.30546 -2.44359,1.83524 3.0545,1.22052 -1.22181,0.91635 0,-1.22179 -0.91634,0.61089 -3.35995,-1.22052 2.13814,1.22052 -1.52725,0.30546 -0.30544,-0.91635 -3.0545,0.91635 14.05068,1.22052 z m -8.85803,0.30544 1.52725,1.22308 -0.30546,-0.91635 1.83271,0 -0.30546,0.91635 2.44361,0.61218 -2.74906,-2.1407 1.8327,-0.30291 -4.27629,0.60835 z m -8.24715,-3.35739 2.4436,-0.91763 -2.4436,-1.22307 -1.83269,0.91763 1.52725,1.22307 1.52725,-0.61217 -1.22181,0.61217 z m 0.30546,-2.74905 1.52725,0.91381 -0.6109,-0.91381 3.35994,-1.52979 -3.35994,0 -0.91635,1.52979 z m -3.0545,-0.30671 2.74904,0.91506 -4.58174,-2.13814 1.8327,1.22308 z m 8.85804,2.7503 1.83269,0.91381 -0.61089,-2.13688 -1.2218,1.22307 z m -0.30545,0.91381 -1.83142,-0.91381 0,0.91381 1.83142,0 z m -11.30164,-13.74397 -1.22181,0 0.30546,1.22054 0.91635,-1.22054 z m 20.15968,0 0.30546,0.30673 1.22179,-0.30673 -1.52725,0 z m -14.66159,-0.30544 3.6654,0.61217 -3.0545,0.60835 0,1.22307 -0.91634,-2.44359 -2.4436,0 0.61089,1.22052 -2.44359,-0.30289 2.13941,0.60835 0,1.52978 1.22054,-1.52978 0.91635,0.91761 -2.74906,0.91763 1.52725,0.60836 -0.91508,1.52979 1.83143,1.52597 0,-1.52597 0.6109,1.52597 -0.6109,-1.83269 2.13815,0.91761 -2.44359,-1.22307 1.52724,-0.91761 -0.6109,1.22307 1.83271,0.91761 -1.22181,2.13815 0.61091,-1.52851 -0.91635,1.22179 0,-0.91635 -2.13815,0 0,2.4436 2.44359,-0.91508 -1.52724,1.52598 1.2218,0.30546 0.30544,-1.83144 3.97085,0 0.30544,1.83144 -1.83269,1.52723 0.6109,-1.22052 -1.83269,0.60835 3.05448,1.52853 1.52725,-3.66667 5.19393,-1.52598 2.44232,0.30545 -1.52725,-2.44232 -1.8327,0 1.8327,0 -1.22179,-1.52979 3.6654,-3.05195 -0.61091,-0.61219 -7.9417,0 -0.91635,-0.30544 -5.49809,0 z m 17.10518,16.49301 4.58175,-1.22052 -6.71988,-2.4436 -2.44361,-4.27503 -4.88719,0.91508 0,1.83142 3.05449,0.30546 -2.44359,1.83524 3.0545,1.22052 -1.22181,0.91635 0,-1.22179 -0.91634,0.61089 -3.35995,-1.22052 2.13814,1.22052 -1.52725,0.30546 -0.30544,-0.91635 -3.0545,0.91635 14.05068,1.22052 z m -8.85803,0.30544 1.52725,1.22308 -0.30546,-0.91635 1.83271,0 -0.30546,0.91635 2.44361,0.61218 -2.74906,-2.1407 1.8327,-0.30291 -4.27629,0.60835 z m -8.24715,-3.35739 2.4436,-0.91763 -2.4436,-1.22307 -1.83269,0.91763 1.52725,1.22307 1.52725,-0.61217 -1.22181,0.61217 z m 0.30546,-2.74905 1.52725,0.91381 -0.6109,-0.91381 3.35994,-1.52979 -3.35994,0 -0.91635,1.52979 z m -3.0545,-0.30671 2.74904,0.91506 -4.58174,-2.13814 1.8327,1.22308 z m 8.85804,2.7503 1.83269,0.91381 -0.61089,-2.13688 -1.2218,1.22307 z m -0.30545,0.91381 -1.83142,-0.91381 0,0.91381 1.83142,0 z m -11.30164,-13.74397 -1.22181,0 0.30546,1.22054 0.91635,-1.22054 z"
       id="path2940"
       style="fill:#aae0fa;fill-opacity:1;stroke:none" />
    <path
       d="m -352.76523,-129.63422 7.63625,-1.2218 -0.61089,0.6109 10.38528,3.97085 9.46894,-0.6109 0.6109,-1.83143 6.109,-0.30545 3.97084,4.2763 0.30546,2.4436 m 0,-0.001 0,1.52725 3.35994,2.13815 4.88719,-3.6654 3.35996,0.30545 3.66538,6.109 m 23.51964,57.424543 2.74904,-6.719893 5.80355,-0.30545 0.30544,-1.527249 -4.27629,-3.665397 1.8327,0 0.30546,-2.443597 8.24713,-0.30545 -1.22179,8.552592 1.52725,0 m -38.79213,-51.010099 1.22181,2.4436 0.6109,4.58174 7.33079,1.52725 m 55.59184,46.122905 -6.10899,1.832699 -2.13814,-0.91635 -3.97086,4.581745 -1.22179,-1.221797 -3.35994,1.527247 0,2.138148 -1.52725,1.527249 m 5.80354,8.552592 8.24714,1.527249 1.22179,-0.916349 m -18.02152,-12.828889 -3.6654,-0.30545 -3.6654,-2.443596 m 1.2218,-3.054498 -2.13815,3.665397 m 9.16349,-17.410633 -3.0545,-1.527249 -3.05449,3.054497 m -3.0545,16.188835 -2.74904,2.138147 m 4.88719,-6.108994 4.2763,-2.749046 m 1.8327,8.55259 -0.61091,1.832699 m 2.13815,1.832698 1.22181,0 m 73.00375,4.581745 -5.19265,3.359948 -2.44359,5.192644 m -33.2953,68.115285 -0.6109,-0.30545 m -11.30163,-65.671686 -1.83271,0.610899 0.30546,6.719893 m 12.82888,58.340894 -1.83143,0.610899 1.52598,-2.443596 -0.91634,-2.443598 m 7.33207,-23.2141782 7.02534,5.1926445 5.19263,-0.6108995 7.02536,3.0544976 8.85803,10.9961896 5.80482,-1.527248 7.94169,2.443596 -3.0545,5.498096 3.6654,2.138147 2.74906,-14.661586 -3.0545,-4.8871946 0,-3.3599474 3.97084,-0.3054497 m 10.99492,51.0101017 0.60962,-0.30545 5.80355,-0.916349 0,1.527249 m -21.38148,-27.490474 -3.6654,-0.91635 -10.07984,4.581747 -1.22181,6.414443 -4.27628,5.192645 5.19264,7.026616 -1.2218,1.831426 4.2763,0.610899 0.60962,2.443598 m 2.13942,0 1.83143,0 3.6654,-2.749048 0,2.749048 m 49.17867,-72.08613 0,3.359946 0.60964,0.6109 m -61.39285,-27.185025 -1.83271,3.665397 3.0545,0.6109 2.13815,4.581745 -0.91635,2.749048 3.05322,2.443597 8.24715,0.30545 3.35994,3.970846 9.16349,-0.305449 m -36.95942,29.6286207 -1.83142,0 2.13815,4.2762953 -1.83269,2.749048 -5.19265,4.887195 -7.94042,3.970847 -3.36123,7.636242 -4.58174,-3.054497 m 73.00122,-40.624811 3.05449,8.2471425 3.0545,0.3054498 0,1.5272485 -10.08112,6.7198925 -0.30418,-1.5272474 -3.36121,1.2217976 -2.74778,-2.4435967 m 28.71228,-18.3269818 0.60962,1.221798 -1.83142,1.832699 -7.94169,2.138148 -0.60964,2.4435973 -8.55385,-3.3599473 m -60.47905,-21.38148 1.2218,3.359947 -2.13942,2.138149 -0.91508,-0.916349 -0.6109,2.138148 m 83.99867,10.38529 -2.74904,0 -3.0545,-3.665397 0.91762,-3.359947 3.97084,-1.527248 -2.13942,-2.443598 1.8327,-1.527248 m -32.98856,7.330793 -2.13942,7.636242 3.0545,5.4980949 -2.74906,3.0544971 m 4.5843,7.3307928 -2.44488,-4.2762958 -2.44359,1.83269774 -1.22181,-1.22179819 0,1.22179819 -7.94042,0 m 9.46767,-4.88719474 3.0545,1.8326983 1.52725,5.4980945 m -14.04942,-2.44359806 0,3.05449766 2.74779,0.3054497 0.30544,1.8326972 m 41.23571,-33.5994663 1.52724,-1.2218 m 0.30546,17.716084 2.4436,2.1381477 -2.13815,5.192645 1.2218,4.58174504 4.27629,3.35994736 6.71863,-3.66539655 3.97084,0.30544919 -7.3308,-10.07983974 0.30546,-3.665396 3.05322,-0.91635 0,-2.138148 m 3.97339,16.79973374 2.4436,0.30544976 -0.30418,-3.0544965 4.58175,-0.3054497 3.970841,2.74904725 1.527249,-1.22179875 3.6654,0.91634913 5.192649,-8.55259183 m -12.830159,7.6362427 2.749052,-5.192645 -2.443612,-7.0253428 2.138153,-3.970847 m -27.489193,-11.912539 0.60962,-0.610899 -0.60962,-1.221799 m -45.51329,123.096232 2.13943,6.718621 2.4436,2.443601 -1.52725,4.58174 3.35994,10.99746 3.6654,0.91763 -1.52598,4.58174 -5.49809,3.36122 0.30545,10.07985 -2.13943,0.30544 -3.66538,5.80227 -1.83143,3.97213 0.60962,3.05449 m 12.82761,-88.888412 4.58303,-3.359946 m 6.41317,0.30545 -0.30417,5.803544 1.83142,3.665396 3.0545,2.443598 5.49809,0.610899 5.49681,4.581745 6.109,1.220527 -0.60962,6.110268 1.2218,5.498094 0.91635,0 m -54.98096,-30.239521 2.13943,0 m 5.49681,0 -0.60962,4.581745 9.1635,0.917623 4.58174,-2.139422 m -8.55387,1.221799 3.97084,7.330793 -3.97084,14.661586 2.74905,3.361219 -3.6654,3.969574 -1.2218,4.584292 -2.74904,0.915075 m 13.74524,20.769304 4.27629,-4.58174 7.02534,2.13815 1.2218,2.74904 1.8327,-3.96957 4.8872,0.3029 7.02534,8.24715 4.27629,1.83142 m -10.69074,-9.16094 4.8872,-11.60582 7.94169,-1.52852 m 1.22181,-14.356137 7.33078,0.30545 -0.60962,4.581745 3.6654,4.581746 -3.97086,9.164766 m 13.43852,32.07094 -8.55386,4.58175 -7.94042,7.63624 m 9.16349,-35.43216 2.74906,1.52597 0.61088,7.33334 4.58175,0.3029 -3.35994,10.69075 -5.19265,4.27757 m -15.27249,-14.96832 1.83143,0.91763 m -0.60962,-0.61218 8.24586,5.80482 -5.49682,7.94169 m -1.8327,-36.34851 7.63625,2.4436 0.91634,5.49809 -1.22179,5.19265 m 11.91254,16.19011 2.74905,0.60962 -0.91636,6.41572 m -19.24333,-0.001 11.30164,0.91763 m 0.6109,-24.1318 -6.41444,0 m -53.14825,34.51708 0,0.60964 -3.05323,4.88719 2.13815,12.52343 -3.05449,4.27757 0.6109,3.0545 -3.36122,3.35867 0.91762,7.02534 -3.36122,3.97213 -0.60963,9.7744 -1.52725,0.61088 0.6109,7.94171 2.74777,0.60962 -3.35994,0.91763 2.44359,1.83142 -1.83142,1.22307 0.30417,3.96956 -2.44359,2.74906 -0.91635,4.58174 -3.35994,2.44615 0.60962,1.52597 m 66.89603,-76.9746 -0.91762,0.6109 -3.6654,9.7744 m 17.10518,5.80353 0,-2.44359 1.83143,-1.52852 -1.52597,-3.05196 -6.11028,-5.49809 -1.83142,0.91508 -2.4436,-4.27629 -3.05449,0.30544 m -3.97085,9.7744 -1.83142,7.02534 m -60.48032,59.56269 0.6109,2.74905 2.74906,-0.30546 -0.61091,3.0545 1.52725,1.22052 m 9.46894,2.13816 -1.22179,7.33333 m -8.24715,-9.4702 10.07984,1.52851"
       id="path1319"
       style="fill:none;stroke:#e3f5ff;stroke-width:1.07410979;stroke-linejoin:bevel;stroke-miterlimit:10;stroke-opacity:1;stroke-dasharray:none" />
  </g>
  <text
     x="192.98508"
     y="162.76784"
     transform="scale(0.96885618,1.0321449)"
     id="text4245"
     xml:space="preserve"
     style="font-size:28px;font-style:normal;font-variant:normal;font-weight:bold;font-stretch:normal;text-align:center;line-height:120.00000477%;writing-mode:lr-tb;text-anchor:middle;fill:#000000;fill-opacity:1;stroke:none;font-family:Georgia;-inkscape-font-specification:Georgia Bold"><tspan
       x="192.98508"
       y="162.76784"
       id="tspan2826">ALLIANCE FOR</tspan><tspan
       x="192.98508"
       y="196.36784"
       id="tspan2828">PROGRESS*</tspan></text>
  <text
     x="187.42149"
     y="242.29514"
     id="text6155"
     xml:space="preserve"
     style="font-size:20px;font-style:normal;font-variant:normal;font-weight:normal;font-stretch:normal;text-align:center;line-height:120.00000477%;writing-mode:lr-tb;text-anchor:middle;fill:#000000;fill-opacity:1;stroke:none;font-family:Georgia;-inkscape-font-specification:Georgia"><tspan
       x="187.42149"
       y="242.29514"
       id="tspan2830">US gains 1 VP for each US</tspan><tspan
       x="187.42149"
       y="266.29514"
       id="tspan2832">controlled Battleground country in</tspan><tspan
       x="187.42149"
       y="290.29514"
       id="tspan2834">Central America and South</tspan><tspan
       x="187.42149"
       y="314.29514"
       id="tspan2836">America.</tspan></text>
</svg>
