<?xml version="1.0" encoding="UTF-8" standalone="no"?>
<!-- Created with Inkscape (http://www.inkscape.org/) -->

<svg
   xmlns:svg="http://www.w3.org/2000/svg"
   xmlns="http://www.w3.org/2000/svg"
   version="1.0"
   width="388"
   height="538"
   viewBox="0 0 388 538"
   id="svg2">
  <defs
     id="defs6" />
  <text
     x="193.09192"
     y="260.5386"
     transform="scale(0.9685452,1.0324764)"
     id="text4245"
     xml:space="preserve"
     style="font-size:28px;font-style:normal;font-variant:normal;font-weight:bold;font-stretch:normal;text-align:center;line-height:125%;writing-mode:lr-tb;text-anchor:middle;fill:#000000;font-family:Georgia;-inkscape-font-specification:Georgia Bold"><tspan
       x="193.09192"
       y="260.5386"
       id="tspan2841">OPEC</tspan></text>
  <text
     x="187.75481"
     y="306.12888"
     id="text3884"
     xml:space="preserve"
     style="font-size:20px;font-style:normal;font-variant:normal;font-weight:normal;font-stretch:normal;text-align:center;line-height:120.00000477%;writing-mode:lr-tb;text-anchor:middle;fill:#000000;font-family:Georgia;-inkscape-font-specification:Georgia"><tspan
       x="187.75481"
       y="306.12888"
       id="tspan2843">USSR gains 1 VP for each of the</tspan><tspan
       x="187.75481"
       y="330.12888"
       id="tspan2845">following countries he controls:</tspan></text>
  <text
     x="188.08813"
     y="364.1286"
     id="text7381"
     xml:space="preserve"
     style="font-size:20px;font-style:normal;font-variant:normal;font-weight:normal;font-stretch:normal;text-align:center;line-height:120.00000477%;writing-mode:lr-tb;text-anchor:middle;fill:#000000;font-family:Georgia;-inkscape-font-specification:Georgia"><tspan
       x="188.08813"
       y="364.1286"
       id="tspan2847">Egypt, Iran, Libya, Saudi Arabia,</tspan><tspan
       x="188.08813"
       y="388.1286"
       id="tspan2849">Iraq, Gulf States, and Venezuela.</tspan></text>
  <text
     x="187.733"
     y="420.2507"
     id="text3851"
     xml:space="preserve"
     style="font-size:18px;font-style:italic;font-variant:normal;font-weight:normal;font-stretch:normal;text-align:center;line-height:120.00000477%;writing-mode:lr-tb;text-anchor:middle;fill:#000000;font-family:Georgia;-inkscape-font-specification:Georgia Italic"><tspan
       x="187.733"
       y="420.2507"
       id="tspan2851">Unplayable as an event if ‘North Sea Oil’</tspan><tspan
       x="187.733"
       y="441.85071"
       id="tspan2853">is in effect.</tspan></text>
  <g
     transform="matrix(0.467775,0,0,-0.4668103,-142.305,321.2069)"
     id="g12">
    <g
       transform="scale(0.1,0.1)"
       id="g14">
      <g
         transform="translate(5030.303,2189.4737)"
         id="g3713">
        <path
           d="m 0,0 4000,0 0,2400 L 0,2400 0,0 z"
           id="path16"
           style="fill:#10a5ff;fill-opacity:1;fill-rule:nonzero;stroke:#000000;stroke-width:42.79975128;stroke-miterlimit:4;stroke-opacity:1;stroke-dasharray:none" />
        <path
           d="m 1924.92,1615.39 c 0,-200.16 -162.26,-362.42 -362.42,-362.42 -200.16,0 -362.42,162.26 -362.42,362.42 0,200.16 162.26,362.42 362.42,362.42 200.16,0 362.42,-162.26 362.42,-362.42 z"
           id="path18"
           style="fill:#ffffff;fill-opacity:1;fill-rule:nonzero;stroke:none" />
        <path
           d="m 1954.61,1946.21 c 22.58,-304.49 -7.42,-1487.261 69.18,-1486.37 64.53,0.781 59.61,1181.53 82.81,1486.02 l -151.99,0.35 z"
           id="path20"
           style="fill:#ffffff;fill-opacity:1;fill-rule:evenodd;stroke:none" />
        <path
           d="m 1954.61,1946.21 c 22.58,-304.49 -7.42,-1487.261 69.18,-1486.37 64.53,0.781 59.61,1181.53 82.81,1486.02 l -151.99,0.35 z"
           id="path22"
           style="fill:none;stroke:#ffffff;stroke-width:21.39987564;stroke-linecap:butt;stroke-linejoin:miter;stroke-miterlimit:4;stroke-opacity:1;stroke-dasharray:none" />
        <path
           d="m 1784.1,1050.12 c 0,0 -138.79,131.95 -327.5,74.49 -156.25,-47.58 -248.55,-166.09 -252.5,-341.411 -3.94,-175.308 110.78,-324.879 317.7,-346.008 163.9,-16.761 284.68,89.649 284.68,89.649 0,0 -64.57,49.449 -26.32,126.519 20.15,40.743 115.97,31.641 115.97,31.641 7.11,50.43 18.05,80.199 -5.27,216.84 0,0 -93.59,-19.731 -123.24,39.57 -20.16,40.309 16.48,108.71 16.48,108.71 l 0,0 z"
           id="path24"
           style="fill:#ffffff;fill-opacity:1;fill-rule:evenodd;stroke:none" />
        <path
           d="m 1784.1,1050.12 c 0,0 -138.79,131.95 -327.5,74.49 -156.25,-47.58 -248.55,-166.09 -252.5,-341.411 -3.94,-175.308 110.78,-324.879 317.7,-346.008 163.9,-16.761 284.68,89.649 284.68,89.649 0,0 -64.57,49.449 -26.32,126.519 20.15,40.743 115.97,31.641 115.97,31.641 7.11,50.43 18.05,80.199 -5.27,216.84 0,0 -93.59,-19.731 -123.24,39.57 -20.16,40.309 16.48,108.71 16.48,108.71 l 0,0 z"
           id="path26"
           style="fill:none;stroke:#ffffff;stroke-width:21.39987564;stroke-linecap:butt;stroke-linejoin:miter;stroke-miterlimit:4;stroke-opacity:1;stroke-dasharray:none" />
        <path
           d="m 2775.82,941.328 c 0,0 -74.84,213.082 -326.76,201.952 -191.79,-8.36 -342.07,-166.831 -335.82,-342.62 7.93,-225.781 154.03,-344.371 324.49,-356.25 234.26,-16.441 331.25,163.399 331.25,163.399 0,0 -133.12,39.101 -131.6,172.421 1.57,133.321 138.44,161.098 138.44,161.098 l 0,0 z"
           id="path28"
           style="fill:#ffffff;fill-opacity:1;fill-rule:evenodd;stroke:none" />
        <path
           d="m 2775.82,941.328 c 0,0 -74.84,213.082 -326.76,201.952 -191.79,-8.36 -342.07,-166.831 -335.82,-342.62 7.93,-225.781 154.03,-344.371 324.49,-356.25 234.26,-16.441 331.25,163.399 331.25,163.399 0,0 -133.12,39.101 -131.6,172.421 1.57,133.321 138.44,161.098 138.44,161.098 l 0,0 z"
           id="path30"
           style="fill:none;stroke:#ffffff;stroke-width:21.39987564;stroke-linecap:butt;stroke-linejoin:miter;stroke-miterlimit:4;stroke-opacity:1;stroke-dasharray:none" />
        <path
           d="m 2779.88,1615.39 c 0,-200.16 -162.26,-362.42 -362.42,-362.42 -200.16,0 -362.42,162.26 -362.42,362.42 0,200.16 162.26,362.42 362.42,362.42 200.16,0 362.42,-162.26 362.42,-362.42 z"
           id="path32"
           style="fill:#ffffff;fill-opacity:1;fill-rule:nonzero;stroke:none" />
      </g>
    </g>
  </g>
</svg>
