<?xml version="1.0" encoding="UTF-8" standalone="no"?>
<!-- Created with Inkscape (http://www.inkscape.org/) -->

<svg
   xmlns:svg="http://www.w3.org/2000/svg"
   xmlns="http://www.w3.org/2000/svg"
   version="1.1"
   width="388"
   height="538"
   id="svg2">
  <defs
     id="defs6" />
  <text
     x="192.99725"
     y="238.2735"
     transform="scale(0.9695768,1.0313778)"
     id="text4245"
     xml:space="preserve"
     style="font-size:28px;font-style:normal;font-variant:normal;font-weight:bold;font-stretch:normal;text-align:center;line-height:120.00000477%;writing-mode:lr-tb;text-anchor:middle;fill:#000000;fill-opacity:1;stroke:none;font-family:Georgia;-inkscape-font-specification:Georgia Bold"><tspan
       x="192.99725"
       y="238.2735"
       id="tspan2907"
       style="font-size:28px;font-style:normal;font-variant:normal;font-weight:bold;font-stretch:normal;text-align:center;line-height:120.00000477%;writing-mode:lr-tb;text-anchor:middle;font-family:Georgia;-inkscape-font-specification:Georgia Bold">OLYMPIC GAMES</tspan></text>
  <text
     x="188"
     y="282.5"
     id="text3884"
     xml:space="preserve"
     style="font-size:20px;font-style:normal;font-variant:normal;font-weight:normal;font-stretch:normal;text-align:center;line-height:120.00000477%;writing-mode:lr-tb;text-anchor:middle;fill:#000000;fill-opacity:1;stroke:none;font-family:Georgia;-inkscape-font-specification:Georgia"><tspan
       x="188"
       y="282.5"
       id="tspan2905">Player sponsors Olympics.</tspan><tspan
       x="188"
       y="306.5"
       id="tspan2908">Opponent may participate or boycott.</tspan><tspan
       x="188"
       y="330.5"
       id="tspan2910">If Opponent participates, each player</tspan><tspan
       x="188"
       y="354.5"
       id="tspan2912">rolls one die, with the sponsor adding</tspan><tspan
       x="188"
       y="378.5"
       id="tspan2914">2 to his roll. High roll gains 2 VP.</tspan><tspan
       x="188"
       y="402.5"
       id="tspan2916">Reroll ties. If Opponent boycotts,</tspan><tspan
       x="188"
       y="426.5"
       id="tspan2918">degrade DEFCON one level and the</tspan><tspan
       x="188"
       y="450.5"
       id="tspan2920">Sponsor may Conduct Operations as</tspan><tspan
       x="188"
       y="474.5"
       id="tspan2922">if they played a 4 Ops card.</tspan></text>
  <path
     d="m 125.32292,112.47917 c -16.31662,0 -29.593753,13.27713 -29.593753,29.59375 0,16.31661 13.277133,29.625 29.593753,29.625 0.54154,0 1.0905,-0.002 1.625,-0.0312 1.77887,14.63235 14.27304,26.03125 29.375,26.03125 14.78693,0 27.10459,-10.93397 29.28125,-25.125 0.9027,0.0834 1.79479,0.125 2.71875,0.125 0.58462,0 1.17362,-0.0289 1.75,-0.0625 2.20237,14.16145 14.48415,25.0625 29.25,25.0625 15.10195,0 27.62738,-11.3989 29.40625,-26.03125 0.5345,0.0289 1.05221,0.0312 1.59375,0.0312 16.31661,0 29.625,-13.30839 29.625,-29.625 0,-16.31662 -13.30839,-29.59375 -29.625,-29.59375 -15.10595,0 -27.60133,11.39331 -29.375,26.03125 -0.5345,-0.0289 -1.08346,-0.0312 -1.625,-0.0312 -0.58462,0 -1.14237,0.0288 -1.71875,0.0625 -2.18969,-14.17607 -14.505,-25.0625 -29.28125,-25.0625 -14.7974,0 -27.08614,10.91929 -29.25,25.125 -0.90269,-0.0834 -1.82604,-0.125 -2.75,-0.125 -0.54154,0 -1.05925,0.002 -1.59375,0.0312 -1.77367,-14.63794 -14.30031,-26.03125 -29.40625,-26.03125 z m 0,6 c 12.18149,0 22.16333,9.14498 23.46875,20.96875 -11.91434,3.14415 -20.92434,13.5672 -21.96875,26.1875 -0.49512,0.0307 -0.99691,0.0625 -1.5,0.0625 -13.07398,0 -23.59375,-10.55102 -23.59375,-23.625 0,-13.07398 10.51977,-23.59375 23.59375,-23.59375 z m 125,0 c 13.07398,0 23.625,10.51977 23.625,23.59375 0,13.07398 -10.55102,23.625 -23.625,23.625 -0.49489,0 -0.98157,-0.0327 -1.46875,-0.0625 -1.04441,-12.6203 -10.05442,-23.04335 -21.96875,-26.1875 1.30542,-11.82377 11.25601,-20.96875 23.4375,-20.96875 z m -62,1 c 11.85886,0 21.63015,8.66315 23.34375,20.03125 -12.16183,3.27045 -21.27086,14.10347 -21.90625,27.125 -0.47495,0.0283 -0.95524,0.0625 -1.4375,0.0625 -0.81712,0 -1.61092,-0.0446 -2.40625,-0.125 -0.64407,-12.64941 -9.27786,-23.24797 -20.9375,-26.8125 1.60809,-11.48959 11.39895,-20.28125 23.34375,-20.28125 z m -32,25 c 0.81712,0 1.64217,0.0446 2.4375,0.125 0.64407,12.6494 9.27785,23.24797 20.9375,26.8125 -1.60809,11.48959 -11.4302,20.28125 -23.375,20.28125 -12.18149,0 -22.13208,-9.14499 -23.4375,-20.96875 11.91433,-3.14414 20.92434,-13.5672 21.96875,-26.1875 0.48718,-0.0298 0.97386,-0.0625 1.46875,-0.0625 z m 63,0 c 0.50309,0 1.00488,0.0318 1.5,0.0625 1.04441,12.6203 10.05441,23.04336 21.96875,26.1875 -1.30542,11.82376 -11.28726,20.96875 -23.46875,20.96875 -11.85886,0 -21.5989,-8.66315 -23.3125,-20.03125 12.17103,-3.27293 21.2832,-14.12159 21.90625,-27.15625 0.46566,-0.0272 0.93358,-0.0312 1.40625,-0.0312 z m -7.53125,1.21875 c -1.01126,9.26991 -7.349,16.87597 -15.90625,19.75 1.02289,-9.26478 7.34618,-16.88543 15.90625,-19.75 z m -63.125,0.0625 c -1.35386,8.74766 -7.48583,15.86338 -15.65625,18.65625 1.3545,-8.75182 7.47999,-15.86619 15.65625,-18.65625 z m 78.34375,0 c 8.17042,2.79287 14.30239,9.90859 15.65625,18.65625 -8.17626,-2.79006 -14.30175,-9.90443 -15.65625,-18.65625 z m -62.09375,0.34375 c 7.91357,3.07418 13.74218,10.25348 14.84375,18.96875 -7.91357,-3.07418 -13.74218,-10.25348 -14.84375,-18.96875 z"
     id="path3844"
     style="font-size:medium;font-style:normal;font-variant:normal;font-weight:normal;font-stretch:normal;text-indent:0;text-align:start;text-decoration:none;line-height:normal;letter-spacing:normal;word-spacing:normal;text-transform:none;direction:ltr;block-progression:tb;writing-mode:lr-tb;text-anchor:start;color:#000000;fill:#d6eefa;fill-opacity:1;stroke:#ffffff;stroke-width:2;stroke-miterlimit:4;stroke-opacity:1;stroke-dasharray:none;marker:none;visibility:visible;display:inline;overflow:visible;enable-background:accumulate;font-family:Andale Mono;-inkscape-font-specification:Andale Mono" />
  <path
     d="m 177.33333,122.33333 c 0,0 -1.93342,7.54425 -0.20033,10.66667 2.90191,5.2282 6.56453,6.33218 11.20033,6.33333 6.82701,0.002 11.67955,-4.04122 11.91667,-11.33333 0.23875,-7.34209 -4.85923,-9.77484 -6.95,-14.41667 -1.47758,-3.28045 -2.88333,-7.16666 -2.88333,-7.16666 0,0 0.0673,3.9494 0.41666,5.75 1.07132,5.5216 5.1502,10.4894 5.33367,15.83333 0.22882,6.66501 -4.83367,9 -4.83367,9 0,0 2.691,-5.75723 2.16667,-11 -0.36185,-3.61815 -4.64413,-10.90094 -5,-16.58333 -0.19766,-3.1561 3.25,-9.500003 3.25,-9.500003 0,0 -7.71817,5.096193 -7.35,11.583333 0.55754,9.82384 5.96933,13.69926 5.967,19.83333 -10e-4,3.11395 -1.367,5.33334 -1.367,5.33334 0,0 0.31439,-4.12157 -0.66667,-6.75 -1.95331,-5.23325 -2.18848,-4.89141 -4.83333,-9.75 -1.1853,-2.1774 -1.08333,-8.58334 -1.08333,-8.58334 0,0 -3.94592,5.37771 -3.08334,8.58334 2.09115,7.77143 3.77073,6.7279 5.16667,11.83333 0.32368,1.18381 0.83333,3.66667 0.83333,3.66667 0,0 -3.32045,-1.42056 -5.63333,-5.83334 -1.47431,-2.81286 -2.36667,-7.5 -2.36667,-7.5 z"
     id="path3874"
     style="fill:none;stroke:#ffffff;stroke-width:2.5;stroke-linecap:butt;stroke-linejoin:round;stroke-miterlimit:4;stroke-opacity:1;stroke-dasharray:none" />
  <g
     id="g4056">
    <path
       d="m 175,139.34375 c 0,0 4.70686,7.73487 6.34375,11.8125 2.05545,5.12032 3.4106,7.92543 3.4375,23.9375 0.0174,10.39397 -0.74473,13.02781 0.46875,18.6875 l -0.59375,0 a 0.50005,0.74960737 0 0 0 -0.0625,0 0.50128691,0.75146159 0 1 0 0.0625,1.5 l 0.96875,0 c 0.0489,0.19534 0.0717,0.35907 0.125,0.5625 0.32113,1.22548 1.07689,3 2.34375,3 1.26686,0 2.3125,-3 2.3125,-3 0.0274,-0.21709 0.0369,-0.35378 0.0625,-0.5625 l 1,0 a 0.50031192,0.75 0 1 0 0,-1.5 l -0.84375,0 c 0.66675,-5.91863 0.64311,-8.9409 0.6875,-18.6875 0.0778,-17.07498 1.12767,-18.33043 2.9375,-23.9375 1.21534,-3.76528 7.09375,-11.8125 7.09375,-11.8125 l -26.34375,0 z"
       id="path3864"
       style="fill:#64b0ca;fill-opacity:1;stroke:#ffffff;stroke-width:0.5;stroke-linecap:butt;stroke-linejoin:round;stroke-miterlimit:4;stroke-opacity:1;stroke-dasharray:none" />
    <path
       d="m 177.33333,122.33333 c 0,0 -1.93342,7.54425 -0.20033,10.66667 2.90191,5.2282 6.56453,6.33218 11.20033,6.33333 6.82701,0.002 11.67955,-4.04122 11.91667,-11.33333 0.23875,-7.34209 -4.85923,-9.77484 -6.95,-14.41667 -1.47758,-3.28045 -2.88333,-7.16666 -2.88333,-7.16666 0,0 0.0673,3.9494 0.41666,5.75 1.07132,5.5216 5.1502,10.4894 5.33367,15.83333 0.22882,6.66501 -4.83367,9 -4.83367,9 0,0 2.691,-5.75723 2.16667,-11 -0.36185,-3.61815 -4.64413,-10.90094 -5,-16.58333 -0.19766,-3.1561 3.25,-9.500003 3.25,-9.500003 0,0 -7.71817,5.096193 -7.35,11.583333 0.55754,9.82384 5.96933,13.69926 5.967,19.83333 -10e-4,3.11395 -1.367,5.33334 -1.367,5.33334 0,0 0.31439,-4.12157 -0.66667,-6.75 -1.95331,-5.23325 -2.18848,-4.89141 -4.83333,-9.75 -1.1853,-2.1774 -1.08333,-8.58334 -1.08333,-8.58334 0,0 -3.94592,5.37771 -3.08334,8.58334 2.09115,7.77143 3.77073,6.7279 5.16667,11.83333 0.32368,1.18381 0.83333,3.66667 0.83333,3.66667 0,0 -3.32045,-1.42056 -5.63333,-5.83334 -1.47431,-2.81286 -2.36667,-7.5 -2.36667,-7.5 z"
       id="path4046"
       style="fill:#64b0ca;fill-opacity:1;stroke:#64b0ca;stroke-width:0.69999999;stroke-linecap:butt;stroke-linejoin:round;stroke-miterlimit:4;stroke-opacity:1;stroke-dasharray:none" />
  </g>
</svg>
