<?xml version="1.0" encoding="UTF-8" standalone="no"?>
<!-- Created with Inkscape (http://www.inkscape.org/) -->

<svg
   xmlns:svg="http://www.w3.org/2000/svg"
   xmlns="http://www.w3.org/2000/svg"
   version="1.1"
   width="388"
   height="538"
   id="svg2">
  <defs
     id="defs6" />
  <text
     x="193.31851"
     y="242.99136"
     transform="scale(0.96872418,1.0322856)"
     id="text4245"
     xml:space="preserve"
     style="font-size:28px;font-style:normal;font-variant:normal;font-weight:bold;font-stretch:normal;text-align:center;line-height:120.00000477%;writing-mode:lr-tb;text-anchor:middle;fill:#000000;fill-opacity:1;stroke:none;font-family:Georgia;-inkscape-font-specification:Georgia Bold"><tspan
       x="193.31851"
       y="242.99136"
       id="tspan2907"
       style="font-size:28px;font-style:normal;font-variant:normal;font-weight:bold;font-stretch:normal;text-align:center;line-height:120.00000477%;writing-mode:lr-tb;text-anchor:middle;font-family:Georgia;-inkscape-font-specification:Georgia Bold">NATO*</tspan></text>
  <path
     d="m 141.91466,256.08649 87,0"
     id="path3794"
     style="font-size:29px;font-style:normal;font-variant:normal;font-weight:bold;font-stretch:normal;text-align:center;line-height:120.00000477%;writing-mode:lr-tb;text-anchor:middle;fill:none;stroke:#d82044;stroke-width:2;stroke-linecap:butt;stroke-linejoin:miter;stroke-miterlimit:4;stroke-opacity:1;stroke-dasharray:none;font-family:Georgia;-inkscape-font-specification:Georgia Bold" />
  <text
     x="187.375"
     y="319"
     id="text4249"
     xml:space="preserve"
     style="font-size:20px;font-style:normal;font-variant:normal;font-weight:normal;font-stretch:normal;text-align:center;line-height:120.00000477%;writing-mode:lr-tb;text-anchor:middle;fill:#000000;fill-opacity:1;stroke:none;font-family:Georgia;-inkscape-font-specification:Georgia"><tspan
       x="187.375"
       y="319"
       id="tspan2905">USSR player may no longer make</tspan><tspan
       x="187.375"
       y="343"
       id="tspan2908">Coup or Realignment rolls in any</tspan><tspan
       x="187.375"
       y="367"
       id="tspan2910">US Controlled countries in Europe.</tspan></text>
  <text
     x="186.90234"
     y="402"
     id="text3337"
     xml:space="preserve"
     style="font-size:20px;font-style:normal;font-variant:normal;font-weight:normal;font-stretch:normal;text-align:center;line-height:120.00000477%;writing-mode:lr-tb;text-anchor:middle;fill:#000000;fill-opacity:1;stroke:none;font-family:Georgia;-inkscape-font-specification:Georgia"><tspan
       x="186.90234"
       y="402"
       id="tspan2912">US Controlled countries in Europe</tspan><tspan
       x="186.90234"
       y="426"
       id="tspan2914">may not be attacked by play of the</tspan><tspan
       x="186.90234"
       y="450"
       id="tspan2916"><tspan
   id="tspan2918"
   style="font-size:20px;font-style:italic;font-variant:normal;font-weight:normal;font-stretch:normal;text-align:center;line-height:120.00000477%;writing-mode:lr-tb;text-anchor:middle;font-family:Georgia;-inkscape-font-specification:Georgia Italic">Brush War</tspan> event.</tspan></text>
  <text
     x="185.91406"
     y="286.25262"
     id="text3174"
     xml:space="preserve"
     style="font-size:18px;font-style:italic;font-variant:normal;font-weight:normal;font-stretch:normal;text-align:center;line-height:120.00000477%;writing-mode:lr-tb;text-anchor:middle;fill:#000000;fill-opacity:1;stroke:none;font-family:Georgia;-inkscape-font-specification:Georgia Italic"><tspan
       x="185.91406"
       y="286.25262"
       id="tspan2835">Play after ‘Marshall Plan’ or ‘Warsaw Pact.’</tspan></text>
  <g
     transform="matrix(0.14847482,0,0,0.14843826,109.03822,100.99942)"
     id="g6019">
    <rect
       width="1024"
       height="768"
       x="19.819355"
       y="-6.6207066"
       id="rect6006"
       style="fill:#00247d;stroke:#000000;stroke-width:13.47195625;stroke-miterlimit:4;stroke-opacity:1;stroke-dasharray:none" />
    <path
       d="m 730.1,387.8 0,-8.6 217.6,0 0,8.6 -217.6,0 z m -652.8,0 0,-8.6 217.6,0 0,8.6 -217.6,0 z m 430.9,213.3 8.6,0 0,89.6 -8.6,0 0,-89.6 z m 0,-524.8 8.6,0 0,89.6 -8.6,0 0,-89.6 z m 195.4,306.9 -191.3,0 34.5,-36 -30.2,-135.5 c 0,-1.5 1.4,-1.5 1.4,0 l 40.3,126.8 145.3,44.7 0,0 z M 657.5,357.3 C 647.5,296.7 600,247.7 538.1,236.2 l 4.4,11.5 c 51.8,11.5 93.5,53.3 105,106.7 l 10,2.9 0,0 z m -145.2,216.2 0,-190.3 34.5,33.2 136.6,-28.9 c 0,0 1.5,1.5 0,1.5 l -128,40.3 -43.1,144.2 0,0 z m 24.4,-44.7 c 61.9,-10.1 110.8,-59.1 120.8,-119.6 l -11.5,4.3 c -11.5,51.9 -53.2,93.7 -105,103.8 l -4.3,11.5 0,0 z m -215.8,-145.6 191.4,0 -34.6,34.6 30.2,135.5 c 0,1.5 -1.4,1.5 -1.4,0 l -40.3,-126.8 -145.3,-43.3 0,0 z m 46.1,24.5 c 10,60.6 57.5,109.6 119.4,121.1 L 482,517.3 C 430.3,505.7 388.5,463.9 377,410.6 l -10,-2.9 0,0 z m 145.3,-216.2 0,191.7 -34.6,-34.6 -136.6,28.8 c 0,0 -1.5,-1.4 0,-1.4 l 128,-40.4 43.2,-144.1 0,0 z m -24.5,44.7 C 425.9,246.3 377,295.3 367,355.8 l 11.5,-4.3 c 11.5,-51.9 53.2,-93.7 105,-103.8 l 4.3,-11.5 0,0 z"
       id="path6008"
       style="fill:#ffffff" />
  </g>
</svg>
