<svg id="Layer_1" data-name="Layer 1" xmlns="http://www.w3.org/2000/svg" xmlns:xlink="http://www.w3.org/1999/xlink" viewBox="0 0 117 134"><defs><style>.cls-1{fill:url(#linear-gradient);}.cls-2{fill:url(#linear-gradient-2);}.cls-3{fill:url(#linear-gradient-3);}.cls-4{fill:url(#linear-gradient-4);}.cls-5{fill:url(#linear-gradient-5);}.cls-6{fill:url(#linear-gradient-6);}</style><linearGradient id="linear-gradient" x1="57.84" y1="115.26" x2="92.68" y2="113.14" gradientUnits="userSpaceOnUse"><stop offset="0.02" stop-color="#ff8235"/><stop offset="0.98" stop-color="#f71f3d"/></linearGradient><linearGradient id="linear-gradient-2" x1="18.4" y1="78.98" x2="2.68" y2="56.03" gradientUnits="userSpaceOnUse"><stop offset="0" stop-color="#ff8235"/><stop offset="0.42" stop-color="#fc5b38"/><stop offset="1" stop-color="#f71f3d"/></linearGradient><linearGradient id="linear-gradient-3" x1="30.49" y1="122.27" x2="34.37" y2="65.31" gradientUnits="userSpaceOnUse"><stop offset="0.2" stop-color="#ff8235"/><stop offset="1" stop-color="#f71f3d"/></linearGradient><linearGradient id="linear-gradient-4" x1="33.53" y1="21.46" x2="53.93" y2="61.4" gradientUnits="userSpaceOnUse"><stop offset="0" stop-color="#ff8235"/><stop offset="1" stop-color="#f71f3d"/></linearGradient><linearGradient id="linear-gradient-5" x1="78.83" y1="0.45" x2="97.53" y2="43.36" gradientUnits="userSpaceOnUse"><stop offset="0" stop-color="#ff8235"/><stop offset="0.3" stop-color="#fc5a38"/><stop offset="0.59" stop-color="#f93a3b"/><stop offset="0.83" stop-color="#f8263c"/><stop offset="1" stop-color="#f71f3d"/></linearGradient><linearGradient id="linear-gradient-6" x1="102.74" y1="96.94" x2="86.59" y2="65.5" gradientUnits="userSpaceOnUse"><stop offset="0.2" stop-color="#ff8235"/><stop offset="1" stop-color="#f71f3d"/></linearGradient></defs><title>Saito Primary Impossible Shape Gradient CMYK</title><path class="cls-1" d="M59.93,99.49l54.14,0a1.53,1.53,0,0,1-.3.25L59.93,130.78Z"/><path class="cls-2" d="M29.63,52.42,2.56,98.81a2,2,0,0,1,0-.35V36.77Z"/><polygon class="cls-3" points="57.06 68.26 57.06 130.78 4.82 100.61 32.11 53.86 57.06 68.26"/><path class="cls-4" d="M84.83,50.58,58.5,65.78l-55-31.73L56.78,3.31,84.54,50.23A1.11,1.11,0,0,0,84.83,50.58Z"/><path class="cls-5" d="M113.45,34.05,87.18,49.22a1.33,1.33,0,0,0-.18-.45L60.06,3.22Z"/><polygon class="cls-6" points="114.48 36.77 114.48 96.58 59.93 96.62 59.93 68.26 114.48 36.77"/></svg>