<?xml version="1.0" encoding="UTF-8"?>
<svg width="24px" height="24px" viewBox="0 0 24 24" version="1.1" xmlns="http://www.w3.org/2000/svg" xmlns:xlink="http://www.w3.org/1999/xlink">
    <title>brand / reddit</title>
    <defs>
        <rect id="path-1" x="0" y="0" width="24" height="24"></rect>
    </defs>
    <g id="页面-1" stroke="none" stroke-width="1" fill="none" fill-rule="evenodd">
        <g id="画板" transform="translate(-1481.000000, -3780.000000)">
            <g id="编组-11" transform="translate(1271.000000, 3780.000000)">
                <g id="brand-/-reddit" transform="translate(210.000000, 0.000000)">
                    <g>
                        <mask id="mask-2" fill="white">
                            <use xlink:href="#path-1"></use>
                        </mask>
                        <g id="brand-/-reddit-(Background/Mask)"></g>
                        <path d="M10.6709995,13 C10.6709995,12.447163 10.2228371,11.9989996 9.67000008,11.9989996 C9.11716306,11.9989996 8.66899967,12.447163 8.66899967,13 C8.66899967,13.552837 9.11716306,14.0010004 9.67000008,14.0010004 C10.2228371,14.0010004 10.6709995,13.552837 10.6709995,13 Z M12,16 C11.256,16.034 10.5209997,15.8109999 9.91899967,15.3699999 C9.81999967,15.2889999 9.67699967,15.2889999 9.57699966,15.3699999 C9.46199966,15.4649999 9.44499996,15.635 9.53999996,15.75 C10.2499999,16.285 11.1219997,16.5590005 12.0109997,16.5200005 C12.8979997,16.5590005 13.7709996,16.287 14.4799995,15.75 L14.4799995,15.79 C14.5889995,15.684 14.5910001,15.5050001 14.4860001,15.3940001 C14.3770001,15.2840001 14.2000002,15.2819998 14.0900002,15.3909998 C13.4820002,15.8259998 12.746,16.041 12,16 Z M13.3000002,13.0410004 C13.3000002,13.5930004 13.7469998,14.04 14.2989998,14.04 L14.2910004,14.0790005 C14.3070004,14.0810005 14.324,14.0790005 14.342,14.0790005 C14.893,14.0580005 15.3210002,13.5920004 15.3000002,13.0410004 C15.3000002,12.4880004 14.8539998,12.04 14.2989998,12.04 C13.7469998,12.04 13.3000002,12.4880004 13.3000002,13.0410004 Z M2,12 C2,17.5209999 6.47900009,22 12,22 C17.5209999,22 22,17.5209999 22,12 C22,6.47700024 17.5209999,2 12,2 C6.47900009,2 2,6.47700024 2,12 Z M17.8589993,13.7690001 C17.8589993,16.0090001 15.2500002,17.8309994 12.0290003,17.8309994 C8.80800033,17.8309994 6.19899988,16.0110002 6.19899988,13.7690001 C6.18699988,13.6230001 6.18699988,13.4759999 6.19899988,13.3299999 C6.05399989,13.2639999 5.92400016,13.175 5.80700016,13.066 C5.22000015,12.513 5.19299996,11.5880002 5.74399996,11.0030003 C6.29599994,10.4150003 7.22100013,10.3869996 7.80700016,10.9399996 C8.95900011,10.1589996 10.3160003,9.73100004 11.7060003,9.71000004 L12.4490004,6.23999977 C12.4490004,6.23866663 12.4490004,6.23733339 12.4490004,6.23600006 C12.4870004,6.06900007 12.6519997,5.964 12.8199997,6 L15.2690001,6.48999977 C15.429,6.21499977 15.7090004,6.03200015 16.0270004,5.99800014 C16.5770004,5.93900014 17.0679997,6.33600014 17.1289997,6.88600016 C17.1879997,7.43500018 16.7909998,7.92799999 16.2399998,7.98699999 C15.6909997,8.04599999 15.1989995,7.64899993 15.1379995,7.0999999 L13,6.6500001 L12.3509998,9.77000046 C13.7259998,9.79900046 15.0620002,10.227 16.2010002,11 C16.4600002,10.752 16.8000009,10.6069999 17.1580009,10.5939999 C17.9650009,10.5649999 18.6400001,11.194 18.6700001,12 C18.6800001,12.563 18.3629993,13.0799999 17.8589993,13.3299999 C17.8709993,13.4759999 17.8709993,13.6230001 17.8589993,13.7690001 Z" fill="#5E5E5E" mask="url(#mask-2)"></path>
                    </g>
                </g>
            </g>
        </g>
    </g>
</svg>