<?xml version="1.0" encoding="UTF-8"?>
<svg width="24px" height="24px" viewBox="0 0 24 24" version="1.1" xmlns="http://www.w3.org/2000/svg" xmlns:xlink="http://www.w3.org/1999/xlink">
    <title>brand / spectrum</title>
    <defs>
        <rect id="path-1" x="0" y="0" width="24" height="24"></rect>
    </defs>
    <g id="页面-1" stroke="none" stroke-width="1" fill="none" fill-rule="evenodd">
        <g id="画板" transform="translate(-1376.000000, -3780.000000)">
            <g id="编组-11" transform="translate(1271.000000, 3780.000000)">
                <g id="brand-/-spectrum" transform="translate(105.000000, 0.000000)">
                    <g>
                        <mask id="mask-2" fill="white">
                            <use xlink:href="#path-1"></use>
                        </mask>
                        <g id="brand-/-spectrum-(Background/Mask)"></g>
                        <path d="M22,11.9999771 L21.9939995,13.199976 C21.9069995,21.2399759 20.75,21.9999771 12,21.9999771 L10.8000002,21.9939766 C3.1420002,21.9109766 2.08900004,20.8579764 2.00600004,13.1989765 L2,11.6909771 L2.00600004,10.8009758 C2.09100004,2.95097589 3.19599915,2.04097656 11.3879995,2.00097656 L13.1999998,2.00597668 C21.2399998,2.09297667 22,3.24997711 22,11.9999771 Z M7.66699982,6.99997663 C7.50718857,6.99988368 7.35265614,7.05717301 7.2315259,7.16141844 C7.11039566,7.26566386 7.03072006,7.40993534 7.00699997,7.56797647 L7,7.66697645 L7,11.3329773 C7,11.6679773 7.24699983,11.9449771 7.56799984,11.9929771 L7.66699982,11.9999771 L8.25,11.9999771 C9.20999688,11.9998908 10.1334692,12.3679785 10.8301859,13.0284176 C11.5269026,13.6888567 11.9438001,14.5913458 11.9949999,15.5499763 L12,15.7499771 L12,16.3329773 C12,16.6679773 12.2469998,16.9449771 12.5679998,16.9929771 L12.6669998,16.9999771 L16.3330002,16.9999771 C16.4928114,17.0000701 16.6473443,16.9427807 16.7684746,16.8385353 C16.8896048,16.7342899 16.9692799,16.5900175 16.993,16.4319763 L17,16.3329773 L17,15.7499771 C16.9999491,13.4740419 16.1131138,11.2876823 14.5276699,9.6548171 C12.9422261,8.02195191 10.7829461,7.0710844 8.50800037,7.00397682 L8.25,6.99997663 L7.66699982,6.99997663 Z" fill="#5E5E5E" mask="url(#mask-2)"></path>
                    </g>
                </g>
            </g>
        </g>
    </g>
</svg>