<?xml version="1.0" encoding="UTF-8"?>
<svg width="20px" height="20px" viewBox="0 0 20 20" version="1.1" xmlns="http://www.w3.org/2000/svg" xmlns:xlink="http://www.w3.org/1999/xlink">
    <title>rss_icon</title>
    <g id="页面-3" stroke="none" stroke-width="1" fill="none" fill-rule="evenodd">
        <g id="rss_icon" fill="#5E5E5E">
            <path d="M7.39297386,12.5626003 C7.78733507,12.9569386 7.98402455,13.4258093 7.98402455,13.9666997 C7.98402455,14.5187826 7.78927658,14.9876076 7.399301,15.3775831 C7.01176946,15.7651375 6.54047757,15.9603652 5.99083879,15.9603652 C5.43875596,15.9603652 4.96796658,15.7651375 4.57993252,15.3775831 C4.18997978,14.9876304 3.99523181,14.5187826 3.99523181,13.9666997 C3.99523181,13.4146169 4.18995692,12.9438275 4.57993252,12.5562731 C4.96794373,12.1658179 5.43875596,11.9710928 5.99083879,11.9710928 C6.53175205,11.9710928 6.99861266,12.1682619 7.39297386,12.5626003 Z M9.71039694,10.2471187 C9.0161248,9.5528923 8.19238616,9.00323067 7.239615,8.59525585 C6.28442261,8.18826321 5.2853971,7.98428723 4.23865536,7.98428723 C4.16611027,7.98428723 4.10722446,8.00619239 4.06339134,8.05000268 C4.01715982,8.09621134 3.99525469,8.15320127 3.99525469,8.22524386 L3.99525469,9.91851868 C3.99525469,9.98864257 4.01715984,10.0480309 4.06339134,10.0918412 C4.10722449,10.1376158 4.16611027,10.159521 4.23865536,10.159521 C5.77615009,10.159521 7.08819766,10.7004114 8.17290223,11.785116 C9.25468308,12.8669197 9.79557348,14.1794698 9.79557348,15.7193629 C9.79557348,15.7914054 9.81989984,15.8483725 9.86373299,15.8921828 C9.90948482,15.9379575 9.96645192,15.9603423 10.038997,15.9603423 L11.7298278,15.9603423 C11.8023729,15.9603423 11.8593171,15.9379575 11.9050918,15.8921828 C11.9489021,15.8483725 11.9732284,15.7914054 11.9732284,15.7193629 C11.9732284,14.6721186 11.7692525,13.6711972 11.3617345,12.7179235 C10.9547647,11.763188 10.4026819,10.9394722 9.71039694,10.2471187 Z M10.1241964,5.56800547 C8.32820263,4.51884252 6.36765761,3.99549449 4.2449825,3.99549449 C4.17049585,3.99549449 4.11158723,4.01979801 4.06535571,4.06557268 C4.01910136,4.11134737 3.99525467,4.17073567 3.99525467,4.2452223 L3.99525467,5.98863455 C3.99525467,6.06357804 4.01910136,6.12442819 4.06535571,6.1707054 C4.11158723,6.21648009 4.17051871,6.23886491 4.2449825,6.23886491 C5.52882062,6.23886491 6.75518915,6.48811306 7.92947871,6.98763723 C9.10134703,7.48471734 10.1091209,8.15756402 10.9547647,9.00078661 C11.7999517,9.84640757 12.4703543,10.8561458 12.9698556,12.028037 C13.4674154,13.1998825 13.7166636,14.428695 13.7166636,15.7105917 C13.7166636,15.7850554 13.7410128,15.8439869 13.7867646,15.89216 C13.833019,15.9379347 13.8919276,15.9603195 13.9664142,15.9603195 L15.710329,15.9603195 C15.7848157,15.9603195 15.8461455,15.9379347 15.8919202,15.89216 C15.9381517,15.8439869 15.9600568,15.7850554 15.9600568,15.7105917 C15.9600568,13.5878708 15.4362063,11.6273258 14.3894646,9.83331931 C13.3403473,8.03682304 11.9182486,6.61524973 10.1241964,5.56800547 Z M19.9488496,3.99549449 L19.9488496,15.9603423 C19.9488496,18.1638084 18.1635685,19.9491122 15.9600796,19.9491122 L3.99525467,19.9491122 C1.79370732,19.9491122 0.00648475446,18.1638084 0.00648475446,15.9603423 L0.00648475446,3.99549449 C0.00648475446,1.79394714 1.7937073,0.00624491071 3.99525467,0.00624491071 L15.9600797,0.00624491071 C18.1635685,0.00624491071 19.9488496,1.79394714 19.9488496,3.99549449 Z M17.9557095,4.9920531 C17.9557095,3.3401902 16.6149042,2.00228587 14.9634982,2.00228587 L4.99183612,2.00228587 C3.34043004,2.00228587 2.00206888,3.34016739 2.00206888,4.99205312 L2.00206888,14.9632584 C2.00206888,16.6151669 3.34043004,17.9535053 4.99183612,17.9535053 L14.963521,17.9535053 C16.6149271,17.9535053 17.9557095,16.6151669 17.9557095,14.9632584 L17.9557095,4.9920531 L17.9557095,4.9920531 Z" id="形状"></path>
        </g>
    </g>
</svg>