<?xml version="1.0" encoding="UTF-8"?>
<svg width="24px" height="24px" viewBox="0 0 24 24" version="1.1" xmlns="http://www.w3.org/2000/svg" xmlns:xlink="http://www.w3.org/1999/xlink">
    <title>brand / Twitter</title>
    <defs>
        <rect id="path-1" x="0" y="0" width="24" height="24"></rect>
    </defs>
    <g id="页面-1" stroke="none" stroke-width="1" fill="none" fill-rule="evenodd">
        <g id="画板" transform="translate(-1516.000000, -3780.000000)">
            <g id="编组-11" transform="translate(1271.000000, 3780.000000)">
                <g id="brand-/-Twitter" transform="translate(245.000000, 0.000000)">
                    <g>
                        <mask id="mask-2" fill="white">
                            <use xlink:href="#path-1"></use>
                        </mask>
                        <g id="brand-/-Twitter-(Background/Mask)"></g>
                        <path d="M19.9943907,6.68814993 C20.8802907,6.1570099 21.5608905,5.31597984 21.8812905,4.31377983 C21.0519906,4.80563983 20.1335908,5.16277981 19.1559909,5.35519981 C18.373191,4.52111983 17.2578905,4 16.0234905,4 C13.6533907,4 11.7316904,5.92146969 11.7316904,8.29154968 C11.7316904,8.62789968 11.7696908,8.95545992 11.8428908,9.26959991 C8.27609096,9.09059991 5.11375144,7.38203001 2.99709152,4.78551006 C2.62765156,5.41935009 2.41601137,6.15655994 2.41601137,6.94308996 C2.41601137,8.43203998 3.17364141,9.74562979 4.3252313,10.5152998 C3.62179135,10.4928998 2.95996152,10.2999003 2.38139157,9.97846031 C2.38098157,9.99639031 2.38098149,10.0143001 2.38098149,10.0324001 C2.38098149,12.1118002 3.86033097,13.8462996 5.82359084,14.2405996 C5.46349087,14.3386996 5.08434088,14.3912001 4.6929409,14.3912001 C4.41640092,14.3912001 4.14755109,14.3642004 3.88546112,14.3142004 C4.4316111,16.0191004 6.01653082,17.2600004 7.89454068,17.2945004 C6.42576078,18.4457004 4.57527121,19.1317997 2.56453135,19.1317997 C2.21812138,19.1317997 1.87651145,19.1113991 1.54077148,19.0716991 C3.44003136,20.2893991 5.69591079,21 8.11950051,21 C16.0133897,21 20.3301909,14.4604998 20.3301909,8.7891798 C20.3301909,8.6031398 20.3259901,8.41804966 20.3176901,8.23394966 C21.15629,7.62885964 21.8838904,6.87302011 22.4591904,6.01238012 C21.6895905,6.35373011 20.8623906,6.58441993 19.9943907,6.68814993 Z" fill="#5E5E5E" mask="url(#mask-2)"></path>
                    </g>
                </g>
            </g>
        </g>
    </g>
</svg>