<?xml version="1.0" encoding="UTF-8"?>
<svg width="24px" height="24px" viewBox="0 0 24 24" version="1.1" xmlns="http://www.w3.org/2000/svg" xmlns:xlink="http://www.w3.org/1999/xlink">
    <title>brand / discord</title>
    <defs>
        <rect id="path-1" x="0" y="0" width="24" height="24"></rect>
    </defs>
    <g id="页面-1" stroke="none" stroke-width="1" fill="none" fill-rule="evenodd">
        <g id="画板" transform="translate(-1306.000000, -3780.000000)">
            <g id="编组-11" transform="translate(1271.000000, 3780.000000)">
                <g id="brand-/-discord" transform="translate(35.000000, 0.000000)">
                    <g>
                        <mask id="mask-2" fill="white">
                            <use xlink:href="#path-1"></use>
                        </mask>
                        <g id="brand-/-discord-(Background/Mask)"></g>
                        <path d="M8.6239996,12.026 C8.6239996,12.604 9.06100041,13.0810003 9.59300041,13.0810003 C10.1340004,13.0810003 10.5609999,12.604 10.5609999,12.026 C10.5719999,11.4450001 10.1340004,10.9709997 9.59300041,10.9709997 C9.05100042,10.9709997 8.6239996,11.446 8.6239996,12.026 Z M12.092,12.026 C12.092,12.604 12.5289999,13.0810003 13.0609999,13.0810003 C13.6019999,13.0810003 14.0290003,12.604 14.0290003,12.026 C14.0280003,11.4450001 13.6019999,10.9709997 13.0609999,10.9709997 C12.5189999,10.9709997 12.092,11.446 12.092,12.026 Z M4.94700003,3 C3.87400007,3 3,3.87399983 3,4.95699978 L3,17.8010006 C3,18.8840005 3.87400007,19.7579994 4.94700003,19.7579994 L15.7200003,19.7579994 L15.2150002,17.9990005 L16.4319992,19.1299992 L17.5809994,20.1940002 L19.625,22 L19.625,4.95699978 C19.625,3.87399983 18.7509995,3 17.6779995,3 L4.94700003,3 Z M13.3839998,14.6359997 C14.2133331,14.401333 14.7863331,14.0246663 15.1029997,13.5059996 C14.7129997,13.7619996 14.3430002,13.9439998 14.0100002,14.0679998 C13.5350002,14.2659998 13.0800004,14.3989998 12.6330004,14.4759998 C11.7210004,14.6459998 10.8849999,14.5989996 10.1719999,14.4659996 C9.63099992,14.3609996 9.16600001,14.2089998 8.77600002,14.0559998 C8.55800003,13.9709998 8.31900018,13.8679997 8.08300018,13.7349997 C8.05400018,13.7139997 8.02600015,13.7060003 7.99800014,13.6870003 C7.97800015,13.6770003 7.96900011,13.6679996 7.95900011,13.6569996 C7.84500011,13.5943329 7.75633335,13.5409996 7.69299984,13.4969997 C7.9969999,14.0036666 8.55133327,14.3773334 9.35599995,14.618 C9.16599995,14.858 8.95366659,15.1209999 8.71899986,15.4069996 C7.31966654,15.3623329 6.35433324,14.8809998 5.82299995,13.9630003 C5.82299995,11.923667 6.27899996,10.0776669 7.19099998,8.42500019 C8.10300001,7.74033356 8.99266656,7.40766684 9.85999966,7.42700005 L9.95499992,7.54099989 C8.8149999,7.87099989 7.98199987,8.28600001 7.45599985,8.78600025 C7.59600008,8.70999987 7.78300019,8.61833301 8.0170002,8.51099968 C9.03300023,8.06499967 9.84000033,7.94100018 10.1730003,7.91200018 C10.2300003,7.90300018 10.278,7.89300013 10.335,7.89300013 C10.915,7.81700013 11.5700002,7.79800007 12.2530003,7.87400007 C13.1560003,7.97900007 14.1259999,8.24500024 15.1129999,8.78600025 C14.6123331,8.31133336 13.8236664,7.90933325 12.7469997,7.57999992 L12.8800001,7.42799997 C13.7479999,7.40866645 14.6376665,7.74133301 15.5489998,8.42599964 C16.4609998,10.0786664 16.9169998,11.9246664 16.9169998,13.9639997 C16.379,14.881333 15.4100002,15.3623329 14.0100002,15.4069996 C13.782,15.1349997 13.5733332,14.8779997 13.3839998,14.6359997 Z" fill="#5E5E5E" mask="url(#mask-2)"></path>
                    </g>
                </g>
            </g>
        </g>
    </g>
</svg>