<?xml version="1.0" encoding="UTF-8"?>
<svg width="24px" height="24px" viewBox="0 0 24 24" version="1.1" xmlns="http://www.w3.org/2000/svg" xmlns:xlink="http://www.w3.org/1999/xlink">
    <title>brand / html5</title>
    <defs>
        <rect id="path-1" x="0" y="0" width="24" height="24"></rect>
        <linearGradient x1="11.718757%" y1="0%" x2="84.3595562%" y2="86.8290465%" id="linearGradient-3">
            <stop stop-color="#FF8235" offset="0%"></stop>
            <stop stop-color="#F71F3D" offset="100%"></stop>
        </linearGradient>
    </defs>
    <g id="页面-1" stroke="none" stroke-width="1" fill="none" fill-rule="evenodd">
        <g id="画板" transform="translate(-1411.000000, -3780.000000)">
            <g id="编组-11" transform="translate(1271.000000, 3780.000000)">
                <g id="brand-/-html5" transform="translate(140.000000, 0.000000)">
                    <g>
                        <mask id="mask-2" fill="white">
                            <use xlink:href="#path-1"></use>
                        </mask>
                        <g id="brand-/-html5-(Background/Mask)"></g>
                        <path d="M19.8649864,3.01196289 L18.4339867,19.1619644 L11.982986,20.9879646 L5.56898594,19.1619644 L4.13598633,3.01196289 L19.8649864,3.01196289 Z M9.22898626,8.27896309 L16.7619858,8.28096294 L16.9349861,6.31796265 L7.06498623,6.31596279 L7.58698606,12.3139629 L14.4219856,12.3139629 L14.1789856,14.8799629 L11.9999862,15.4819632 L9.78598642,14.8769627 L9.64498663,13.2969627 L7.69098616,13.2969627 L7.93798637,16.4199629 L11.9999862,17.5059633 L16.0279865,16.4259634 L16.5859871,10.3149624 L9.4019866,10.3149624 L9.4019866,10.3139629 L9.22898626,8.27896309 Z" fill="url(#linearGradient-3)" fill-rule="nonzero" mask="url(#mask-2)"></path>
                    </g>
                </g>
            </g>
        </g>
    </g>
</svg>