<?xml version="1.0" encoding="UTF-8"?>
<svg width="18px" height="18px" viewBox="0 0 18 18" version="1.1" xmlns="http://www.w3.org/2000/svg" xmlns:xlink="http://www.w3.org/1999/xlink">
    <title>cn_Icon</title>
    <g id="页面-1" stroke="none" stroke-width="1" fill="none" fill-rule="evenodd">
        <g id="画板" transform="translate(-1398.000000, -3867.000000)" fill-rule="nonzero">
            <g id="cn_Icon" transform="translate(1398.000000, 3867.000000)">
                <path d="M9,0 C13.9705627,0 18,4.02943725 18,9 C18,13.9705627 13.9705627,18 9,18 C4.02943725,18 0,13.9705627 0,9 C0,4.02943725 4.02943725,0 9,0 Z M9,2 C5.13400675,2 2,5.13400675 2,9 C2,12.8659932 5.13400675,16 9,16 C12.8659932,16 16,12.8659932 16,9 C16,5.13400675 12.8659932,2 9,2 Z" id="椭圆形" fill="#1C1C23"></path>
                <path d="M6.19883924,12 C6.83189098,12 7.36911379,11.8544118 7.81050767,11.5632353 C8.25190154,11.2720588 8.55390788,10.8323529 8.71652667,10.2441176 L7.35749816,9.85588235 C7.28780439,10.1852941 7.16003248,10.4264706 6.97418243,10.5794118 C6.78833238,10.7323529 6.53569246,10.8088235 6.21626268,10.8088235 C5.79229225,10.8088235 5.46850661,10.6544118 5.24490576,10.3455882 C5.02130492,10.0367647 4.9095045,9.58823529 4.9095045,9 C4.9095045,8.41176471 5.02566078,7.96323529 5.25797335,7.65441176 C5.49028591,7.34558824 5.81842741,7.19117647 6.24239785,7.19117647 C6.550212,7.19117647 6.78833238,7.26176471 6.95675899,7.40294118 C7.1251856,7.54411765 7.2500536,7.79117647 7.331363,8.14411765 L8.6468329,7.60588235 C8.50744536,7.07058824 8.21995856,6.66911765 7.7843725,6.40147059 C7.34878644,6.13382353 6.81737145,6 6.19012752,6 C5.61515392,6 5.1156819,6.11911765 4.69171147,6.35735294 C4.26774103,6.59558824 3.94250344,6.94117647 3.71599869,7.39411765 C3.48949394,7.84705882 3.37624156,8.38235294 3.37624156,9 C3.37624156,9.62352941 3.48949394,10.1602941 3.71599869,10.6102941 C3.94250344,11.0602941 4.26774103,11.4044118 4.69171147,11.6426471 C5.1156819,11.8808824 5.61805782,12 6.19883924,12 Z M10.5169491,11.9117647 L10.5169491,8.97352941 L10.4821022,7.87941176 L10.4908139,7.87941176 L10.9264,8.76176471 L12.7123028,11.9117647 L14.3762416,11.9117647 L14.3762416,6.08823529 L13.0520599,6.08823529 L13.0520599,9.02647059 L13.0869068,10.1205882 L12.642609,9.23823529 L10.8567062,6.08823529 L9.19276743,6.08823529 L9.19276743,11.9117647 L10.5169491,11.9117647 Z" id="CN" fill="#000000"></path>
            </g>
        </g>
    </g>
</svg>