<?xml version="1.0" encoding="UTF-8"?>
<svg width="18px" height="18px" viewBox="0 0 18 18" version="1.1" xmlns="http://www.w3.org/2000/svg" xmlns:xlink="http://www.w3.org/1999/xlink">
    <title>en_Icon</title>
    <g id="页面-1" stroke="none" stroke-width="1" fill="none" fill-rule="evenodd">
        <g id="画板" transform="translate(-1557.000000, -3867.000000)" fill-rule="nonzero">
            <g id="en_Icon" transform="translate(1557.000000, 3867.000000)">
                <path d="M9,0 C13.9705627,0 18,4.02943725 18,9 C18,13.9705627 13.9705627,18 9,18 C4.02943725,18 0,13.9705627 0,9 C0,4.02943725 4.02943725,0 9,0 Z M9,2 C5.13400675,2 2,5.13400675 2,9 C2,12.8659932 5.13400675,16 9,16 C12.8659932,16 16,12.8659932 16,9 C16,5.13400675 12.8659932,2 9,2 Z" id="椭圆形" fill="#1C1C23"></path>
                <path d="M8.47722288,12 L8.47722288,10.7909091 L5.180937,10.7909091 L5.180937,9.56363636 L7.70654195,9.56363636 L7.70654195,8.42727273 L5.180937,8.42727273 L5.180937,7.20909091 L8.35651382,7.20909091 L8.35651382,6 L3.58386328,6 L3.58386328,12 L8.47722288,12 Z M10.4704699,12 L10.4704699,8.97272727 L10.4333287,7.84545455 L10.442614,7.84545455 L10.9068796,8.75454545 L12.8103686,12 L14.5838633,12 L14.5838633,6 L13.1724958,6 L13.1724958,9.02727273 L13.2096371,10.1545455 L13.2003517,10.1545455 L12.7360861,9.24545455 L10.8325971,6 L9.05910245,6 L9.05910245,12 L10.4704699,12 Z" id="EN" fill="#000000"></path>
            </g>
        </g>
    </g>
</svg>