<svg id="Layer_1" data-name="Layer 1" xmlns="http://www.w3.org/2000/svg" viewBox="0 0 117 134"><defs><style>.cls-1{fill:#fff;}</style></defs><title>Saito Secondary Impossible Shape White CMYK </title><path class="cls-1" d="M114.2,34l-55-31.74h0a1.32,1.32,0,0,0-.39-.15h-.07a1.46,1.46,0,0,0-.82.11l-.08,0,0,0L2.94,33.92h0L2.8,34a1.45,1.45,0,0,0-.73,1.25V98.74A1.44,1.44,0,0,0,2.8,100l55,31.74a1.4,1.4,0,0,0,1.44,0l55-31.74a1.43,1.43,0,0,0,.69-1s0-.11,0-.16,0-.08,0-.12V35.25A1.45,1.45,0,0,0,114.2,34ZM57.05,128,5.44,98.18,31.73,53.13l25.32,14.7V128ZM5,37.6,29.23,51.68,5,93.26ZM60,67.83,61.43,67,87.22,52.09,112,37.76v59.5L60,97.3ZM87,48.87,65.91,13.2,62.55,7.52l48,27.73ZM58,5.48,84.51,50.31,68.82,59.37l-10.32,6L6.55,35.18Zm2,94.71,48.2,0L60,128Z"/></svg>