<svg id="Layer_1" data-name="Layer 1" xmlns="http://www.w3.org/2000/svg" viewBox="0 0 381 134"><defs><style>.cls-1{fill:#1c1c23;}</style></defs><title>Saito Horizontal Secondary Logo Black RGB</title><path class="cls-1" d="M113.49,34.26,59,2.77h0a1.56,1.56,0,0,0-.39-.15h-.07a1.47,1.47,0,0,0-.82.11l-.07,0-.06,0L3.11,34.18h0L3,34.26a1.43,1.43,0,0,0-.72,1.24v63A1.42,1.42,0,0,0,3,99.73l54.54,31.49a1.45,1.45,0,0,0,.72.2,1.42,1.42,0,0,0,.72-.2l54.54-31.49a1.41,1.41,0,0,0,.69-1c0-.05,0-.1,0-.15s0-.08,0-.12v-63A1.43,1.43,0,0,0,113.49,34.26ZM56.8,127.5,5.59,97.93,31.67,53.24,56.8,67.82V127.5ZM5.12,37.83l24.07,14L5.12,93.05Zm54.55,30L61.14,67,86.72,52.2,111.34,38V97l-51.67,0ZM86.52,49,65.58,13.62,62.25,8,109.91,35.5ZM57.72,6,84,50.44l-15.56,9L58.23,65.34,6.69,35.43Zm2,94,47.82,0L59.67,127.5Z"/><path class="cls-1" d="M163.64,79l-13.29,7.67c3.29,10.79,13.84,17.88,27.55,17.88,15.59,0,27.88-9,27.88-24.27,0-14.36-10.53-19.62-22.52-22.52l-2.66-.64c-8.13-2-13.44-3.91-13.44-8.86,0-4,3.82-6.61,9.29-6.61,6.76,0,10.73,3.81,11.83,9.92l1.23.4,11.87-6.85c-3.16-8.87-11.36-14.92-24.72-14.92-14,0-24.48,7.12-24.48,19,0,8.64,5.06,13.69,12.78,16.95a55.53,55.53,0,0,0,8.7,2.77c1.81.43,3.56.85,5.18,1.31,6.66,1.88,11.45,4.45,11.45,11.09s-4.86,10.22-11.57,10.22c-7.27,0-12.9-4.22-14-12.2Z"/><path class="cls-1" d="M261.37,92.55a4.71,4.71,0,0,1-2,.32c-2.27,0-3.72-1.55-3.72-4.86V69.53c0-12.19-9.29-18.69-22-18.69-10.74,0-19.21,5.37-21.38,15.9l.52.62,12.18,1c.62-4.33,3.62-7.12,8.47-7.12,5.37,0,8.47,2.68,8.47,7.43V71L228,72.42c-11.15,1.13-18.17,6.91-18.17,16.41,0,9.82,7.64,15.71,16.41,15.71,6.92,0,11.67-2.79,16.22-7.45h.72c2.37,5.28,6.92,7,11.57,7a22.2,22.2,0,0,0,7.12-1V93.17ZM242,86c-3.72,4.76-7.22,7.55-12.39,7.55-3.61,0-6.4-2.07-6.4-5.58s2.58-5.89,7.43-6.51L242,80.05Z"/><rect class="cls-1" x="266.72" y="51.87" width="14.46" height="51.63"/><path class="cls-1" d="M274,29.46a8.37,8.37,0,1,0,8.36,8.36A8.46,8.46,0,0,0,274,29.46Z"/><path class="cls-1" d="M309.49,63.85V87.6c0,3.41,2.07,5.16,5.57,5.16A13.17,13.17,0,0,0,319.2,92l.72.42v11a36.12,36.12,0,0,1-9.08,1c-9.2,0-15.71-4.75-15.71-15.69v-25H286v-12h9.18V39.05l13-7.53h1.33V51.87h10.95v12Z"/><path class="cls-1" d="M350.56,50.84c-16.42,0-28.09,11.46-28.09,26.84s11.67,26.86,28.09,26.86,28.19-11.47,28.19-26.86S367.08,50.84,350.56,50.84Zm0,41.2c-7.85,0-13.63-5.38-13.63-14.36s5.78-14.35,13.63-14.35,13.73,5.37,13.73,14.35S358.4,92,350.56,92Z"/></svg>