<svg xmlns="http://www.w3.org/2000/svg" viewBox="0 0 490.82 490.83"><g id="Layer_2" data-name="Layer 2"><g id="Layer_1-2" data-name="Layer 1"><circle cx="352.33" cy="218.38" r="54.55"/><path d="M414.61,67.65a245.42,245.42,0,0,0-347,8.57A247.47,247.47,0,0,0,40.42,110.4l-.57.9q-4.17,6.36-7.89,12.92l-.55,1q-3.61,6.44-6.81,13l-.51,1.05q-3.09,6.44-5.78,13c-.16.38-.32.76-.47,1.14-1.73,4.27-3.31,8.58-4.79,12.93-.14.4-.27.81-.41,1.22q-2.14,6.41-3.92,12.89l-.36,1.31C7.22,186,6.21,190.25,5.3,194.55c-.09.46-.19.93-.28,1.4-.88,4.27-1.64,8.57-2.29,12.87-.07.5-.16,1-.23,1.5-.62,4.3-1.11,8.62-1.5,12.94-.05.54-.09,1.07-.13,1.61Q.32,231.4.12,237.93c0,.57,0,1.14-.06,1.72-.11,4.63-.07,9.27.09,13.9l.06,1.87c.18,4.35.46,8.69.87,13,.06.68.14,1.35.2,2q.74,7.09,1.87,14.16c.12.73.23,1.47.35,2.2q1.27,7.46,3,14.83c.19.81.37,1.62.57,2.44q2,7.93,4.44,15.76c.29.91.59,1.82.89,2.73q2.84,8.6,6.32,17c.42,1,.85,2,1.28,3.05q4.06,9.42,8.94,18.53c.61,1.14,1.22,2.28,1.85,3.41q5.64,10.16,12.31,19.84c.83,1.2,1.68,2.4,2.53,3.59a242.72,242.72,0,0,0,15.75,19.77q1.63,1.86,3.33,3.69,5.52,6,11.49,11.71c3.11,3,6.29,5.82,9.51,8.59q2.37,2,4.79,4a245.09,245.09,0,0,0,28.13,19.83c2.37,1.43,4.75,2.8,7.15,4.15a243.69,243.69,0,0,0,38.67,17.38q5.22,1.82,10.48,3.39A245.89,245.89,0,0,0,376.39,453c2.85-1.81,5.68-3.66,8.47-5.59q2.64-1.83,5.25-3.74,3.36-2.46,6.66-5.06c.81-.64,1.63-1.27,2.44-1.92l1.49-1.23.94-.78,1.93-1.61,1-.82.05-.05,1.05-.91.73-.65,1.11-1c.5-.44,1-.87,1.5-1.32l1.13-1,.08,0h0l.16-.15.94-.87,1.26-1.17c.44-.4.88-.79,1.31-1.2l.33-.32c.73-.69,1.45-1.4,2.17-2.1l.5-.49.32-.31,1-.95h0l.26-.24.71-.72.16-.17.06-.06.41-.41,0,0,.09-.09.14-.14.59-.61.19-.19.07-.07.77-.79.06-.06.2-.2.17-.18,0,0c.36-.37.73-.74,1.09-1.12l.31-.33c.45-.47.89-1,1.33-1.44C516.56,314.58,512.2,160.54,414.61,67.65ZM43,112c71.12,15.7,100.53,77.19,131.34,141.61,11.63,24.34,23.45,49,37.79,71.66-12.89-19.53-24-40.56-35-61.3-26.24-49.62-51-96.49-96.72-122.39a148.9,148.9,0,0,0-45.33-16.73Q38.81,118.28,43,112Zm355,321.92-.21,0,.43-.13A1.84,1.84,0,0,0,397.93,433.89Zm-6.18-1.36c1.21-.32,2.41-.65,3.62-1l1.18.23-3.44,1.07Zm-6.06-1.38,3.53-.82,1.17.23c-1.12.31-2.25.6-3.37.9Zm-6.1-1.45L383,429l1.11.24-3.28.72Zm-6.15-1.51,3.29-.5,1,.21-3.14.57Zm-6.21-1.6,3.13-.34.87.2-3,.41ZM361,424.91l3-.19.66.17-2.75.27Zm-6.28-1.76,2.75,0,.46.12-2.55.13Zm-6.32-1.85,2.41.05.19,0-2.22,0ZM342,419.36h0Zm59.56,8.06-3,.86-.63-.1,3.19-.82ZM392.65,430l-1-.2,3.61-.89.82.14Zm-7-1.42,3.48-.72.73.13-3.31.77Zm-6-1.28,3.36-.56.56.11-3.16.61Zm-6.09-1.36,3.17-.38.37.07-2.93.45Zm-6.12-1.42,2.95-.23.13,0-2.68.3ZM361.23,423l1.17,0-1.06.07Zm34.17,3.6-2.86.7-.48-.09c1-.21,2-.43,3.05-.66Zm-9.23-.43,2.83-.49h.07l-2.62.54Zm-5.92-1.09.61-.08-.56.09Zm-67.33-15,2.4,1-1-.2q-2.58-.55-5.12-1.18Zm85.53,15.71.09,0-.08,0ZM304,407c.78.15,1.59.28,2.38.42l1.57.67q-5.58-.74-10.88-1.91-3.9-1.28-7.68-2.72A134.36,134.36,0,0,0,304,407Zm-8.08.41c1.45.48,2.91.95,4.39,1.4q6.69,2,13.75,3.55,3.24.69,6.55,1.32l-1.22-.19a170.79,170.79,0,0,1-28.41-7.3C292.58,406.58,294.22,407,295.89,407.36Zm102.76,23.75-1-.2,3.71-1.06.85.13Zm5.76-4.53-.21,0,2.61-.7h0Zm5.24-9.23q-5.75.5-11.47.9-5.83.24-11.63.37-6.49-.06-12.91-.25-13.25-.78-25.94-2.21Q337,414,326.86,411.47q10,.87,20.45,1.44c20.62,2,42.55,3.31,65.21,4.09ZM34.5,125.79a148,148,0,0,1,45.37,16.67c45.42,25.75,70.14,72.49,96.31,122,14.58,27.55,29.43,55.61,48.31,80-17.3-21.56-31.62-46-45.7-70C152.35,229.36,125,182.71,78.73,157a167.86,167.86,0,0,0-51.08-18.26Q30.89,132.17,34.5,125.79Zm-7.35,14a166.47,166.47,0,0,1,51,18.19c46,25.55,73.27,72.06,99.64,117C195.21,304.7,213,335,236.29,359.78c-21.55-22.2-38.87-48.82-55.85-74.95-27.79-42.75-56.53-87-103.37-112.35a188.57,188.57,0,0,0-55.73-19.71Q24.06,146.19,27.15,139.81Zm-8.59,20q1.11-3,2.3-5.86A187.19,187.19,0,0,1,76.5,173.53c46.57,25.25,75.22,69.33,102.93,112,22.42,34.49,45.42,69.86,78,94.85-30-22.25-52.28-53.17-75.52-85.36-29.1-40.31-59.19-82-106.47-107A213.89,213.89,0,0,0,16,166.87C16.83,164.5,17.67,162.13,18.56,159.77Zm-2.95,8.32a212.48,212.48,0,0,1,59.21,21c47,24.89,77,66.45,106,106.65,33,45.71,64.16,88.89,118,108.52.63.23,1.27.44,1.9.66a131.38,131.38,0,0,1-39.34-15.23l-1.2-.72c-.47-.29-.95-.57-1.42-.87q-1.86-1.14-3.69-2.33l-.07-.05q-1.37-.88-2.7-1.8c-28.44-19.49-50.51-48.56-73.39-78.74-29.1-38.35-59.18-78-105.15-101.76A245.51,245.51,0,0,0,11.66,181Q13.45,174.52,15.61,168.09Zm-4.32,14.23A244.11,244.11,0,0,1,73.14,204.6c45.69,23.61,75.68,63.15,104.69,101.38,15.62,20.59,30.85,40.66,48,57.57-7.84-6.75-15.48-13.89-23.08-21.26-7.8-8.73-15.47-17.85-23.22-27.09-30.21-36-61.45-73.16-107.42-96.34A283.42,283.42,0,0,0,8.21,195.21Q9.57,188.73,11.29,182.32Zm269,218.93c-23.35-8.59-42.82-23.44-60.85-41.31C238,376.54,257.58,391.09,280.26,401.25ZM7.92,196.61c21.26,5,41.94,12.64,63.54,23.53,45.7,23,76.85,60.12,107,96,3.68,4.37,7.33,8.72,11,13l-5.4-5.39c-32.45-32.46-66-66-113.56-89.41-16.73-8.24-38.29-17.87-64.81-24.77Q6.59,203.05,7.92,196.61ZM5.41,211.06c26.33,6.86,47.74,16.43,64.37,24.62C117.1,259,150.57,292.43,182.94,324.8c6.51,6.51,13,13,19.44,19.24a323.14,323.14,0,0,0,29.8,29.67c-16.7-12.42-32.58-26.58-48.81-41.06C150.16,303,115.83,272.38,68.78,249.79c-18.44-8.86-40-18.42-64.86-25.7Q4.49,217.55,5.41,211.06ZM3.79,225.7c24.65,7.23,46,16.72,64.31,25.51,46.84,22.5,81.1,53.06,114.22,82.62,35.82,32,69.91,62.38,115,76.06A173.37,173.37,0,0,0,319.1,415q5.81,1,11.77,1.73l.11,0q-3.33-.33-6.6-.72c-57.08-6.88-96.79-38.4-142.78-74.9-33.63-26.69-68.4-54.3-114.48-75.89-16.89-7.91-38.54-18.05-64-26.37Q3.26,232.27,3.79,225.7Zm-.72,25.7c-.09-3.61-.09-7.21,0-10.8,25.2,8.27,46.63,18.3,63.37,26.15,45.9,21.51,80.6,49.05,114.15,75.69,37.33,29.62,70.53,56,112.28,68.66a182.36,182.36,0,0,0,31.33,6.58q6.74.81,13.64,1.36l.47.15q-4.47-.22-8.9-.55c-58.76-4.44-101.59-34.59-151.17-69.51C144.65,325.49,109.93,301,65.46,280.71c-16.69-7.63-37.78-16.94-62.27-26C3.15,253.58,3.1,252.49,3.07,251.4Zm.19,5.15c24.15,9,45,18.19,61.48,25.74,44.33,20.26,79,44.66,112.48,68.25,37.46,26.38,71.06,50,110.63,62.06a191.17,191.17,0,0,0,41.41,7.76c5.08.39,10.21.65,15.39.83l.77.24q-5.54,0-11-.19c-61.11-1.93-107.81-31-161.89-64.75-31.28-19.5-66.74-41.6-108.71-60.32-5.38-2.4-10.93-5-16.81-7.66-13.1-6-27.3-12.58-42.78-18.82Q3.55,263.15,3.26,256.55Zm1.17,15.18c15.1,6.11,29,12.51,41.8,18.42,5.89,2.71,11.44,5.27,16.84,7.67,41.85,18.67,75.72,39.78,108.49,60.2,37.58,23.43,71.62,44.65,109.44,56.13a204,204,0,0,0,53.35,8.9c5.63.18,11.32.22,17,.16l.94.28c-4.32.18-8.63.31-12.92.36C275,424.58,223.26,396,163.34,363c-29.54-16.29-63-34.76-101.2-51.37-8.24-3.58-17-7.68-26.25-12s-19.06-9-29.5-13.56C5.59,281.3,5,276.52,4.43,271.73Zm2.36,16.54c10,4.44,19.44,8.87,28.31,13,9.27,4.35,18,8.47,26.29,12.06,38.09,16.57,70.1,34.22,101,51.29,37.79,20.84,72.35,39.89,108.9,51a222.56,222.56,0,0,0,68.1,10.09q9.24-.11,18.56-.64l1.1.31c-4.89.43-9.79.79-14.67,1.05-69.12,3.71-125-23.63-195.65-58.24-27.46-13.45-55.85-27.35-88.29-41.11-11.08-4.7-23.16-10.56-35.94-16.76-4.67-2.27-9.56-4.63-14.59-7Q8.14,295.84,6.79,288.27Zm3.8,17.5c4.5,2.16,8.88,4.28,13.1,6.33,12.8,6.21,24.9,12.08,36,16.8,32.4,13.74,60.77,27.63,88.2,41.06,39.54,19.36,74.44,36.45,109.64,47.15,28,8.49,56.14,12.95,87,11.3q10-.54,20-1.54l1.25.33q-8.14,1.08-16.32,1.86c-76.07,7.25-141.44-21.5-224.19-57.91-21-9.25-42.77-18.81-66.42-28.59-13.24-5.48-28-12.89-43.53-20.79Q12.66,313.85,10.59,305.77Zm5.62,18.75c14.92,7.57,29,14.63,41.83,19.92,23.62,9.77,45.35,19.33,66.37,28.57,40.82,18,77.41,34.06,113.17,44.92,37,11.23,73.09,16.87,112,13.16q10.68-1,21.3-2.55l1.36.35q-8.88,1.56-17.85,2.78c-86.79,11.84-163.24-19.22-269-62.21Q71.61,363.87,57.15,358c-10.58-4.27-22.1-9.92-34.25-16.25Q19.23,333.25,16.21,324.52Zm8.07,20.34C35.61,350.72,46.39,356,56.36,360q14.48,5.83,28.23,11.44c46.32,18.82,87,35.36,125.45,47,49.61,15.07,95.45,22,144.67,15.32q11.34-1.54,22.55-3.63l1.42.35q-9.56,2.08-19.26,3.81c-95.48,16.89-186.2-14.55-303.93-60.81-7-2.75-14.25-6.09-21.83-9.9Q28.58,354.46,24.28,344.86ZM35.62,367c6.58,3.23,12.93,6.11,19.07,8.52,42.83,16.83,82.07,31.69,119.31,43,65.42,19.87,124.6,28.75,185.8,17.93q12-2.13,23.74-4.8L385,432q-10.19,2.64-20.58,4.91c-98.16,21.3-195.15-3.77-310.6-48-1.78-.68-3.59-1.42-5.41-2.19Q41.53,377.18,35.62,367Zm15.32,23.23c.69.27,1.39.57,2.07.83,29.69,11.36,58.15,21.46,85.74,29.84C218.82,445.21,291.49,455,364.9,439.11c8.4-1.82,16.69-3.85,24.86-6l1.46.33q-10.79,3.25-21.8,6.11C281.7,462,188,452.92,67.37,409.93A244,244,0,0,1,50.94,390.22ZM78.28,421c-2.52-2.4-5-4.85-7.38-7.34q19.92,7,38.89,12.77c100.8,30.62,182.78,35.21,260.21,15.34,8.73-2.24,17.36-4.71,25.87-7.35l1.08.24-.57.45q-10.85,3.7-22,7c-87,25.73-177.3,23.26-281.25-8.09Q85.5,427.86,78.28,421ZM339.34,469A243.54,243.54,0,0,1,190.18,481.5q11.83.57,23.59.56a484.83,484.83,0,0,0,142.75-22.43q3.09-1,6.16-2A241.4,241.4,0,0,1,339.34,469ZM178,478.35a241,241,0,0,1-41.94-16.49c84.83,16.47,165.2,11.57,243.69-14.62-2.34,1.56-4.69,3.1-7.09,4.58C315.26,471.86,250.53,483.76,178,478.35Zm209.24-36.3q-3.91,1.38-7.87,2.71c-80.74,27-163.51,31.35-251.12,13a243,243,0,0,1-30-19.64c102,29.85,191,31.75,276.8,6.36q7.81-2.32,15.49-4.85C389.49,440.42,388.39,441.25,387.28,442.05Zm30.53-26.23c-13.11-.41-26-1-38.55-1.73,13.06.27,26.44.32,40,.23Zm3.2-3.27-.33.33c-26,.2-51.4-.13-75.1-1.5-11.9-1.21-23.33-2.7-34.19-4.51q-3-1-5.91-2.05-8.39-3.24-16-6.85-2.7-1.34-5.3-2.72a160.68,160.68,0,0,1-20.56-13.09c-42-32-65.55-81.2-88.41-129C144.31,188.6,114.83,127,43.57,111.07A243.78,243.78,0,0,1,69.82,78.29,242.42,242.42,0,1,1,421,412.55Z"/></g></g></svg>