<?xml version="1.0" encoding="utf-8"?>
<!-- Generator: Adobe Illustrator 22.0.0, SVG Export Plug-In . SVG Version: 6.00 Build 0)  -->
<svg version="1.1" id="svg2" xmlns:svg="http://www.w3.org/2000/svg"
	 xmlns="http://www.w3.org/2000/svg" xmlns:xlink="http://www.w3.org/1999/xlink" x="0px" y="0px" viewBox="0 0 388 538"
	 style="enable-background:new 0 0 388 538;" xml:space="preserve">
<style type="text/css">
	.st0{font-family:'STBaoliSC-Regular';}
	.st1{font-size:36px;}
	.st2{font-family:'STKaiti';}
	.st3{font-size:20px;}
	.st4{fill:#D2232A;stroke:#FFFFFF;stroke-width:1;stroke-linecap:round;}
	.st5{fill:#D2232A;stroke:#FFFFFF;stroke-linecap:round;}
</style>
<text transform="matrix(0.9396 0 0 1 109.4326 264.6625)" class="st0 st1">穆斯林起义</text>
<text transform="matrix(1 0 0 1 103.9999 304.5452)" class="st2 st3">移除美国在以下其中</text>
<text transform="matrix(1 0 0 1 83.9999 328.5452)" class="st2 st3">两个国家的所有影响力：</text>
<text transform="matrix(1 0 0 1 133.9999 352.5452)" class="st2 st3">苏丹、伊朗、</text>
<text transform="matrix(1 0 0 1 83.9999 376.5452)" class="st2 st3">伊拉克、埃及、利比亚、</text>
<text transform="matrix(1 0 0 1 63.9999 402.5452)" class="st2 st3">沙特阿拉伯、叙利亚、约旦。</text>
<path id="path4149" class="st4" d="M194,97.7c-27.3,0-49.5,26.2-49.5,58.6S166.7,215,194,215s49.5-26.2,49.5-58.6
	c0-1.5-0.1-3-0.2-4.4c-2.8,23.6-20.5,41.8-42,41.8c-23.4,0-42.4-21.6-42.4-48.2c0-24.2,15.7-44.3,36.2-47.7
	C194.8,97.8,194.4,97.7,194,97.7z"/>
<path id="path4154" class="st5" d="M194,122.2l4.8,14.9l15.6,0l-12.6,9.2l4.8,14.9L194,152l-12.6,9.2l4.8-14.9l-12.6-9.2l15.6,0
	L194,122.2L194,122.2z"/>
</svg>
