<?xml version="1.0" encoding="utf-8"?>
<!-- Generator: Adobe Illustrator 22.0.0, SVG Export Plug-In . SVG Version: 6.00 Build 0)  -->
<svg version="1.1" id="svg2" xmlns:svg="http://www.w3.org/2000/svg"
	 xmlns="http://www.w3.org/2000/svg" xmlns:xlink="http://www.w3.org/1999/xlink" x="0px" y="0px" viewBox="0 0 388 538"
	 style="enable-background:new 0 0 388 538;" xml:space="preserve">
<style type="text/css">
	.st0{font-family:'STBaoliSC-Regular';}
	.st1{font-size:36px;}
	.st2{font-family:'STKaiti';}
	.st3{font-size:20px;}
	.st4{fill:#DE2910;stroke:#000000;stroke-width:2.0027;}
	.st5{fill:#FFDE00;}
	.st6{font-size:18.9277px;}
	.st7{font-size:18.0014px;}
</style>
<text transform="matrix(0.9072 0 0 1 145.0112 257.9999)" class="st0 st1">中国牌</text>
<text transform="matrix(1 0 0 1 84 326)" class="st2 st3">所有点数均用在亚洲时，</text>
<text transform="matrix(1 0 0 1 182.6401 350)" class="st2 st3">+1</text>
<text transform="matrix(1 0 0 1 124 349.3022)" class="st2 st3">行动值。出牌后</text>
<text transform="matrix(1 0 0 1 134 374)" class="st2 st3">移交给对手。</text>
<g id="g3868" transform="matrix(1.0000074,0,0,0.99726396,-0.50142205,0.09166391)">
	<rect id="rect3062" x="103.5" y="95.2" class="st4" width="182" height="121.3"/>
	<path id="star" class="st5" d="M122.7,139.7l4-12.5l-10.6-7.8h13.1l4.1-12.5l4.1,12.5h13.1l-10.6,7.8l4,12.5l-10.6-7.7L122.7,139.7
		L122.7,139.7L122.7,139.7z"/>
	<g id="use3065" transform="matrix(0.312837,0.115102,-0.115102,0.312837,135.00134,95.058328)">
		<path id="star_1_" class="st5" d="M158.7,152.6l2.7-3.5l-2.4-3.7l4.1,1.5l2.7-3.4l-0.2,4.4l4.1,1.5l-4.2,1.2l-0.2,4.4l-2.4-3.6
			L158.7,152.6L158.7,152.6L158.7,152.6z"/>
	</g>
	<g id="use3067" transform="matrix(0.333094,-0.0127962,0.0127962,0.333094,128.47568,97.176298)">
		<path id="star_2_" class="st5" d="M172.5,142.2l1.2-4.2l-3.6-2.5l4.4-0.2l1.2-4.2l1.5,4.1l4.4-0.2l-3.4,2.7l1.5,4.1l-3.6-2.4
			L172.5,142.2L172.5,142.2z"/>
	</g>
	<g id="use3069" transform="matrix(0.298835,-0.147693,0.147693,0.298835,116.06499,100.97167)">
		<path id="star_3_" class="st5" d="M174.8,124.9l-0.6-4.3l-4.3-0.8l3.9-1.9l-0.6-4.3l3.1,3.1l3.9-1.9l-2,3.9l3.1,3.2l-4.3-0.7
			L174.8,124.9L174.8,124.9z"/>
	</g>
	<g id="use3071" transform="matrix(0.307068,0.129711,-0.129711,0.307068,137.51943,51.370311)">
		<path id="star_4_" class="st5" d="M158.5,109.9l2.9-3.3l-2.2-3.8l4,1.7l2.9-3.3l-0.4,4.4l4,1.7l-4.3,1l-0.4,4.4l-2.3-3.8
			L158.5,109.9L158.5,109.9L158.5,109.9z"/>
	</g>
</g>
<text transform="matrix(1 0 0 1 74.6203 409.1667)" class="st2 st3">第10回合结束时，持有这牌</text>
<text transform="matrix(1 0 0 1 130.0505 433.1667)" class="st2 st3">的玩家+1VP。</text>
<text transform="matrix(0.9511 0 -0.309 0.9511 75.3705 292.4993)" class="st2 st6">游戏开始时由苏方玩家持有。</text>
<text transform="matrix(0.9511 0 -0.309 0.9511 81.1757 465.2487)" class="st2 st7">如果美方玩家打出词牌，撤销</text>
<text transform="matrix(0.9511 0 -0.309 0.9511 117.0112 486.8492)" class="st2 st7">“台湾决议”的影响。</text>
</svg>
