<?xml version="1.0" encoding="utf-8"?>
<!-- Generator: Adobe Illustrator 22.0.0, SVG Export Plug-In . SVG Version: 6.00 Build 0)  -->
<svg version="1.1" id="svg2" xmlns:svg="http://www.w3.org/2000/svg"
	 xmlns="http://www.w3.org/2000/svg" xmlns:xlink="http://www.w3.org/1999/xlink" x="0px" y="0px" viewBox="0 0 388 538"
	 style="enable-background:new 0 0 388 538;" xml:space="preserve">
<style type="text/css">
	.st0{fill:#AAE0FA;}
	.st1{fill:none;stroke:#E3F5FF;stroke-width:1.0741;stroke-linejoin:bevel;stroke-miterlimit:10;}
	.st2{font-family:'STBaoliSC-Regular';}
	.st3{font-size:36px;}
	.st4{font-family:'STKaiti';}
	.st5{font-size:20px;}
</style>
<g id="layer1" transform="matrix(0.93100359,0,0,0.93100359,362.57894,227.88414)">
	<path id="path2942" class="st0" d="M-306.6-122.5L-306.6-122.5z M-348.8-120.5l1.5-7.3l4.9,2.4l-0.3,4.6h1.8l0.9-0.3l26-1.2
		l0.3-0.3l7,0.1l-5.1,3.8l-3.1-1.8l-0.3-3.7l-1.3-1.9l-2.7-2.9l-6.1,0.1l-1.3,1.8l-8.7,0.5l-10.5-4.2l-7,1l-0.4,9.4h3.1l0.6-0.3
		L-348.8-120.5L-348.8-120.5z M-138.6-38l-1.8-1.8l4.6-1.5h-11l2.7,0.9l-6.4,1.8l-5.5-2.7l-8.9,0.6l-1.2-3.1l-5.8-1.5l-2.1-3.4
		l-0.9,2.7l2.1-0.3v1.2l-1.5-0.6l-6.7,3.4l1.8,3.7 M-183.2-38.6l2.1-3.1l-1.8-4l4-2.4l-2.7-1.8l-7.3,5.5l-4.3-0.3l-0.6,1.5l-2.7-0.6
		l-1.8,1.5l-2.1,3.1v0.6 M-131.9-38.6l0.3-3.1l-3.4,0.3l0.9,2.1l-2.1,0.9L-131.9-38.6L-131.9-38.6z M-353.1-120.2v0.9l3.7,4.9
		l-1.8,2.4l0.9,0.9h-3.4l3.1,3.7l1.8-1.2l2.1,3.7l-1.5,5.2l5.2,4.9l0.3,2.7l2.4-1.5l-0.3-3.4l-2.7-1.2v-8.9l-2.7-4.6l0.3-2.7
		l-3.1-6.1 M-342.7-120.8v4l2.1,4h2.1l-0.9,2.4l4,4l-1.8,2.4l4,2.4v1.5l5.5,7l1.8,6.1l-2.1,3.1l1.2,0.6l-2.1,0.9l0.6,1.5l6.4,7.3
		l6.1,1.2l3.1,3.1l4.3,1.5 M-343.6-116.8l0.3,0.9l0.6-1.8L-343.6-116.8z M-313.1-74.7l-1.8-0.3l-0.3,1.5l-0.6-2.7L-313.1-74.7z
		 M-317.9-82.3l0.6,0.6l-2.7-0.3L-317.9-82.3z M-343.6-116.8l0.3,0.9l0.6-1.8L-343.6-116.8z M-342.7-120.8v4l2.1,4h2.1l-0.9,2.4l4,4
		l-1.8,2.4l4,2.4v1.5l5.5,7l1.8,6.1l-2.1,3.1l1.2,0.6l-2.1,0.9l0.6,1.5l6.4,7.3l6.1,1.2l3.1,3.1l4.3,1.5v-0.9l0.3-0.6V-71l0.3-0.6
		v-1.2l0.3-0.6V-75l0.3-0.6v-1.2l0.3-0.6v-1.8l0.3-0.6v-1.5l0.3-0.6v-1.2l0.3-0.6V-85l0.3-0.6v-0.6l0.3-0.6v-1.2l0.3-0.6v-1.5
		l0.3-0.6v-1.2l0.3-0.6v-0.6l0.3-0.6v-1.2l0.3-0.6V-97l0.3-0.6v-0.6l0.3-0.6v-1.2l0.3-0.6v-0.6l0.3-0.6v-1.2l0.3-0.6v-0.6l0.3-0.6
		v-1.2l0.3-0.6v-0.6l0.3-0.6v-0.6l0.3-0.6v-1.2l0.3-0.6v-0.6l0.3-0.3v-0.6l0.3-0.6v-0.6l0.3-0.6v-1.2l0.3-0.6l-7.6-4.5l0.3-0.6v-0.6
		l0.3-0.6l-7-0.1l-0.3,0.3l-26,1.2l-0.9,0.3L-342.7-120.8L-342.7-120.8z M-353.1-120.2v0.9l3.7,4.9l-1.8,2.4l0.9,0.9h-3.4l3.1,3.7
		l1.8-1.2l2.1,3.7l-1.5,5.2l5.2,4.9l0.3,2.7l2.4-1.5l-0.3-3.4l-2.7-1.2v-8.9l-2.7-4.6l0.3-2.7l-3.1-6.1h-0.6l-0.6,0.3
		C-350-120.2-353.1-120.2-353.1-120.2z M-343.6-116.8l0.3,0.9l0.6-1.8L-343.6-116.8z M-244.3-38.3l-1.2-1.2l2.1,1.2h8.6l-4-6.1
		l3.7-13.7l-0.9-4.3l-7.3-3.1l-14.1,1.5l-3.4-0.9l3.4-4.9l0.9-6.1h-1.2l1.8-2.1l0.6,2.7l2.4-6.1l-1.5-0.3l4.9-7.3l-5.8-0.9l-9.5,2.4
		l-2.7,7.6l-4,4l-3.4-0.9l-9.2,3.1l-3.1-2.7h-2.7l-6.1-14.4V-93l1.5-8.2l0.6-3.1l1.8-0.6l-0.6,1.5l2.1-4l-7-1.6l-1.1-4.8l-4.6-8.1
		l-3.5-0.7l-0.3,0.6v0.6l-0.3,0.6l7.6,4.5l-0.3,0.6v1.2l-0.3,0.6v0.6l-0.3,0.6v0.6l-0.3,0.3v0.6l-0.3,0.6v1.2l-0.3,0.6v0.6l-0.3,0.6
		v0.6l-0.3,0.6v1.2l-0.3,0.6v0.6l-0.3,0.6v1.2l-0.3,0.6v0.6l-0.3,0.6v1.2l-0.3,0.6v0.6l-0.3,0.6v1.2l-0.3,0.6v1.2l-0.3,0.6v0.6
		l-0.3,0.6v1.2l-0.3,0.6v1.5l-0.3,0.6v1.2l-0.3,0.6v0.6L-306-85v1.2l-0.3,0.6v1.2l-0.3,0.6v1.5l-0.3,0.6v1.8l-0.3,0.6v1.2l-0.3,0.6
		v1.5l-0.3,0.6v1.2l-0.3,0.6v1.8l-0.3,0.6v0.9l13.7,4.9l10.1-2.4l12.5,9.5l12.5,3.4l-1.2-0.6l6.1-0.9l0.3,2.4h-1.8l8.9,8.2l-1.2,0.9
		l1.2,0.6v3.4L-244.3-38.3L-244.3-38.3z M-221.1-27l-2.1-3.4l2.1-1.2v-1.5l0.3-0.9v-1.8l-5.2,3.1l-4-1.8l0.6,1.2l-2.1-0.3l-3.4-4.6
		h-8.6l0.3,0.3l5.2,4.3v2.7h1.5l-0.6-1.5l2.4,3.4l0.6-1.5l4.6,0.6l1.2,2.4l2.1-1.2l0.6,3.4h2.1L-221.1-27L-221.1-27z M-247.4-38.3
		v0.6l2.4,1.5l1.2-1.2l-0.6-0.9C-244.3-38.3-247.4-38.3-247.4-38.3z"/>
	<path id="path2940" class="st0" d="M-39.7,26.5H-40l-8.9-0.3l-4.6-2.7l-5.8,4.6l0.3-3.7l1.5-1.2l-2.4,0.3l2.1-1.5l-1.5-3.4
		l-1.5,2.1l-0.6-2.7l-0.6,0.9l0.3-0.9l-1.2,0.6l-1.2-1.8l-0.6,1.2v-2.1l-0.9,1.2l-4-2.7l-0.3,0.9l-2.7-0.9l-1.8,4l1.8,0.3l-1.8,0.9
		l-0.9-1.5l-3.7,4.6l0.9-3.4l-4.9,0.9l6.7-1.8l2.1-5.5l-8.2-1.5l-2.1,4.3l-0.3-2.1l-1.8,2.1V13l-1.8,2.1l1.8-4.3l6.1-5.8h-1.2
		l0.9-2.4l-3.7-1.8L-87-9.6l-1.2-0.9l-0.3,1.8l-3.1-4.3l-8.6-4.9h-13.1l-5.8-5.2l-1.5,2.4l0.9-4.6l-2.7-3.1L-127-31v0.9l0.3,0.6v8.2
		l0.3,0.6v13.1l0.3,0.6v31.5h7l4-3.4l4.3,0.9l2.7-3.1l5.2,0.3l1.8,0.9l-0.3,1.2h1.5l6.7-3.7l-6.1,3.7l-4,0.3l-2.1,5.5l0.9-6.1
		l2.4,0.3l-4.3-0.9h2.4l-2.1-1.2l-4.9,2.7l-4-0.9l-5.2,4.6l-4.9-1.2l-1.2,0.6v0.6l-0.3,0.6v13.4l-0.3,0.6v8.2l-0.3,0.6v6.7l-0.3,0.6
		v0.6h5.2l0.9,0.3h10.1l0.6,0.3h9.2l0.6,0.3h7.9l0.6,0.3h7.6l0.6,0.3h6.7l0.3,0.3h6.7l0.6,0.3h5.2l0.6,0.3h5.8l0.6,0.3h5.2l0.6,0.3
		h4.6l0.6,0.3h4.3l0.3-0.6v-2.7l0.3-0.6v-2.7l0.3-0.6v-2.7l0.3-0.6v-3.7l0.3-0.6v-4l0.3-0.6v-5.5l0.3-0.9V28l0.3-0.6L-39.7,26.5
		L-39.7,26.5z M-126.1,25.2l-8.6,3.1l-2.7-1.5l-5.2,3.7l-0.6-1.8l1.5-0.3l-6.4-3.1l-0.6,0.9l-2.1-4l-3.4-1.2h-6.7l-3.7,4.6l-5.2-0.3
		l-1.5,2.4l0.9,0.6l-2.4,1.5l-1.8-2.4l-5.5-0.9L-182,24l-5.8,1.2l1.8-0.9l-1.2-0.3l2.1,0.3l3.1-0.6l1.8,2.7l5.5,0.3l2.1,2.7l2.1-1.2
		l-1.2-0.6l1.8-2.4l5.5-0.3l3.4-4l9.5-0.6l4.9,5.5l6.1,2.7l3.1-1.8l2.1,1.2l4.6-1.5l0.6-2.1l4,0.3l-2.7-0.6l-4.9-7.6l-9.5-5.2
		l-12.8-0.3l2.4-0.9l10.1,0.6l10.1,5.5l7.3,8.6V-6.8l-0.3-0.6v-13.1l-0.3-0.6v-8.2l-0.3-0.6V-31l-0.9-0.6l-3.1,0.3v-4l-3.7-2.1
		l-3.4,0.3l-0.6-0.9h-6.4l-0.6-0.3h-22.6l-0.9-0.3h-10.1l0.6,1.5v1.8l-3.1,1.2l-2.1-3.7l0.6-0.9h-17.4l0.3,2.4l-6.1,4.3l0.6,3.1
		l-5.2-5.5l-4.9-2.1l-3.4-0.3l-1.5,0.9v1.8l-0.3,0.9v1.5l4.6-2.4l3.1,3.1l1.5-0.3l-1.5,2.4l5.2,6.4l-1.2,11l2.4,1.5l-0.3,1.2
		l-3.1,4.6l-4,1.2l0.3,3.1l-2.4,0.6l0.3,2.7l-4.9,1.2V20l0.6-0.6l0.6,1.8l-1.2,3.7v16.2l4.9,7l3.7,8.6h4l0.9-0.3h20.8l0.6,0.3h33.6
		l0.6,0.3h16.5l0.6,0.3h7.6v-0.6l0.3-0.6v-6.7l0.3-0.6v-8.2l0.3-0.6V26.5l0.3-0.6C-126.1,25.8-126.1,25.2-126.1,25.2z M-131.9-38.6
		l0.3-3.1l-3.4,0.3l0.9,2.1l-2.1,0.9C-136.2-38.3-131.9-38.6-131.9-38.6z M-183.2-38.6l2.1-3.1l-1.8-4l4-2.4l-2.8-1.8l-7.3,5.5
		l-4.3-0.3l-0.6,1.5l-2.7-0.6l-1.8,1.5l-2.1,3.1v0.6L-183.2-38.6L-183.2-38.6z M-138.6-38l-1.8-1.8l4.6-1.5h-11l2.7,0.9l-6.4,1.8
		l-5.5-2.7l-8.9,0.6l-1.2-3.1l-5.8-1.5l-2.1-3.4l-0.9,2.7l2.1-0.3v1.2l-1.5-0.6l-6.7,3.4l1.8,3.7h10.1l0.9,0.3h22.6l0.6,0.3H-138.6
		L-138.6-38z M-131.9-38.6l0.3-3.1l-3.4,0.3l0.9,2.1l-2.1,0.9C-136.2-38.3-131.9-38.6-131.9-38.6z M-221.1,24.9l-6.1,4.3l2.1,6.7
		l-1.5,1.5l5.5,3.7C-221.1,41.1-221.1,24.9-221.1,24.9z M-221.1,21.9h-1.2l0.6,1.2l0.6-0.6V21.9z M-221.1,8.1l-2.4,2.4l0.9,1.2
		l-3.1,1.8l0.3,6.4l3.1,1.8l1.2-1.8V8.1z M-221.1,4.8l-0.6,0.3l0.6,1.8C-221.1,6.9-221.1,4.8-221.1,4.8z M-161.6-20.6l1.8-4.3
		l3.4-2.4l3.7-1.2l3.7,1.2l11.6-4.3l0.3-1.2l-0.9-4l1.2,4.9l2.1,0.3l-11,3.1l-3.7,1.2l-3.4-1.2l-3.4,1.2
		C-156.1-27.3-161.6-20.6-161.6-20.6z M-139.3-27.6l-0.6,4.6l-0.9-4C-140.8-27-139.3-27.6-139.3-27.6z M-221.1,22.5l0.3-0.6h-0.3
		V22.5z M-161.6-20.6l1.8-4.3l3.4-2.4l3.7-1.2l3.7,1.2l11.6-4.3l0.3-1.2l-0.9-4l1.2,4.9l2.1,0.3l-11,3.1l-3.7,1.2l-3.4-1.2l-3.4,1.2
		C-156.1-27.3-161.6-20.6-161.6-20.6z M-139.3-27.6l-0.6,4.6l-0.9-4C-140.8-27-139.3-27.6-139.3-27.6z M-81.2,11.2l1.5-1.8l-3.1,0.3
		C-82.7,9.7-81.2,11.2-81.2,11.2z M-87.3,21.9l-0.9-2.7l4,0.3l-1.2,1.8l0.6,1.5l-1.8-3.4C-86.7,19.4-87.3,21.9-87.3,21.9z
		 M-103.5-13.6l0.6,1.8l-2.4,0.3L-103.5-13.6z M-110.8,16.1l3.1,0.6l0.6,1.8L-110.8,16.1z M-126.1,24.6h0.3H-126.1z M-81.2,11.2
		l1.5-1.8l-3.1,0.3C-82.7,9.7-81.2,11.2-81.2,11.2z M-87.3,21.9l-0.9-2.7l4,0.3l-1.2,1.8l0.6,1.5l-1.8-3.4
		C-86.7,19.4-87.3,21.9-87.3,21.9z M-103.5-13.6l0.6,1.8l-2.4,0.3L-103.5-13.6z M-27.5,61.9l5.2-7.6l0.9-5.8l-0.9-7.9l-1.2-1.8
		l-5.8-1.2l-4.6-6.4l-5.8-4.6v0.9L-40,28v6.7l-0.3,0.9v5.5l-0.3,0.6v4l-0.3,0.6V50l-0.3,0.6v2.7l-0.3,0.6v2.7l-0.3,0.6v2.7l-0.3,0.6
		l0.6,0.3h4.6l0.6,0.3h3.7l0.9,0.3h3.4C-28.4,61.6-27.5,61.9-27.5,61.9z M-27.5,61.9l5.2-7.6l0.9-5.8l-0.9-7.9l-1.2-1.8l-5.8-1.2
		l-4.6-6.4l-5.8-4.6 M-134.4,149.5l0.6-3.4l0.9-0.9l3.4-6.7l2.1-1.2l10.4,1.2h-12.5l-4,8.6l-0.6,2.4h7.9l0.6,0.3h9.8l0.6,0.3h8.6
		l0.6,0.3h7.3l0.6,0.3h0.9l2.1-3.1l4.6-3.1l2.4-6.1l-0.6-4l2.4-3.1l-1.2-0.9l1.8,0.3l3.4-3.4l5.2-3.4h3.7l4.9-4l3.1,0.9l2.1-1.8
		l-0.3,1.5l4,0.3l0.6-2.1l4.3-2.1v-2.4l5.5-7l0.3-0.9v-0.6l0.3-0.6v-0.6l0.3-0.6v-1.5l0.3-0.6v-0.6l0.3-0.6v-0.9l0.3-0.6v-1.2
		l0.3-0.6v-0.9l0.3-0.6v-1.2l0.3-0.9v-1.2l0.3-0.6v-0.6l0.3-0.9v-1.2l0.3-0.6v-1.5l0.3-0.6v-1.5l0.3-0.6V83l0.3-0.9v-1.2l0.3-0.6
		v-1.5l0.3-0.6v-1.5l0.3-0.6v-2.1l0.3-0.6V72L-43,71v-1.8l0.3-0.9v-1.8l0.3-0.9v-2.1l0.3-0.6v-2.1h-4.3l-0.6-0.3h-4.6l-0.6-0.3h-5.2
		l-0.6-0.3h-5.8l-0.6-0.3h-5.2l-0.6-0.3h-6.7l-0.3-0.3H-84l-0.6-0.3h-7.6l-0.6-0.3h-7.9l-0.6-0.3h-9.2l-0.6-0.3h-10.1l-0.9-0.3h-5.2
		v5.5l-0.3,0.9v4.9l-0.3,0.6v4.3l-0.3,0.6v4.3l-0.3,0.6v4.3l-0.3,0.6v3.4l-0.3,0.9v3.4l-0.3,0.6v2.8l-0.3,0.6v2.7l-0.3,0.9v2.7
		l-0.3,0.6v2.7l-0.3,0.6v2.7l-0.3,0.6v2.7l-0.3,0.6v2.1l-0.3,0.6v2.7l-0.3,0.6v1.8l-0.3,0.9v1.8l-0.3,0.6v2.1l-0.3,0.6v2.1l-0.3,0.6
		v1.8l-0.3,0.6v2.1l-0.3,0.6v1.2l-0.3,0.6v2.1l-0.3,0.6v1.8l-0.3,0.6v1.5l-0.3,0.6v1.2l-0.3,0.6v1.8l-0.3,0.6v1.5L-134.4,149.5
		L-134.4,149.5z M-212.6,56.7l2.7,6.1l7,9.8l-0.9,2.4l2.1,3.7l3.7,3.7l16.8,8.9l5.2,5.2l0.6,7.3v6.7l-2.7,9.5l0.6,8.2l-5.2,15.9
		l0.9,4.3l-0.3,0.3l0.6,0.3h27.5l0.3,0.3h15l0.6,0.3h2.4V148l0.3-0.6v-1.8l0.3-0.6v-1.2l0.3-0.6v-1.5l0.3-0.6v-1.8l0.3-0.6v-2.1
		l0.3-0.6v-1.2l0.3-0.6v-2.1l0.3-0.6v-1.8l0.3-0.6v-2.1l0.3-0.6v-2.1l0.3-0.6v-1.8l0.3-0.9v-1.8l0.3-0.6v-2.7l0.3-0.6v-2.1l0.3-0.6
		v-2.7l0.3-0.6v-2.7l0.3-0.6v-2.7l0.3-0.6v-2.7l0.3-0.9v-2.7l0.3-0.6v-2.8l0.3-0.6v-3.4l0.3-0.9v-3.4l0.3-0.6V79l0.3-0.6v-4.3
		l0.3-0.6v-4.3l0.3-0.6v-4.9l0.3-0.9v-5.5h-7.6l-0.6-0.3h-16.5l-0.6-0.3h-33.6l-0.6-0.3h-20.8l-0.9,0.3H-212.6L-212.6,56.7z
		 M-49.1,107.4l1.2-1.5l1.5-5.5l2.4-3.1l4.9-22.9l0.6-0.9l0.6,1.8l1.8-1.5l8.6-11.9l-0.9-0.3h-3.4l-0.9-0.3h-3.7l-0.6-0.3h-4.6
		l-0.6-0.3v2.1l-0.3,0.6v2.1l-0.3,0.9v1.8l-0.3,0.9V71l-0.3,0.9v1.2l-0.3,0.6v2.1l-0.3,0.6v1.5l-0.3,0.6v1.5l-0.3,0.6V82l-0.3,0.9
		v1.2l-0.3,0.6v1.5l-0.3,0.6v1.5l-0.3,0.6v1.2l-0.3,0.9v0.6l-0.3,0.6v1.2l-0.3,0.9v1.2l-0.3,0.6v0.9l-0.3,0.6v1.2l-0.3,0.6v0.9
		l-0.3,0.6v0.6l-0.3,0.6v1.5l-0.3,0.6v0.6l-0.3,0.6v0.6L-49.1,107.4L-49.1,107.4z M-192.1,226.8h0.3H-192.1z M-193.9,203.3l1.8-0.9
		v-5.2h-1.8l-0.6,1.8l-0.9,3.7L-193.9,203.3z M-190.6,208.5l0.3-1.5l-1.8,0.9L-190.6,208.5z M-197.3,221.9l1.8,0.3l-0.9-1.8
		L-197.3,221.9L-197.3,221.9z M-191.2,223.5l0.3-2.1l0.9,1.5l0.3-1.2l0.9,2.4L-191.2,223.5L-191.2,223.5z M-190.6,216.4l0.9-1.8
		l5.2,0.3h-3.7L-190.6,216.4L-190.6,216.4z M-185.4,193.2l1.8,1.2l-1.8,0.3V193.2L-185.4,193.2z M-189.7,195.4v-1.5l1.2,1.2
		L-189.7,195.4z M-195.8,213.7l1.2,0.6l-0.9,0.9L-195.8,213.7z M-197,226.8l1.5-0.3l-0.9-4.3l-0.6,2.7l-1.8-0.3l1.2,1.8l1.5-1.8
		L-197,226.8L-197,226.8z M-192.1,226.8h5.8l0.9,0.3h7.9l-0.3-0.9l0.6,0.9h1.5l1.5-3.4l6.4-3.7l0.3-2.7l-3.1-0.6l-2.4-3.4l2.7-3.1
		l4.9-1.2l1.2-4.6l4-2.4l-2.1-1.2l2.1-0.6l0.9,1.5l1.8-1.2l-0.3-1.8l-2.7,1.2l-1.8-1.5l0.9-5.2l4.3,1.8l5.2-0.9l1.2-6.1l0.9,0.3
		l-0.6-2.4l4.3,0.9l4.3-0.6V185l0.3-0.6v-0.9l0.3-0.6v-1.2l0.3-0.6v-1.2l0.3-0.6v-0.9l0.3-0.6v-1.2l0.3-0.6v-0.6l0.3-0.6v-1.2
		l0.3-0.3v-1.2l0.3-0.6V170l0.3-0.6v-1.8l0.3-0.6v-1.2l0.3-0.6v-0.9l0.3-0.6v-1.2l0.3-0.6v-1.2l0.3-0.6v-1.2l0.3-0.6v-1.8l0.3-0.6
		v-1.2l-3.1,3.4v5.2l-0.3-5.5l3.7-3.7v-1.5l0.3-0.6v-1.2l0.3-0.6v-0.3h-2.4l-0.6-0.3h-15l-0.3-0.3h-27.5l-0.6-0.3l-1.8,2.7v12.8
		l-6.4,14.4l-2.1,0.9l1.8,8.6l-3.1,6.1l1.8,2.1l-1.2,0.6l3.1-0.9l1.2,0.3l1.2-0.6l-2.1,2.1l1.8,0.9l-0.6,1.2l-1.2-0.9l1.2,1.2
		l-1.2-0.3l-0.9,3.7l1.2,1.5l-2.1,0.9l2.4,1.5l-3.4,2.4l2.7,0.6l-2.4,0.3l-0.3,1.2l1.2-0.6l-1.5,3.4l-0.9-1.5l-1.8,0.3l1.5-0.3h-1.2
		l0.9-1.2l-1.2,0.9l-0.9-0.9l-1.2,0.3l1.8,0.6l-0.9,1.2l-2.8,1.2l1.2,0.9l-0.9-0.9l2.1-0.9l0.3,1.2l1.8-0.3l0.9,1.8l-1.8,0.9h2.1
		l-2.7,0.9l3.1-0.6l1.8,1.5l-1.5-0.3l0.9,1.2l-4-0.9l2.4,1.2l-1.8,0.9l1.2,0.3l-1.2,2.4l1.2-0.9l1.2,1.8l-2.1-0.3l0.6,1.2
		L-192.1,226.8L-192.1,226.8z M-193.9,203.3l1.8-0.9v-5.2h-1.8l-0.6,1.8l-0.9,3.7L-193.9,203.3L-193.9,203.3z M-190.6,208.5l0.3-1.5
		l-1.8,0.9L-190.6,208.5z M-197.3,221.9l1.8,0.3l-0.9-1.8L-197.3,221.9L-197.3,221.9z M-191.2,223.5l0.3-2.1l0.9,1.5l0.3-1.2
		l0.9,2.4L-191.2,223.5L-191.2,223.5z M-190.6,216.4l0.9-1.8l5.2,0.3h-3.7L-190.6,216.4L-190.6,216.4z M-185.4,193.2l1.8,1.2
		l-1.8,0.3V193.2L-185.4,193.2z M-189.7,195.4v-1.5l1.2,1.2L-189.7,195.4z M-195.8,213.7l1.2,0.6l-0.9,0.9L-195.8,213.7z
		 M-134.1,149.5l-0.3,2.7l-2.1,2.1v1.2l-0.3,0.6v1.8l-0.3,0.6v1.2l-0.3,0.6v1.2l-0.3,0.6v1.2l-0.3,0.6v0.9l-0.3,0.6v1.2l-0.3,0.6
		v1.8l-0.3,0.6v1.2l-0.3,0.6v1.2l-0.3,0.3v1.2l-0.3,0.6v0.6l-0.3,0.6v1.2l-0.3,0.6v0.9l-0.3,0.6v1.2l-0.3,0.6v1.2l-0.3,0.6v0.9
		l-0.3,0.6v1.2l5.5-0.9l3.7-1.8l4.3-4.6l0.3-2.4l-2.1-1.5l1.5-2.7l-4.6-3.7l1.5-5.8l-0.6,3.7l1.8,2.4l5.8,2.1l7.6-0.9l7.3-6.7
		l2.7-5.2l5.8-6.1l-0.6-1.5l2.4,2.1l-7.3,7l5.8-4.3l3.7-4.6H-98l-0.6-0.3h-7.3l-0.6-0.3h-8.6l-0.6-0.3h-9.8l-0.6-0.3L-134.1,149.5
		L-134.1,149.5z M-191.8,226.8l3.7,0.6l-3.1,0.6v1.2l-0.9-2.4H-191.8z M-174.7,243.3l4.6-1.2l-6.7-2.4l-2.4-4.3l-4.9,0.9v1.8
		l3.1,0.3l-2.4,1.8l3.1,1.2l-1.2,0.9v-1.2l-0.9,0.6l-3.4-1.2l2.1,1.2l-1.5,0.3l-0.3-0.9l-3.1,0.9L-174.7,243.3L-174.7,243.3z
		 M-183.5,243.6l1.5,1.2l-0.3-0.9h1.8l-0.3,0.9l2.4,0.6l-2.7-2.1l1.8-0.3L-183.5,243.6L-183.5,243.6z M-191.8,240.3l2.4-0.9
		l-2.4-1.2l-1.8,0.9l1.5,1.2l1.5-0.6L-191.8,240.3z M-191.5,237.5l1.5,0.9l-0.6-0.9l3.4-1.5h-3.4L-191.5,237.5z M-194.5,237.2
		l2.7,0.9l-4.6-2.1L-194.5,237.2z M-185.7,240l1.8,0.9l-0.6-2.1L-185.7,240L-185.7,240z M-186,240.9l-1.8-0.9v0.9H-186z
		 M-197.3,227.1h-1.2l0.3,1.2L-197.3,227.1z M-177.1,227.1l0.3,0.3l1.2-0.3H-177.1z M-191.8,226.8l3.7,0.6l-3.1,0.6v1.2l-0.9-2.4
		h-2.4l0.6,1.2l-2.4-0.3l2.1,0.6v1.5l1.2-1.5l0.9,0.9l-2.7,0.9l1.5,0.6l-0.9,1.5l1.8,1.5v-1.5l0.6,1.5l-0.6-1.8l2.1,0.9l-2.4-1.2
		l1.5-0.9l-0.6,1.2l1.8,0.9l-1.2,2.1l0.6-1.5l-0.9,1.2v-0.9h-2.1v2.4l2.4-0.9l-1.5,1.5l1.2,0.3l0.3-1.8h4l0.3,1.8l-1.8,1.5l0.6-1.2
		l-1.8,0.6l3.1,1.5l1.5-3.7l5.2-1.5l2.4,0.3l-1.5-2.4h-1.8h1.8l-1.2-1.5l3.7-3.1l-0.6-0.6h-7.9l-0.9-0.3L-191.8,226.8L-191.8,226.8z
		 M-174.7,243.3l4.6-1.2l-6.7-2.4l-2.4-4.3l-4.9,0.9v1.8l3.1,0.3l-2.4,1.8l3.1,1.2l-1.2,0.9v-1.2l-0.9,0.6l-3.4-1.2l2.1,1.2
		l-1.5,0.3l-0.3-0.9l-3.1,0.9L-174.7,243.3L-174.7,243.3z M-183.5,243.6l1.5,1.2l-0.3-0.9h1.8l-0.3,0.9l2.4,0.6l-2.7-2.1l1.8-0.3
		L-183.5,243.6L-183.5,243.6z M-191.8,240.3l2.4-0.9l-2.4-1.2l-1.8,0.9l1.5,1.2l1.5-0.6L-191.8,240.3z M-191.5,237.5l1.5,0.9
		l-0.6-0.9l3.4-1.5h-3.4L-191.5,237.5z M-194.5,237.2l2.7,0.9l-4.6-2.1L-194.5,237.2z M-185.7,240l1.8,0.9l-0.6-2.1L-185.7,240
		L-185.7,240z M-186,240.9l-1.8-0.9v0.9H-186z M-197.3,227.1h-1.2l0.3,1.2L-197.3,227.1z"/>
	<path id="path1319" class="st1" d="M-352.8-129.6l7.6-1.2l-0.6,0.6l10.4,4l9.5-0.6l0.6-1.8l6.1-0.3l4,4.3l0.3,2.4 M-314.9-122.3
		v1.5l3.4,2.1l4.9-3.7l3.4,0.3l3.7,6.1 M-276.1-58.5l2.7-6.7l5.8-0.3l0.3-1.5l-4.3-3.7h1.8l0.3-2.4l8.2-0.3l-1.2,8.6h1.5
		 M-299.6-115.9l1.2,2.4l0.6,4.6l7.3,1.5 M-234.9-61.2l-6.1,1.8l-2.1-0.9l-4,4.6l-1.2-1.2l-3.4,1.5v2.1l-1.5,1.5 M-247.4-43.2
		l8.2,1.5l1.2-0.9 M-255.9-55.4l-3.7-0.3l-3.7-2.4 M-262-61.2l-2.1,3.7 M-255-75l-3.1-1.5l-3.1,3.1 M-264.2-57.2l-2.7,2.1
		 M-262-61.2l4.3-2.7 M-255.9-55.4l-0.6,1.8 M-254.4-51.7h1.2 M-180.2-47.2l-5.2,3.4l-2.4,5.2 M-221.1,29.5l-0.6-0.3 M-233-36.5
		l-1.8,0.6l0.3,6.7 M-221.7,29.2l-1.8,0.6l1.5-2.4l-0.9-2.4 M-215.6,1.7l7,5.2l5.2-0.6l7,3.1l8.9,11l5.8-1.5l7.9,2.4l-3.1,5.5
		l3.7,2.1l2.7-14.7l-3.1-4.9V6l4-0.3 M-158.5,56.7l0.6-0.3l5.8-0.9V57 M-173.5,29.5l-3.7-0.9l-10.1,4.6l-1.2,6.4l-4.3,5.2l5.2,7
		l-1.2,1.8l4.3,0.6l0.6,2.4 M-181.7,56.7h1.8l3.7-2.7v2.7 M-127-15.4v3.4l0.6,0.6 M-187.8-38.6l-1.8,3.7l3.1,0.6l2.1,4.6l-0.9,2.7
		l3.1,2.4l8.2,0.3l3.4,4l9.2-0.3 M-198.5,9h-1.8l2.1,4.3l-1.8,2.7l-5.2,4.9l-7.9,4l-3.4,7.6l-4.6-3.1 M-148.1-11.1l3.1,8.2l3.1,0.3
		V-1l-10.1,6.7l-0.3-1.5l-3.4,1.2l-2.7-2.4 M-129.8-15.4l0.6,1.2l-1.8,1.8l-7.9,2.1l-0.6,2.4l-8.6-3.4 M-208.6-32.5l1.2,3.4
		l-2.1,2.1l-0.9-0.9l-0.6,2.1 M-127-15.4h-2.7l-3.1-3.7l0.9-3.4l4-1.5l-2.1-2.4l1.8-1.5 M-161.2-20.6l-2.1,7.6l3.1,5.5l-2.7,3.1
		 M-158.5,2.9l-2.4-4.3l-2.4,1.8l-1.2-1.2v1.2h-7.9 M-163.1-4.4l3.1,1.8l1.5,5.5 M-172.5,0.5v3.1l2.7,0.3l0.3,1.8 M-128.3-27.9
		l1.5-1.2 M-126.4-11.4l2.4,2.1l-2.1,5.2l1.2,4.6l4.3,3.4l6.7-3.7l4,0.3l-7.3-10.1l0.3-3.7l3.1-0.9v-2.1 M-109.9,0.5l2.4,0.3
		l-0.3-3.1l4.6-0.3l4,2.7l1.5-1.2l3.7,0.9l5.2-8.6 M-101.7-1l2.7-5.2l-2.4-7l2.1-4 M-126.7-29.1l0.6-0.6l-0.6-1.2 M-172.2,92.1
		l2.1,6.7l2.4,2.4l-1.5,4.6l3.4,11l3.7,0.9l-1.5,4.6l-5.5,3.4l0.3,10.1l-2.1,0.3l-3.7,5.8l-1.8,4l0.6,3.1 M-163.1,60.1l4.6-3.4
		 M-152.1,57l-0.3,5.8l1.8,3.7l3.1,2.4l5.5,0.6l5.5,4.6l6.1,1.2l-0.6,6.1l1.2,5.5h0.9 M-183.9,56.7h2.1 M-176.2,56.7l-0.6,4.6
		l9.2,0.9l4.6-2.1 M-171.6,61.3l4,7.3l-4,14.7l2.7,3.4l-3.7,4l-1.2,4.6l-2.7,0.9 M-162.8,116.9l4.3-4.6l7,2.1l1.2,2.7l1.8-4l4.9,0.3
		l7,8.2l4.3,1.8 M-142.9,114.4l4.9-11.6l7.9-1.5 M-128.9,86.9l7.3,0.3l-0.6,4.6l3.7,4.6l-4,9.2 M-109,137.6l-8.6,4.6l-7.9,7.6
		 M-116.3,114.4l2.7,1.5l0.6,7.3l4.6,0.3l-3.4,10.7l-5.2,4.3 M-132.2,123.6l1.8,0.9 M-131,123.9l8.2,5.8l-5.5,7.9 M-130.1,101.3
		l7.6,2.4l0.9,5.5l-1.2,5.2 M-110.8,130.6l2.7,0.6l-0.9,6.4 M-128.3,137.6l11.3,0.9 M-116.3,114.4h-6.4 M-175.9,148.9v0.6l-3.1,4.9
		l2.1,12.5l-3.1,4.3l0.6,3.1l-3.4,3.4l0.9,7l-3.4,4l-0.6,9.8l-1.5,0.6l0.6,7.9l2.7,0.6l-3.4,0.9l2.4,1.8l-1.8,1.2l0.3,4l-2.4,2.7
		l-0.9,4.6l-3.4,2.4l0.6,1.5 M-125.5,149.9l-0.9,0.6l-3.7,9.8 M-113,166v-2.4l1.8-1.5l-1.5-3.1l-6.1-5.5l-1.8,0.9l-2.4-4.3l-3.1,0.3
		 M-130.1,160.2l-1.8,7 M-192.4,226.8l0.6,2.7l2.7-0.3l-0.6,3.1l1.5,1.2 M-178.7,235.7l-1.2,7.3 M-188.1,233.5l10.1,1.5"/>
</g>
<text transform="matrix(0.9387 0 0 1 84.1741 167.9995)" class="st2 st3">美洲进步同盟*</text>
<text transform="matrix(1 0 0 1 123.9998 242.2951)" class="st4 st5">美国美控制一个</text>
<text transform="matrix(1 0 0 1 83.9998 266.2951)" class="st4 st5">中美洲和南美洲的战场国</text>
<text transform="matrix(1 0 0 1 146.8299 290.2951)" class="st4 st5">就获1VP。</text>
</svg>
