<?xml version="1.0" encoding="utf-8"?>
<!-- Generator: Adobe Illustrator 22.0.0, SVG Export Plug-In . SVG Version: 6.00 Build 0)  -->
<svg version="1.1" id="svg2" xmlns:svg="http://www.w3.org/2000/svg"
	 xmlns="http://www.w3.org/2000/svg" xmlns:xlink="http://www.w3.org/1999/xlink" x="0px" y="0px" viewBox="0 0 388 538"
	 style="enable-background:new 0 0 388 538;" xml:space="preserve">
<style type="text/css">
	.st0{font-family:'STBaoliSC-Regular';}
	.st1{font-size:36px;}
	.st2{fill:none;stroke:#D82044;stroke-width:2;}
	.st3{font-family:'STKaiti';}
	.st4{font-size:20px;}
	.st5{enable-background:new    ;}
	.st6{font-size:18.9263px;}
	.st7{fill:#00247D;stroke:#000000;stroke-width:13.472;}
	.st8{fill:#FFFFFF;}
</style>
<text transform="matrix(0.9384 0 0 1 50.4207 266.8364)" class="st0 st1">北大西洋公约组织*</text>
<path id="path3794" class="st2" d="M48.9,270.4h290.2"/>
<text transform="matrix(1 0 0 1 74 358)" class="st3 st4">苏方玩家不能在美国控制的</text>
<text transform="matrix(1 0 0 1 54 382)" class="st3 st4">任何欧洲国家再掷骰发动政变或</text>
<text transform="matrix(1 0 0 1 54 406)" class="st5"><tspan x="0" y="0" class="st3 st4"> 调整阵营。不能打出局部战争</tspan><tspan x="0" y="24" class="st3 st4">事件袭击美国控制的欧洲国家。</tspan></text>
<text transform="matrix(0.9511 0 -0.309 0.9511 55.2928 303.2525)" class="st5"><tspan x="0" y="0" class="st3 st6">“马歇尔计划”或“华沙条约组织成立”</tspan><tspan x="0" y="22.7" class="st3 st6">            生效时才能作为事件打出。</tspan></text>
<g id="g6019" transform="matrix(0.14847482,0,0,0.14843826,109.03822,100.99942)">
	<rect id="rect6006" x="60.2" y="-6.6" class="st7" width="1024" height="768"/>
	<path id="path6008" class="st8" d="M770.5,387.8v-8.6h217.6v8.6H770.5z M117.7,387.8v-8.6h217.6v8.6H117.7z M548.6,601.1h8.6v89.6
		h-8.6V601.1z M548.6,76.3h8.6v89.6h-8.6C548.6,165.9,548.6,76.3,548.6,76.3z M744,383.2H552.7l34.5-36L557,211.7
		c0-1.5,1.4-1.5,1.4,0l40.3,126.8L744,383.2C744,383.2,744,383.2,744,383.2z M697.9,357.3c-10-60.6-57.5-109.6-119.4-121.1l4.4,11.5
		c51.8,11.5,93.5,53.3,105,106.7L697.9,357.3L697.9,357.3z M552.7,573.5V383.2l34.5,33.2l136.6-28.9c0,0,1.5,1.5,0,1.5l-128,40.3
		L552.7,573.5C552.7,573.5,552.7,573.5,552.7,573.5z M577.1,528.8c61.9-10.1,110.8-59.1,120.8-119.6l-11.5,4.3
		c-11.5,51.9-53.2,93.7-105,103.8L577.1,528.8L577.1,528.8z M361.3,383.2h191.4l-34.6,34.6l30.2,135.5c0,1.5-1.4,1.5-1.4,0
		l-40.3-126.8L361.3,383.2C361.3,383.2,361.3,383.2,361.3,383.2z M407.4,407.7c10,60.6,57.5,109.6,119.4,121.1l-4.4-11.5
		c-51.7-11.6-93.5-53.4-105-106.7L407.4,407.7C407.4,407.7,407.4,407.7,407.4,407.7z M552.7,191.5v191.7l-34.6-34.6l-136.6,28.8
		c0,0-1.5-1.4,0-1.4l128-40.4L552.7,191.5C552.7,191.5,552.7,191.5,552.7,191.5z M528.2,236.2c-61.9,10.1-110.8,59.1-120.8,119.6
		l11.5-4.3c11.5-51.9,53.2-93.7,105-103.8L528.2,236.2C528.2,236.2,528.2,236.2,528.2,236.2z"/>
</g>
</svg>
