<?xml version="1.0" encoding="utf-8"?>
<!-- Generator: Adobe Illustrator 22.0.0, SVG Export Plug-In . SVG Version: 6.00 Build 0)  -->
<svg version="1.1" id="svg2" xmlns:svg="http://www.w3.org/2000/svg"
	 xmlns="http://www.w3.org/2000/svg" xmlns:xlink="http://www.w3.org/1999/xlink" x="0px" y="0px" viewBox="0 0 388 538"
	 style="enable-background:new 0 0 388 538;" xml:space="preserve">
<style type="text/css">
	.st0{font-family:'STBaoliSC-Regular';}
	.st1{font-size:36px;}
	.st2{font-family:'STKaiti';}
	.st3{font-size:20px;}
	.st4{fill:#FCCC0F;}
	.st5{fill:none;stroke:#000000;stroke-width:1.5625;}
	.st6{fill:#162C77;}
	.st7{fill:#FFFFFF;}
	.st8{fill:none;stroke:#4C4C4C;stroke-width:1.5625;}
	.st9{fill:#E50F07;}
	.st10{fill:none;stroke:#7F7F7F;stroke-width:1.5625;}
	.st11{fill:none;stroke:#8C8C8C;stroke-width:1.5625;stroke-linecap:round;}
	.st12{fill:#727272;}
	.st13{fill:none;stroke:#595959;stroke-width:1.5625;}
	.st14{fill:#4C4C4C;}
	.st15{fill:#F9DB11;}
	.st16{fill:none;stroke:#3F3F3F;stroke-width:1.5625;stroke-linecap:round;}
	.st17{fill:#E00C05;}
	.st18{fill:none;stroke:#727272;stroke-width:1.5625;stroke-linecap:round;}
	.st19{fill:#6B0000;}
</style>
<text transform="matrix(0.9411 0 0 1 100.835 284.0864)" class="st0 st1">建立中情局*</text>
<text transform="matrix(1 0 0 1 94 321)" class="st2 st3">本回合苏方揭开手牌，</text>
<text transform="matrix(1 0 0 1 64.0002 354)" class="st2 st3">然后美方可以当作已打出一张</text>
<text transform="matrix(1 0 0 1 79.7034 378)" class="st2 st3">1点的行动牌以执行行动。</text>
<g id="g3365" transform="matrix(0.2866632,0,0,0.2866637,109.97197,186.82272)">
	<g id="g2018" transform="translate(4.31437,5.01977)">
		<path id="path13" class="st4" d="M291,176.2C429.3,175,540.4,61.9,539.2-76.3C538-214.6,424.9-325.7,286.6-324.5
			C148.3-323.3,37.2-210.3,38.4-72C39.6,66.3,152.7,177.4,291,176.2L291,176.2z"/>
		<path id="path15" class="st5" d="M291,176.2C429.3,175,540.4,61.9,539.2-76.3C538-214.6,424.9-325.7,286.6-324.5
			C148.3-323.3,37.2-210.3,38.4-72C39.6,66.3,152.7,177.4,291,176.2L291,176.2z"/>
		<path id="path17" class="st6" d="M290.9,167.5c133.5-1.2,240.7-110.3,239.5-243.8C529.3-209.7,420.2-317,286.7-315.8
			C153.2-314.7,46-205.5,47.2-72.1C48.3,61.4,157.5,168.6,290.9,167.5L290.9,167.5z"/>
	</g>
	<path id="path85" class="st7" d="M228.4-153.6c6.8,8.8-11.8-12.8-12.5,0.5c-0.7,13.3,4.5,7.2,2.5,10.5c-2,3.2,17,4.3,10-5.7
		c-6.9-10,0.8,4.4,6.9,6c6.1,1.6,9.3,1.5,7.6-3.7c-1.6-5.2-1.7-13.3-5.7-11.6C233.3-156,223.6-160,228.4-153.6L228.4-153.6z"/>
	<path id="path87" class="st8" d="M228.4-153.6c6.8,8.8-11.8-12.8-12.5,0.5c-0.7,13.3,4.5,7.2,2.5,10.5c-2,3.2,17,4.3,10-5.7
		c-6.9-10,0.8,4.4,6.9,6c6.1,1.6,9.3,1.5,7.6-3.7c-1.6-5.2-1.7-13.3-5.7-11.6C233.3-156,223.6-160,228.4-153.6L228.4-153.6z"/>
	<path id="path89" class="st7" d="M278-154.8c6.8,8.8-11.8-12.8-12.5,0.5c-0.7,13.3,4.5,7.2,2.5,10.5c-2,3.2,17,4.3,10-5.7
		c-6.9-10,0.8,4.4,6.9,6c6.1,1.6,9.3,1.5,7.6-3.7c-1.7-5.2-1.7-13.3-5.8-11.6C282.8-157.3,273.1-161.2,278-154.8
		C278-154.8,278-154.8,278-154.8z"/>
	<path id="path91" class="st8" d="M278-154.8c6.8,8.8-11.8-12.8-12.5,0.5c-0.7,13.3,4.5,7.2,2.5,10.5c-2,3.2,17,4.3,10-5.7
		c-6.9-10,0.8,4.4,6.9,6c6.1,1.6,9.3,1.5,7.6-3.7c-1.7-5.2-1.7-13.3-5.8-11.6C282.8-157.3,273.1-161.2,278-154.8
		C278-154.8,278-154.8,278-154.8z"/>
	<path id="path93" class="st7" d="M329.1-155.7c6.8,8.9-11.8-12.8-12.5,0.5c-0.7,13.3,4.5,7.2,2.5,10.5c-2,3.2,17,4.3,10-5.7
		c-6.9-10,0.9,4.4,6.9,6c6.1,1.6,9.3,1.5,7.6-3.7c-1.7-5.2-1.7-13.3-5.7-11.6C333.9-158.1,324.2-162.1,329.1-155.7
		C329.1-155.7,329.1-155.7,329.1-155.7z"/>
	<path id="path95" class="st8" d="M329.1-155.7c6.8,8.9-11.8-12.8-12.5,0.5c-0.7,13.3,4.5,7.2,2.5,10.5c-2,3.2,17,4.3,10-5.7
		c-6.9-10,0.9,4.4,6.9,6c6.1,1.6,9.3,1.5,7.6-3.7c-1.7-5.2-1.7-13.3-5.7-11.6C333.9-158.1,324.2-162.1,329.1-155.7
		C329.1-155.7,329.1-155.7,329.1-155.7z"/>
	<path id="path97" class="st9" d="M253.4-154.2c3.1,4,1.2,0.9-2.1-1.5c-4-2.9-10-5.2-10.4,2c-0.7,13.3,4.5,7.2,2.5,10.5
		c-2,3.2,16.9,4.3,10-5.7c-6.9-10,0.9,4.4,6.9,6c6.1,1.6,9.3,1.5,7.6-3.7c-1.7-5.2-1.7-13.3-5.7-11.6
		C258.2-156.6,248.5-160.6,253.4-154.2C253.4-154.2,253.4-154.2,253.4-154.2z"/>
	<path id="path99" class="st5" d="M253.4-154.2c3.1,4,1.2,0.9-2.1-1.5c-4-2.9-10-5.2-10.4,2c-0.7,13.3,4.5,7.2,2.5,10.5
		c-2,3.2,16.9,4.3,10-5.7c-6.9-10,0.9,4.4,6.9,6c6.1,1.6,9.3,1.5,7.6-3.7c-1.7-5.2-1.7-13.3-5.7-11.6
		C258.2-156.6,248.5-160.6,253.4-154.2C253.4-154.2,253.4-154.2,253.4-154.2z"/>
	<path id="path101" class="st9" d="M305-155c6.8,8.8-11.8-12.8-12.5,0.5c-0.7,13.3,4.5,7.2,2.5,10.4c-2,3.2,17,4.3,10-5.7
		c-6.9-10,0.8,4.4,6.9,6c6,1.6,9.3,1.5,7.6-3.7c-1.7-5.2-1.7-13.3-5.7-11.6C309.8-157.5,300.1-161.4,305-155L305-155L305-155z"/>
	<path id="path103" class="st5" d="M305-155c6.8,8.8-11.8-12.8-12.5,0.5c-0.7,13.3,4.5,7.2,2.5,10.4c-2,3.2,17,4.3,10-5.7
		c-6.9-10,0.8,4.4,6.9,6c6,1.6,9.3,1.5,7.6-3.7c-1.7-5.2-1.7-13.3-5.7-11.6C309.8-157.5,300.1-161.4,305-155L305-155L305-155z"/>
	<path id="path105" class="st9" d="M353.3-155.5c6.8,8.9-11.8-12.8-12.5,0.5c-0.7,13.3,4.5,7.2,2.5,10.4c-2,3.2,17,4.3,10-5.7
		c-6.9-10,0.8,4.4,6.9,6c6,1.6,9.3,1.5,7.6-3.7c-1.7-5.2-1.7-13.3-5.7-11.6C358.1-157.9,348.4-161.9,353.3-155.5L353.3-155.5z"/>
	<path id="path107" class="st5" d="M353.3-155.5c6.8,8.9-11.8-12.8-12.5,0.5c-0.7,13.3,4.5,7.2,2.5,10.4c-2,3.2,17,4.3,10-5.7
		c-6.9-10,0.8,4.4,6.9,6c6,1.6,9.3,1.5,7.6-3.7c-1.7-5.2-1.7-13.3-5.7-11.6C358.1-157.9,348.4-161.9,353.3-155.5L353.3-155.5z"/>
	<path id="path109" class="st7" d="M243.3-159.9c0,0,12.3,8.3,19.3,3.4c1.7-1.2-12.5,8.9,4.9,1.1c12.7-5.7,2.6,16.3,14.9-0.7
		c6-8.2,0.2,5,13.4,9.8c0,0-3.9-8.4,0.5-11.3c7.3-4.8,3.2,11,16.7-1.8c0,0,3.3,7.6,6.1,4.8c2.8-2.8,1.8-3.8,5-2.7
		c3.2,1.2,3.1-1.2,9.8,0.6c3.9,1.1,2.6,1.3,7.5,3.9c0.1-9.7-4.2-11.1-8.6-13.6c-4.3-2.5-6.8-23.6-8.3-27c-2.5-5.8,0.8-6.9-2-21.1
		c-2.7-14.3-19.9-16.1-23.9-17.1c-4-1-3.8-0.4-14.5-0.5c0,0-31.9,4.6-7,23.5c9.6,7.3,6.3,15.8,6.3,15.8c0,4.5-12.3,11.9-16.7,16.3
		c-5.4,5.4-8.4,15.1-23.1,16L243.3-159.9C243.3-159.9,243.3-159.9,243.3-159.9z"/>
	<path id="path111" class="st10" d="M243.3-159.9c0,0,12.3,8.3,19.3,3.4c1.7-1.2-12.5,8.9,4.9,1.1c12.7-5.7,2.6,16.3,14.9-0.7
		c6-8.2,0.2,5,13.4,9.8c0,0-3.9-8.4,0.5-11.3c7.3-4.8,3.2,11,16.7-1.8c0,0,3.3,7.6,6.1,4.8c2.8-2.8,1.8-3.8,5-2.7
		c3.2,1.2,3.1-1.2,9.8,0.6c3.9,1.1,2.6,1.3,7.5,3.9c0.1-9.7-4.2-11.1-8.6-13.6c-4.3-2.5-6.8-23.6-8.3-27c-2.5-5.8,0.8-6.9-2-21.1
		c-2.7-14.3-19.9-16.1-23.9-17.1c-4-1-3.8-0.4-14.5-0.5c0,0-31.9,4.6-7,23.5c9.6,7.3,6.3,15.8,6.3,15.8c0,4.5-12.3,11.9-16.7,16.3
		c-5.4,5.4-8.4,15.1-23.1,16L243.3-159.9C243.3-159.9,243.3-159.9,243.3-159.9z"/>
	<path id="path113" class="st11" d="M282.7-215.2c0,0,1.6,2.4,4,3.6 M280-220.4c1.8,2.5,3.9,4.5,5.5,5.1"/>
	<path id="path115" class="st11" d="M279.6-220c2.5,3.8,4.7,6.1,7.8,6.9"/>
	<path id="path117" class="st11" d="M302.3-178.2c0.2,5.2,0.2,3.8,1.9,5.2c1.6,1.4,5.8-5.7,5.8-8.1"/>
	<path id="path119" class="st11" d="M302.8-218.4c2,0.7,3.2,2.4,2.8,3.6 M305.2-220.1c2.2,0.5,2.8,0.8,3.2,2.8 M308.4-221.1
		c2.4,0,2.8,0.6,3,1.6"/>
	<path id="path121" class="st11" d="M295.5-205.3c0.4-3.4-1.4,2.4,1.4,3.6"/>
	<path id="path123" class="st11" d="M277.7-209.2c3.8,2.4,8.2,8.1,8.3,12.1 M281.3-208.4c1.8,1.7,5,4.7,5.4,6.3"/>
	<path id="path125" class="st11" d="M307.3-203.6c0.6,4.2,0.2,3.8,2.9,5.4c2.6,1.6,3.6-5.1,2.6-8.7 M314.6-207.2
		c3.3,5.2,6.1,6.8,4-8.1 M317.1-198.4c1.3,4.4,5.3,4.8,2.8-4.9 M308.3-192.7c1.6,5.6,4.8-0.9,4.4-4.9 M311.1-189.5
		c-1.7-5.6,2.9,9.2,4.4-2.9 M299.7-182c0-4.8,2.1,7.4,4,4.7c0.5-0.6,0.9-2.2,1.3-5.2 M278.9-182c-0.5-7.2,1.7,13.3,6.4-2.5
		 M269.4-173.4c0.8-4.4-1.9,9.7,4.8-0.8 M288.3-172.4c-1.3-6.8-1.1,16.5,7.2-0.1 M278.3-164.2c-0.4-3.6,2.5,6.4,6.4-1.7
		 M312.4-175.8c2.9,6.8,5.7,7.2,7.2,0.7 M317.6-183.5c-1.3-7.6,3.4,14.5,5.6-1.3 M301.2-165.6c-0.9-7.6,2.6,20.1,6.9,2 M320.5-169.8
		c-2.5-7.2,4.1,12.4,6.4-3.3 M313.3-166.2c-2.5-6.8,4.6,13.7,6.9,1.5 M288.8-161.9c-1.6-4.4,0.9,10.1,5.6,0.4"/>
	<path id="path127" class="st12" d="M279.4-222c-0.1,0.8-0.4,1.7-0.4,1.7s3.7,0,8.8,2.6c3.3,1.7,5.1-2.5,5.1-1.8
		c0.2-2.6-0.1-4.5,0.6-6c0,0-2.3,0-2.9,0.1c-2.5,0.4-1.7,0-3.3,0C287.3-225.2,280.2-226.4,279.4-222C279.4-222,279.4-222,279.4-222z
		"/>
	<path id="path129" class="st4" d="M287.8-220.2c1.5,0,2.2-0.9,2.7-1.7c0.4-0.6,0.7-1.5,0.3-1.8c-0.5-0.3-2.2,0.1-3,0.1
		c-0.9,0-1.8-0.2-2.3,0.3c-0.3,0.3-0.4,1.1-0.4,1.5C285.1-221,286.3-220.2,287.8-220.2C287.8-220.2,287.8-220.2,287.8-220.2z"/>
	<path id="path131" class="st4" d="M279.6-208.9c1.7,1.7,12.6,2,10.9,0.5c-1.7-1.5-5.7-1.6-6.6-4c0,0-6.7-11.6-14.6-12.9
		c-7.9-1.3-0.9-0.2-1.3-0.3c-3.5-0.3-4.3,0-5.3,0.7c-7,1.1-16.2-0.7-7.4,18.1c0.8,1.8-0.8-2.5,1.6-2.7
		C256.9-209.6,279.1-209.3,279.6-208.9C279.6-208.9,279.6-208.9,279.6-208.9z"/>
	<path id="path133" class="st13" d="M279.6-208.9c1.7,1.7,12.6,2,10.9,0.5c-1.7-1.5-5.7-1.6-6.6-4c0,0-6.7-11.6-14.6-12.9
		c-7.9-1.3-0.9-0.2-1.3-0.3c-3.5-0.3-4.3,0-5.3,0.7c-7,1.1-16.2-0.7-7.4,18.1c0.8,1.8-0.8-2.5,1.6-2.7
		C256.9-209.6,279.1-209.3,279.6-208.9L279.6-208.9z"/>
	<path id="path135" class="st8" d="M288-208c-15.4-3.6-22.9-9.9-25.3-17 M255.8-206.6c0,0-0.3-4.1,1.5-4.4c1.8-0.3,5,0.1,20-0.7"/>
	<path id="path137" d="M288.4-221.3c0.4,0,0.8-0.4,0.8-0.8c0-0.4-0.4-0.8-0.8-0.8c-0.4,0-0.8,0.4-0.8,0.8
		C287.6-221.6,287.9-221.3,288.4-221.3C288.4-221.3,288.4-221.3,288.4-221.3z"/>
	<path id="path139" class="st14" d="M269.9-220.8c0.1,0.1,0,0.3,0,0.4c0.1,0.3,0.4,0.4,0.6,0.7c0.2,0.5,0.6,0.7,0.9,1.1
		c0.7,0.9,1.7,2.1,2.1,2.4c0.2-0.7-1.4-2.6-2-3.1c-0.4-0.4-0.8-1.1-1.2-1.9c-0.3,0-0.7-0.5-1-0.6
		C269.3-221.3,269.6-221.1,269.9-220.8L269.9-220.8z"/>
	<path id="path141" class="st15" d="M99.1,43.1c0,0,65,120.2,204.9,110c135.2-9.8,181.7-108.7,186.1-122.5c1.4-4.4,2.9-7.8-0.3-10.7
		c-6.7-6.1-27-8.8-30.4-8.5c-7.3,0.8-6.7,6.6-4.8,8.4c2,1.8,5.1,0.4,4.5,1.7c-37.4,80-126.9,98.6-154.3,100.1
		c0,0-112.4,15.8-175.7-92.9c0,0,8.8-14.7-6-14.3c-5.6,0.1-10.5,13.5-20.5,17.4C102.6,31.9,94.9,36.8,99.1,43.1L99.1,43.1L99.1,43.1
		z"/>
	<path id="path143" class="st16" d="M100.7,33.7c0,0,10.9,0,6.6,11.7c-1.5,4.2,10.3-13.2,21.8-16.2 M491.3,22.1c0,0-1.1-1.3-2.8-1.6
		c-2.2-0.4-5.8,1.6-5.1,6.1c0.1,0.9,0.7,1.5,1.1,1.8c4.1,3.2-10.1-5.6-25.4-6.8"/>
	<path id="path145" class="st7" d="M82.8-29.1c-5.9,2.8-5.8,8.2-5,11.6c1.5,6.4,7.5,10.4,16.7,8.2c8.3-2,14-6.4,11.9-15.2
		c-0.7-3.1-3.5-8.1-12.1-7.8l-1.1-4.6c13.8-1.2,16.9,9.5,17.6,12.1c1.9,8-1.5,17.1-15,20.3C85-1.8,76.1-6.2,73.6-16.5
		c-2.2-9.1,2.4-15.1,8.1-17.2L82.8-29.1C82.8-29.1,82.8-29.1,82.8-29.1z"/>
	<path id="path147" class="st7" d="M104.4-67.7l2,26.7l-36.1,2.7l-2-26.3l4.3-0.3l1.6,21.4l11.1-0.8l-1.5-19.8l4.3-0.3l1.5,19.8
		l12.1-0.9l-1.7-21.8L104.4-67.7C104.4-67.7,104.4-67.7,104.4-67.7z"/>
	<path id="path149" class="st7" d="M70.2-95.9l0.4-4.7l36.1,2.9l-0.4,5.5l-30.7,16l0,0.1l29.2,2.3l-0.4,4.7L68.3-72l0.5-5.8
		l30.6-15.7l0-0.1L70.2-95.9L70.2-95.9z"/>
	<path id="path151" class="st7" d="M71.3-105.2l6.7-28.7l4.2,1l-2.8,11.9l31.1,7.3l-1.1,4.8l-31.1-7.3l-2.8,11.9L71.3-105.2
		C71.3-105.2,71.3-105.2,71.3-105.2z"/>
	<path id="path153" class="st7" d="M115.1-129.8l-1.8,4.5l-33.7-13.5l6.2-15.6c2.2-5.5,6.3-10.3,13.5-7.4c5,2,5.8,5.2,6.2,7.9
		c1.6-1.6,3.2-3.2,7.9-1.5l6.2,2.2c1.9,0.7,2.7,0.8,4.1-0.3l0.7,0.3l-2.2,5.6c-2.3-0.2-7.5-2.1-8.8-2.6c-2.8-1.1-6.2-1.8-8.4,3.6
		l-4.4,11L115.1-129.8C115.1-129.8,115.1-129.8,115.1-129.8z M96.7-137.2l4.2-10.6c1.3-3.3,1.9-7.2-3.1-9.2c-5.2-2.1-7.1,1.5-8,3.8
		l-4.5,11.4L96.7-137.2C96.7-137.2,96.7-137.2,96.7-137.2z"/>
	<path id="path155" class="st7" d="M118.7-163.6l7.1,8.7l-2.6,4.3L99-180.9l2.8-4.8l37.9,7.3l-2.7,4.6l-10.9-2.3L118.7-163.6
		C118.7-163.6,118.7-163.6,118.7-163.6z M121.5-176.8l-16.4-3.6l-0.1,0.1l10.7,13.1L121.5-176.8
		C121.5-176.8,121.5-176.8,121.5-176.8z"/>
	<path id="path157" class="st7" d="M139.3-184.2l11.5-14.4l3.4,2.7l-14.5,18.2l-28.4-22.6l3.1-3.8L139.3-184.2L139.3-184.2z"/>
	<path id="path159" class="st7" d="M168-208.9l-3.6,3.3l-24.5-26.7l3.6-3.3L168-208.9L168-208.9z"/>
	<path id="path161" class="st7" d="M168.3-255.2l3.8-2.8l21.5,29.2l-4.4,3.3L157-238.2l-0.1,0.1l17.4,23.6l-3.8,2.8L149-241l4.7-3.4
		l32,12.8l0.1-0.1L168.3-255.2C168.3-255.2,168.3-255.2,168.3-255.2z"/>
	<path id="path163" class="st7" d="M176-260.5l26-13.7l2,3.8l-10.9,5.7l14.9,28.2l-4.3,2.3l-14.9-28.2l-10.8,5.7L176-260.5
		L176-260.5z"/>
	<path id="path165" class="st7" d="M244.1-250.9l-25.2,9l-12.1-34.2l24.9-8.9l1.5,4.1l-20.3,7.2l3.7,10.5l18.7-6.6l1.5,4.1
		l-18.7,6.6l4.1,11.4l20.6-7.3L244.1-250.9C244.1-250.9,244.1-250.9,244.1-250.9z"/>
	<path id="path167" class="st7" d="M249.3-256.2l18-3.7l0.9,4.2l-22.8,4.7l-7.4-35.5l4.8-1L249.3-256.2
		C249.3-256.2,249.3-256.2,249.3-256.2z"/>
	<path id="path169" class="st7" d="M272.6-260.3l18.3-1.5l0.4,4.3l-23.2,1.9l-3-36.1l4.9-0.4L272.6-260.3
		C272.6-260.3,272.6-260.3,272.6-260.3z"/>
	<path id="path171" class="st7" d="M297.4-257l-4.9,0l0.1-36.3l4.9,0L297.4-257L297.4-257z"/>
	<path id="path173" class="st7" d="M318.9-275l15.8,1.9l-2.3,19.3l-3.2-0.4l-0.6-4.8c-2.9,3.1-7.6,4.8-12.5,4.2
		c-6.2-0.7-8.9-3.3-10.5-5.4c-4.9-5.9-4.3-12.1-3.9-15.9c1-8.8,7.5-18,19.3-16.6c6.7,0.8,13.7,5.5,13.8,13.7l-4.7-0.6
		c-0.8-6.5-5.9-8.4-9.9-8.9c-6.5-0.8-12.4,3.8-13.5,13.2c-0.9,7.3,0.6,15.1,10.2,16.3c1.8,0.2,4.7,0.4,7.6-1.4
		c3.5-2.1,4.6-5.2,5.1-9.1l-11.2-1.3L318.9-275C318.9-275,318.9-275,318.9-275z"/>
	<path id="path175" class="st7" d="M361.3-245.3l-25.7-7.6l10.3-34.8l25.3,7.5L370-276l-20.6-6.1l-3.1,10.7l19,5.6l-1.2,4.2l-19-5.6
		l-3.4,11.6l21,6.2L361.3-245.3C361.3-245.3,361.3-245.3,361.3-245.3z"/>
	<path id="path177" class="st7" d="M400.4-266.9l4.3,2.1l-15.7,32.7l-5-2.4l-3.9-34.4l-0.1,0l-12.7,26.4l-4.3-2.1l15.7-32.7l5.2,2.5
		l3.6,34.3l0.1,0L400.4-266.9L400.4-266.9L400.4-266.9z"/>
	<path id="path179" class="st7" d="M426.9-236.6c2.6-6-1.1-10-3.9-12c-5.4-3.8-12.5-2.9-18,4.9c-4.9,7-6.3,14.1,1.1,19.3
		c2.6,1.8,8,3.8,14.2-2.1l3.9,2.7c-9.6,10-19,4.1-21.2,2.5c-6.7-4.8-10.2-13.8-2.2-25.2c6.5-9.1,16.1-11.7,24.7-5.6
		c7.6,5.4,8.2,12.9,5.3,18.3L426.9-236.6L426.9-236.6L426.9-236.6z"/>
	<path id="path181" class="st7" d="M436.1-193.5l-19.2-18.7l25.3-26l18.9,18.4l-3,3.1l-15.4-15l-7.8,8l14.2,13.8l-3,3.1l-14.2-13.8
		l-8.5,8.7l15.7,15.2L436.1-193.5C436.1-193.5,436.1-193.5,436.1-193.5z"/>
	<path id="path183" class="st7" d="M457-183.6l-10.9,2.6l-2.8-4.2l37.8-8.5l3,4.6L461-158.1l-2.9-4.5l6.8-8.8L457-183.6
		C457-183.6,457-183.6,457-183.6z M467.6-175.3l10.4-13.2l-0.1-0.1l-16.5,3.9L467.6-175.3C467.6-175.3,467.6-175.3,467.6-175.3z"/>
	<path id="path185" class="st7" d="M484.7-152.5l6.5,14.5l-17.7,7.9l-1.3-2.9l3.8-3c-4.1-0.9-8-4.1-10-8.6
		c-2.5-5.7-1.7-9.4-0.8-11.8c2.6-7.2,8.2-9.9,11.7-11.4c8.1-3.6,19.3-2.7,24.1,8.1c2.8,6.2,2.3,14.6-4.7,18.9l-1.9-4.3
		c5.1-4,4.2-9.4,2.6-13c-2.6-6-9.6-8.7-18.3-4.9c-6.7,3-12.7,8.3-8.8,17.1c0.7,1.7,2.1,4.3,5.1,5.8c3.6,1.9,6.9,1.3,10.4-0.3
		l-4.6-10.3L484.7-152.5L484.7-152.5L484.7-152.5z"/>
	<path id="path187" class="st7" d="M480.6-101.7l-6.7-25.9l35.1-9.1l6.6,25.6l-4.2,1.1l-5.4-20.8l-10.8,2.8l5,19.2l-4.2,1.1l-5-19.2
		l-11.7,3l5.5,21.2L480.6-101.7C480.6-101.7,480.6-101.7,480.6-101.7z"/>
	<path id="path189" class="st7" d="M519.2-80.2l0.5,4.7L483.6-72l-0.5-5.5l27.4-21.2l0-0.1L481.3-96l-0.5-4.7l36.1-3.5l0.6,5.8
		l-27.4,20.9l0,0.1L519.2-80.2L519.2-80.2z"/>
	<path id="path193" class="st7" d="M477.6-22.6l1.1-4.8l14.2,3.3l24.2-8.4l-1.3,5.6l-19.3,6.2l14.6,14.1l-1.3,5.6l-18-18.2
		L477.6-22.6C477.6-22.6,477.6-22.6,477.6-22.6z"/>
	<path id="path195" class="st9" d="M146.5,64l-9.6,8.3c-3,2.6-7.3,3-10.8-1.1c-3.5-4-2.4-7.9,0.4-10.3l9.9-8.6l1.7,2l-9.3,8.1
		c-3.2,2.8-2.4,5.5-0.9,7.3c1.6,1.8,4.2,3.2,7.5,0.4l9.4-8.1L146.5,64C146.5,64,146.5,64,146.5,64z"/>
	<path id="path197" class="st9" d="M158.4,75.8l1.8,1.8l-13.7,14.1l-2.1-2.1l3.9-18.3l0,0l-11.1,11.4l-1.8-1.8L149,66.8l2.3,2.2
		l-4,18.2l0,0L158.4,75.8C158.4,75.8,158.4,75.8,158.4,75.8z"/>
	<path id="path199" class="st9" d="M152.1,96.5l-2-1.7L163,79.9l2,1.7L152.1,96.5C152.1,96.5,152.1,96.5,152.1,96.5z"/>
	<path id="path201" class="st9" d="M166.2,82.9l12.6,9.8l-1.4,1.9l-5.2-4.1l-10.6,13.7l-2.1-1.6l10.6-13.7l-5.3-4.1L166.2,82.9
		C166.2,82.9,166.2,82.9,166.2,82.9z"/>
	<path id="path203" class="st9" d="M181.2,117.7l-12.1-8l10.8-16.4l12,7.9l-1.3,2l-9.7-6.4l-3.3,5l9,5.9l-1.3,2l-9-5.9l-3.6,5.5
		l9.9,6.5L181.2,117.7C181.2,117.7,181.2,117.7,181.2,117.7z"/>
	<path id="path205" class="st9" d="M194.5,102.8l7,3.7c4.5,2.4,5.5,7.3,2.8,12.3c-2.1,3.9-6.4,8-12.1,5l-6.9-3.7L194.5,102.8
		C194.5,102.8,194.5,102.8,194.5,102.8z M188.7,119.4l4.5,2.4c3,1.6,6.3,0.3,8.6-4.1c2.3-4.4,1.5-7.6-1.7-9.3l-4.4-2.3L188.7,119.4
		C188.7,119.4,188.7,119.4,188.7,119.4z"/>
	<path id="path207" class="st9" d="M225.3,123.1c0.9-2.9-1.1-4.7-3.2-5.4c-1.6-0.6-4.4-1.1-5.4,1.7c-0.6,1.6,0.3,2.5,1.3,3.1
		l4.8,3.2c2.2,1.4,3.4,3.6,2.3,6.5c-1.6,4.4-6.1,4.1-9.3,2.9c-3.4-1.3-4.4-2.8-4.9-3.8c-1-2-0.8-3.6-0.1-5.4l2.3,0.9
		c-1.2,3.3,1.1,5.3,3.5,6.2c1.8,0.7,5,1.3,6-1.3c0.7-1.9,0-2.9-2.7-4.7l-3.4-2.3c-1.1-0.7-3.5-2.6-2.3-5.8c1.1-2.9,4-5,8.4-3.3
		c6.4,2.4,5.6,6.5,5,8.5L225.3,123.1C225.3,123.1,225.3,123.1,225.3,123.1z"/>
	<path id="path209" class="st9" d="M231.1,119.1l15.4,4.1l-0.6,2.3l-6.4-1.7l-4.5,16.7l-2.6-0.7l4.5-16.7l-6.4-1.7L231.1,119.1
		C231.1,119.1,231.1,119.1,231.1,119.1z"/>
	<path id="path211" class="st9" d="M249,137.8l-3,5.3l-2.7-0.5l10.6-18.1l3,0.5l3.7,20.6l-2.9-0.5l-1-6L249,137.8
		C249,137.8,249,137.8,249,137.8z M256.2,136.6l-1.4-9l-0.1,0l-4.5,8L256.2,136.6C256.2,136.6,256.2,136.6,256.2,136.6z"/>
	<path id="path213" class="st9" d="M263.9,126.1l15.9,1.2l-0.2,2.3l-6.6-0.5l-1.3,17.2l-2.6-0.2l1.3-17.2l-6.6-0.5L263.9,126.1
		L263.9,126.1z"/>
	<path id="path215" class="st9" d="M296.6,146.8l-14.5,0.2l-0.2-19.6l14.3-0.2l0,2.4l-11.7,0.1l0.1,6l10.7-0.1l0,2.4l-10.7,0.1
		l0.1,6.6l11.8-0.1L296.6,146.8L296.6,146.8L296.6,146.8z"/>
	<path id="path217" class="st9" d="M311.3,131.7c-0.4-3-3-3.7-5.2-3.5c-1.7,0.1-4.4,0.9-4.2,3.8c0.2,1.7,1.4,2.1,2.5,2.3l5.7,0.8
		c2.6,0.4,4.6,1.7,4.9,4.8c0.4,4.6-3.8,6.3-7.1,6.6c-3.6,0.3-5.1-0.6-6.1-1.3c-1.8-1.3-2.3-3-2.4-4.8l2.5-0.2
		c0.3,3.5,3.3,4.3,5.8,4.1c1.9-0.2,5.1-1,4.8-3.8c-0.2-2-1.2-2.6-4.5-3.1l-4.1-0.6c-1.3-0.2-4.3-0.8-4.6-4.2
		c-0.3-3.1,1.4-6.2,6.2-6.7c6.8-0.6,7.9,3.4,8.2,5.6L311.3,131.7C311.3,131.7,311.3,131.7,311.3,131.7z"/>
	<path id="path219" class="st9" d="M336.2,142.4c-7.2,1.4-10.6-4.1-11.4-8.3c-0.8-4.2,0.2-10.6,7.4-12c7.2-1.4,10.6,4.1,11.4,8.3
		C344.4,134.5,343.4,141,336.2,142.4L336.2,142.4z M332.6,124.4c-4.2,0.8-6,4.6-5.1,9.2c0.9,4.5,4.1,7.3,8.3,6.5
		c4.2-0.8,6-4.6,5.1-9.2C340,126.4,336.8,123.6,332.6,124.4L332.6,124.4z"/>
	<path id="path221" class="st9" d="M352.3,138.1l-2.5,0.7l-5.4-18.9l13.1-3.8l0.6,2.3l-10.5,3l1.7,5.8l9.3-2.7l0.6,2.3l-9.3,2.7
		L352.3,138.1C352.3,138.1,352.3,138.1,352.3,138.1z"/>
	<path id="path223" class="st9" d="M374.6,124.7l0.3,6.1l-2.5,1.1l-0.8-21l2.8-1.2l14.2,15.3l-2.7,1.1l-4-4.5L374.6,124.7
		C374.6,124.7,374.6,124.7,374.6,124.7z M380,119.8l-6-6.8l0,0l0.5,9.2L380,119.8L380,119.8L380,119.8z"/>
	<path id="path225" class="st9" d="M405.9,115.7l-5.6-10.2c-0.3-0.5-1.4-2.7-2.3-4.3l0,0l3.1,17.1l-2.3,1.3L386,107.8l0,0
		c0.9,1.6,2.1,3.7,2.4,4.2l5.6,10.2l-2.3,1.2l-9.5-17.2l3.3-1.8l12.9,11.8l0,0L395.4,99l3.3-1.8l9.5,17.2L405.9,115.7L405.9,115.7
		L405.9,115.7z"/>
	<path id="path227" class="st9" d="M424.7,103.1l-11.9,8.3l-11.3-16.1l11.7-8.2l1.3,1.9l-9.5,6.7l3.5,4.9l8.8-6.2l1.4,1.9l-8.8,6.2
		l3.8,5.4l9.7-6.8L424.7,103.1L424.7,103.1L424.7,103.1z"/>
	<path id="path229" class="st17" d="M430.6,98.3l-2,1.7l-12.8-14.9l6.9-5.9c2.4-2.1,5.6-3.4,8.3-0.2c1.9,2.2,1.5,4,1,5.3
		c1.2-0.4,2.3-0.7,4.2,1.3l2.5,2.6c0.7,0.8,1.1,1,2,0.8l0.3,0.3l-2.5,2.1c-1.1-0.7-3.1-2.9-3.6-3.4c-1.1-1.2-2.5-2.4-4.9-0.4
		l-4.9,4.2L430.6,98.3L430.6,98.3L430.6,98.3z M423.6,90.2l4.7-4c1.5-1.3,2.7-3,0.8-5.2c-2-2.3-3.8-1-4.8-0.2l-5,4.3L423.6,90.2
		C423.6,90.2,423.6,90.2,423.6,90.2z"/>
	<path id="path231" class="st9" d="M445.8,84.3l-1.9,1.9L430,72.3l1.9-1.9L445.8,84.3L445.8,84.3z"/>
	<path id="path233" class="st9" d="M448.2,61.2c-3.1-1.7-5.4,0.1-6.7,1.5c-2.3,2.7-2.2,6.6,1.7,10c3.5,3,7.3,4.1,10.4,0.4
		c1.1-1.3,2.4-4.1-0.4-7.8l1.7-2c4.9,5.7,1.2,10.4,0.3,11.6c-2.9,3.4-8,4.8-13.7-0.1c-4.6-3.9-5.5-9.3-1.8-13.6
		c3.3-3.8,7.4-3.8,10.1-1.9L448.2,61.2C448.2,61.2,448.2,61.2,448.2,61.2z"/>
	<path id="path235" class="st9" d="M460,58.8l3.5,4.9l-1.5,2.3l-12-17.2l1.7-2.5l20.2,5.3l-1.6,2.4l-5.8-1.6L460,58.8L460,58.8z
		 M462,51.7l-8.8-2.5l0,0l5.3,7.5L462,51.7C462,51.7,462,51.7,462,51.7z"/>
	<path id="path237" class="st7" d="M324.1-158c5.9,5.6,8.1,5.8,2.3-8L324.1-158L324.1-158z"/>
	<path id="path239" class="st11" d="M324.1-158c5.9,5.6,8.1,5.8,2.3-8L324.1-158L324.1-158z"/>
	<path id="path241" class="st18" d="M292.1-224.4c-0.2,0,2.9,1.1,5.5-2.1 M291.8-225.1c-3.4,0.8,2.7,0.5,2.9-2.5"/>
	<path id="path243" class="st11" d="M279.2-209.2c3,2.2,6.9,7.3,7.4,8.9"/>
	<path id="path245" class="st11" d="M303.6-188.3c0-4.2,1.6,4.2,3.2,5c0.7,0.4,1.5-0.8,2.1-5.5"/>
	<path id="path19" class="st7" d="M189.1-135.3c3.9,1.4,8.1,9.2,8.1,13l1.5,170c0,15.1,16.2,25.5,30,25.5h38.9
		c12.6,0,21.5,1.1,25.5,16.1c4-15,12.9-16.1,25.5-16.1h39c13.8,0,30-10.4,30-25.5l1.5-170c0-3.7,4.3-11.5,8.1-13H293.1
		C293.1-135.3,189.1-135.3,189.1-135.3z"/>
	<path id="path21" class="st19" d="M351.8-53.9l-58.3,25l10.1,3.5L351.8-53.9C351.8-53.9,351.8-53.9,351.8-53.9z"/>
	<path id="path23" class="st5" d="M351.8-53.9l-58.3,25l10.1,3.5L351.8-53.9C351.8-53.9,351.8-53.9,351.8-53.9z"/>
	<path id="path25" class="st19" d="M268.2-87l25.3,58.2L297-39L268.2-87C268.2-87,268.2-87,268.2-87z"/>
	<path id="path27" class="st5" d="M268.2-87l25.3,58.2L297-39L268.2-87C268.2-87,268.2-87,268.2-87z"/>
	<path id="path29" class="st19" d="M318.8,29.3l-25.3-58.2l9.8,4.4L318.8,29.3C318.8,29.3,318.8,29.3,318.8,29.3z"/>
	<path id="path31" class="st5" d="M318.8,29.3l-25.3-58.2l9.8,4.4L318.8,29.3C318.8,29.3,318.8,29.3,318.8,29.3z"/>
	<path id="path33" class="st19" d="M234.9-4.8l58.7-24.1l-4.6,9.7L234.9-4.8C234.9-4.8,234.9-4.8,234.9-4.8z"/>
	<path id="path35" class="st5" d="M234.9-4.8l58.7-24.1l-4.6,9.7L234.9-4.8C234.9-4.8,234.9-4.8,234.9-4.8z"/>
	<path id="path37" class="st19" d="M318.7-87.1l-25.2,58.2l9.8-4.4L318.7-87.1L318.7-87.1z"/>
	<path id="path39" class="st5" d="M318.7-87.1l-25.2,58.2l9.8-4.4L318.7-87.1L318.7-87.1z"/>
	<path id="path41" class="st19" d="M351.9-4l-58.3-24.9l10.1-3.5L351.9-4C351.9-4,351.9-4,351.9-4z"/>
	<path id="path43" class="st5" d="M351.9-4l-58.3-24.9l10.1-3.5L351.9-4C351.9-4,351.9-4,351.9-4z"/>
	<path id="path45" class="st19" d="M267.4,28.9l26.1-57.8l3.3,10.1L267.4,28.9L267.4,28.9z"/>
	<path id="path47" class="st5" d="M267.4,28.9l26.1-57.8l3.3,10.1L267.4,28.9L267.4,28.9z"/>
	<path id="path49" class="st19" d="M235.2-53.8l58.3,24.9l-10.1,3.5L235.2-53.8C235.2-53.8,235.2-53.8,235.2-53.8z"/>
	<path id="path51" class="st5" d="M235.2-53.8l58.3,24.9l-10.1,3.5L235.2-53.8C235.2-53.8,235.2-53.8,235.2-53.8z"/>
	<path id="path53" class="st9" d="M235-4.5l58.6-24.4l-10.1-3.6L235-4.5C235-4.5,235-4.5,235-4.5z"/>
	<path id="path55" class="st5" d="M235-4.5l58.6-24.4l-10.1-3.6L235-4.5C235-4.5,235-4.5,235-4.5z"/>
	<path id="path57" class="st9" d="M318.8,29.3l-25.3-58.2L290-18.8L318.8,29.3C318.8,29.3,318.8,29.3,318.8,29.3z"/>
	<path id="path59" class="st5" d="M318.8,29.3l-25.3-58.2L290-18.8L318.8,29.3C318.8,29.3,318.8,29.3,318.8,29.3z"/>
	<path id="path61" class="st9" d="M268.2-87l25.3,58.2l-9.8-4.4L268.2-87L268.2-87z"/>
	<path id="path63" class="st5" d="M268.2-87l25.3,58.2l-9.8-4.4L268.2-87L268.2-87z"/>
	<path id="path65" class="st9" d="M351.8-53.9l-58.3,25l4.4-9.7L351.8-53.9L351.8-53.9z"/>
	<path id="path67" class="st5" d="M351.8-53.9l-58.3,25l4.4-9.7L351.8-53.9L351.8-53.9z"/>
	<path id="path69" class="st9" d="M235.2-53.8l58.3,24.9l-4.4-9.7L235.2-53.8C235.2-53.8,235.2-53.8,235.2-53.8z"/>
	<path id="path71" class="st5" d="M235.2-53.8l58.3,24.9l-4.4-9.7L235.2-53.8C235.2-53.8,235.2-53.8,235.2-53.8z"/>
	<path id="path73" class="st9" d="M267.7,29.1l25.8-57.9l-9.8,4.3L267.7,29.1C267.7,29.1,267.7,29.1,267.7,29.1z"/>
	<path id="path75" class="st5" d="M267.7,29.1l25.8-57.9l-9.8,4.3L267.7,29.1C267.7,29.1,267.7,29.1,267.7,29.1z"/>
	<path id="path77" class="st9" d="M351.9-4l-58.3-24.9l4.4,9.7L351.9-4C351.9-4,351.9-4,351.9-4z"/>
	<path id="path79" class="st5" d="M351.9-4l-58.3-24.9l4.4,9.7L351.9-4C351.9-4,351.9-4,351.9-4z"/>
	<path id="path81" class="st9" d="M318.7-87.1l-25.2,58.2L290-39L318.7-87.1L318.7-87.1z"/>
	<path id="path83" class="st5" d="M318.7-87.1l-25.2,58.2L290-39L318.7-87.1L318.7-87.1z"/>
	<path id="path247" class="st19" d="M345.1-79l-51.6,50.1l12.1-0.4L345.1-79L345.1-79z"/>
	<path id="path249" class="st5" d="M345.1-79l-51.6,50.1l12.1-0.4L345.1-79L345.1-79z"/>
	<path id="path251" class="st19" d="M343.8,22.5l-50.3-51.3l12.1,0.7L343.8,22.5L343.8,22.5z"/>
	<path id="path253" class="st5" d="M343.8,22.5l-50.3-51.3l12.1,0.7L343.8,22.5L343.8,22.5z"/>
	<path id="path255" class="st19" d="M241.2,20.4l52.3-49.3l-0.9,12.1L241.2,20.4C241.2,20.4,241.2,20.4,241.2,20.4z"/>
	<path id="path257" class="st5" d="M241.2,20.4l52.3-49.3l-0.9,12.1L241.2,20.4C241.2,20.4,241.2,20.4,241.2,20.4z"/>
	<path id="path259" class="st19" d="M243.2-80.2l50.3,51.3l-12.1-0.7L243.2-80.2L243.2-80.2z"/>
	<path id="path261" class="st5" d="M243.2-80.2l50.3,51.3l-12.1-0.7L243.2-80.2L243.2-80.2z"/>
	<path id="path263" class="st9" d="M243.2-80.2l50.3,51.3L293.1-41L243.2-80.2L243.2-80.2z"/>
	<path id="path265" class="st5" d="M243.2-80.2l50.3,51.3L293.1-41L243.2-80.2L243.2-80.2z"/>
	<path id="path267" class="st9" d="M241.4,20.6l52.1-49.5l-12.1,0.2L241.4,20.6C241.4,20.6,241.4,20.6,241.4,20.6z"/>
	<path id="path269" class="st5" d="M241.4,20.6l52.1-49.5l-12.1,0.2L241.4,20.6C241.4,20.6,241.4,20.6,241.4,20.6z"/>
	<path id="path271" class="st9" d="M343.8,22.5l-50.3-51.3l0.4,12.1L343.8,22.5L343.8,22.5z"/>
	<path id="path273" class="st5" d="M343.8,22.5l-50.3-51.3l0.4,12.1L343.8,22.5L343.8,22.5z"/>
	<path id="path275" class="st9" d="M345.1-79l-51.6,50.1l0.7-12.1L345.1-79L345.1-79z"/>
	<path id="path277" class="st5" d="M345.1-79l-51.6,50.1l0.7-12.1L345.1-79L345.1-79z"/>
	<path id="path279" class="st9" d="M208.9-28.1l84.6-0.8l-9.7-9.5L208.9-28.1L208.9-28.1z"/>
	<path id="path283" class="st9" d="M294.1,55.7l-0.6-84.6l-9.8,9.1L294.1,55.7C294.1,55.7,294.1,55.7,294.1,55.7z"/>
	<path id="path285" class="st5" d="M294.1,55.7l-0.6-84.6l-9.8,9.1L294.1,55.7C294.1,55.7,294.1,55.7,294.1,55.7z"/>
	<path id="path287" class="st9" d="M293.2-113.4l0.3,84.6l-9.7-9.6L293.2-113.4C293.2-113.4,293.2-113.4,293.2-113.4z"/>
	<path id="path289" class="st5" d="M293.2-113.4l0.3,84.6l-9.7-9.6L293.2-113.4C293.2-113.4,293.2-113.4,293.2-113.4z"/>
	<path id="path291" class="st9" d="M378.1-29.6l-84.6,0.7l9.6-9.7L378.1-29.6C378.1-29.6,378.1-29.6,378.1-29.6z"/>
	<path id="path293" class="st5" d="M378.1-29.6l-84.6,0.7l9.6-9.7L378.1-29.6C378.1-29.6,378.1-29.6,378.1-29.6z"/>
	<path id="path295" class="st19" d="M293.2-113.4l0.3,84.6l9.6-9.6L293.2-113.4L293.2-113.4z"/>
	<path id="path297" class="st5" d="M293.2-113.4l0.3,84.6l9.6-9.6L293.2-113.4L293.2-113.4z"/>
	<path id="path299" class="st19" d="M294.2,55.7l-0.6-84.6l9.7,9.5L294.2,55.7C294.2,55.7,294.2,55.7,294.2,55.7z"/>
	<path id="path301" class="st5" d="M294.2,55.7l-0.6-84.6l9.7,9.5L294.2,55.7C294.2,55.7,294.2,55.7,294.2,55.7z"/>
	<path id="path303" class="st19" d="M208.9-28.1l84.6-0.7l-9.8,9.1L208.9-28.1L208.9-28.1z"/>
	<path id="path305" class="st5" d="M208.9-28.1l84.6-0.7l-9.8,9.1L208.9-28.1L208.9-28.1z"/>
	<path id="path281" class="st5" d="M208.9-28.1l84.6-0.8l-9.7-9.5L208.9-28.1L208.9-28.1z"/>
	<path id="path307" class="st19" d="M378.1-29.6l-84.6,0.8l9.6,9.5L378.1-29.6L378.1-29.6z"/>
	<path id="path309" class="st5" d="M378.1-29.6l-84.6,0.8l9.6,9.5L378.1-29.6L378.1-29.6z"/>
	<path id="path2462" class="st7" d="M506.9-40.1c6.5-0.7,8.2-5.9,8.5-9.3c0.7-6.5-3.6-12.3-13.1-13.3c-8.5-0.9-15.3,1.5-16.2,10.4
		c-0.3,3.2,0.6,8.8,8.9,11.3l-0.5,4.7c-13.4-3.4-12.9-14.5-12.6-17.2c0.8-8.2,7-15.7,20.8-14.3c11.1,1.1,18.1,8.2,17.1,18.7
		c-0.9,9.3-7.2,13.5-13.3,13.6L506.9-40.1C506.9-40.1,506.9-40.1,506.9-40.1z"/>
</g>
</svg>
