<?xml version="1.0" encoding="utf-8"?>
<!-- Generator: Adobe Illustrator 22.0.0, SVG Export Plug-In . SVG Version: 6.00 Build 0)  -->
<svg version="1.1" id="svg2" xmlns:svg="http://www.w3.org/2000/svg"
	 xmlns="http://www.w3.org/2000/svg" xmlns:xlink="http://www.w3.org/1999/xlink" x="0px" y="0px" viewBox="0 0 388 538"
	 style="enable-background:new 0 0 388 538;" xml:space="preserve">
<style type="text/css">
	.st0{font-family:'STBaoliSC-Regular';}
	.st1{font-size:36px;}
	.st2{font-family:'STKaiti';}
	.st3{font-size:20px;}
	.st4{fill:#5B92E5;stroke:#000000;stroke-width:10.8578;}
	.st5{fill:#FFFFFF;}
</style>
<text transform="matrix(0.9381 0 0 1 109.5703 268.7504)" class="st0 st1">联合国干预</text>
<text transform="matrix(1 0 0 1 84 306.5)" class="st2 st3">与另一张涉及对手的相关</text>
<text transform="matrix(1 0 0 1 114 330.5)" class="st2 st3">事件牌同时打出。</text>
<text transform="matrix(1 0 0 1 54 354.5)" class="st2 st3">该牌事件撤销，但你可以使用其</text>
<text transform="matrix(1 0 0 1 104 378.5)" class="st2 st3">行动值去执行行动。</text>
<text transform="matrix(1 0 0 1 74 402.5)" class="st2 st3">撤销的事件牌返回弃牌堆。</text>
<text transform="matrix(1 0 0 1 94 426.5)" class="st2 st3">不能在头条阶段打出。</text>
<g id="g3831" transform="matrix(0.18337255,0,0,0.18502924,104.49118,107.15642)">
	<rect id="rect3833" x="2.7" y="-0.9" class="st4" width="900" height="600"/>
	<g id="g3835">
		<path id="path3837" class="st5" d="M569.4,394.1c-10.8,2.9-22.3,3.8-32.7,7.4c17.7-15.2,16.7-38.7,28.5-56.6
			c3.8-5.1,6.9-10.4,11.3-15.2c-7.2,14.4-4.1,33.1-12.3,47.1c-3.2,5.6-7.7,11-12.8,15.3c1.6-0.1,3.1-1.5,4.5-2.4
			c13.4-13.4,31-17.1,45.5-28c5.8-4.6,11.1-10.7,13.7-17.3C612.3,366.7,590.2,387.5,569.4,394.1L569.4,394.1z"/>
		<path id="path3839" class="st5" d="M617.7,304.1c-6.6,9.3-14.5,18-20.6,27.5c0.7-7.5,1.6-16.8-1.4-23.9
			c-5.1-15.3-9.5-30.9-11-47.7l0.2-6.4c3.8,17.2,20.7,29,19.6,48.3c0.4,4.7-1.1,8.6-1.9,12.8l0.3,0.3l0.8-0.9
			c2.5-9.5,3.8-19.4,7.7-28.2c5.5-12.7,12.4-25.5,9.6-40.8C629.5,263.1,626.9,287.3,617.7,304.1L617.7,304.1z"/>
		<path id="path3841" class="st5" d="M607.4,206.8c11.1,15,13.5,38.9,5.4,56.1c-3,7.3-5.1,15.1-6.3,23.1c-0.6-1.4-0.7-3.3-1.2-4.8
			c-4.4-16.8-20.3-28.9-26.9-44.7c-2.1-5.2-3.8-10.6-4.8-16.2c7,13,24.3,19.6,29,33.9c1.9,3.6,1.8,8.1,3,12c0.3,0,0.5-0.2,0.5-0.4
			c-2.1-14.7-1.4-30.1,0.6-44.6c-0.1-7.9-0.9-15.5-5.3-21.6C604.2,201.2,605.4,204.3,607.4,206.8L607.4,206.8z"/>
		<path id="path3843" class="st5" d="M599.6,203.9c2.9,13.1-1.3,26,1.3,39.2l-0.1,0.1c-7.2-14.1-22.3-20.7-32.8-32
			c-6.1-6.7-8.7-14.8-10.2-23.4c6,14.4,22.1,17.6,31.4,29.8c3.1,2.8,4.1,6.7,6.1,9.9l0.3-0.3c-5.3-11.4-7.1-24.2-10.8-36.3
			c-1.9-5.3-5.6-10.4-10.5-13.8C586.5,179.5,597,192.3,599.6,203.9L599.6,203.9z"/>
		<path id="path3845" class="st5" d="M567,173.7c9.2,8.2,13.3,18.8,16,29.8l1.5,3.5c-13.3-9.6-25.4-22.4-33.9-36l-10.4-10.5
			C549.4,164.4,559.2,166.7,567,173.7L567,173.7z"/>
		<path id="path3847" class="st5" d="M356.8,162.3c-9.2,8.1-15.6,18.3-22.4,27.8c-6.1,7.6-13.9,12.6-20.9,19.1
			c3.7-7.8,3.9-17,9.2-24.2C330.3,171.8,344.3,167.2,356.8,162.3L356.8,162.3z"/>
		<path id="path3849" class="st5" d="M306.5,190.4c4.5-5.6,10.1-9.4,16.5-11.1c-12.4,8.5-11.6,23.8-15.5,36.5
			c-1.3,4.7-3.4,9-4.5,13.8l0.3,0.3c2.1-5.4,5.7-10.6,10.2-15c8.8-8.1,21.8-13.2,26.1-25.2c-0.2,16.7-14.1,29.8-27.5,39.2
			c-5.5,4.8-10.8,10.3-13.8,16.5c-0.3-4.2,0.6-8.4,0.3-13C297.2,217.8,296.2,201.2,306.5,190.4L306.5,190.4z"/>
		<path id="path3851" class="st5" d="M281.4,240.2c-0.4-14.8,5.8-26.8,14.4-37.9c0.3-0.1,0.4-0.4,0.8-0.3
			c-9.5,14.5-1.6,32.7-2.1,49.1l-1.3,16.8c0.2,0.1,0.2,0.6,0.6,0.4c0.6-1.9,0.7-3.9,1.1-5.8c2.2-13.6,14-23.2,24.3-32.6
			c2.2-2.5,4.1-4.9,5.3-7.8c-0.8,6.8-3,13.6-5.8,19.8c-8,15.6-22.8,28.5-25.5,46.4C291.9,271.2,280.2,258.4,281.4,240.2L281.4,240.2
			z"/>
		<path id="path3853" class="st5" d="M274.2,261.2c1.1-4.6,1.9-9.4,3.9-13.6c-3.8,19.5,9.3,33.6,13.6,50.5
			c1.8,6.3,2.2,13.1,4.8,19.1c0.2,0.1,0.4-0.1,0.6-0.3c-6.4-18,2.8-34.7,12.2-48.8c2.3-3.8,3.6-8.1,4.7-12.5c1,8.1-1.1,17.5-2.3,26
			c-2.3,10.8-5.6,21-8.6,31.4c-1.9,6.5-1.4,13.9-0.4,20.7l-0.9-0.7c-6.8-12.6-20.3-22.4-24.4-36.2
			C274.2,285.9,272,273.2,274.2,261.2L274.2,261.2z"/>
		<path id="path3855" class="st5" d="M273.6,299.4c1.5,20.7,23.8,31.7,34.1,48.8c2.4,3.5,4.6,7.4,7.8,10.3c-0.5-2.2-2.6-4.1-3.3-6.3
			c-3.6-7.2-4.9-15.8-4.1-24.4c1-10.6,5.4-20.4,3.7-31.5c9.1,19.6,6.3,44,11.4,65.2c1.3,4.6,4,8.8,5.8,13.2
			c-18.6-12.7-44-24.8-52.3-48C273.2,318.5,272.8,308.6,273.6,299.4L273.6,299.4z"/>
		<path id="path3857" class="st5" d="M284.7,347c10.4,23.5,36.4,25.5,53.9,39.8c3.2,2.8,6.6,5.3,10.2,7l0.2-0.2
			c-4-3.6-8.6-7.7-11.4-12.4c-10.2-14.2-6.6-34.1-14.3-49.4c7,8.3,13.3,17,17.5,26.4c6.2,15.4,8.6,32.8,23.1,44.4
			c-15.6-5.2-33.9-3.7-47.7-13.3C301,379.9,287.5,364.2,284.7,347L284.7,347z"/>
		<path id="path3859" class="st5" d="M311.4,390.8c16.7,18.9,43.9,12.6,66.1,17.6c3.1,0.4,6,1.7,9.3,1.2c-2.6-1.7-6.3-1.5-9.2-3
			c-17.4-6.1-19.9-24.9-29.4-37.6c12.1,8,22.2,18.8,33.3,29.3c8,7,17.6,10.2,27.8,12.3c-2.4,0.9-5.6,0.6-8.3,1.3
			c-18.2,4.5-38.5,11.8-57.8,5.2C330.7,413.1,317.8,403.2,311.4,390.8L311.4,390.8z"/>
		<path id="path3861" class="st5" d="M537.6,435c-18.8,7-38.4-0.3-53-11.4c-5.9-3.8-11.2-9.2-18.8-8.7c-2.8-0.1-5.5,0.1-7.8,0.8
			c14.2,6.6,27.5,15.8,39.6,27.5c-2,2.3-4.7,4.5-7.2,6.5c-11.7-12.6-24.6-24.7-39-31.7c-2.8,0.4-5.5,2.1-8.1,3.4
			c-11.8,7.4-23.4,17-32.2,28.7l-7.5-6.2c12-12.1,25.3-21.6,39.8-28.3c-14.3-4.5-23.6,7.4-34.4,13.5c-12.6,8.8-30.8,13-46,6.9
			c-8.2-3.1-16.2-7.7-22.1-15.1c12,8.3,29.9,9.1,43.5,3.8c18.3-7.9,37.4-18,59.4-13.2c3.4,0.1,6.8,3.5,10.1,0.6
			c16.4-4.3,35-1.3,49.1,6.2l14.6,5.8c13.5,5,31,3.6,42.6-4.6C554.1,426.6,546,432,537.6,435L537.6,435z"/>
		<path id="path3863" class="st5" d="M557.7,415.6c-21.1,8-42.3-1.8-62.5-5.1l-3.9-0.5v-0.1c9.7-2.2,19-5.1,26.7-12
			c11.3-10.9,21.4-22.1,34-30.7c-9.3,12-10.3,29-25.7,36.7c-3.8,2.5-8.6,2.9-12.6,4.8c5.6,0.1,10.7-1.9,16.3-2.5
			c20.7-3.2,44.3,0.1,58.8-17.5C583.4,401,569.9,411.3,557.7,415.6L557.7,415.6z"/>
		<path id="path3865" class="st5" d="M596,356.3c-8.3,5.4-16.8,10.5-24.8,16.7v-0.8c12.3-20.4,6.3-48.3,13.8-70.7l2.8-7.5
			c-1.6,14,4.5,25.8,4.1,39.8c-0.4,8.5-3.2,16-7.6,22.7h0.8c6-7.9,10.7-16.3,17.7-23.8c10.9-10.5,22-21.3,23.4-35.8
			C629.8,321.2,616.2,342.5,596,356.3L596,356.3z"/>
	</g>
	<g id="g3867">
		<polygon id="polygon3869" class="st5" points="448.1,303.3 451.9,303.3 451.9,398.1 448.1,398.1 		"/>
		<polygon id="polygon3871" class="st5" points="427.6,293.9 430.3,296.6 363.2,363.6 360.5,360.9 		"/>
		<polygon id="polygon3873" class="st5" points="421.2,274.2 421.2,278 326.4,277.8 326.4,274.1 		"/>
		<polygon id="polygon3875" class="st5" points="430.2,255.9 427.5,258.6 360.5,191.5 363.2,188.8 		"/>
		<polygon id="polygon3877" class="st5" points="451.8,248.1 448.1,248.1 448.2,153.3 451.9,153.3 		"/>
		<polygon id="polygon3879" class="st5" points="470.8,257.2 468.2,254.5 535.3,187.5 538,190.2 		"/>
		<polygon id="polygon3881" class="st5" points="478.1,278.3 478.1,274.5 573,274.4 573,278.1 		"/>
		<polygon id="polygon3883" class="st5" points="467.2,297.6 469.9,294.9 537,361.9 534.3,364.6 		"/>
		<path id="path3885" class="st5" d="M485.4,181.2c52.2,19.5,78.8,77.8,59.2,130c-19.5,52.2-77.8,78.8-130,59.2
			c-52.2-19.5-78.8-77.7-59.2-130C374.9,188.2,433.1,161.7,485.4,181.2L485.4,181.2z M483.8,185.3c50,18.7,75.4,74.4,56.7,124.3
			c-18.7,50-74.4,75.4-124.3,56.7c-50-18.7-75.4-74.4-56.7-124.3C378.2,192,433.9,166.6,483.8,185.3L483.8,185.3z"/>
		<path id="path3887" class="st5" d="M477.3,202.9c40.3,15,60.7,59.9,45.7,100.2c-15,40.3-59.9,60.7-100.2,45.7
			c-40.3-15-60.7-59.9-45.7-100.2C392.1,208.3,437,187.8,477.3,202.9L477.3,202.9z M475.7,207c38,14.2,57.3,56.6,43.1,94.5
			c-14.2,38-56.6,57.3-94.5,43.1c-38-14.2-57.3-56.6-43.1-94.5C395.4,212.1,437.7,192.8,475.7,207L475.7,207z"/>
		<path id="path3889" class="st5" d="M469.4,223.9c28.7,10.7,43.2,42.7,32.5,71.3c-10.7,28.7-42.7,43.2-71.3,32.5
			c-28.7-10.7-43.2-42.7-32.5-71.3C408.8,227.7,440.8,213.2,469.4,223.9L469.4,223.9z M468,227.7c26.6,9.9,40.1,39.6,30.1,66.1
			c-9.9,26.6-39.6,40.1-66.1,30.1c-26.6-9.9-40.1-39.6-30.1-66.1C411.8,231.2,441.4,217.7,468,227.7L468,227.7z"/>
		<path id="path3891" class="st5" d="M460.6,247.5c15.6,5.8,23.5,23.2,17.7,38.8c-5.8,15.6-23.2,23.5-38.8,17.7
			c-15.6-5.8-23.5-23.2-17.7-38.8C427.6,249.6,445,241.7,460.6,247.5L460.6,247.5z M459,251.6c13.4,5,20.1,19.9,15.1,33.2
			c-5,13.3-19.9,20.1-33.2,15.1c-13.3-5-20.1-19.9-15.1-33.2C430.8,253.4,445.7,246.6,459,251.6L459,251.6z"/>
		<path id="path3893" class="st5" d="M508.9,166.2c61.1,33.6,84.3,110,51.7,170.5c-32.5,60.5-108.5,82.3-169.6,48.7
			c-61.1-33.6-84.3-110-51.7-170.5C371.9,154.4,447.8,132.6,508.9,166.2L508.9,166.2z M506.8,170.2c58.9,32.4,81.2,106,49.9,164.3
			c-31.3,58.3-104.6,79.3-163.4,46.9c-58.9-32.4-81.2-106-49.9-164.3C374.7,158.8,447.9,137.8,506.8,170.2L506.8,170.2z"/>
		<path id="path3895" class="st5" d="M523.7,334.4c0.1,0.6-0.2,2.2,0.2,2.6c0.3,0.5,1.5,0.4,2,0.2c1.4-0.5,2.8-2.4,3.4-3.7
			c0.5-0.7,0.8-1.5,0.7-2.4l-1-2.9c-0.2-1-0.6-2.8-1.7-3.3c0.1-0.3,0.5-0.7,0.4-1.1c-0.3-1.2-2.2-0.9-2.9,0
			c-0.3,0.4-0.2,1.3-0.3,1.9c0,1.1-0.3,3.2-0.7,4.1c-0.4,1-1.6,2.2-1.6,3.3C522.2,333.9,523.1,334.3,523.7,334.4L523.7,334.4
			L523.7,334.4z M459.3,326.3l0.3,0.8c0,0.1,0.2,0.4,0.3,0.4c0.9,0.8,2.1-1.1,0.6-1.4c-0.1,0-0.4-0.1-0.5,0
			C459.8,326.1,459.5,326.1,459.3,326.3L459.3,326.3z M460.2,324.3c-0.6,0.6-0.8,1,0.2,1.4L460.2,324.3L460.2,324.3z M444.6,312.9
			c-1,0.9-0.9,0.3-1.4,0.6c-0.4,0.3-0.1,0.7-0.4,1.2c-0.1,0.3-0.5,0.4-0.5,0.7c-0.1,0.4,0.3,0.6,0.7,0.7c0.5,0.1,2.1-0.1,2.6-0.4
			c0.5-0.4,0.3-0.9,0.5-1.4c0.1-0.1,0.3-0.4,0.5-0.6C446.7,313.2,445.3,312.4,444.6,312.9L444.6,312.9z M482.2,308.8l0.1,1.3
			l-0.2,1.1c1.4-0.3,2.3-0.7,3.5-1.2c0.4-0.2,1.1-0.5,1.4-0.3c0.4,0.2,0.2,0.6,0.1,0.9c-0.2,0.5-1,1.5-1.4,2
			c-1.1,1.1-2.6,1.3-3.9,2.5c-0.7,0.7-0.9,1.4-1.6,2.1c-0.7,0.7-1.2,0.9-1.6,1.2c-0.3,0.4-0.1,0.7-0.8,1.1l0.4-1
			c-0.4-0.1-0.9,0-1.2-0.4c-0.2-0.4-0.2-0.8-0.1-1.2c0.2-0.8,0.3-2.9,0.8-3.5c0.1-0.1,1.1-0.5,1.5-0.7l-0.2,0.8c0.4,0,1-0.1,1.3-0.2
			c0.6-0.2,1.3-1.6,1.6-2.1l-1.8,0.7C480.6,311.1,481.4,309.4,482.2,308.8C482.2,308.8,482.2,308.8,482.2,308.8z M447.3,312.7
			c-0.3,1.2,0.5,0.7,0.9,1.2c0.3,0.2,0.3,0.6,0.4,1l-1,0.2l-0.5,0.7l-0.6,0.7l1.8,0.5c-0.9,0.3-1.4,0.3-2,1.1l2.2-0.2
			c1.4,0,2.5,0.3,3.9-0.5l-0.3-0.2l0.4-1.2l-1-0.6l-0.3-0.8l-1.6-2l-0.5-0.2c0.5-0.6,1.4-1.6,0.1-1.8l-0.7-0.1l0.6-0.7
			c-0.8-0.1-1.5-0.1-2.1,0.4C446.2,311.3,446.2,312.3,447.3,312.7C447.3,312.7,447.3,312.7,447.3,312.7z M446.5,295.9l0,0.9
			l-0.3-0.4l0,1.6c0.2,0.9,1.2,0.5,1.5,0.3c0.2-0.2,0.3-0.7,0.3-0.9c0-0.3-0.2-0.5-0.3-0.6c-0.3-0.1-0.4-0.1-0.7-0.1l-0.1-0.8
			L446.5,295.9C446.5,295.9,446.5,295.9,446.5,295.9z M339.5,304.2c-0.1,2,0.5,1.9,0.9,3.6c0.2,0.9-0.1,1.2,0.6,3
			c0.3,0.8,0.6,1.5,1.4,1.8c-0.2-2.2-0.5-3.5-1.2-5.5c-0.5-1.3-0.9-1.4-1.4-2.9L339.5,304.2L339.5,304.2z M518.9,282.5
			c-0.6,0.3-0.8,0.7-0.8,1.4c-0.1,0.7,0.5,1.1,1.2,0.9C520.2,284.5,520.4,282.3,518.9,282.5L518.9,282.5z M396.2,282.3
			c-0.3,0.7-0.4,1.3,0.3,1.8C396.4,283.4,396.6,282.7,396.2,282.3L396.2,282.3z M434.5,282.9l0.4,0.4c1-0.9,1.2-1.4,1.9-2.3
			c0.6-0.7,1-0.7,1.3-1c0.2-0.3,0.2-0.5,0.3-0.9c0.2-0.5,0.6-0.7,0.5-1.6c0-0.8-0.5-1.9-1.4-1.7l-0.2-0.6c-0.4,0-1,0.2-1.4,0.5
			c-0.4,0.3-0.2,0.8-0.7,1.2c-0.6,0.7-1.6,1.1-1.8,1.2c-0.4,0.2-0.2,0.5-0.8,1c-0.9,0.6-1.4,0.3-1.9,0.4c-0.6,0.2-1.6,1.2-2.1,1.6
			c-0.7,0.8-0.9,1.4-1.2,2.3c-0.1,0.3-0.3,0.7-0.2,0.9c0.2,0.2,0.5,0.2,0.8,0.1c0.5-0.2,1.6-0.8,2-0.7c0.4,0,0.5,0.2,0.8,0.3
			c0.4,0.1,0.7,0.1,0.9,0.2c0.3,0.1,0.6,0.5,0.9,0.7c0.7,0.3,1.4-0.5,1.6-1.1C434.5,283.6,434.6,283.3,434.5,282.9L434.5,282.9z
			 M435.3,272.8l0,0.1l-0.1-0.1L435.3,272.8C435.3,272.8,435.3,272.8,435.3,272.8z M436.4,273.8c0.3,0.8,1.6,1.6,2.3,2.2
			c0.2-0.2,0.4-0.3,0.5-0.6c0.3-0.7,0.2-2-0.5-2.3c-0.4-0.2-0.9,0-1.3,0.1c0-0.1-0.2-0.5-0.3-0.6
			C436.1,271.6,434.8,274.3,436.4,273.8L436.4,273.8z M431,272c0.9,0.8,0.9,1,2.1,0.9c-0.2,0.8-1.2,2.1-2.1,1.5
			c-0.6-0.3-0.6-0.9-0.9-1c-0.4-0.2-0.5,0.7-0.7,1c-0.6,1-1.5,0.9-1.6,2.5l0.5-0.3c0.5,1,1.4-0.1,2-0.4c-0.1,0.1-0.3,0.4-0.4,0.7
			c-0.1,0.4,0.3,0.8,0.7,0.6c0.4-0.2,0.8-0.9,1.2-1.2c0.4-0.3,0.5-0.3,0.9-0.5c0.4-0.3,0.8-0.7,1.2-1c1.1-0.9,1.1-0.4,1.5-1.7
			c0-0.3,0.1-0.4,0.1-0.7c-0.5-1.1-2.4-0.2-2.5-0.3l-0.8-0.2C431.9,271.8,431.4,272,431,272L431,272z M437,271.8l-0.6,0.1l0.2,0.4
			c0.8-0.2,1.3-0.2,1.3-1.2C437.2,271.1,437.1,271.1,437,271.8C437,271.8,437,271.8,437,271.8z M396.1,274.3l-0.6,2.9l0.3,1.3
			l0.5,2.6c0.3-0.6,0.9-2.3,1-3l0.1-1.1c0-0.8,0.1-1.1-0.2-1.8l-0.8,0.7l-0.1-1.7L396.1,274.3C396.1,274.3,396.1,274.3,396.1,274.3z
			 M438.3,270.9c-0.1-0.8,0.1-0.7,0.7-0.6l0-1.3c-0.4,0.2-0.9,0.2-1.3,0.5C437.2,270.2,437.3,270.8,438.3,270.9L438.3,270.9
			L438.3,270.9z M434.5,269.1l0.4,0.5c0.9-0.2,1.2,0,2,0.2l-0.3-0.5l0.3-0.6c0.8-0.1,0.8-0.7,0.5-1.4c-0.1-0.1-0.4-0.2-0.6-0.3
			c-1.4-0.8-1.5,0.4-1.9,1L434.5,269.1L434.5,269.1z M437.9,268.7c0.3,0,0.5,0,0.8-0.2c0.5-0.4,0.2-1.7-0.2-2
			c-0.4-0.1-0.6,0.3-0.6,0.6l-0.1,0.4l0.1,0.6L437.9,268.7L437.9,268.7L437.9,268.7z M396.1,271.9c0.5-0.6,0.6-1.5,0.7-2.2
			C395.9,270.2,396,271,396.1,271.9L396.1,271.9z M400.7,263.5c0.1,1.2,0,2.2-0.4,3.3c-0.5,1.2-1.8,2.9-2,4.1l-0.3-0.4
			c-0.6,0.8-0.6,2.7-0.3,3.6c0.7-0.7,0.9-1.7,1.3-2.5c0.9-1.8,2-3.3,2.4-5.3c0.1-0.5,0.2-2-0.1-2.5
			C401.1,263.6,401,263.6,400.7,263.5L400.7,263.5z M519,266.9c0.7-1,0.9-3,1.1-4.2c0.6-2.8,1.9-4.1,1.5-7.6
			c-0.1-0.8-0.4-2.3-1.3-2.5c-1.5-0.1-0.9,1.8-0.9,2.2c0,0.4-0.1,0.7-0.2,0.9c-0.6,1.4-0.3,2.9-0.3,4.4l-0.3,4.8L519,266.9
			L519,266.9z M497.9,244.5c0,0.3,0.2,0.4,0.3,0.6c0.1,0.1,0.3,0.2,0.4,0.4c0.8,0.5,1.3-0.4,1-0.9c-0.2-0.2-0.7-0.3-0.9-0.3
			C498.4,244.3,498.2,244.3,497.9,244.5L497.9,244.5z M517.4,242.2c0.1,1.2,0.6,3.1,1.1,4.1l1.1,2.1l1.4,4.1
			c0.7-0.9,0.3-1.9,0.1-2.8c-0.6-1.8-1.4-3.6-2.1-5.2C518.4,243.7,518.1,242.8,517.4,242.2L517.4,242.2L517.4,242.2z M510.2,240.1
			l-0.1,1.5l-1.8-0.6c0,0.9,0.4,2.3,1.1,3.1l1.4,1.1c1.2,0.9,2.3,2,3.3,3.1c0.9,1.1,0.9,1.5,1.3,2c0.3,0.2,0.6,0.5,1,0.3
			c0.2-0.2,0.3-0.8,0.4-1.1l0.4-0.8c0.2-0.7-0.3-1.7-0.6-2.3l-0.9-1.9c-0.4-0.9-0.6-1.7-1.2-2.4c-1-1-1.8-0.9-2.9-1.2L510.2,240.1
			L510.2,240.1z M474.1,241.9c-0.1,0.5-0.1,1.3-0.8,1.5c-0.1,0-0.7-0.1-0.8-0.2l-0.5,1.5c-0.2,0.4-0.6,1.5-0.6,1.9
			c-0.1,0.7,0.8,0.6,1.3,0c0.5-0.4,0.5-1.1,0.9-1.7c0.5-1.1,1.5-1.6,1.7-2.9L474.1,241.9C474.1,241.9,474.1,241.9,474.1,241.9z
			 M514.3,237c0.4,1.1,0.7,1.3,1.3,2.2c0.3,0.6,0.2,1,1,0.8C516.1,239.4,514.9,237.3,514.3,237L514.3,237z M459.8,244
			c-1.5-0.1-0.5,1.5-0.7,2.2c-0.3,0.7-1.8,1.7-2.5,1.3c-0.4,0.2-0.8,0.2-1.2,0.1c-0.4-0.1-0.7-0.3-1.1-0.3l-2.1,1.5
			c-0.4,0.3-0.9,0.6-1.4,0.6c-0.4,0-0.9,0.1-1.1,0.4c-0.4,0.3,0,1.1,0.2,1.4l0.6,0.9c-1.3,0.4-1.2,1.3-1,2.5c0.1,0.6,0.3,3,0.5,3.5
			c0.2,0.6,1.1,1.2,1.7,1.4c0.4,0.2,1.1,0.3,1.5,0.3l0.1-1.6l0.4,0l0.4,1.3c0.1,0,0.4,0,0.5,0l1.6,0.4c0.1,0.1,0.1,0.1,0.3,0.2
			c0.2,0.4-0.1,1.1-0.1,1.5c0.2,0.9,1.2,1.1,1.9,1c0,1.1,0.1,0.8,0,1.4c0.1,0.7-0.3,0.7,0.5,2.1c0.2,0.2,0.5,0.9,0.9,0.8
			c0.4,0,1.2-1,2.1-1.5c0.2,0.6,0.2,0.8,0.8,1.1l-0.2,0.7l1.5-0.9c-0.4,2-1.3,1.6-2.2,2.8c-0.3,0.7-0.1,1.3-0.3,2l0.1,0.1l0.5-0.3
			l0.4-0.2c1.2-0.2,0.3,1.2,0.3,1.4c0,0.4,0.3,0.5,0.6,0.6l-0.6,0.4l0.4,0.9l-2.3,0.2c-1.2,0.2-2.1,1.1-3.1,1.9l0,0.3l0.4,0.1
			l-2.2,1.1c0.7,0.2,1.6-0.1,2.2-0.2c0.6-0.2,0.5,0,1.3-0.2l0.4,0.2l-0.1,0.5l2.9,0.9c0.7,0.2,1.2-0.1,1.6,0.1
			c0.6,0.3,0.4,1,1.3,1.2c1.1,0.3,1.9-0.3,2.8-0.5l-1.1,1.1l0.5,0.9l1.3-0.4c-0.9,1-0.9,0.2-2.7,0.4c0.4,0.2,1.7,0.8,1.9,0.9
			c0.7,0.2,1-0.1,2,0.2c0.8,0.2,1.8,0.8,2-0.4c0.2,0.2,0.3,0.5,0.5,0.6c0.4,0.2,0.7,0.2,1.1,0.3c0.5,0.1,1.8,0.9,1.7,1.6
			c-0.1,0.1-0.2,0.3-0.3,0.4c-0.2-0.4-0.3-0.8-0.6-1.1c-0.7-0.9-1.9-0.5-2.8-0.7l-1.9-0.5l-1.5-0.1c-0.8-0.1-1.2-0.5-2-0.5
			c-0.3,0-0.6,0.2-0.6,0.4c0,0.3,0.3,0.5,0.5,0.6c0.8,0.5,0.5,0.1,1.8,0.9c0.7,0.5,0.9,0.3,1.6,0.5l0.7,0.3c0.5,0.1,0.6-0.2,1.2-0.1
			c0.3,0,0.8,0.1,1.1,0.2l-2.3,1l-1.7-0.2c0.3,0.8,0.5,0.9-0.1,1.6l-0.3-0.5c-0.3,0.4-0.3,0.7-0.7,1.1l-0.6,0.7
			c-0.1,0.3-0.5,0.7-0.7,0.7c-0.4,0-0.8-0.5-1.1-0.7c-0.6-0.3-0.8-0.3-1.5-0.1c0.5,0.7,0.7,0.6,1.4,0.9c0.6,0.3,2,1.5,2.4,2
			c-0.1,0-0.3,0-0.4,0.3c-0.2,0.3,0,1.4,0.3,1.8c0.3,0.2,0.6,0.3,0.9,0.3l-1.5,1.5c0.7,0.2,0.9,0,1.5,0.5L467,296l-1.7-1.3l-1.8-0.8
			c0.7,0.1,1.7,0.1,2.3-0.2c1.1-0.6,0.6-1.9-0.3-2.6c-0.6-0.3-1-0.3-1.6-0.4c-0.5-0.1-1.4-0.4-1.9-0.4l-1.4,0.3l0.1-0.4
			c-0.4-0.1-0.5-0.2-0.9,0.1c-0.4-0.4-0.4-0.5-1-0.6l0.1,0.6l-0.6-0.6l-0.1,0.7c-0.3-0.5-0.3-0.6-0.9-0.8l0.4,1.7l-0.2,0.4
			c-0.7,0.6-0.7,1.9-0.6,2.7c0.2,1.6-0.2,2-0.3,3.2c0,0.9,0.3,1.3,0,2.6c-0.1,0.5-0.6,2-0.8,2.4l-0.6,0.7l-0.4,0.8
			c-0.2,0.4-0.6,0.7-0.8,1.1c-0.2,0.5,0.1,0.8,0.2,1c0.2,0.8-0.3,0.6,0.6,1.7l-0.5,0.6l0.5,0c-0.3,0.9,0.3,1.6,1.2,1.3
			c0.6-0.2,1.3-1,1.5-1.7l0.3,0l1.7,2.9c0.3,0.4,0.4,1,0.9,1.1c0.5,0.1,0.7-0.5,1-0.9c0.2-0.3,0.5-0.4,0.7-0.7
			c0.3-0.7-0.3-1.7-0.2-2.3c0.1-0.5,0.4-0.8,0.5-1.5c-0.1-0.9-0.8-1.1-1.2-1.6c-0.4-0.5-0.5-1-0.6-1.7c-0.2-1.4,0.6-1.9,0.7-3.1
			c0-0.8-0.4-1.3-0.5-1.8c0-0.4,0-0.8,0.4-0.8c0.9-0.2,1,0.8,1.1,1.5l-0.1,1.3c-0.1,0.5-0.3,0.9-0.2,1.6c0.2,0.5,0.5,0.9,0.7,1.3
			c0.3,0.4,0.3,0.8,0.6,1c0.3,0.1,0.4,0.2,0.7,0.2c0.3,0.1,0.5,0.2,0.8,0.2c0.6-0.2,1.3-1.4,1.9-1.9c0.4-0.3,0.9-0.2,1.3-0.2
			c-0.2,0.4-0.8,1.1-1,1.4c-0.5,0.3-1.4,0.5-1.4,1.3c-0.3,1.1,1.2,0.9,1.1,1.9c-0.1,0.7-1.1-0.2-1.4,0.6c-0.4,0.8,0.1,1.3,0.3,1.9
			c0,0.4-0.2,0.8-0.3,1.2c-0.5,1-1,0.4-1.7,0.8c-0.6,0.3-1.3,1.3-1.9,1.5c-0.5,0.2-0.9-0.2-1.3-0.1c-0.5,0-1,0.9-1.8,0.2
			c-0.9-0.8,0.1-1.3-0.1-2.1l-0.5-1.3c-0.7,0.5-1.5,1.1-1.2,2.1c0.4,0.9,1.2,1.6,0.8,2.3c-0.4,0.3-1.1,0.4-1.7,0.8
			c-0.7,0.5-1.5,1.8-1.8,2c-0.4,0.3-0.8,0.3-1.1,0.6l-1.3,1.3c-0.1,0.1-0.1,0.1-0.2,0.3l-1.6-0.5l0.1,0.9c-0.7,0.1-0.7,0.1-1.2,0
			c-0.4-0.1-1.2-0.2-1.4,0.4c-0.2,0.4,0.9,0.7,1.1,0.8c1.7,0.8,2,2.6,1.3,3.3c-0.5,0.4-1.3,0.1-1.8,0c-1.2-0.2-3.1-0.6-4.3-0.7
			c-1.6,0.1-1.1,1.1-1.4,2c-0.1,0.5-0.6,0.8-0.7,1.2c-0.1,0.1-0.1,0.3-0.1,0.4c0-0.1,0.4,1.5,0.4,1.4c0.2,0.5,1.1,0.4,1.6,0.5
			c0.7,0.2,0.8,0.6,1.4,0.9c0.5,0.2,0.8,0.1,1.3-0.1c1.2-0.1,2.3,0.5,4-0.5c0.4-0.2,0.7-0.5,0.8-0.7c0.3-0.4,0.2-0.8,0.7-1.2
			c0.6-0.6,1.7-0.8,2.4-1.3c0.5-0.4,0.1-1.2,1-1.5c0.6-0.2,1.3,0.3,2.2-0.1c0.8-0.2,1.6-1.1,2.4-1.3c0.8-0.1,1.3,0.8,2.3,1.1
			l4.3,0.9c0.1,0,0.4,0.1,0.5,0.2c1.2,0.9-0.5,1.4-1.1,1.5c-0.5,0.2-0.6,0.2-1.2,0.2c0.1,0.1,0.2,0.2,0.3,0.4
			c0.5,0.2,1.9,0.4,2.4-0.1c0.2-0.3,0.2-0.5,0.2-0.9c0.5-0.2,0.7-0.3,1-0.9c0-0.4-0.2-0.8,0.1-1.1c0.2-0.3,0.7-0.3,1.1-0.4
			c-0.6-0.7-1.1-0.4-1.9-0.5c-0.4-0.1-0.6-0.3-1-0.4c-0.4,0-0.7,0.3-1.3,0.1c-0.4-0.1-0.8-0.5-1.2-0.5c-0.4-0.2-1.5-0.4-1.4-1.1
			c0.1-0.3,0.2-0.4,0.5-0.4c0.1-0.1,0.2-0.2,0.4-0.2l0.2,0.5c1.4-0.5,0.9,0.2,2.1,0.3c1.1,0.3,2.4-0.1,3.4,0.3
			c0.7,0.2,0.5,0.6,1,1.2c0.7,0.6,1.7,0.4,2.7,0.3c-0.1,0.1-0.2,0.2-0.2,0.3c-0.2,0.4,0.1,0.7,0.3,0.8c1,0.6,2.4-0.6,1.2-1.2l2-1
			c-1-0.4-1.4,0-2.7-0.8c0.7-0.1,0.8-0.1,1.3-0.5l0.1-0.5l2.1-1.1c-0.7,1.1,0.1,0.8,0.3,1.9c0.7-0.1,1.5,0.1,2.1,0.1
			c0.5-0.2,1.9-0.7,2.3-1c0.4-0.3,0.5-0.7,0.8-1l1.5-0.7c0.6-0.4,1.1-1,1.5-1.6c0.2-0.3,0.5-0.6,0.9-0.5c0.5,0.2,0.7,1.5,0.7,2
			c0.2,0.4,0.4,0.9,0.4,1.3c-0.1,1.7-1.9,2-3,2.9c-0.7,0.6-1.3,1.6-2,1.9c-1,0.7-3.7,1.8-5,2.2l-2.7,0.5c-0.6,0.3-1.3,0.9-1.5,1.5
			c-0.2,0.5,0.1,1.2-0.5,1.5c-0.6,0.3-3.2,0.7-3.9,0.6c-1.1-0.2-0.7-0.5-2.3-0.3c-1.4,0.1-3,0.4-4.4,0.1c0.2-0.3,0.7-0.9,0.8-1.3
			c0.1-0.3,0-0.4-0.1-0.7c0-0.1,0-0.4-0.2-0.5c-0.3-0.4-1.3-0.3-1.7-0.2c-0.9,0.2-0.7,0.5-2.2,0.6l-4.8,0.6
			c-2.3,0.2-4.2,1.2-5.1,1.2c-0.7,0.1-2.1-0.1-2.8-0.3c-0.5-0.2-1.1-0.7-1.7-0.4c-0.6,0.2-0.8,0.7-1.6,1.1c-0.8,0.3-2.2,0.5-3,1.1
			c-0.9,0.6-0.4,1.1-1.4,1.6c-0.5,0.2-2.2,0.2-2.9,0.3c-1.4,0-2.2,0.6-3.4,1.1l-1.4,0.5c-0.5,0.2-1.5,0.4-1.7,0.8
			c-0.2,0.4,0.1,0.9,0.1,1.3c0,0.4,0,0.8-0.1,1.2c-0.7,1-2.4,1.8-2.1,3.2c0.2,0.9,0.8,1,1.8,1.8c1.3,1.3,2.3,3.2,3.7,4.3
			c1.8,1.3,4.5,2.9,6.8,3.3l4,0.2c2.1,0.2,3.7,0.7,6,0.6l4.9-0.8c1-0.1,2.6-0.4,3.7-0.1c1.1,0.3,1.3,1.1,3.2,0.9l2.7-0.4
			c0.6-0.2,1.1-0.4,1.8,0c1.7,0.9-1.2,2.6,0.1,3.7c0.7,0.6,3.1,0.8,4.1,1.1c0.7,0.1,2.8,1.2,3.2,1.7c0.3,0.2,0.3,0.5,0.6,0.9
			c0.3,0.4,1,0.6,1,1c0,0.4-0.8,1.1-1,1.4c-0.7,0.7-2.1,2.6-1.3,3.7c0.3,0.4,1.1,0.7,1.5,0.9l3.8,1.1c1.6,0.6,1.8,1.9,2.8,2.6
			c0.7,0.5,1.9,0.4,2.8,0.4l3.9,1c1.4,0.4,0.8,1.2,1.9,1.4c2.3,0.2,5.7-1.8,7.5-3l3.7-1.9c1.5-0.8,2.8-1.7,4.2-2.6
			c2.5-1.9,4.6-4.5,5.9-7.4c0.4-0.8,1.7-2.8,1.7-3.3c0.2-0.8-0.7-1.3-0.3-1.9c0.4-1,2.1-2.3,2.5-3.4c0.3-0.6,0.2-1.5-0.3-1.8
			c-0.5-0.2-0.9,0.1-2-0.2c0.8-2.2,2.3-4.3,3.5-6.2c0.6-0.8,1.6-2.4,1.6-3.4c0-1.2-1.1-1.2-1.5-1.7c-0.4-0.4-0.3-0.6-0.6-0.7
			c-0.5-0.2-1.4,0.3-1.9,0.2c-0.4,0-0.7-0.2-1-0.3c-0.4-0.2-0.9,0-1.3,0c-0.6-1.8,0.6-5,1.2-6.8c1.2-3.8,2.7-7.6,2.2-11.6l-0.6-3.1
			c-0.2-0.4-0.5-0.9-1-0.7c-0.8,0.2-1.4,2.5-1.8,3.2l-1.8,3.2c-0.5,0.7-0.7,1.6-1.3,2.2c-0.5,0.4-1.2,0.8-1.9,1.1
			c-0.2-0.6-0.6-0.5-1.1-0.3l-2.4,1.3c-0.5,0.3-1.5,1.1-2.1,1.1c-0.5,0-0.8-0.3-1.6-0.1c-0.5,0-1.4,0.4-1.8,0.3
			c-0.5-0.1-1.1-0.6-1.6-0.6c-0.4-0.1-1.2,0.1-1.5,0.3c-1.3,0.1-3.3-0.5-4.7-0.8c0.2-0.2,0.5-0.2,0.5-0.4c0.2-0.7-0.8-1.8,0.4-2.1
			c0.1,0,0.4,0,0.5,0l2.2-0.1l1.3-0.2c0.7,0.1,0.8,0.5,1.7,0.4l3.2-0.8c1.3-0.1,1.8,1.2,3.2,0.2c1.1-0.8,2.1-3.3,2.5-4.6l1.1-2.9
			l0.4-2c0.5-1.5,0.9-2.2,0.8-3.9l-0.3-2.5c-0.1-1-0.3-1.8-1.4-0.8c-0.8,0.9-1.1,1.8-2.4,1.7c-0.4,1.6-0.1,3.7-1.7,4.6
			c-0.6,0.4-1.3,0.2-1.9,0.4c-0.4,0.2-0.9,0.5-1.1,0.4c-0.4,0-0.7-0.2-0.7-0.6c0.1-0.5,1-0.9,1.3-1c1.3-0.5,1.9-0.7,2.8-1.8
			c0.6-0.8,0.6-1.5,1.1-2.2c0.5-0.6,0.9-0.5,1.3-1c0.3-0.4,1-1.8,1.3-2.4l1.6-4.7c0.8-1.4,2.1-1.6,2.4-3.4l0.2,0.6
			c1.4-0.6,1.4-2,1.1-3.3c0.8-0.1,2.4,0,3-0.1l2.9-1.8c0.7-0.5,2-1.4,2.1-2.2c0.2-0.5-0.6-2.3-0.9-2.7c-0.2-0.2-0.3-0.4-0.6-0.5
			c-0.7-0.2-1.6,0-2.1-0.9c-0.6-0.7-1.3-3.3-1.8-4.3c-1.1-2.7-1.1-2.1-1.7-3.1c-0.3-0.6-0.3-1.3-0.3-1.9c-0.2-0.5-0.5-0.9-0.5-1.1
			c-0.1-0.5,0.3-0.8,0.7-1.2c0.5-1,0.5-1.8,1.1-2.3c0.5-0.4,0.9-0.2,1.1-0.6c0.8-1.1-1.1-2-0.5-3.2c0.3-0.6,1.3-1.6,1.9-1.6
			c0.5-0.2,0.9,0,1.4-0.1c0.5-0.3,0.5-1.2,0.7-1.8c0.5-1.4,1.3-1.3,1.5-3.2c0.1-0.7,0.1-1.6-0.2-2.1c-0.6-0.7-1.5-0.1-1.7,0.4
			c-0.5,0.7-0.4,1.6-0.3,2.4c0,0.8-0.2,1.9-0.6,2.6c-0.5,1-1.7,0.3-2-0.2c-0.2-0.2-0.1-0.5-0.1-0.8c0-1.1-0.3-1.4,0-2.6
			c0.1-0.5,0.6-2,0.4-2.3c0-0.4-1.2-1.7-1.5-2.1c-0.6-0.6-1.7-2-2.6-1.3c-0.9,0.5-0.7,2.2-0.8,3.1c-0.1,0.4-0.3,1.2-0.7,1.2
			c-0.2,0.2-0.7-0.2-1-0.4c-0.7-0.7-1.2-1.2-1.3-2.4c0.4,0.1,1.5,0.4,1.6-0.1c-0.1-0.5-0.7-1.4-1.2-1.3c-0.5-0.1-0.6,0.4-1.3,0
			c-0.6-0.5-1.9-2.6-2.5-3.3c-0.8-1-1.9-1.8-3-2.4c-0.7-0.2-2.9-1.1-3.5-0.6c-0.2,0.2-0.2,0.5-0.3,0.8c-0.1-0.1-0.3-0.2-0.5-0.2
			c-0.9-0.2-1.2,0.9-1.3,1.6c0,0.3,0.1,0.8-0.3,0.9c-0.4,0.2-0.7-0.1-1-0.3c-0.7-0.5-0.7-0.6-1.7-0.9c0.2,0.5,0.4,1,0.7,1.5
			c0.8,1,1.3,0.9,1.2,2.3c-1.1-0.4-2.3-1-3.1-1.8l1-0.4l0-0.3c-0.4-0.2-1.8-1.3-1.9-1.8c0-0.4,0.5-0.4,0.4-0.8
			c0.1-0.4-0.3-0.6-0.1-1.2c0.3-0.4,1.1-0.8,1-1.3c0-0.3-0.3-0.5-0.6-0.6c-0.6-0.3-1.6-1-2.1-0.5c-0.5,0.4-0.1,1.3-0.4,2.5
			c-0.4-0.1-1.1-0.4-1.5-0.5c-0.5-0.1-1.2,0.2-1.8-0.1c-1-0.3-1.3-1.1-2.1-1.4c-1.5-0.7-2.8-0.3-4.2,0c-0.6,0.1-1.7,0.2-2.3,0.5
			c-0.5,0.3-0.7,0.7-0.9,1.1c-0.6,0.7-1.7,1.1-1.6,2.1c0.2,0.9,1,1,1.3,1.2l0.8,1.6c-0.9,0.2-1.3,0-2.1,0.1l-3.1,0.7
			c-1.6,0-2.1-0.9-3-1.3c-0.5-0.2-0.9-0.2-1.4-0.4c-0.4-0.4-0.5-0.7-0.6-0.9c-0.3-0.4-1.6-0.5-2-0.5c0,0.3,0,0.4-0.2,0.7
			c-0.2,0.4-1.3,1-1.9,1.1c-0.2,0.2-0.7,0.1-0.9,0l0.1-0.5c0.1-0.7-0.3-0.6-0.8-0.5c-0.8,0.2-1.2,0.8-1.8,1.2c0.2-0.4,0.4-1,0.8-1.4
			c0.5-0.4,1.1-0.6,1.7-0.9l2-1.2c0.5-0.3,1.2-0.6,1.6-0.9c1.1-0.9,1.3-3.7,1-5.1c-2,0.8-1.5,0.9-2.8,1.7c-0.5,0.3-0.8,0.3-1.1,0.5
			C460,243.2,459.9,243.6,459.8,244L459.8,244L459.8,244z M473.6,239.2l1.3,0.9l1,1.8c0.8-0.3,0.9-0.6,1.4-0.8
			c0.2-0.2,1.9,0.2,1.5-0.8c-0.1-0.1-0.3-0.2-0.4-0.4l-0.1,0.4c-0.4-0.4-1-0.8-1.6-1C476.1,239.1,474.3,239.1,473.6,239.2
			L473.6,239.2z M478,239.8c1.8-0.2,1.5-0.7,2.5-0.8c0.5-0.2,1.3,0,1.8,0.1l-0.1,0.5c1.1,0.4,1-0.2,1.8,0c0.8,0.3,1.3,1.3,2.7,1.7
			c0.5,0.2,0.8,0.3,1.3,0c0.3,0.5,0.4,0.5,1,0.4c0.1-0.7,0.4-0.8,0.3-1.2c-0.2-0.4-1.5-0.9-1.7,0.4c-0.5-0.6-0.2-0.8-0.4-1.1
			c-0.5-0.6-1.4-0.7-2-0.5c-0.3-1.3-0.1-0.9-1.9-1.8c-0.6-0.3-1.8-0.9-2.5-1c-0.8-0.1-1,0.5-1.6,0.8c-0.3,0.4-0.8,0.3-1.1,0.6
			C477.9,238.5,478,239.3,478,239.8L478,239.8L478,239.8z M505.5,234.1l1.6,1.8c0.6,0.9,1.2,1.7,2,2.5c0.6,0.5,1.4,0.8,2.2,0.6
			c0.5-0.2,2-1.8,0.8-2.4c-0.4-0.2-1,0.1-1.4,0.1c0-0.9,0-1.4-0.3-2.3c0-0.3-0.1-0.8-0.6-0.6c-0.6,0.3,0.1,2.2-0.9,1.7l-0.4-0.2
			l-0.4-0.4c-0.5,0.6,0.1,0.8,0.5,1.3c0.6,0.5,1,1,1.1,1.7c-1.4-0.9-1.5-1.7-2.4-2.8C506.7,234.4,506.3,234,505.5,234.1L505.5,234.1
			z M511.1,232.8c0.4,0.9,1.7,2.9,2.7,3.2C513.2,234.8,512.3,233.2,511.1,232.8L511.1,232.8z M415,242.3c0.4,0,0.9-0.1,1.2-0.1
			l3.4,1c0.9,0.2,1.9,0.2,2.5,1.1c-1.7,0.2-1.3-0.1-2.7-0.4c-1.2-0.2-1.6,0.1-2.5,0.1c-0.5-0.1-0.8-0.2-1.2-0.3l-3.5,0.6
			c-0.9,0-1.1-0.7-1.7-0.9c-0.6-0.3-1.1-0.2-1.6,0.1c-0.9,0.3-1.7,0.9-2.6,1.5c-1.6,1.1-3.4,2.3-4.6,3.8c-0.8,1.1-0.6,1.8-1.4,2.9
			c-0.8,1-2.7,1.9-3.9,3.6c-0.9,1.3-0.8,2-1.2,2.5c-0.2,0.3-1.8,1.2-2.2,1.4c-0.4,0.2-0.8,0.2-1,0.4c-0.4,0.3-0.6,0.7-0.8,1.1
			l-1.3,1.4c-0.3,0.6-1.7,2.6-1.8,3.2c0,0.9,1.5,1.3,0.7,2.6c-0.1,0.1-0.2,0.3-0.3,0.4c-0.9,0.6-1.1-0.3-1.7-0.4
			c-0.8-0.2-2,0.8-2.7,0.2c-0.4-0.5-0.3-1.2-0.3-1.7c-0.2-0.6-0.5-0.9-0.7-1.4c-0.3-0.6-0.1-1.8-1-3.1c-0.5-0.7-1-1-1.4,0l-0.3,0.8
			c-0.5-1.1-0.2-2.1-1.2-2.3c-1.2-0.2-1.6,1.3-2.3,2.2c-1.7,2.1-2,1.9-3.4,2.9l-1.8,1.9l-1.1,0.8c-0.6,0.6-1,1.8-1.3,2.6l-1.3,5.2
			c-0.3,1.1-0.7,2.8-1.9,3.2c-0.4,0.2-1.6,0.1-2,0c-0.4-0.2-0.7-0.6-1.1-0.7c-0.4,0-1.4,0.1-2.4-0.3c-0.6-0.5-1.3-1.5-1.9-1.7
			c-0.5-0.2-1.1-0.2-1.6-0.1c-0.7,0.1-1.6,0.1-2.1,0.1c-1.4-0.4-2.2-2.4-2.7-3.6c-0.2-0.5-0.5-1.3-0.9-1.5c-0.6-0.5-1.3,0.4-1.9,0.2
			c-0.5-0.1-1.7-1.3-2.4-1.6c-0.1-0.1-0.6-0.5-0.8-0.3c-0.3,0-0.3,0.6-0.4,0.8c0,1.1,0.3,1.3,0.9,2c0.1,0.1,0.6,0.6,0.2,0.9
			c-0.6,0.4-1.5-1.6-2.2-0.6c-0.1,0.3-0.1,0.4-0.2,0.5l-0.3,0l-0.6-2.2l-0.1-0.9l-0.9-2l-1.1,1l-0.3-1.2l-0.4-0.9
			c-0.2-0.6-0.7-0.6-1.2-0.3c-1,0.7-1.6,1.9-2.2,2.3c-0.7,0.5-1.3,0.1-1.8,0.3c-0.6,0.3-1.1,1.1-1.2,1.8l-1,5.3
			c-0.9,4.2-1.4,5.1-0.9,9.5l0.5,2.4l0.5,3.4l0.4,1.7l0.3,0c-0.2-1.7-0.1-4.8,0.4-6.5c0.5-1.7,1.2-2.1,1.3-4.2l0.3,1.7
			c0.7-0.7,0.7-1.2,1.6-1.7c0.3,0.6,0.5,0.7,0.7,1.5c0.2,0.6,0.3,1.2,0.6,1.8c0.3,0.6,0.6,0.7,0.9,1.2c0.3,0.4,0.5,1,0.7,1.5
			c0.4,0.9,0.6,2.3,1.7,2.6c0.4-1,0.3-2.1,0.3-3.2c0.1-0.3,0.1-1.1,0.4-1.2c0.6-0.2,0.9,1,0.9,1.4c0.4,1,0.6,2.3,1.3,3.2
			c0.6,1.1,1.2,0.9,2,2.7l0.2-0.7c0.4,0.9-0.1,1.6,0.9,2.2c-0.1-0.5-0.2-2.7,0.1-3.2c0.1-0.3,0.5-0.3,0.8-0.3l0.6,4.4
			c0.1,0.5,0.3,1.2,0.6,1.5c0.7,0.7,1.6,0.1,1.9,0.7l0.5,2.3c0.4,1.7,1.1,3.7,1.7,5.2c0.5,1.1,1.2,2.7,2.1,3.5
			c0.3,0.4,0.7,0.9,1.3,0.7c0.5-0.2,0.3-0.8,0.4-1.2c0.1-0.5,0.3-0.7,0.4-1.1c0.1-0.7-0.2-1.4,0.2-2c-0.2,0.8,0.1,0.9,0.2,1.7
			c0.1,1,0.4,2.2,0.7,3.2c0.6,1.5,1,2.9,1.9,4.3c0.6,0.9,2,1.9,2.9,2.6c1.2,1.2,2.3,2.3,3.8,3.3l1.7,1.2l1.4,0.9
			c1.3,0.7,1.4-0.5,2.2-0.6c0.4,0.1,1.8,1.1,2.3,1.5c2.2,2,1.5,1.4,3,3.3l3.4,3.6c0.9,0.8,2,2.5,3.2,2.6l1.2,0.2
			c1.3,0.3,2.8,0.8,4.2,0.4c0.5,0,0.9-0.3,1.1-0.6c0.3-0.4,0.6-1,1.1-1c0.5,0.1,1.8,0.6,2.3,0.8c1.4,0.7,3.3,1.8,4.8,2.1
			c1.5,0.3,2.5-0.9,2.3-1.9c-0.4-1-1.9-2.1-2.8-3.7c-0.8-1.4-1.4-2.9-2.3-4.1l-2.1-2.6l-1.3-2l-0.6-0.9c-0.2-0.2-0.4-1.1-0.4-1.5
			l-1.4-3.7c-0.7-1.3-2-1.1-2.8-2.9c0.6,0.7,1.8,1.7,2.6,2c-0.4-1-1.2-2.7-1.8-3.5l-1.3-1.3c0.7,0.6,1.3,1.1,2.2,1.2l0.3-1.1
			c0.4-1.1,0.8-1.3,0.8-2.6c-0.1-2.2-2.2-5.5-2.5-8.2c-0.1-1.2,0.1-2.4,0.3-3.6l0-2.1c0-0.4,0.2-0.7,0.3-1.2l0-1.4
			c0.2-0.8,0.3-1.1,0.2-1.9l-0.6-2.2l0-1.6l-0.2-2.1c-0.2-1.6,0.7-2.3,0.8-3.4c0.1-0.5-0.6-1.9-0.9-2.2c-0.4-0.2-1.3,0-1-0.7
			c0.3-0.7,1.5,0.5,1.8,0.9c0.4-1.3,0.1-1.6-0.2-2.7l-0.5-3.4c-0.2-0.9-0.8-1.4-0.8-1.8c0.1-0.4,0.5-0.4,0.9-1
			c0.5-0.6,0.7-1.2,0.7-1.9l0-2.2c0.1-1.1,1-2.5,2.2-2.8c1.2-0.2,2.3,1,3,0.9c0.7-0.1,1-0.7,1.2-1.2l1.5-4.3l0.3,0
			c0.6,1.1,1.3,1.3,2.2,2.2l0.7,0.9c0.1,0.1,0.4,0,0.6-0.2c0.5-0.6,1-2.7,0.7-3.3c-0.2-0.5-0.8-1-1-1.6c0-0.4,0.2-0.8,0.4-1.2
			c0.3-0.8,0.5-1.8,1.1-2.3c1.2-1.3,3.5-1.5,4.9-0.4c0.7,0.6,0.6,1,0.9,1.4c0.4,0.5,1.1,0.4,1.3,1.2c0,0.3,0,0.9-0.1,1.3
			c0.1,0.8,0.2,1-0.1,1.8c-0.4,0.8-1.2,1.4-1.5,2.4c-0.4,1.1,0.3,1.2,0.1,2.1c-0.3,0.9-1,1.7-1.3,2.6c-0.3,0.6-0.3,1.1-0.9,1.5
			c-0.5,0.3-1.3,0.2-1.8,0.3c-0.8,0.2-1.4,0.6-2,1c0,0.3,0.1,0.5,0.2,0.8c0.2,0.8,0.9,0.7,1.5,0.5c1-0.2,2.4-1,3.4-0.2
			c0.9,0.8,1.1,3.3,1.9,4.2c0.7,0.6,1.2,0.5,2,0.7c0.5,0.2,1,0.4,1.4,0.8c1,0.8,0.7,1.5,1.1,2.1c0.4,0.4,0.8,0.2,1.3,0.7l1.9,3.1
			l1.3-1.2c0.4,0.5,1,0.4,1-0.2c0-0.4-0.3-1.2-0.4-1.5c0.9,0.8,0.9,1.5,0.9,2.7c0,0.3-0.1,0.5,0.1,0.8c0.1,0.5,0.7,1.5,1.1,1.9
			c0.6,0.3,0.9,0.2,1.4-0.1c0.5-0.7,0.7-1.9,1.4-2.8c0.6-0.7,1.7-0.9,2.8-2.2c-0.3-0.1-1.1-0.4-1-0.8c0.2-0.5,1-0.6,1.5-0.9
			c0.7-0.6,1.3-1.6,1.4-2.5l-1.6-0.1l-0.9-0.2l-1.3,0.1l-1.3-0.9l-1.8-0.1c0.3-0.7,0.5-1.1,1.3-1.2c0.4,0,0.9,0.2,1.2,0
			c0.5-0.2,0.4-0.7,0.8-1c0.7-0.9,1.7-1.1,1.9-2.1c1.1,0.2,1.3-0.1,1.8,0c1.1,0.4,1.4,2.4,1.9,3.4c-1.4-0.4-1.1,0.8-1.1,1.7
			c0.5-0.3,1.1-1,1.6-1.2l1.7,0c0.4,0,0.5-0.2,0.9-0.3c0.9-0.2,1.5,0.4,2,1.1c0.5-0.3,0.5-0.6,0.1-1.1l0.6-0.1l-0.4-1
			c-0.6,0.1-0.8-0.1-1,0.6c-0.6-0.3-0.6-0.3-1.2-0.4l0.5-0.4l0-0.3c-1.1-0.6,0.2-0.9,0.4-1.6c0.1-0.4-0.1-0.6-0.2-0.9l1.6-0.7
			c0.7-0.8,1.3-0.2,1.6-1.2c1.3,0.3,0.9-1.4,1.9-1.7c0.2-0.2,0.6-0.1,0.9-0.1c0.4-0.2,0.7-0.3,1.1-0.5c0.5,0,0.8-0.1,1.3-0.2
			c0.5-0.3,0.9-1,1.3-1.4c0.2-0.3,0.7-0.7,0.8-1c0.1-0.4-0.1-0.8-0.2-1.4c0.5,0.1,0.9,0,1.3-0.4c0.4-0.3,0.3-0.8-0.2-1
			c-0.1,0-0.5,0-0.6,0.1l1.8-1.6l0.4-1.6l-0.5,0.2l0.2-0.8l-1.4,0.1c0.2-0.3,0.9-1.1,1.2-1.4c0.6-0.4,1.3-0.4,1.6-1.2
			c-1.3,0.2-2.9,1.4-3.7,2.4l-1.3,1.7l0.1-0.5c-1.3,0.4-1.2,1.2-1.7,1.5l-0.2,0.2c0.4,0-2.2,0.1-1.8,0.2c-0.7-0.1-1.4-0.7-2-1.1
			c-0.4-0.4-0.7-0.7-1.2-0.4l-2.4-1.9c0.2-0.3,0.3-0.4,0.1-0.7c-0.3-0.2-1-0.4-1.5-0.8c-1-0.8-1-1.6-1.1-2.8c-0.1-1-0.2-1-0.6-1.9
			c-0.2-0.4-0.2-0.6-0.5-1c-0.3-0.4-1-0.8-1.4-1.2c-0.6-0.5-1.3-1.1-2-1.1c-0.9-0.2-1.7,0.4-2.5,0.2c-0.7-0.2-1.6-1-2.4-1.4
			c-0.5-0.1-1.2,0-1.7,0c0-0.3-0.1-0.8-0.4-0.9c-0.4-0.2-1.2,0.1-1.7,0.2c-0.5,0-0.7-0.3-1.1-0.4c-0.4-0.1-2.2-0.1-2.5,0.2
			C414.8,241.7,414.9,242.1,415,242.3L415,242.3L415,242.3z M507.8,228.8c1.1,1.3,3,3.1,4.6,3.4c-0.5-0.7-0.9-0.8-1.5-1.3
			C510,230.3,508.6,229.1,507.8,228.8L507.8,228.8z M497.4,223.5l-0.3-0.6c0.5,0.2,1.1,0.4,1.4,0.9c0.2,0.4,0.2,0.6,0.2,1
			c0.1,0.8,1.4,2.5,2.2,2.6c0.3,0.1,0.3,0,0.5,0l-0.7-2.6c-0.3-0.4-0.7-0.2-1.1-0.7l-2.7-3.2c-0.2-0.2-0.8-1-0.7-1.4
			c0.2-0.3,0.9-0.3,1.1-0.4l-2.5-2.3c-0.3-0.2-0.7-0.7-1.2-0.5c-0.5,0.2-0.7,0.9-0.9,1.3c-0.2,0.4-0.6,0.8-0.5,1.2
			c0.2,0.5,0.8,1.1,1.1,1.5l2.3,1.9C496.3,222.8,496.6,223.2,497.4,223.5L497.4,223.5z M531.1,223.3c-0.3-1.9-1.6-3.8-3.1-5.2
			l-2.3-1.9c-0.9-1-1.9-2.6-3.2-3.8c-1.4-1.2-2.5-1.5-3.8-2.4l-2.2-1.9l-3.9-3.2c-1-0.8-2.2-2.2-3-3.1c-0.8-1.1-0.6-1.5-1-2
			c-0.3-0.4-1.4-0.8-1.9-0.9l0.2-0.5l-1-0.4c0.5-1.1-0.2-0.8-1-1.8c-0.3-0.4-0.4-0.9-0.8-1.6c-0.7-0.9-1.7-1.6-2.7-2.1l-4.7-2.6
			c-1.5-0.8-3.6-1.9-5.3-2c-1.3,0-2.2,0.7-3.4,1c-1.2,0.2-3.6,0.2-4.4,1.3c-0.8,1,1.2,2.8,2,3.5l2.1,2c0.6,0.6,0.8,1,1.4,1.7
			c0.6,0.5,1.7,1.2,2.2,1.8c0.5,0.6-0.3,0.8,0.3,1.7c0.5,0.7,1.6,1.7,2,2.5c0.2,0.5,0.3,1.3,0.7,1.6c0.4,0.2,0.9-0.1,1.3-0.1
			c0.6-0.2,2.5-1.1,3.1-0.8c0.6,0.3,2.5,2.3,2.9,2.8c0.3,0.2,0.9,0.8,0.8,1.2c0.1,0.6-2-0.1-1.5,0.8c0.2,0.2,1.4,0.9,1.8,1.3
			l1.6,1.4l1.9,1.4c0.4,0.4,0.9,1.1,1.3,1.3c0.8,0.3,1.2-0.6,1.9-0.2c1.4,0.7,2.4,2.5,3.8,3.7c1,0.6,1.2,0.4,2,0.7
			c0.7,0.3,1.1,0.8,1.8,1.3c1.1,0.6,1.2,0.2,2.5,1.2c1.7,1.4,3.2,2.9,4.7,4.4c0.6,0.6,2,1.9,2.7,2.1c0.1,0,0.3,0,0.4,0l1.5-0.8
			c0,0,0.1,0,0.1-0.1c0.1-0.4,0-0.9,0.1-1.3c0.1-0.4,0.3-0.6,0.4-1.1c0.1-0.4,0-1.2,0.4-1.3C530.1,222.6,530.8,223.1,531.1,223.3
			C531.1,223.3,531.1,223.3,531.1,223.3z M499.4,189.4c-0.1-0.5-0.2-0.6-0.4-1.1c-0.8-1.1-1.6-1.8-2.9-2.2c-0.4-0.1-1.6-0.4-1.8,0
			c-0.3,0.6,1.1,1.5,1.5,1.7c0.4,0.4,1,0.6,1.4,0.9C498,189.2,498.4,189.3,499.4,189.4L499.4,189.4z M448.5,178.5
			c1.7,0.1,2.4,0.1,4,0.7c1.5,0.5,2.4,1.4,4.1,1.5l-1.9-2.1l1.1-0.8c-0.6-0.5-0.8-0.5-1.4-0.8c-0.3-0.2-0.3-0.5-0.6-0.7
			c-0.3,0-0.9,0.1-1.2,0.1c-0.8,0.2-1.4,0.4-2.3,0.7C449.5,177.4,448.5,177.6,448.5,178.5L448.5,178.5z M456.4,174.9
			c-0.2,0.7-0.8,0.9-1.4,1.3c0.1,0.1,0.2,0.2,0.3,0.4c0.4,0.2,2.6,0.6,3.1,0.6c1.3,0,1.4-0.8,2.9-1l1.9-0.3c1.8-0.2,4.3-0.3,5.9-1.1
			c-0.6-0.9-1-0.8-2-1.1c-1.5-0.4-3.1-0.5-4.6,0c-1.4,0.4-1.3,0.9-3.2,1.1L456.4,174.9C456.4,174.9,456.4,174.9,456.4,174.9z
			 M428.8,397.6C398.4,391.1,434.9,398.9,428.8,397.6L428.8,397.6z"/>
	</g>
</g>
</svg>
