<?xml version="1.0" encoding="utf-8"?>
<!-- Generator: Adobe Illustrator 22.0.0, SVG Export Plug-In . SVG Version: 6.00 Build 0)  -->
<svg version="1.1" id="svg2" xmlns:svg="http://www.w3.org/2000/svg"
	 xmlns="http://www.w3.org/2000/svg" xmlns:xlink="http://www.w3.org/1999/xlink" x="0px" y="0px" viewBox="0 0 388 538"
	 style="enable-background:new 0 0 388 538;" xml:space="preserve">
<style type="text/css">
	.st0{font-family:'STBaoliSC-Regular';}
	.st1{font-size:36px;}
	.st2{font-family:'STKaiti';}
	.st3{font-size:20px;}
	.st4{font-size:18.9263px;}
	.st5{fill:#10A5FF;stroke:#000000;stroke-width:42.7998;}
	.st6{fill:#FFFFFF;}
	.st7{fill:none;stroke:#FFFFFF;stroke-width:21.3999;}
</style>
<text transform="matrix(0.9381 0 0 1 75.802 272.9995)" class="st0 st1">石油输出国组织</text>
<text transform="matrix(1 0 0 1 83.9999 306.1289)" class="st2 st3">苏联每控制以下一个国家</text>
<text transform="matrix(1 0 0 1 146.7201 330.1289)" class="st2 st3">就获1VP：</text>
<text transform="matrix(1 0 0 1 94 364.1286)" class="st2 st3">埃及、伊朗、利比亚、</text>
<text transform="matrix(1 0 0 1 74 388.1286)" class="st2 st3">沙特阿拉伯、伊拉克、海湾</text>
<text transform="matrix(1 0 0 1 114 412.9291)" class="st2 st3">诸国和委内瑞拉。</text>
<text transform="matrix(0.9511 0 -0.309 0.9511 75.1693 440.2498)" class="st2 st4">“北海是有”生效时不能作为</text>
<text transform="matrix(0.9511 0 -0.309 0.9511 140.1509 461.8501)" class="st2 st4">事件打出。</text>
<g id="g12" transform="matrix(0.467775,0,0,-0.4668103,-142.305,321.2069)">
	<g id="g14" transform="scale(0.1,0.1)">
		<g id="g3713" transform="translate(5030.303,2189.4737)">
			<path id="path16" class="st5" d="M159.2,0h4000v2400h-4000V0z"/>
			<path id="path18" class="st6" d="M2084.1,1615.4c0-200.2-162.3-362.4-362.4-362.4s-362.4,162.3-362.4,362.4
				s162.3,362.4,362.4,362.4S2084.1,1815.6,2084.1,1615.4z"/>
			<path id="path20" class="st6" d="M2113.8,1946.2c22.6-304.5-7.4-1487.3,69.2-1486.4c64.5,0.8,59.6,1181.5,82.8,1486
				C2265.8,1945.9,2113.8,1946.2,2113.8,1946.2z"/>
			<path id="path22" class="st7" d="M2113.8,1946.2c22.6-304.5-7.4-1487.3,69.2-1486.4c64.5,0.8,59.6,1181.5,82.8,1486
				C2265.8,1945.9,2113.8,1946.2,2113.8,1946.2z"/>
			<path id="path24" class="st6" d="M1943.3,1050.1c0,0-138.8,132-327.5,74.5c-156.2-47.6-248.6-166.1-252.5-341.4
				c-3.9-175.3,110.8-324.9,317.7-346c163.9-16.8,284.7,89.6,284.7,89.6s-64.6,49.4-26.3,126.5c20.2,40.7,116,31.6,116,31.6
				c7.1,50.4,18.1,80.2-5.3,216.8c0,0-93.6-19.7-123.2,39.6C1906.6,981.7,1943.3,1050.1,1943.3,1050.1L1943.3,1050.1z"/>
			<path id="path26" class="st7" d="M1943.3,1050.1c0,0-138.8,132-327.5,74.5c-156.2-47.6-248.6-166.1-252.5-341.4
				c-3.9-175.3,110.8-324.9,317.7-346c163.9-16.8,284.7,89.6,284.7,89.6s-64.6,49.4-26.3,126.5c20.2,40.7,116,31.6,116,31.6
				c7.1,50.4,18.1,80.2-5.3,216.8c0,0-93.6-19.7-123.2,39.6C1906.6,981.7,1943.3,1050.1,1943.3,1050.1L1943.3,1050.1z"/>
			<path id="path28" class="st6" d="M2935,941.3c0,0-74.8,213.1-326.8,202c-191.8-8.4-342.1-166.8-335.8-342.6
				c7.9-225.8,154-344.4,324.5-356.3c234.3-16.4,331.2,163.4,331.2,163.4s-133.1,39.1-131.6,172.4
				C2798.1,913.6,2935,941.3,2935,941.3L2935,941.3L2935,941.3z"/>
			<path id="path30" class="st7" d="M2935,941.3c0,0-74.8,213.1-326.8,202c-191.8-8.4-342.1-166.8-335.8-342.6
				c7.9-225.8,154-344.4,324.5-356.3c234.3-16.4,331.2,163.4,331.2,163.4s-133.1,39.1-131.6,172.4
				C2798.1,913.6,2935,941.3,2935,941.3L2935,941.3L2935,941.3z"/>
			<path id="path32" class="st6" d="M2939,1615.4c0-200.2-162.3-362.4-362.4-362.4s-362.4,162.3-362.4,362.4
				s162.3,362.4,362.4,362.4S2939,1815.6,2939,1615.4z"/>
		</g>
	</g>
</g>
</svg>
