<?xml version="1.0" encoding="utf-8"?>
<!-- Generator: Adobe Illustrator 22.0.0, SVG Export Plug-In . SVG Version: 6.00 Build 0)  -->
<svg version="1.1" id="svg2" xmlns:svg="http://www.w3.org/2000/svg"
	 xmlns="http://www.w3.org/2000/svg" xmlns:xlink="http://www.w3.org/1999/xlink" x="0px" y="0px" viewBox="0 0 388 538"
	 style="enable-background:new 0 0 388 538;" xml:space="preserve">
<style type="text/css">
	.st0{font-family:'STBaoliSC-Regular';}
	.st1{font-size:36px;}
	.st2{font-family:'STKaiti';}
	.st3{font-size:20px;}
	.st4{enable-background:new    ;}
	.st5{font-family:'STHeiti';}
	.st6{fill:#FFFFFF;}
	.st7{fill:#006600;}
	.st8{fill:none;stroke:#000000;stroke-width:1.9902;}
	.st9{fill:#91B8C9;}
	.st10{fill:#FF9932;}
	.st11{fill:#128807;}
	.st12{fill:#000080;}
	.st13{opacity:0.8967;fill:none;stroke:#000000;stroke-width:1.9759;stroke-linecap:square;enable-background:new    ;}
</style>
<text transform="matrix(0.9372 0 0 1 42.1809 214.9999)" class="st0 st1">印度—巴基斯坦战争</text>
<text transform="matrix(1 0 0 1 83.9999 252.5)" class="st2 st3">印度或巴基斯坦入侵对方</text>
<text transform="matrix(1 0 0 1 73.9999 276.5)" class="st2 st3">（玩家选择）。掷骰一次，</text>
<text transform="matrix(1 0 0 1 73.9999 300.5)" class="st2 st3">若对手每控制一个临近入侵</text>
<text transform="matrix(1 0 0 1 69.3803 324.5)" class="st2 st3">目标的国家，掷骰点数减1。</text>
<text transform="matrix(1 0 0 1 61.0101 348.5)" class="st2 st3">修正的掷骰点数是4-6时，玩家</text>
<text transform="matrix(1 0 0 1 59.3803 372.5)" class="st2 st3">获胜。玩家的军事行动条加2。</text>
<text transform="matrix(1 0 0 1 96.83 405.2572)" class="st4"><tspan x="0" y="0" class="st5 st3">胜利影响：</tspan><tspan x="100" y="0" class="st2 st3">玩家获2VP，</tspan></text>
<text transform="matrix(1 0 0 1 53.9999 429.2572)" class="st2 st3">同时对手在目标国的所有影响力</text>
<text transform="matrix(1 0 0 1 93.9999 453.2572)" class="st2 st3">换成为自己的影响力。</text>
<g>
	<rect id="rect5418" x="211.5" y="104.5" class="st6" width="99" height="67"/>
	<rect id="rect5420" x="236.1" y="105" class="st7" width="74.3" height="66"/>
	<ellipse id="circle5422" class="st6" cx="273.2" cy="138" rx="20" ry="19.8"/>
	<ellipse id="circle5424" class="st7" cx="278.3" cy="133.5" rx="18.3" ry="18.2"/>
	<g id="cone" transform="matrix(0.61661391,-0.54810218,0.54810045,0.61661585,283.09268,129.21184)">
		<polygon id="triangle" class="st6" points="8,0 8,0 0.4,-2.5 -0.8,1.3 		"/>
		<g id="use5431" transform="scale(1,-1)">
			<polygon id="triangle_1_" class="st6" points="8,0 8,0 0.4,2.5 -0.8,-1.3 			"/>
		</g>
	</g>
	<g>
		<g id="cone_1_" transform="matrix(0.61661391,-0.54810218,0.54810045,0.61661585,283.09268,129.21184)">
			<polygon id="triangle_2_" class="st6" points="2.5,7.6 2.5,7.6 2.5,-0.4 -1.5,-0.4 			"/>
			<g id="use5433" transform="matrix(0.309017,0.9510595,-0.9510535,0.309017,318.4996,-179.9548)">
				<polygon id="triangle_3_" class="st6" points="2.5,7.6 2.5,7.6 -2.2,1.1 1,-1.2 				"/>
			</g>
		</g>
		<g>
			<g id="cone_2_" transform="matrix(0.61661391,-0.54810218,0.54810045,0.61661585,283.09268,129.21184)">
				<polygon id="triangle_4_" class="st6" points="2.5,-7.6 2.5,-7.6 -2.2,-1.1 1,1.2 				"/>
				<g id="use5435" transform="matrix(0.309017,-0.9510595,0.9510535,0.309017,72.724855,358.52117)">
					<polygon id="triangle_5_" class="st6" points="2.5,-7.6 2.5,-7.6 2.5,0.4 -1.5,0.4 					"/>
				</g>
			</g>
			<g>
				<g id="cone_3_" transform="matrix(0.61661391,-0.54810218,0.54810045,0.61661585,283.09268,129.21184)">
					<polygon id="triangle_6_" class="st6" points="-6.5,4.7 -6.5,4.7 1.1,2.2 -0.1,-1.6 					"/>
					<g id="use5437" transform="matrix(-0.809017,0.58778715,-0.58778345,-0.809017,588.06805,67.348175)">
						<polygon id="triangle_7_" class="st6" points="-6.5,4.7 -6.5,4.7 -1.8,-1.8 1.5,0.6 						"/>
					</g>
				</g>
				<g id="g3950" transform="matrix(1.009901,0,0,1,-2.5841584,-0.5)">
					<g id="cone_4_" transform="matrix(0.61661391,-0.54810218,0.54810045,0.61661585,283.09268,129.21184)">
						<polygon id="triangle_8_" class="st6" points="-6.5,-4.7 -6.5,-4.7 -1.8,1.8 1.5,-0.6 						"/>
						<g id="use5439" transform="matrix(-0.809017,-0.58778715,0.58778345,-0.809017,436.17089,400.14466)">
							<polygon id="triangle_9_" class="st6" points="-6.5,-4.7 -6.5,-4.7 1.1,-2.2 -0.1,1.6 							"/>
						</g>
					</g>
					
						<rect id="rect3963" x="211.4" y="104.6" transform="matrix(-1 4.091297e-03 -4.091297e-03 -1 522.5624 274.931)" class="st8" width="99.2" height="66.9"/>
				</g>
				<g id="g9633" transform="translate(-8.3333333,-29.62963)">
					<path id="path5697" class="st9" d="M185.1,164.6v7H208v-7H185.1z"/>
					<path id="path9639" class="st9" d="M177.1,168.1l12-7v14L177.1,168.1z"/>
					<path id="path9641" class="st9" d="M216,168.1l-12,7v-14L216,168.1z"/>
				</g>
				<g id="g3080" transform="matrix(1.009901,0,0,1.0144928,-1.1287129,-2)">
					<path id="path16" class="st10" d="M66.9,127.5h97v-22h-97V127.5z"/>
					<path id="path18" class="st6" d="M66.9,149.5h97v-22h-97V149.5z"/>
					<path id="path20" class="st11" d="M66.9,171.5h97v-22h-97V171.5z"/>
					<path id="path22" class="st12" d="M125.5,138.5c0,5.7-4.5,10.2-10,10.2c-5.5,0-10-4.6-10-10.2c0-5.6,4.5-10.2,10-10.2
						C121,128.3,125.5,132.8,125.5,138.5z"/>
					<path id="path24" class="st6" d="M124.3,138.5c0,5-4,9-8.8,9c-4.9,0-8.8-4-8.8-9c0-5,4-9,8.8-9
						C120.3,129.5,124.3,133.5,124.3,138.5z"/>
					<path id="path26" class="st12" d="M124.7,139.7c0,0.3-0.3,0.5-0.6,0.5c-0.3,0-0.5-0.3-0.5-0.6c0-0.3,0.3-0.5,0.6-0.5
						C124.6,139.2,124.8,139.4,124.7,139.7z"/>
					<path id="path28" class="st12" d="M115.4,147.5l0.3-5.3c-0.1-0.4-0.3-1.7-0.3-3.7c-0.1,2.1-0.2,3.3-0.3,3.7L115.4,147.5z"/>
					<path id="path30" class="st12" d="M124.1,142.2c-0.1,0.3-0.4,0.4-0.7,0.3c-0.3-0.1-0.4-0.4-0.3-0.7c0.1-0.3,0.4-0.4,0.7-0.3
						C124.1,141.6,124.2,141.9,124.1,142.2z"/>
					<path id="path32" class="st12" d="M113.1,147.2l1.7-5c0-0.5,0.2-1.7,0.6-3.7c-0.6,2-1,3.1-1.3,3.5L113.1,147.2z"/>
					<path id="path34" class="st12" d="M122.9,144.3c-0.2,0.2-0.5,0.3-0.8,0.1c-0.2-0.2-0.3-0.5-0.1-0.8c0.2-0.2,0.5-0.3,0.8-0.1
						C123,143.7,123,144.1,122.9,144.3z"/>
					<path id="path36" class="st12" d="M111,146.3l2.9-4.4c0.1-0.5,0.6-1.6,1.6-3.4c-1.1,1.7-1.8,2.8-2.1,3.1L111,146.3z"/>
					<path id="path38" class="st12" d="M121.1,146.1c-0.2,0.2-0.6,0.1-0.8-0.1c-0.2-0.2-0.1-0.6,0.1-0.8c0.2-0.2,0.6-0.1,0.8,0.1
						C121.4,145.6,121.4,145.9,121.1,146.1L121.1,146.1z"/>
					<path id="path40" class="st12" d="M109.2,144.9l3.9-3.5c0.2-0.4,1-1.4,2.4-2.9c-1.5,1.4-2.4,2.2-2.8,2.4L109.2,144.9z"/>
					<path id="path42" class="st12" d="M119,147.3c-0.3,0.1-0.6,0-0.7-0.3c-0.1-0.3,0-0.6,0.3-0.7c0.3-0.1,0.6,0,0.7,0.3
						C119.4,146.9,119.3,147.2,119,147.3z"/>
					<path id="path44" class="st12" d="M107.8,143l4.6-2.4c0.3-0.3,1.3-1.1,3-2.2c-1.8,1-2.9,1.5-3.3,1.6L107.8,143z"/>
					<path id="path46" class="st12" d="M116.6,148c-0.3,0-0.6-0.2-0.6-0.5c0-0.3,0.2-0.6,0.5-0.6c0.3,0,0.6,0.2,0.6,0.5
						C117.2,147.7,116.9,147.9,116.6,148z"/>
					<path id="path48" class="st12" d="M106.9,140.8l5.1-1c0.4-0.3,1.5-0.7,3.5-1.3c-2,0.5-3.2,0.7-3.6,0.7L106.9,140.8z"/>
					<path id="path50" class="st12" d="M114.2,148c-0.3,0-0.5-0.3-0.5-0.6c0-0.3,0.3-0.5,0.6-0.5c0.3,0,0.5,0.3,0.5,0.6
						C114.8,147.8,114.5,148,114.2,148z"/>
					<path id="path52" class="st12" d="M106.6,138.5l5.2,0.3c0.4-0.1,1.7-0.3,3.7-0.3c-2-0.1-3.2-0.2-3.7-0.3L106.6,138.5z"/>
					<path id="path54" class="st12" d="M111.8,147.3c-0.3-0.1-0.4-0.4-0.3-0.7c0.1-0.3,0.4-0.4,0.7-0.3c0.3,0.1,0.4,0.4,0.3,0.7
						C112.4,147.3,112.1,147.5,111.8,147.3z"/>
					<path id="path56" class="st12" d="M106.9,136.2l4.9,1.7c0.5,0,1.7,0.2,3.6,0.6c-1.9-0.6-3.1-1-3.5-1.3L106.9,136.2L106.9,136.2
						z"/>
					<path id="path58" class="st12" d="M109.7,146.1c-0.2-0.2-0.3-0.5-0.1-0.8c0.2-0.2,0.5-0.3,0.8-0.1c0.2,0.2,0.3,0.5,0.1,0.8
						C110.3,146.2,110,146.3,109.7,146.1z"/>
					<path id="path60" class="st12" d="M107.8,134l4.3,2.9c0.4,0.1,1.6,0.6,3.3,1.6c-1.7-1.1-2.7-1.8-3-2.2L107.8,134z"/>
					<path id="path62" class="st12" d="M108,144.3c-0.2-0.2-0.1-0.6,0.1-0.8c0.2-0.2,0.6-0.1,0.8,0.1c0.2,0.2,0.1,0.6-0.1,0.8
						C108.5,144.6,108.2,144.6,108,144.3L108,144.3z"/>
					<path id="path64" class="st12" d="M109.2,132.1l3.4,4c0.4,0.2,1.3,1,2.8,2.4c-1.4-1.5-2.2-2.5-2.4-2.9L109.2,132.1z"/>
					<path id="path66" class="st12" d="M106.8,142.2c-0.1-0.3,0-0.6,0.3-0.7c0.3-0.1,0.6,0,0.7,0.3c0.1,0.3,0,0.6-0.3,0.7
						C107.2,142.6,106.9,142.4,106.8,142.2z"/>
					<path id="path68" class="st12" d="M111,130.7l2.3,4.7c0.3,0.3,1,1.3,2.1,3.1c-0.9-1.8-1.5-2.9-1.6-3.4L111,130.7L111,130.7z"/>
					<path id="path70" class="st12" d="M106.1,139.7c0-0.3,0.2-0.6,0.5-0.6c0.3,0,0.6,0.2,0.6,0.5c0,0.3-0.2,0.6-0.5,0.6
						C106.4,140.3,106.2,140,106.1,139.7z"/>
					<path id="path72" class="st12" d="M113.1,129.8l1,5.2c0.3,0.4,0.7,1.6,1.3,3.5c-0.5-2-0.7-3.2-0.6-3.7L113.1,129.8L113.1,129.8
						z"/>
					<path id="path74" class="st12" d="M106.1,137.2c0-0.3,0.3-0.5,0.6-0.5c0.3,0,0.5,0.3,0.5,0.6c0,0.3-0.3,0.5-0.6,0.5
						C106.3,137.8,106.1,137.5,106.1,137.2z"/>
					<path id="path76" class="st12" d="M115.4,129.5l-0.3,5.3c0.1,0.4,0.3,1.7,0.3,3.7c0.1-2.1,0.2-3.3,0.3-3.7L115.4,129.5z"/>
					<path id="path78" class="st12" d="M106.8,134.8c0.1-0.3,0.4-0.4,0.7-0.3c0.3,0.1,0.4,0.4,0.3,0.7c-0.1,0.3-0.4,0.4-0.7,0.3
						C106.8,135.4,106.6,135.1,106.8,134.8z"/>
					<path id="path80" class="st12" d="M117.7,129.8l-1.7,5c0,0.5-0.2,1.7-0.6,3.7c0.6-2,1-3.1,1.3-3.5
						C116.7,135,117.7,129.8,117.7,129.8z"/>
					<path id="path82" class="st12" d="M108,132.7c0.2-0.2,0.5-0.3,0.8-0.1c0.2,0.2,0.3,0.5,0.1,0.8c-0.2,0.2-0.5,0.3-0.8,0.1
						C107.8,133.3,107.8,132.9,108,132.7L108,132.7z"/>
					<path id="path84" class="st12" d="M119.8,130.7l-2.9,4.4c-0.1,0.5-0.6,1.6-1.6,3.4c1.1-1.7,1.8-2.8,2.1-3.1L119.8,130.7
						L119.8,130.7z"/>
					<path id="path86" class="st12" d="M109.7,130.9c0.2-0.2,0.6-0.1,0.8,0.1c0.2,0.2,0.1,0.6-0.1,0.8c-0.2,0.2-0.6,0.1-0.8-0.1
						C109.4,131.4,109.5,131.1,109.7,130.9z"/>
					<path id="path88" class="st12" d="M121.7,132.1l-3.9,3.5c-0.2,0.4-1,1.4-2.4,2.9c1.5-1.4,2.4-2.2,2.8-2.4
						C118.2,136.1,121.7,132.1,121.7,132.1z"/>
					<path id="path90" class="st12" d="M111.8,129.7c0.3-0.1,0.6,0,0.7,0.3c0.1,0.3,0,0.6-0.3,0.7c-0.3,0.1-0.6,0-0.7-0.3
						C111.4,130.1,111.6,129.8,111.8,129.7z"/>
					<path id="path92" class="st12" d="M123.1,134l-4.6,2.4c-0.3,0.3-1.3,1.1-3,2.2c1.8-1,2.9-1.5,3.3-1.6L123.1,134z"/>
					<path id="path94" class="st12" d="M114.2,129c0.3,0,0.6,0.2,0.6,0.5c0,0.3-0.2,0.6-0.5,0.6c-0.3,0-0.6-0.2-0.6-0.5
						C113.7,129.3,113.9,129,114.2,129z"/>
					<path id="path96" class="st12" d="M124,136.2l-5.1,1c-0.4,0.3-1.5,0.7-3.5,1.3c2-0.5,3.2-0.7,3.6-0.6L124,136.2L124,136.2z"/>
					<path id="path98" class="st12" d="M116.6,129c0.3,0,0.5,0.3,0.5,0.6c0,0.3-0.3,0.5-0.6,0.5c-0.3,0-0.5-0.3-0.5-0.6
						C116.1,129.2,116.4,129,116.6,129z"/>
					<path id="path100" class="st12" d="M124.3,138.5l-5.2-0.3c-0.4,0.1-1.7,0.3-3.7,0.3c2,0.1,3.2,0.2,3.7,0.3L124.3,138.5z"/>
					<path id="path102" class="st12" d="M119,129.7c0.3,0.1,0.4,0.4,0.3,0.7c-0.1,0.3-0.4,0.4-0.7,0.3c-0.3-0.1-0.4-0.4-0.3-0.7
						C118.4,129.7,118.7,129.5,119,129.7z"/>
					<path id="path104" class="st12" d="M124,140.8l-4.9-1.7c-0.5,0-1.7-0.2-3.6-0.7c1.9,0.6,3.1,1,3.5,1.3L124,140.8z"/>
					<path id="path106" class="st12" d="M121.1,130.9c0.2,0.2,0.3,0.5,0.1,0.8c-0.2,0.2-0.5,0.3-0.8,0.1c-0.2-0.2-0.3-0.5-0.1-0.8
						C120.6,130.8,120.9,130.7,121.1,130.9L121.1,130.9z"/>
					<path id="path108" class="st12" d="M123.1,143l-4.3-2.9c-0.4-0.1-1.6-0.6-3.3-1.6c1.7,1.1,2.7,1.8,3,2.2L123.1,143z"/>
					<path id="path110" class="st12" d="M122.9,132.7c0.2,0.2,0.1,0.6-0.1,0.8c-0.2,0.2-0.6,0.1-0.8-0.1c-0.2-0.2-0.1-0.6,0.1-0.8
						C122.3,132.4,122.7,132.4,122.9,132.7z"/>
					<path id="path112" class="st12" d="M121.7,144.9l-3.4-4c-0.4-0.2-1.3-1-2.8-2.4c1.4,1.5,2.2,2.5,2.4,2.9
						C117.8,141.4,121.7,144.9,121.7,144.9z"/>
					<path id="path114" class="st12" d="M124.1,134.8c0.1,0.3,0,0.6-0.3,0.7c-0.3,0.1-0.6,0-0.7-0.3c-0.1-0.3,0-0.6,0.3-0.7
						C123.7,134.4,124,134.5,124.1,134.8z"/>
					<path id="path116" class="st12" d="M119.8,146.3l-2.3-4.7c-0.3-0.3-1-1.3-2.1-3.1c0.9,1.8,1.5,2.9,1.6,3.4L119.8,146.3z"/>
					<path id="path118" class="st12" d="M124.7,137.2c0,0.3-0.2,0.6-0.5,0.6c-0.3,0-0.6-0.2-0.6-0.5c0-0.3,0.2-0.6,0.5-0.6
						C124.4,136.7,124.7,136.9,124.7,137.2z"/>
					<path id="path120" class="st12" d="M117.7,147.2l-1-5.2c-0.3-0.4-0.7-1.6-1.3-3.5c0.5,2,0.7,3.2,0.6,3.7
						C116.1,142.2,117.7,147.2,117.7,147.2z"/>
					<path id="path122" class="st12" d="M117.2,138.5c0,1-0.8,1.8-1.7,1.8c-1,0-1.7-0.8-1.7-1.8c0-1,0.8-1.8,1.7-1.8
						C116.4,136.7,117.2,137.5,117.2,138.5z"/>
					
						<rect id="rect5463" x="66.3" y="105.1" transform="matrix(-1 4.091297e-03 -4.091297e-03 -1 231.4198 276.5122)" class="st13" width="98.2" height="66.9"/>
				</g>
			</g>
		</g>
	</g>
</g>
<rect x="-46" y="192.9" style="fill:none;" width="0" height="7"/>
</svg>
