<?xml version="1.0" encoding="utf-8"?>
<!-- Generator: Adobe Illustrator 22.0.0, SVG Export Plug-In . SVG Version: 6.00 Build 0)  -->
<svg version="1.1" id="use39" xmlns="http://www.w3.org/2000/svg" xmlns:xlink="http://www.w3.org/1999/xlink" x="0px" y="0px"
	 viewBox="0 0 388 538" style="enable-background:new 0 0 388 538;" xml:space="preserve">
<style type="text/css">
	.st0{font-family:'STKaiti';}
	.st1{font-size:20px;}
	.st2{font-family:'STBaoliSC-Regular';}
	.st3{font-size:36px;}
	.st4{font-family:'AdobeSongStd-Light-GBpc-EUC-H';}
	.st5{font-size:18px;}
	.st6{fill:#FFFFFF;}
	.st7{fill:#BB133E;}
	.st8{fill:#002664;}
	.st9{opacity:0.8374;fill:none;stroke:#000000;enable-background:new    ;}
	.st10{fill:#CC0000;}
	.st11{fill:#FFD700;}
	.st12{fill:#211F20;stroke:#211F20;}
</style>
<g id="图层_2">
</g>
<g id="svg2" xmlns:svg="http://www.w3.org/2000/svg">
	<text transform="matrix(1 0 0 1 79.38 298.7951)" class="st0 st1">如果核危机状态在等级2，</text>
	<text transform="matrix(1 0 0 1 106.8299 322.7951)" class="st0 st1">你可以给对手6VP后</text>
	<text transform="matrix(1 0 0 1 134.0001 346.7951)" class="st0 st1">立即结束游戏</text>
	<text transform="matrix(1 0 0 1 73.9998 370.7951)" class="st0 st1">（不经过结局计分阶段）。</text>
	<text transform="matrix(0.94 0 0 1 117.8591 262.1147)" class="st2 st3">战争游戏*</text>
	<text transform="matrix(1 0 0 1 94.9998 407.3315)" class="st4 st5">来一场精彩对弈怎么样？</text>
	<g>
		<g>
			<rect id="rect51" x="0" y="0" class="st6" width="1098.9" height="650"/>
			<g id="use53" transform="scale(0.86130867,1)">
				<rect id="stripe" y="0" class="st7" width="1063.7" height="50"/>
			</g>
			<g id="use55">
				<rect id="stripe_1_" x="0" y="100" class="st7" width="1235" height="50"/>
			</g>
			<g id="use57">
				<rect id="stripe_2_" x="0" y="200" class="st7" width="1235" height="50"/>
			</g>
			<g id="use59">
				<rect id="stripe_3_" x="0" y="300" class="st7" width="1235" height="50"/>
			</g>
			<g id="use61">
				<rect id="stripe_4_" x="0" y="400" class="st7" width="1235" height="50"/>
			</g>
			<g id="use63">
				<rect id="stripe_5_" x="0" y="500" class="st7" width="1235" height="50"/>
			</g>
			<g id="use65">
				<rect id="stripe_6_" x="0" y="600" class="st7" width="1235" height="50"/>
			</g>
			<rect id="rect67" x="0" y="0" class="st8" width="494" height="350"/>
			<g>
				<g>
					<g>
						<g>
							<g>
								<g>
									<g>
										<g>
											<g>
												<g id="star">
													<g id="use8" transform="matrix(-0.80901699,-0.58778525,0.58778525,-0.80901699,0,0)">
														<polygon id="abpt" class="st6" points="47.5,38.4 30.5,50.8 37,30.8 														"/>
													</g>
													<g id="use10" transform="matrix(0.30901699,-0.95105652,0.95105652,0.30901699,0,0)">
														<polygon id="abpt_1_" class="st6" points="40.2,40.8 23.2,28.4 44.3,28.4 														"/>
													</g>
													<g id="use12">
														<polygon id="abpt_2_" class="st6" points="35.7,34.6 42.3,14.6 48.8,34.6 														"/>
													</g>
													<g id="use14" transform="matrix(0.30901699,0.95105652,-0.95105652,0.30901699,0,0)">
														<polygon id="abpt_3_" class="st6" points="40.2,28.4 61.3,28.4 44.3,40.8 														"/>
													</g>
													<g id="use19" transform="matrix(-0.80901699,0.58778525,-0.58778525,-0.80901699,0,0)">
														<polygon id="abpt_4_" class="st6" points="47.5,30.8 54,50.8 37,38.4 														"/>
													</g>
												</g>
												<g>
													<g id="star_1_">
														<g id="use8_1_" transform="matrix(-0.80901699,-0.58778525,0.58778525,-0.80901699,0,0)">
															<polygon id="abpt_5_" class="st6" points="129.4,38.4 112.4,50.8 118.9,30.8 															"/>
														</g>
														<g id="use10_1_" transform="matrix(0.30901699,-0.95105652,0.95105652,0.30901699,0,0)">
															<polygon id="abpt_6_" class="st6" points="122.1,40.8 105.1,28.4 126.2,28.4 															"/>
														</g>
														<g id="use12_1_">
															<polygon id="abpt_7_" class="st6" points="117.6,34.6 124.2,14.6 130.7,34.6 															"/>
														</g>
														<g id="use14_1_" transform="matrix(0.30901699,0.95105652,-0.95105652,0.30901699,0,0)">
															<polygon id="abpt_8_" class="st6" points="122.1,28.4 143.2,28.4 126.2,40.8 															"/>
														</g>
														<g id="use21" transform="matrix(-0.80901699,0.58778525,-0.58778525,-0.80901699,0,0)">
															<polygon id="abpt_9_" class="st6" points="129.4,30.8 135.9,50.8 118.9,38.4 															"/>
														</g>
													</g>
													<g>
														<g id="star_2_">
															<g id="use8_2_" transform="matrix(-0.80901699,-0.58778525,0.58778525,-0.80901699,0,0)">
																<polygon id="abpt_10_" class="st6" points="211.3,38.4 194.3,50.8 200.8,30.8 																"/>
															</g>
															<g id="use10_2_" transform="matrix(0.30901699,-0.95105652,0.95105652,0.30901699,0,0)">
																<polygon id="abpt_11_" class="st6" points="204,40.8 187,28.4 208.1,28.4 																"/>
															</g>
															<g id="use12_2_">
																<polygon id="abpt_12_" class="st6" points="199.5,34.6 206.1,14.6 212.6,34.6 																"/>
															</g>
															<g id="use14_2_" transform="matrix(0.30901699,0.95105652,-0.95105652,0.30901699,0,0)">
																<polygon id="abpt_13_" class="st6" points="204,28.4 225.1,28.4 208.1,40.8 																"/>
															</g>
															<g id="use23" transform="matrix(-0.80901699,0.58778525,-0.58778525,-0.80901699,0,0)">
																<polygon id="abpt_14_" class="st6" points="211.3,30.8 217.8,50.8 200.8,38.4 																"/>
															</g>
														</g>
														<g>
															<g id="star_3_">
																<g id="use8_3_" transform="matrix(-0.80901699,-0.58778525,0.58778525,-0.80901699,0,0)">
																	<polygon id="abpt_15_" class="st6" points="293.2,38.4 276.2,50.8 282.7,30.8 																	"/>
																</g>
																<g id="use10_3_" transform="matrix(0.30901699,-0.95105652,0.95105652,0.30901699,0,0)">
																	<polygon id="abpt_16_" class="st6" points="285.9,40.8 268.9,28.4 290,28.4 																	"/>
																</g>
																<g id="use12_3_">
																	<polygon id="abpt_17_" class="st6" points="281.4,34.6 288,14.6 294.5,34.6 																	"/>
																</g>
																<g id="use14_3_" transform="matrix(0.30901699,0.95105652,-0.95105652,0.30901699,0,0)">
																	<polygon id="abpt_18_" class="st6" points="285.9,28.4 307,28.4 290,40.8 																	"/>
																</g>
																<g id="use25" transform="matrix(-0.80901699,0.58778525,-0.58778525,-0.80901699,0,0)">
																	<polygon id="abpt_19_" class="st6" points="293.2,30.8 299.7,50.8 282.7,38.4 																	"/>
																</g>
															</g>
															<g id="abs5">
																<g id="star_4_">
																	<g id="use8_4_" transform="matrix(-0.80901699,-0.58778525,0.58778525,-0.80901699,0,0)">
																		<polygon id="abpt_20_" class="st6" points="375.1,38.4 358.1,50.8 364.6,30.8 																		"/>
																	</g>
																	<g id="use10_4_" transform="matrix(0.30901699,-0.95105652,0.95105652,0.30901699,0,0)">
																		<polygon id="abpt_21_" class="st6" points="367.8,40.8 350.8,28.4 371.9,28.4 																		"/>
																	</g>
																	<g id="use12_4_">
																		<polygon id="abpt_22_" class="st6" points="363.3,34.6 369.9,14.6 376.4,34.6 																		"/>
																	</g>
																	<g id="use14_4_" transform="matrix(0.30901699,0.95105652,-0.95105652,0.30901699,0,0)">
																		<polygon id="abpt_23_" class="st6" points="367.8,28.4 388.9,28.4 371.9,40.8 																		"/>
																	</g>
																	<g id="use30" transform="matrix(-0.80901699,0.58778525,-0.58778525,-0.80901699,0,0)">
																		<polygon id="abpt_24_" class="st6" points="375.1,30.8 381.6,50.8 364.6,38.4 																		"/>
																	</g>
																</g>
															</g>
															<g id="abs6">
																<g id="star_5_">
																	<g id="use8_5_" transform="matrix(-0.80901699,-0.58778525,0.58778525,-0.80901699,0,0)">
																		<polygon id="abpt_25_" class="st6" points="457,38.4 440,50.8 446.5,30.8 																		"/>
																	</g>
																	<g id="use10_5_" transform="matrix(0.30901699,-0.95105652,0.95105652,0.30901699,0,0)">
																		<polygon id="abpt_26_" class="st6" points="449.7,40.8 432.7,28.4 453.8,28.4 																		"/>
																	</g>
																	<g id="use12_5_">
																		<polygon id="abpt_27_" class="st6" points="445.2,34.6 451.8,14.6 458.3,34.6 																		"/>
																	</g>
																	<g id="use14_5_" transform="matrix(0.30901699,0.95105652,-0.95105652,0.30901699,0,0)">
																		<polygon id="abpt_28_" class="st6" points="449.7,28.4 470.8,28.4 453.8,40.8 																		"/>
																	</g>
																	<g id="use35" transform="matrix(-0.80901699,0.58778525,-0.58778525,-0.80901699,0,0)">
																		<polygon id="abpt_29_" class="st6" points="457,30.8 463.5,50.8 446.5,38.4 																		"/>
																	</g>
																</g>
															</g>
															<g>
																<g>
																	<g>
																		<g id="star_6_">
																			<g id="use8_6_" transform="matrix(-0.80901699,-0.58778525,0.58778525,-0.80901699,0,0)">
																				<polygon id="abpt_30_" class="st6" points="88.5,73.5 71.4,85.9 77.9,65.9 																				"/>
																			</g>
																			<g id="use10_6_" transform="matrix(0.30901699,-0.95105652,0.95105652,0.30901699,0,0)">
																				<polygon id="abpt_31_" class="st6" points="81.2,75.9 64.2,63.5 85.2,63.5 																				"/>
																			</g>
																			<g id="use12_6_">
																				<polygon id="abpt_32_" class="st6" points="76.7,69.7 83.2,49.7 89.7,69.7 																				"/>
																			</g>
																			<g id="use14_6_" transform="matrix(0.30901699,0.95105652,-0.95105652,0.30901699,0,0)">
																				<polygon id="abpt_33_" class="st6" points="81.2,63.5 102.2,63.5 85.2,75.9 																				"/>
																			</g>
																			<g id="use19_1_" transform="matrix(-0.80901699,0.58778525,-0.58778525,-0.80901699,0,0)">
																				<polygon id="abpt_34_" class="st6" points="88.5,65.9 95,85.9 77.9,73.5 																				"/>
																			</g>
																		</g>
																		<g>
																			<g id="star_7_">
																				<g id="use8_7_" transform="matrix(-0.80901699,-0.58778525,0.58778525,-0.80901699,0,0)">
																					<polygon id="abpt_35_" class="st6" points="170.4,73.5 153.3,85.9 159.8,65.9 																					"/>
																				</g>
																				<g id="use10_7_" transform="matrix(0.30901699,-0.95105652,0.95105652,0.30901699,0,0)">
																					<polygon id="abpt_36_" class="st6" points="163.1,75.9 146.1,63.5 167.1,63.5 																					"/>
																				</g>
																				<g id="use12_7_">
																					<polygon id="abpt_37_" class="st6" points="158.6,69.7 165.1,49.7 171.6,69.7 																					"/>
																				</g>
																				<g id="use14_7_" transform="matrix(0.30901699,0.95105652,-0.95105652,0.30901699,0,0)">
																					<polygon id="abpt_38_" class="st6" points="163.1,63.5 184.1,63.5 167.1,75.9 																					"/>
																				</g>
																				<g id="use21_1_" transform="matrix(-0.80901699,0.58778525,-0.58778525,-0.80901699,0,0)">
																					<polygon id="abpt_39_" class="st6" points="170.4,65.9 176.9,85.9 159.8,73.5 																					"/>
																				</g>
																			</g>
																			<g>
																				<g id="star_8_">
																					<g id="use8_8_" transform="matrix(-0.80901699,-0.58778525,0.58778525,-0.80901699,0,0)">
																						<polygon id="abpt_40_" class="st6" points="252.3,73.5 235.2,85.9 241.7,65.9 																						"/>
																					</g>
																					<g id="use10_8_" transform="matrix(0.30901699,-0.95105652,0.95105652,0.30901699,0,0)">
																						<polygon id="abpt_41_" class="st6" points="245,75.9 228,63.5 249,63.5 																						"/>
																					</g>
																					<g id="use12_8_">
																						<polygon id="abpt_42_" class="st6" points="240.5,69.7 247,49.7 253.5,69.7 																						"/>
																					</g>
																					<g id="use14_8_" transform="matrix(0.30901699,0.95105652,-0.95105652,0.30901699,0,0)">
																						<polygon id="abpt_43_" class="st6" points="245,63.5 266,63.5 249,75.9 																						"/>
																					</g>
																					<g id="use23_1_" transform="matrix(-0.80901699,0.58778525,-0.58778525,-0.80901699,0,0)">
																						<polygon id="abpt_44_" class="st6" points="252.3,65.9 258.8,85.9 241.7,73.5 																						"/>
																					</g>
																				</g>
																				<g>
																					<g id="star_9_">
																						<g id="use8_9_" transform="matrix(-0.80901699,-0.58778525,0.58778525,-0.80901699,0,0)">
																							<polygon id="abpt_45_" class="st6" points="334.2,73.5 317.1,85.9 323.6,65.9 																							"/>
																						</g>
																						<g id="use10_9_" transform="matrix(0.30901699,-0.95105652,0.95105652,0.30901699,0,0)">
																							<polygon id="abpt_46_" class="st6" points="326.9,75.9 309.9,63.5 330.9,63.5 																							"/>
																						</g>
																						<g id="use12_9_">
																							<polygon id="abpt_47_" class="st6" points="322.4,69.7 328.9,49.7 335.4,69.7 																							"/>
																						</g>
																						<g id="use14_9_" transform="matrix(0.30901699,0.95105652,-0.95105652,0.30901699,0,0)">
																							<polygon id="abpt_48_" class="st6" points="326.9,63.5 347.9,63.5 330.9,75.9 																							"/>
																						</g>
																						<g id="use25_1_" transform="matrix(-0.80901699,0.58778525,-0.58778525,-0.80901699,0,0)">
																							<polygon id="abpt_49_" class="st6" points="334.2,65.9 340.7,85.9 323.6,73.5 																							"/>
																						</g>
																					</g>
																					<g id="abs5_1_">
																						<g id="star_10_">
																							<g id="use8_10_" transform="matrix(-0.80901699,-0.58778525,0.58778525,-0.80901699,0,0)">
																								<polygon id="abpt_50_" class="st6" points="416.1,73.5 399,85.9 405.5,65.9 																								"/>
																							</g>
																							<g id="use10_10_" transform="matrix(0.30901699,-0.95105652,0.95105652,0.30901699,0,0)">
																								<polygon id="abpt_51_" class="st6" points="408.8,75.9 391.8,63.5 412.8,63.5 																								"/>
																							</g>
																							<g id="use12_10_">
																								<polygon id="abpt_52_" class="st6" points="404.3,69.7 410.8,49.7 417.3,69.7 																								"/>
																							</g>
																							<g id="use14_10_" transform="matrix(0.30901699,0.95105652,-0.95105652,0.30901699,0,0)">
																								<polygon id="abpt_53_" class="st6" points="408.8,63.5 429.8,63.5 412.8,75.9 																								"/>
																							</g>
																							<g id="use37" transform="matrix(-0.80901699,0.58778525,-0.58778525,-0.80901699,0,0)">
																								<polygon id="abpt_54_" class="st6" points="416.1,65.9 422.6,85.9 405.5,73.5 																								"/>
																							</g>
																						</g>
																					</g>
																					<g>
																						<g>
																							<g>
																								<g>
																									<g>
																										<g id="star_11_">
																											<g id="use8_11_" transform="matrix(-0.80901699,-0.58778525,0.58778525,-0.80901699,0,0)">
																												<polygon id="abpt_55_" class="st6" points="47.5,108.6 30.5,121 37,101 																												
																													"/>
																											</g>
																											<g id="use10_11_" transform="matrix(0.30901699,-0.95105652,0.95105652,0.30901699,0,0)">
																												<polygon id="abpt_56_" class="st6" points="40.2,111 23.2,98.6 44.3,98.6 																												
																													"/>
																											</g>
																											<g id="use12_11_">
																												<polygon id="abpt_57_" class="st6" points="35.7,104.8 42.3,84.8 48.8,104.8 
																																																									"/>
																											</g>
																											<g id="use14_11_" transform="matrix(0.30901699,0.95105652,-0.95105652,0.30901699,0,0)">
																												<polygon id="abpt_58_" class="st6" points="40.2,98.6 61.3,98.6 44.3,111 																												
																													"/>
																											</g>
																											<g id="use19_2_" transform="matrix(-0.80901699,0.58778525,-0.58778525,-0.80901699,0,0)">
																												<polygon id="abpt_59_" class="st6" points="47.5,101 54,121 37,108.6 																												"/>
																											</g>
																										</g>
																										<g id="abx4">
																											<g id="star_12_">
																												<g id="use8_12_" transform="matrix(-0.80901699,-0.58778525,0.58778525,-0.80901699,0,0)">
																													<polygon id="abpt_60_" class="st6" points="129.4,108.6 112.4,121 118.9,101 
																																																											"/>
																												</g>
																												<g id="use10_12_" transform="matrix(0.30901699,-0.95105652,0.95105652,0.30901699,0,0)">
																													<polygon id="abpt_61_" class="st6" points="122.1,111 105.1,98.6 126.2,98.6 
																																																											"/>
																												</g>
																												<g id="use12_12_">
																													<polygon id="abpt_62_" class="st6" points="117.6,104.8 124.2,84.8 130.7,104.8 
																																																											"/>
																												</g>
																												<g id="use14_12_" transform="matrix(0.30901699,0.95105652,-0.95105652,0.30901699,0,0)">
																													<polygon id="abpt_63_" class="st6" points="122.1,98.6 143.2,98.6 126.2,111 
																																																											"/>
																												</g>
																												<g id="use21_2_" transform="matrix(-0.80901699,0.58778525,-0.58778525,-0.80901699,0,0)">
																													<polygon id="abpt_64_" class="st6" points="129.4,101 135.9,121 118.9,108.6 
																																																											"/>
																												</g>
																											</g>
																											<g id="use35_1_">
																												<g id="star_13_">
																													<g id="use8_13_" transform="matrix(-0.80901699,-0.58778525,0.58778525,-0.80901699,0,0)">
																														<polygon id="abpt_65_" class="st6" points="211.3,108.6 194.3,121 200.8,101 
																																																													"/>
																													</g>
																													<g id="use10_13_" transform="matrix(0.30901699,-0.95105652,0.95105652,0.30901699,0,0)">
																														<polygon id="abpt_66_" class="st6" points="204,111 187,98.6 208.1,98.6 
																																																													"/>
																													</g>
																													<g id="use12_13_">
																														<polygon id="abpt_67_" class="st6" points="199.5,104.8 206.1,84.8 212.6,104.8 
																																																													"/>
																													</g>
																													<g id="use14_13_" transform="matrix(0.30901699,0.95105652,-0.95105652,0.30901699,0,0)">
																														<polygon id="abpt_68_" class="st6" points="204,98.6 225.1,98.6 208.1,111 
																																																													"/>
																													</g>
																													<g id="use23_2_" transform="matrix(-0.80901699,0.58778525,-0.58778525,-0.80901699,0,0)">
																														<polygon id="abpt_69_" class="st6" points="211.3,101 217.8,121 200.8,108.6 
																																																													"/>
																													</g>
																												</g>
																												<g id="use27">
																													<g id="star_14_">
																														<polygon id="abpt_70_" class="st6" points="293.2,108.6 276.2,121 282.7,101 
																																																													"/>
																														<polygon id="abpt_71_" class="st6" points="285.9,111 268.9,98.6 290,98.6 
																																																													"/>
																														<polygon id="abpt_72_" class="st6" points="281.4,104.8 288,84.8 294.5,104.8 
																																																													"/>
																														<polygon id="abpt_73_" class="st6" points="285.9,98.6 307,98.6 290,111 
																																																													"/>
																														<polygon id="abpt_74_" class="st6" points="293.2,101 299.7,121 282.7,108.6 
																																																													"/>
																													</g>
																													<g id="abs5_2_">
																													</g>
																												</g>
																												<g id="use30_1_">
																													<g id="star_15_">
																														<polygon id="abpt_75_" class="st6" points="457,108.6 440,121 446.5,101 
																																																													"/>
																														<polygon id="abpt_76_" class="st6" points="449.7,111 432.7,98.6 453.8,98.6 
																																																													"/>
																														<polygon id="abpt_77_" class="st6" points="445.2,104.8 451.8,84.8 458.3,104.8 
																																																													"/>
																														<polygon id="abpt_78_" class="st6" points="449.7,98.6 470.8,98.6 453.8,111 
																																																													"/>
																														<polygon id="abpt_79_" class="st6" points="457,101 463.5,121 446.5,108.6 
																																																													"/>
																													</g>
																												</g>
																												<g id="use23_3_">
																													<g id="use27_1_">
																													</g>
																												</g>
																												<g id="use48">
																													<g id="use41">
																													</g>
																													<g id="use37_1_">
																													</g>
																												</g>
																											</g>
																											<rect id="rect5795" x="27222" y="81750.1" class="st9" width="80600.1" height="47450.1"/>
																										</g>
																										<g id="g6610">
																											<g id="g5789" transform="matrix(0.24666667,0,0,0.24666667,208.5,124.5)">
																												<rect id="rect4" x="548264.2" y="329596.6" class="st10" width="329391.9" height="195000"/>
																												<path id="hammer" class="st11" d="M593651.8,380214.1l5655,5655l4615-4745
																													c10270,10595,20540,21255,30810,31850c2275-520,3510-1430,4225-4030l-31655-31135l6370-5720l-9295-2535
																													L593651.8,380214.1L593651.8,380214.1z"/>
																												<path id="star-9" class="st11" d="M611851.8,348234.1h-8775l7085,5200l-2665,8320l7085-5135l7085,5135
																													l-2665-8385l7085-5135h-8775l-2730-8384.5v-0.5L611851.8,348234.1L611851.8,348234.1z
																													 M614581.8,345049.1l1560,4810h5005l-4030,2925l1534.8,4781l-4069.8-2959.8l-4069.8,2988.8l1534.8-4810
																													l-4030-2944.5h5018L614581.8,345049.1L614581.8,345049.1L614581.8,345049.1z"/>
																												<path id="sichel" class="st11" d="M614646.8,364224.1c13650,5005,22230,16445,22282,24895
																													c143,18655-20202,27625-33332,12610l-910,650l195,1625c-3965-390-7540,11765-11830,8385
																													c-3900-4940,6890-7215,7995-12220l1560,130l1300-1365l1235,195l1560-1625
																													c12805,13520,28990,3055,26715-10400c-1625-10335-8125-16250-16835-22880H614646.8L614646.8,364224.1
																													L614646.8,364224.1L614646.8,364224.1L614646.8,364224.1L614646.8,364224.1L614646.8,364224.1z"/>
																											</g>
																											<rect id="rect6608" x="135772.2" y="81750.1" class="st9" width="80600.1" height="47450.1"/>
																										</g>
																										<path id="path6654" class="st12" d="M98840,131150.2h46357.2v-4387.5l-4387.5-3737.5v-2925
																											l-4240.2-3473.3V91500.1l5045.1-5045.1v-6004.9l-6929.5-2506.8v5106.8h-8337.9v-6012.5h-8612.5v6012.5
																											h-9100v-5106.8l-6333.8,2506.8V86455l5360.7,5045.1v25126.7c0,0-4570,3787.8-4388.4,3473.3
																											c181.5-314.4,0,2925,0,2925l-4433.1,3737.5V131150.2z"/>
																									</g>
																								</g>
																							</g>
																						</g>
																					</g>
																				</g>
																			</g>
																		</g>
																	</g>
																</g>
															</g>
														</g>
													</g>
												</g>
											</g>
										</g>
									</g>
								</g>
							</g>
						</g>
					</g>
				</g>
			</g>
		</g>
	</g>
</g>
</svg>
