<?xml version="1.0" encoding="utf-8"?>
<!-- Generator: Adobe Illustrator 22.0.0, SVG Export Plug-In . SVG Version: 6.00 Build 0)  -->
<svg version="1.1"
	 id="svg2" inkscape:version="0.48.2 r9819" sodipodi:docname="TNRnTS-38.svg" xmlns:cc="http://creativecommons.org/ns#" xmlns:dc="http://purl.org/dc/elements/1.1/" xmlns:inkscape="http://www.inkscape.org/namespaces/inkscape" xmlns:rdf="http://www.w3.org/1999/02/22-rdf-syntax-ns#" xmlns:sodipodi="http://sodipodi.sourceforge.net/DTD/sodipodi-0.dtd" xmlns:svg="http://www.w3.org/2000/svg"
	 xmlns="http://www.w3.org/2000/svg" xmlns:xlink="http://www.w3.org/1999/xlink" x="0px" y="0px" viewBox="0 0 388 538"
	 style="enable-background:new 0 0 388 538;" xml:space="preserve">
<style type="text/css">
	.st0{fill:#FFD504;stroke:#000000;}
	.st1{font-family:'STKaiti';}
	.st2{font-size:20px;}
	.st3{fill:#FFFFFF;}
	.st4{fill:#F2A41C;}
	.st5{font-family:'STBaoliSC-Regular';}
	.st6{font-size:36px;}
	.st7{fill:none;stroke:#000000;stroke-width:0.7322;}
	.st8{fill:#D02247;}
	.st9{font-family:'Georgia-Italic';}
	.st10{font-size:18px;}
</style>
<sodipodi:namedview  bordercolor="#666666" borderopacity="1" gridtolerance="10" guidetolerance="10" id="namedview20" inkscape:current-layer="svg2" inkscape:cx="194" inkscape:cy="269" inkscape:pageopacity="0" inkscape:pageshadow="2" inkscape:window-height="788" inkscape:window-maximized="1" inkscape:window-width="1440" inkscape:window-x="0" inkscape:window-y="0" inkscape:zoom="0.94" objecttolerance="10" pagecolor="#ffffff" showgrid="false">
	</sodipodi:namedview>
<rect id="rect3690" x="44" y="122.5" class="st0" width="300" height="252"/>
<text transform="matrix(1 0 0 1 144 221.5782)" class="st1 st2">双方获分：</text>
<rect id="rect3706" x="44.5" y="227.5" class="st3" width="299" height="112.5"/>
<path id="rect4029" class="st4" d="M44.5,123h299l-299,104V123z"/>
<text transform="matrix(1 0 0 1 79 254.8282)" class="st1 st2">控制缅甸、柬埔寨/老挝、</text>
<text transform="matrix(1 0 0 1 112.3398 278.8282)" class="st1 st2">越南、马来西亚、</text>
<text transform="matrix(1 0 0 1 102.3398 302.8282)" class="st1 st2">印度尼西亚、菲律宾</text>
<text transform="matrix(1 0 0 1 145.1699 326.8282)" class="st1 st2">各获1VP。</text>
<text transform="matrix(1 0 0 1 126.7204 362.8282)" class="st1 st2">控制泰国获2VP</text>
<text transform="matrix(1 0 0 1 95 173.8282)" class="st5 st6">东南亚计分*</text>
<path id="path3694" class="st7" d="M43.9,227.4l300.3,0.3"/>
<text transform="matrix(1 0 0 1 40.9036 446.1964)" class="st8 st9 st10">Remove from play if used as an event.</text>
</svg>
