<?xml version="1.0" encoding="utf-8"?>
<!-- Generator: Adobe Illustrator 22.0.0, SVG Export Plug-In . SVG Version: 6.00 Build 0)  -->
<svg version="1.1" id="svg2" xmlns:svg="http://www.w3.org/2000/svg"
	 xmlns="http://www.w3.org/2000/svg" xmlns:xlink="http://www.w3.org/1999/xlink" x="0px" y="0px" viewBox="0 0 388 538"
	 style="enable-background:new 0 0 388 538;" xml:space="preserve">
<style type="text/css">
	.st0{fill:#C6EAFA;stroke:#000000;stroke-width:0.9077;}
	.st1{font-family:'STKaiti';}
	.st2{font-size:20px;}
	.st3{fill:#FFFFFF;}
	.st4{font-family:'STBaoliSC-Regular';}
	.st5{font-size:36px;}
	.st6{fill:none;stroke:#000000;stroke-width:0.7322;}
</style>
<rect id="rect3718" x="44" y="121.5" class="st0" width="300.1" height="268.1"/>
<text transform="matrix(1 0 0 1 143.9998 220.5782)" class="st1 st2">双方获分：</text>
<rect id="rect3706" x="44.6" y="227" class="st3" width="298.8" height="35"/>
<rect id="rect3734" x="44.5" y="294" class="st3" width="299" height="34"/>
<text transform="matrix(1 0 0 1 159.3102 253.8282)" class="st1 st2">存在：3</text>
<text transform="matrix(1 0 0 1 159.3101 287.3282)" class="st1 st2">支配：5</text>
<text transform="matrix(1 0 0 1 159.3103 320.3282)" class="st1 st2">控制：5</text>
<text transform="matrix(1 0 0 1 94 353.8282)" class="st1 st2">每控制一个战争宗教国</text>
<text transform="matrix(1 0 0 1 151.5465 378.9082)" class="st1 st2">+1</text>
<text transform="matrix(1 0 0 1 122 173.8282)" class="st4 st5">中东计分</text>
<path id="path3694" class="st6" d="M43.9,226.4l300.3,0.3"/>
</svg>
