<?xml version="1.0" encoding="utf-8"?>
<!-- Generator: Adobe Illustrator 22.0.0, SVG Export Plug-In . SVG Version: 6.00 Build 0)  -->
<svg version="1.1" id="svg2" xmlns:svg="http://www.w3.org/2000/svg"
	 xmlns="http://www.w3.org/2000/svg" xmlns:xlink="http://www.w3.org/1999/xlink" x="0px" y="0px" viewBox="0 0 388 538"
	 style="enable-background:new 0 0 388 538;" xml:space="preserve">
<style type="text/css">
	.st0{font-family:'STKaiti';}
	.st1{font-size:20px;}
	.st2{font-family:'STBaoliSC-Regular';}
	.st3{font-size:36px;}
	.st4{fill:none;stroke:#D82044;stroke-width:2;}
	.st5{fill:#FE0000;}
	.st6{fill:#000095;}
	.st7{fill:#FFFFFF;}
	.st8{fill:none;stroke:#000000;stroke-width:3.8139;}
	.st9{fill:#F7F1E9;stroke:#000000;stroke-width:1.511;}
	.st10{fill:#F7F1E9;stroke:#000000;stroke-width:1.511;stroke-linejoin:round;}
	.st11{fill:none;stroke:#000000;stroke-width:1.511;stroke-linecap:round;}
	.st12{fill:none;stroke:#000000;stroke-width:1.511;}
	.st13{fill:#BB133E;}
	.st14{fill:#002664;}
	.st15{fill:none;stroke:#000000;}
</style>
<text transform="matrix(1 0 0 1 94 293)" class="st0 st1">当亚洲记分牌打出或在</text>
<text transform="matrix(1 0 0 1 64.7602 317)" class="st0 st1">第10回合完结的结局计分时，</text>
<text transform="matrix(1 0 0 1 64 341)" class="st0 st1">若美国控制台湾及为了计分，</text>
<text transform="matrix(1 0 0 1 84 365)" class="st0 st1">台湾被看作一个战场国。</text>
<text transform="matrix(1 0 0 1 84 389)" class="st0 st1">对于其他任何游戏目的，</text>
<text transform="matrix(1 0 0 1 84 413)" class="st0 st1">台湾不作为一个战场国。</text>
<text transform="matrix(1 0 0 1 74 437)" class="st0 st1">美方打出中国牌后弃掉词牌</text>
<text transform="matrix(0.9382 0 0 1 118.01 237.4316)" class="st2 st3">台湾决议*</text>
<path id="path4647" class="st4" d="M112,242h164"/>
<g id="g3109">
	<path id="rect3846" d="M181.9,116c-0.7,0-2,0.6-3.2,1.8c-3.9,3.8-5.5,5.3-5.5,5.3s-10.2-0.3-19.3,0c0,7.3,0,29.1-0.1,38.1
		c1.6,0,5.6,0,9.2-0.1c-0.8,1.6-0.7,4,0.5,5.2c1.4,1.4,4.7,1.7,6,0.2c1.5-1.8,2.6-3.1,3.5-4.2c0,0.1,1.5-2-3.7,4.8
		c-1.2,1.5-1.2,4.5,0.2,5.8c1.4,1.4,4.7,1.7,6,0.2c2.9-3.6,4.6-5.4,5.5-6.4c0,0,0.1,0,0.1,0.1c0.2-0.2,1.7-2.2-4.1,5.4
		c-1.2,1.5-1.2,4.5,0.2,5.8c1.4,1.4,4.7,1.7,6,0.2c2.8-3.3,4.3-5.1,5.2-6.2c0,0,0.1,0,0.1,0.1c-0.1,0.1,1.5-2-3.7,4.8
		c-1.2,1.5-1.2,4.5,0.2,5.8c1.4,1.4,4.7,1.7,6,0.2c2.4-2.9,3.8-4.5,4.8-5.6c2.1,1.5,3.7,2.6,6.3,4.5c1.6,1.1,5,1.1,6.8-0.3
		c1.2-1,0.8-3.8,0.8-3.8s3.2,1.3,5.8-0.4s1.8-5.5,1.8-5.5s4.5,0.2,5.9-2.1c0.7-2.2-0.1-4.1-0.9-6.2c0,0,5.2,0.1,6.4-1.8
		c2.5,0.1,4.5-0.2,5.6,0c0-6,0-24.1,0.1-32.4c-2.1,0-8.3,0.1-13.8,0.2c-1.4,0-2.1-0.9-2.8-1.8c0,0-4.7-6.3-7.2-9.5
		c-0.8-1-2.2-1.8-3.5-1.8C197.8,116.2,189.6,116,181.9,116L181.9,116z M89.7,122.1v40h64v-40H89.7z M235.2,124.1v40h66v-40H235.2
		L235.2,124.1z"/>
	<g id="g6147" transform="matrix(0.275,0,0,0.25,243.5,132.5)">
		<rect id="rect5882" x="-40.7" y="-40" class="st5" width="240" height="160"/>
		<rect id="rect5884" x="-40.7" y="-40" class="st6" width="120" height="80"/>
		<path id="four_rays" class="st7" d="M27.3,0l-8,30l-8-30l8-30 M19.3,8l30-8l-30-8l-30,8"/>
		<g id="use5887" transform="matrix(0.8660254,0.5,-0.5,0.8660254,-1.09375e-5,5.7668579e-5)">
			<path id="four_rays_1_" class="st7" d="M26.2,4L4.3,26l8.1-30l21.9-22 M15.3,6.9l30,8.1l-22-21.9l-30-8.1"/>
		</g>
		<g id="use5889" transform="matrix(0.5,0.8660254,-0.8660254,0.5,-1.09375e-5,1.4166858e-4)">
			<path id="four_rays_2_" class="st7" d="M23.3,6.9l-30,8.1l22-21.9l30-8.1 M12.4,4l21.9,22L26.2-4L4.3-26"/>
		</g>
		<ellipse id="circle5891" class="st6" cx="19.3" cy="0" rx="4.7" ry="4.2"/>
		<ellipse id="circle5893" class="st7" cx="19.3" cy="0" rx="4.1" ry="3.8"/>
		<rect id="rect3661" x="-40.7" y="-40" class="st8" width="240" height="160"/>
	</g>
	<g id="g4018">
		<path id="path3675" class="st9" d="M194.8,173.5c0,0-0.6,0.3-6.7,7.7c-1.3,1.5-4.6,1.2-6-0.2c-1.4-1.4-1.3-4.3-0.2-5.8
			c8.5-11.1,6-7.8,6-7.8"/>
		<path id="path3677" class="st9" d="M187,168.8c0,0-0.6,0.3-6.7,7.7c-1.3,1.5-4.6,1.2-6-0.2c-1.4-1.4-1.3-4.3-0.2-5.8
			c8.5-11.1,6-7.8,6-7.8"/>
		<path id="path3679" class="st9" d="M179.3,163.8c0,0-0.6,0.3-6.7,7.7c-1.3,1.5-4.6,1.2-6-0.2c-1.4-1.4-1.3-4.3-0.2-5.8
			c8.5-11.1,6-7.8,6-7.8"/>
		<path id="path3681" class="st9" d="M173.3,157.2c0,0-0.6,0.3-6.7,7.7c-1.3,1.5-4.6,1.2-6-0.2c-1.4-1.4-1.3-4.3-0.2-5.8
			c8.5-11.1,6-7.8,6-7.8"/>
		<path id="path3663" class="st10" d="M220.6,167.8c-1.4,2.3-5.9,2.1-5.9,2.1s0.8,3.8-1.8,5.6c-2.6,1.8-5.8,0.4-5.8,0.4
			s0.4,2.9-0.8,3.8c-1.8,1.4-5.3,1.4-6.8,0.3c-12.4-8.6-17-12-28.8-20.2c0,0-3-0.4-3.8-0.4c-4.7,0.1-13.1,0.1-15.9,0.1
			c0.1-9,0.1-30.7,0.1-38.1c9.1-0.3,19.3,0,19.3,0s1.7-1.4,5.5-5.3c1.2-1.2,2.5-1.8,3.2-1.8c7.6,0,15.9,0.2,25.5,0.2
			c1.3,0,2.7,0.7,3.5,1.8c2.6,3.2,7.2,9.5,7.2,9.5c0.7,0.9,1.3,1.8,2.8,1.8c5.5-0.1,11.7-0.2,13.8-0.2c-0.1,8.3-0.1,26.4-0.1,32.4
			c-1.1-0.2-3.1,0.1-5.6,0c-1.2,2-6.4,1.8-6.4,1.8C220.4,163.7,221.3,165.6,220.6,167.8L220.6,167.8z"/>
		<path id="path3671" class="st11" d="M206.8,175.5l-21.3-14.7"/>
		<path id="path3669" class="st11" d="M214.3,169.7l-21.7-14"/>
		<path id="path3667" class="st11" d="M219.8,161.2L200,148"/>
		<path id="path3665" class="st12" d="M170,121.5c0,0,5.7-4.5-6.5,5.8c-0.7,0.6-2.4,2.1-2.3,3c0.2,2.1,1.8,5.1,6.5,5
			c3.2-0.1,3.7-0.6,9.3-4.5c1.1-0.8,3.8-1.5,3.8-1.5s4.1-0.1,11.2-0.2c1.5,0,3.6,0.9,4.8,1.8c17.7,13.5,8.4,5.8,28.5,21.5
			c3.2,2.5,0.7,7.7,0.7,7.7"/>
	</g>
	<path id="path4136" class="st7" d="M87.3,160h64v-39h-64V160z"/>
	<path id="path4138" class="st13" d="M87.3,124h64v-3h-64V124z"/>
	<path id="path4140" class="st13" d="M87.3,130h64v-3h-64V130z"/>
	<path id="path4142" class="st13" d="M87.3,136h64v-3h-64V136z"/>
	<path id="path4144" class="st13" d="M87.3,142h64v-3h-64V142z"/>
	<path id="path4146" class="st13" d="M87.3,148h64v-3h-64V148z"/>
	<path id="path4148" class="st13" d="M87.3,154h64v-3h-64V154z"/>
	<path id="path4150" class="st13" d="M87.3,160h64v-3h-64V160z"/>
	<path id="path4152" class="st14" d="M87.3,142h29.6v-21H87.3V142z"/>
	<path id="path4154" class="st7" d="M89.1,124l0.4-1.2l0.6,0.5C90.2,123.3,89.1,124,89.1,124z"/>
	<path id="path4156" class="st7" d="M88.7,122.7H90l-0.2,0.7L88.7,122.7z"/>
	<path id="path4158" class="st7" d="M89.8,121.9l0.4,1.2h-0.8L89.8,121.9z"/>
	<path id="path4160" class="st7" d="M91,122.7l-1,0.7l-0.2-0.7H91z"/>
	<path id="path4162" class="st7" d="M90.5,124l-1-0.7l0.6-0.5L90.5,124z"/>
	<path id="path4164" class="st7" d="M94,124l0.4-1.2l0.6,0.5L94,124z"/>
	<path id="path4166" class="st7" d="M93.6,122.7h1.3l-0.2,0.7C94.6,123.4,93.6,122.7,93.6,122.7z"/>
	<path id="path4168" class="st7" d="M94.7,121.9l0.4,1.2h-0.8C94.4,123.1,94.7,121.9,94.7,121.9z"/>
	<path id="path4170" class="st7" d="M95.9,122.7l-1,0.7l-0.2-0.7H95.9z"/>
	<path id="path4172" class="st7" d="M95.5,124l-1-0.7l0.6-0.5L95.5,124z"/>
	<path id="path4174" class="st7" d="M99,124l0.4-1.2l0.6,0.5C100,123.3,99,124,99,124z"/>
	<path id="path4176" class="st7" d="M98.5,122.7h1.3l-0.2,0.7L98.5,122.7z"/>
	<path id="path4178" class="st7" d="M99.7,121.9l0.4,1.2h-0.8L99.7,121.9z"/>
	<path id="path4180" class="st7" d="M100.8,122.7l-1,0.7l-0.2-0.7H100.8z"/>
	<path id="path4182" class="st7" d="M100.4,124l-1-0.7l0.6-0.5L100.4,124z"/>
	<path id="path4184" class="st7" d="M103.9,124l0.4-1.2l0.6,0.5C104.9,123.3,103.9,124,103.9,124z"/>
	<path id="path4186" class="st7" d="M103.4,122.7h1.3l-0.2,0.7L103.4,122.7z"/>
	<path id="path4188" class="st7" d="M104.6,121.9l0.4,1.2h-0.8C104.2,123.1,104.6,121.9,104.6,121.9z"/>
	<path id="path4190" class="st7" d="M105.7,122.7l-1,0.7l-0.2-0.7H105.7z"/>
	<path id="path4192" class="st7" d="M105.3,124l-1-0.7l0.6-0.5C104.9,122.8,105.3,124,105.3,124z"/>
	<path id="path4194" class="st7" d="M108.8,124l0.4-1.2l0.6,0.5L108.8,124z"/>
	<path id="path4196" class="st7" d="M108.3,122.7h1.3l-0.2,0.7C109.4,123.4,108.3,122.7,108.3,122.7z"/>
	<path id="path4198" class="st7" d="M109.5,121.9l0.4,1.2h-0.8C109.1,123.1,109.5,121.9,109.5,121.9z"/>
	<path id="path4200" class="st7" d="M110.6,122.7l-1,0.7l-0.2-0.7H110.6z"/>
	<path id="path4202" class="st7" d="M110.2,124l-1-0.7l0.6-0.5L110.2,124z"/>
	<path id="path4204" class="st7" d="M113.7,124l0.4-1.2l0.6,0.5L113.7,124z"/>
	<path id="path4206" class="st7" d="M113.3,122.7h1.3l-0.2,0.7L113.3,122.7z"/>
	<path id="path4208" class="st7" d="M114.4,121.9l0.4,1.2H114C114,123.1,114.4,121.9,114.4,121.9z"/>
	<path id="path4210" class="st7" d="M115.6,122.7l-1,0.7l-0.2-0.7C114.3,122.7,115.6,122.7,115.6,122.7z"/>
	<path id="path4212" class="st7" d="M115.1,124l-1-0.7l0.6-0.5L115.1,124z"/>
	<path id="path4214" class="st7" d="M91.6,126.2L92,125l0.6,0.5C92.6,125.4,91.6,126.2,91.6,126.2z"/>
	<path id="path4216" class="st7" d="M91.2,124.8h1.3l-0.2,0.7L91.2,124.8z"/>
	<path id="path4218" class="st7" d="M92.3,124l0.4,1.2h-0.8L92.3,124z"/>
	<path id="path4220" class="st7" d="M93.4,124.8l-1,0.7l-0.2-0.7H93.4z"/>
	<path id="path4222" class="st7" d="M93,126.2l-1-0.7l0.6-0.5C92.6,125,93,126.2,93,126.2z"/>
	<path id="path4224" class="st7" d="M96.5,126.2l0.4-1.2l0.6,0.5C97.5,125.4,96.5,126.2,96.5,126.2z"/>
	<path id="path4226" class="st7" d="M96.1,124.8h1.3l-0.2,0.7C97.1,125.6,96.1,124.8,96.1,124.8z"/>
	<path id="path4228" class="st7" d="M97.2,124l0.4,1.2h-0.8L97.2,124z"/>
	<path id="path4230" class="st7" d="M98.4,124.8l-1,0.7l-0.2-0.7H98.4z"/>
	<path id="path4232" class="st7" d="M97.9,126.2l-1-0.7l0.6-0.5C97.5,125,97.9,126.2,97.9,126.2z"/>
	<path id="path4234" class="st7" d="M101.4,126.2l0.4-1.2l0.6,0.5C102.4,125.4,101.4,126.2,101.4,126.2z"/>
	<path id="path4236" class="st7" d="M101,124.8h1.3l-0.2,0.7L101,124.8z"/>
	<path id="path4238" class="st7" d="M102.1,124l0.4,1.2h-0.8L102.1,124z"/>
	<path id="path4240" class="st7" d="M103.3,124.8l-1,0.7l-0.2-0.7H103.3z"/>
	<path id="path4242" class="st7" d="M102.8,126.2l-1-0.7l0.6-0.5C102.4,125,102.8,126.2,102.8,126.2z"/>
	<path id="path4244" class="st7" d="M106.3,126.2l0.4-1.2l0.6,0.5C107.4,125.4,106.3,126.2,106.3,126.2z"/>
	<path id="path4246" class="st7" d="M105.9,124.8h1.3l-0.2,0.7C106.9,125.6,105.9,124.8,105.9,124.8z"/>
	<path id="path4248" class="st7" d="M107,124l0.4,1.2h-0.8L107,124z"/>
	<path id="path4250" class="st7" d="M108.2,124.8l-1,0.7l-0.2-0.7H108.2z"/>
	<path id="path4252" class="st7" d="M107.7,126.2l-1-0.7l0.6-0.5C107.4,125,107.7,126.2,107.7,126.2z"/>
	<path id="path4254" class="st7" d="M111.2,126.2l0.4-1.2l0.6,0.5C112.3,125.4,111.2,126.2,111.2,126.2z"/>
	<path id="path4256" class="st7" d="M110.8,124.8h1.3l-0.2,0.7L110.8,124.8z"/>
	<path id="path4258" class="st7" d="M111.9,124l0.4,1.2h-0.8L111.9,124z"/>
	<path id="path4260" class="st7" d="M113.1,124.8l-1,0.7l-0.2-0.7H113.1z"/>
	<path id="path4262" class="st7" d="M112.7,126.2l-1-0.7l0.6-0.5C112.3,125,112.7,126.2,112.7,126.2z"/>
	<path id="path4264" class="st7" d="M89.1,128.3l0.4-1.2l0.6,0.5C90.2,127.5,89.1,128.3,89.1,128.3z"/>
	<path id="path4266" class="st7" d="M88.7,126.9H90l-0.2,0.7L88.7,126.9z"/>
	<path id="path4268" class="st7" d="M89.8,126.1l0.4,1.2h-0.8L89.8,126.1z"/>
	<path id="path4270" class="st7" d="M91,126.9l-1,0.7l-0.2-0.7H91z"/>
	<path id="path4272" class="st7" d="M90.5,128.3l-1-0.7l0.6-0.5L90.5,128.3z"/>
	<path id="path4274" class="st7" d="M94,128.3l0.4-1.2l0.6,0.5L94,128.3z"/>
	<path id="path4276" class="st7" d="M93.6,126.9h1.3l-0.2,0.7C94.6,127.7,93.6,126.9,93.6,126.9z"/>
	<path id="path4278" class="st7" d="M94.7,126.1l0.4,1.2h-0.8C94.4,127.3,94.7,126.1,94.7,126.1z"/>
	<path id="path4280" class="st7" d="M95.9,126.9l-1,0.7l-0.2-0.7H95.9z"/>
	<path id="path4282" class="st7" d="M95.5,128.3l-1-0.7l0.6-0.5L95.5,128.3z"/>
	<path id="path4284" class="st7" d="M99,128.3l0.4-1.2l0.6,0.5C100,127.5,99,128.3,99,128.3z"/>
	<path id="path4286" class="st7" d="M98.5,126.9h1.3l-0.2,0.7L98.5,126.9z"/>
	<path id="path4288" class="st7" d="M99.7,126.1l0.4,1.2h-0.8L99.7,126.1z"/>
	<path id="path4290" class="st7" d="M100.8,126.9l-1,0.7l-0.2-0.7H100.8z"/>
	<path id="path4292" class="st7" d="M100.4,128.3l-1-0.7l0.6-0.5L100.4,128.3z"/>
	<path id="path4294" class="st7" d="M103.9,128.3l0.4-1.2l0.6,0.5C104.9,127.5,103.9,128.3,103.9,128.3z"/>
	<path id="path4296" class="st7" d="M103.4,126.9h1.3l-0.2,0.7L103.4,126.9z"/>
	<path id="path4298" class="st7" d="M104.6,126.1l0.4,1.2h-0.8C104.2,127.3,104.6,126.1,104.6,126.1z"/>
	<path id="path4300" class="st7" d="M105.7,126.9l-1,0.7l-0.2-0.7H105.7z"/>
	<path id="path4302" class="st7" d="M105.3,128.3l-1-0.7l0.6-0.5C104.9,127.1,105.3,128.3,105.3,128.3z"/>
	<path id="path4304" class="st7" d="M108.8,128.3l0.4-1.2l0.6,0.5L108.8,128.3z"/>
	<path id="path4306" class="st7" d="M108.3,126.9h1.3l-0.2,0.7C109.4,127.7,108.3,126.9,108.3,126.9z"/>
	<path id="path4308" class="st7" d="M109.5,126.1l0.4,1.2h-0.8C109.1,127.3,109.5,126.1,109.5,126.1z"/>
	<path id="path4310" class="st7" d="M110.6,126.9l-1,0.7l-0.2-0.7H110.6z"/>
	<path id="path4312" class="st7" d="M110.2,128.3l-1-0.7l0.6-0.5L110.2,128.3z"/>
	<path id="path4314" class="st7" d="M113.7,128.3l0.4-1.2l0.6,0.5L113.7,128.3z"/>
	<path id="path4316" class="st7" d="M113.3,126.9h1.3l-0.2,0.7L113.3,126.9z"/>
	<path id="path4318" class="st7" d="M114.4,126.1l0.4,1.2H114C114,127.3,114.4,126.1,114.4,126.1z"/>
	<path id="path4320" class="st7" d="M115.6,126.9l-1,0.7l-0.2-0.7C114.3,126.9,115.6,126.9,115.6,126.9z"/>
	<path id="path4322" class="st7" d="M115.1,128.3l-1-0.7l0.6-0.5L115.1,128.3z"/>
	<path id="path4324" class="st7" d="M91.6,130.4l0.4-1.2l0.6,0.5L91.6,130.4L91.6,130.4z"/>
	<path id="path4326" class="st7" d="M91.2,129h1.3l-0.2,0.7L91.2,129z"/>
	<path id="path4328" class="st7" d="M92.3,128.2l0.4,1.2h-0.8L92.3,128.2z"/>
	<path id="path4330" class="st7" d="M93.4,129l-1,0.7l-0.2-0.7H93.4z"/>
	<path id="path4332" class="st7" d="M93,130.4l-1-0.7l0.6-0.5L93,130.4L93,130.4z"/>
	<path id="path4334" class="st7" d="M96.5,130.4l0.4-1.2l0.6,0.5L96.5,130.4L96.5,130.4z"/>
	<path id="path4336" class="st7" d="M96.1,129h1.3l-0.2,0.7C97.1,129.8,96.1,129,96.1,129z"/>
	<path id="path4338" class="st7" d="M97.2,128.2l0.4,1.2h-0.8L97.2,128.2z"/>
	<path id="path4340" class="st7" d="M98.4,129l-1,0.7l-0.2-0.7H98.4z"/>
	<path id="path4342" class="st7" d="M97.9,130.4l-1-0.7l0.6-0.5L97.9,130.4L97.9,130.4z"/>
	<path id="path4344" class="st7" d="M101.4,130.4l0.4-1.2l0.6,0.5L101.4,130.4L101.4,130.4z"/>
	<path id="path4346" class="st7" d="M101,129h1.3l-0.2,0.7L101,129z"/>
	<path id="path4348" class="st7" d="M102.1,128.2l0.4,1.2h-0.8L102.1,128.2z"/>
	<path id="path4350" class="st7" d="M103.3,129l-1,0.7L102,129H103.3z"/>
	<path id="path4352" class="st7" d="M102.8,130.4l-1-0.7l0.6-0.5L102.8,130.4L102.8,130.4z"/>
	<path id="path4354" class="st7" d="M106.3,130.4l0.4-1.2l0.6,0.5L106.3,130.4L106.3,130.4z"/>
	<path id="path4356" class="st7" d="M105.9,129h1.3l-0.2,0.7C106.9,129.8,105.9,129,105.9,129z"/>
	<path id="path4358" class="st7" d="M107,128.2l0.4,1.2h-0.8L107,128.2z"/>
	<path id="path4360" class="st7" d="M108.2,129l-1,0.7l-0.2-0.7H108.2z"/>
	<path id="path4362" class="st7" d="M107.7,130.4l-1-0.7l0.6-0.5L107.7,130.4L107.7,130.4z"/>
	<path id="path4364" class="st7" d="M111.2,130.4l0.4-1.2l0.6,0.5L111.2,130.4L111.2,130.4z"/>
	<path id="path4366" class="st7" d="M110.8,129h1.3l-0.2,0.7L110.8,129z"/>
	<path id="path4368" class="st7" d="M111.9,128.2l0.4,1.2h-0.8L111.9,128.2z"/>
	<path id="path4370" class="st7" d="M113.1,129l-1,0.7l-0.2-0.7H113.1z"/>
	<path id="path4372" class="st7" d="M112.7,130.4l-1-0.7l0.6-0.5L112.7,130.4L112.7,130.4z"/>
	<path id="path4374" class="st7" d="M89.1,132.5l0.4-1.2l0.6,0.5C90.2,131.7,89.1,132.5,89.1,132.5z"/>
	<path id="path4376" class="st7" d="M88.7,131.1H90l-0.2,0.7L88.7,131.1z"/>
	<path id="path4378" class="st7" d="M89.8,130.3l0.4,1.2h-0.8L89.8,130.3z"/>
	<path id="path4380" class="st7" d="M91,131.1l-1,0.7l-0.2-0.7H91z"/>
	<path id="path4382" class="st7" d="M90.5,132.5l-1-0.7l0.6-0.5L90.5,132.5z"/>
	<path id="path4384" class="st7" d="M94,132.5l0.4-1.2l0.6,0.5L94,132.5z"/>
	<path id="path4386" class="st7" d="M93.6,131.1h1.3l-0.2,0.7C94.6,131.9,93.6,131.1,93.6,131.1z"/>
	<path id="path4388" class="st7" d="M94.7,130.3l0.4,1.2h-0.8C94.4,131.5,94.7,130.3,94.7,130.3z"/>
	<path id="path4390" class="st7" d="M95.9,131.1l-1,0.7l-0.2-0.7H95.9z"/>
	<path id="path4392" class="st7" d="M95.5,132.5l-1-0.7l0.6-0.5L95.5,132.5z"/>
	<path id="path4394" class="st7" d="M99,132.5l0.4-1.2l0.6,0.5C100,131.7,99,132.5,99,132.5z"/>
	<path id="path4396" class="st7" d="M98.5,131.1h1.3l-0.2,0.7L98.5,131.1z"/>
	<path id="path4398" class="st7" d="M99.7,130.3l0.4,1.2h-0.8L99.7,130.3z"/>
	<path id="path4400" class="st7" d="M100.8,131.1l-1,0.7l-0.2-0.7H100.8z"/>
	<path id="path4402" class="st7" d="M100.4,132.5l-1-0.7l0.6-0.5L100.4,132.5z"/>
	<path id="path4404" class="st7" d="M103.9,132.5l0.4-1.2l0.6,0.5C104.9,131.7,103.9,132.5,103.9,132.5z"/>
	<path id="path4406" class="st7" d="M103.4,131.1h1.3l-0.2,0.7L103.4,131.1z"/>
	<path id="path4408" class="st7" d="M104.6,130.3l0.4,1.2h-0.8C104.2,131.5,104.6,130.3,104.6,130.3z"/>
	<path id="path4410" class="st7" d="M105.7,131.1l-1,0.7l-0.2-0.7H105.7z"/>
	<path id="path4412" class="st7" d="M105.3,132.5l-1-0.7l0.6-0.5C104.9,131.3,105.3,132.5,105.3,132.5z"/>
	<path id="path4414" class="st7" d="M108.8,132.5l0.4-1.2l0.6,0.5L108.8,132.5z"/>
	<path id="path4416" class="st7" d="M108.3,131.1h1.3l-0.2,0.7C109.4,131.9,108.3,131.1,108.3,131.1z"/>
	<path id="path4418" class="st7" d="M109.5,130.3l0.4,1.2h-0.8C109.1,131.5,109.5,130.3,109.5,130.3z"/>
	<path id="path4420" class="st7" d="M110.6,131.1l-1,0.7l-0.2-0.7H110.6z"/>
	<path id="path4422" class="st7" d="M110.2,132.5l-1-0.7l0.6-0.5L110.2,132.5z"/>
	<path id="path4424" class="st7" d="M113.7,132.5l0.4-1.2l0.6,0.5L113.7,132.5z"/>
	<path id="path4426" class="st7" d="M113.3,131.1h1.3l-0.2,0.7L113.3,131.1z"/>
	<path id="path4428" class="st7" d="M114.4,130.3l0.4,1.2H114C114,131.5,114.4,130.3,114.4,130.3z"/>
	<path id="path4430" class="st7" d="M115.6,131.1l-1,0.7l-0.2-0.7C114.3,131.1,115.6,131.1,115.6,131.1z"/>
	<path id="path4432" class="st7" d="M115.1,132.5l-1-0.7l0.6-0.5L115.1,132.5z"/>
	<path id="path4434" class="st7" d="M91.6,134.6l0.4-1.2l0.6,0.5C92.6,133.8,91.6,134.6,91.6,134.6z"/>
	<path id="path4436" class="st7" d="M91.2,133.2h1.3l-0.2,0.7L91.2,133.2z"/>
	<path id="path4438" class="st7" d="M92.3,132.4l0.4,1.2h-0.8L92.3,132.4z"/>
	<path id="path4440" class="st7" d="M93.4,133.2l-1,0.7l-0.2-0.7H93.4z"/>
	<path id="path4442" class="st7" d="M93,134.6l-1-0.7l0.6-0.5C92.6,133.4,93,134.6,93,134.6z"/>
	<path id="path4444" class="st7" d="M96.5,134.6l0.4-1.2l0.6,0.5C97.5,133.8,96.5,134.6,96.5,134.6z"/>
	<path id="path4446" class="st7" d="M96.1,133.2h1.3l-0.2,0.7C97.1,134,96.1,133.2,96.1,133.2z"/>
	<path id="path4448" class="st7" d="M97.2,132.4l0.4,1.2h-0.8L97.2,132.4z"/>
	<path id="path4450" class="st7" d="M98.4,133.2l-1,0.7l-0.2-0.7H98.4z"/>
	<path id="path4452" class="st7" d="M97.9,134.6l-1-0.7l0.6-0.5C97.5,133.4,97.9,134.6,97.9,134.6z"/>
	<path id="path4454" class="st7" d="M101.4,134.6l0.4-1.2l0.6,0.5L101.4,134.6z"/>
	<path id="path4456" class="st7" d="M101,133.2h1.3L102,134L101,133.2z"/>
	<path id="path4458" class="st7" d="M102.1,132.4l0.4,1.2h-0.8L102.1,132.4z"/>
	<path id="path4460" class="st7" d="M103.3,133.2l-1,0.7l-0.2-0.7H103.3z"/>
	<path id="path4462" class="st7" d="M102.8,134.6l-1-0.7l0.6-0.5C102.4,133.4,102.8,134.6,102.8,134.6z"/>
	<path id="path4464" class="st7" d="M106.3,134.6l0.4-1.2l0.6,0.5L106.3,134.6z"/>
	<path id="path4466" class="st7" d="M105.9,133.2h1.3l-0.2,0.7C106.9,134,105.9,133.2,105.9,133.2z"/>
	<path id="path4468" class="st7" d="M107,132.4l0.4,1.2h-0.8L107,132.4z"/>
	<path id="path4470" class="st7" d="M108.2,133.2l-1,0.7l-0.2-0.7H108.2z"/>
	<path id="path4472" class="st7" d="M107.7,134.6l-1-0.7l0.6-0.5L107.7,134.6z"/>
	<path id="path4474" class="st7" d="M111.2,134.6l0.4-1.2l0.6,0.5C112.3,133.8,111.2,134.6,111.2,134.6z"/>
	<path id="path4476" class="st7" d="M110.8,133.2h1.3l-0.2,0.7L110.8,133.2z"/>
	<path id="path4478" class="st7" d="M111.9,132.4l0.4,1.2h-0.8L111.9,132.4z"/>
	<path id="path4480" class="st7" d="M113.1,133.2l-1,0.7l-0.2-0.7H113.1z"/>
	<path id="path4482" class="st7" d="M112.7,134.6l-1-0.7l0.6-0.5L112.7,134.6z"/>
	<path id="path4484" class="st7" d="M89.1,136.7l0.4-1.2l0.6,0.5C90.2,135.9,89.1,136.7,89.1,136.7z"/>
	<path id="path4486" class="st7" d="M88.7,135.3H90l-0.2,0.7L88.7,135.3z"/>
	<path id="path4488" class="st7" d="M89.8,134.5l0.4,1.2h-0.8L89.8,134.5z"/>
	<path id="path4490" class="st7" d="M91,135.3l-1,0.7l-0.2-0.7H91z"/>
	<path id="path4492" class="st7" d="M90.5,136.7l-1-0.7l0.6-0.5L90.5,136.7z"/>
	<path id="path4494" class="st7" d="M94,136.7l0.4-1.2l0.6,0.5L94,136.7z"/>
	<path id="path4496" class="st7" d="M93.6,135.3h1.3l-0.2,0.7C94.6,136.1,93.6,135.3,93.6,135.3z"/>
	<path id="path4498" class="st7" d="M94.7,134.5l0.4,1.2h-0.8C94.4,135.7,94.7,134.5,94.7,134.5z"/>
	<path id="path4500" class="st7" d="M95.9,135.3l-1,0.7l-0.2-0.7H95.9z"/>
	<path id="path4502" class="st7" d="M95.5,136.7l-1-0.7l0.6-0.5L95.5,136.7z"/>
	<path id="path4504" class="st7" d="M99,136.7l0.4-1.2l0.6,0.5C100,135.9,99,136.7,99,136.7z"/>
	<path id="path4506" class="st7" d="M98.5,135.3h1.3l-0.2,0.7L98.5,135.3z"/>
	<path id="path4508" class="st7" d="M99.7,134.5l0.4,1.2h-0.8L99.7,134.5z"/>
	<path id="path4510" class="st7" d="M100.8,135.3l-1,0.7l-0.2-0.7H100.8z"/>
	<path id="path4512" class="st7" d="M100.4,136.7l-1-0.7l0.6-0.5L100.4,136.7z"/>
	<path id="path4514" class="st7" d="M103.9,136.7l0.4-1.2l0.6,0.5C104.9,135.9,103.9,136.7,103.9,136.7z"/>
	<path id="path4516" class="st7" d="M103.4,135.3h1.3l-0.2,0.7L103.4,135.3z"/>
	<path id="path4518" class="st7" d="M104.6,134.5l0.4,1.2h-0.8C104.2,135.7,104.6,134.5,104.6,134.5z"/>
	<path id="path4520" class="st7" d="M105.7,135.3l-1,0.7l-0.2-0.7H105.7z"/>
	<path id="path4522" class="st7" d="M105.3,136.7l-1-0.7l0.6-0.5C104.9,135.5,105.3,136.7,105.3,136.7z"/>
	<path id="path4524" class="st7" d="M108.8,136.7l0.4-1.2l0.6,0.5L108.8,136.7z"/>
	<path id="path4526" class="st7" d="M108.3,135.3h1.3l-0.2,0.7C109.4,136.1,108.3,135.3,108.3,135.3z"/>
	<path id="path4528" class="st7" d="M109.5,134.5l0.4,1.2h-0.8C109.1,135.7,109.5,134.5,109.5,134.5z"/>
	<path id="path4530" class="st7" d="M110.6,135.3l-1,0.7l-0.2-0.7H110.6z"/>
	<path id="path4532" class="st7" d="M110.2,136.7l-1-0.7l0.6-0.5L110.2,136.7z"/>
	<path id="path4534" class="st7" d="M113.7,136.7l0.4-1.2l0.6,0.5L113.7,136.7z"/>
	<path id="path4536" class="st7" d="M113.3,135.3h1.3l-0.2,0.7L113.3,135.3z"/>
	<path id="path4538" class="st7" d="M114.4,134.5l0.4,1.2H114C114,135.7,114.4,134.5,114.4,134.5z"/>
	<path id="path4540" class="st7" d="M115.6,135.3l-1,0.7l-0.2-0.7C114.3,135.3,115.6,135.3,115.6,135.3z"/>
	<path id="path4542" class="st7" d="M115.1,136.7l-1-0.7l0.6-0.5L115.1,136.7z"/>
	<path id="path4544" class="st7" d="M91.6,138.8l0.4-1.2l0.6,0.5C92.6,138,91.6,138.8,91.6,138.8z"/>
	<path id="path4546" class="st7" d="M91.2,137.4h1.3l-0.2,0.7L91.2,137.4z"/>
	<path id="path4548" class="st7" d="M92.3,136.6l0.4,1.2h-0.8L92.3,136.6z"/>
	<path id="path4550" class="st7" d="M93.4,137.4l-1,0.7l-0.2-0.7H93.4z"/>
	<path id="path4552" class="st7" d="M93,138.8l-1-0.7l0.6-0.5C92.6,137.6,93,138.8,93,138.8z"/>
	<path id="path4554" class="st7" d="M96.5,138.8l0.4-1.2l0.6,0.5C97.5,138,96.5,138.8,96.5,138.8z"/>
	<path id="path4556" class="st7" d="M96.1,137.4h1.3l-0.2,0.7C97.1,138.2,96.1,137.4,96.1,137.4z"/>
	<path id="path4558" class="st7" d="M97.2,136.6l0.4,1.2h-0.8L97.2,136.6z"/>
	<path id="path4560" class="st7" d="M98.4,137.4l-1,0.7l-0.2-0.7H98.4z"/>
	<path id="path4562" class="st7" d="M97.9,138.8l-1-0.7l0.6-0.5C97.5,137.6,97.9,138.8,97.9,138.8z"/>
	<path id="path4564" class="st7" d="M101.4,138.8l0.4-1.2l0.6,0.5L101.4,138.8z"/>
	<path id="path4566" class="st7" d="M101,137.4h1.3l-0.2,0.7L101,137.4z"/>
	<path id="path4568" class="st7" d="M102.1,136.6l0.4,1.2h-0.8L102.1,136.6z"/>
	<path id="path4570" class="st7" d="M103.3,137.4l-1,0.7l-0.2-0.7H103.3z"/>
	<path id="path4572" class="st7" d="M102.8,138.8l-1-0.7l0.6-0.5C102.4,137.6,102.8,138.8,102.8,138.8z"/>
	<path id="path4574" class="st7" d="M106.3,138.8l0.4-1.2l0.6,0.5L106.3,138.8z"/>
	<path id="path4576" class="st7" d="M105.9,137.4h1.3l-0.2,0.7C106.9,138.2,105.9,137.4,105.9,137.4z"/>
	<path id="path4578" class="st7" d="M107,136.6l0.4,1.2h-0.8L107,136.6z"/>
	<path id="path4580" class="st7" d="M108.2,137.4l-1,0.7l-0.2-0.7H108.2z"/>
	<path id="path4582" class="st7" d="M107.7,138.8l-1-0.7l0.6-0.5L107.7,138.8z"/>
	<path id="path4584" class="st7" d="M111.2,138.8l0.4-1.2l0.6,0.5C112.3,138,111.2,138.8,111.2,138.8z"/>
	<path id="path4586" class="st7" d="M110.8,137.4h1.3l-0.2,0.7L110.8,137.4z"/>
	<path id="path4588" class="st7" d="M111.9,136.6l0.4,1.2h-0.8L111.9,136.6z"/>
	<path id="path4590" class="st7" d="M113.1,137.4l-1,0.7l-0.2-0.7H113.1z"/>
	<path id="path4592" class="st7" d="M112.7,138.8l-1-0.7l0.6-0.5L112.7,138.8z"/>
	<path id="path4594" class="st7" d="M89.1,140.9l0.4-1.2l0.6,0.5C90.2,140.2,89.1,140.9,89.1,140.9z"/>
	<path id="path4596" class="st7" d="M88.7,139.6H90l-0.2,0.7L88.7,139.6z"/>
	<path id="path4598" class="st7" d="M89.8,138.7l0.4,1.2h-0.8L89.8,138.7z"/>
	<path id="path4600" class="st7" d="M91,139.6l-1,0.7l-0.2-0.7H91z"/>
	<path id="path4602" class="st7" d="M90.5,140.9l-1-0.7l0.6-0.5L90.5,140.9z"/>
	<path id="path4604" class="st7" d="M94,140.9l0.4-1.2l0.6,0.5L94,140.9z"/>
	<path id="path4606" class="st7" d="M93.6,139.6h1.3l-0.2,0.7C94.6,140.3,93.6,139.6,93.6,139.6z"/>
	<path id="path4608" class="st7" d="M94.7,138.7l0.4,1.2h-0.8C94.4,139.9,94.7,138.7,94.7,138.7z"/>
	<path id="path4610" class="st7" d="M95.9,139.6l-1,0.7l-0.2-0.7H95.9z"/>
	<path id="path4612" class="st7" d="M95.5,140.9l-1-0.7l0.6-0.5L95.5,140.9z"/>
	<path id="path4614" class="st7" d="M99,140.9l0.4-1.2l0.6,0.5C100,140.2,99,140.9,99,140.9z"/>
	<path id="path4616" class="st7" d="M98.5,139.6h1.3l-0.2,0.7L98.5,139.6z"/>
	<path id="path4618" class="st7" d="M99.7,138.7l0.4,1.2h-0.8L99.7,138.7z"/>
	<path id="path4620" class="st7" d="M100.8,139.6l-1,0.7l-0.2-0.7H100.8z"/>
	<path id="path4622" class="st7" d="M100.4,140.9l-1-0.7l0.6-0.5L100.4,140.9z"/>
	<path id="path4624" class="st7" d="M103.9,140.9l0.4-1.2l0.6,0.5C104.9,140.2,103.9,140.9,103.9,140.9z"/>
	<path id="path4626" class="st7" d="M103.4,139.6h1.3l-0.2,0.7L103.4,139.6z"/>
	<path id="path4628" class="st7" d="M104.6,138.7l0.4,1.2h-0.8C104.2,139.9,104.6,138.7,104.6,138.7z"/>
	<path id="path4630" class="st7" d="M105.7,139.6l-1,0.7l-0.2-0.7H105.7z"/>
	<path id="path4632" class="st7" d="M105.3,140.9l-1-0.7l0.6-0.5C104.9,139.7,105.3,140.9,105.3,140.9z"/>
	<path id="path4634" class="st7" d="M108.8,140.9l0.4-1.2l0.6,0.5L108.8,140.9z"/>
	<path id="path4636" class="st7" d="M108.3,139.6h1.3l-0.2,0.7C109.4,140.3,108.3,139.6,108.3,139.6z"/>
	<path id="path4638" class="st7" d="M109.5,138.7l0.4,1.2h-0.8C109.1,139.9,109.5,138.7,109.5,138.7z"/>
	<path id="path4640" class="st7" d="M110.6,139.6l-1,0.7l-0.2-0.7H110.6z"/>
	<path id="path4642" class="st7" d="M110.2,140.9l-1-0.7l0.6-0.5L110.2,140.9z"/>
	<path id="path4644" class="st7" d="M113.7,140.9l0.4-1.2l0.6,0.5L113.7,140.9z"/>
	<path id="path4646" class="st7" d="M113.3,139.6h1.3l-0.2,0.7L113.3,139.6z"/>
	<path id="path4648" class="st7" d="M114.4,138.7l0.4,1.2H114C114,139.9,114.4,138.7,114.4,138.7z"/>
	<path id="path4650" class="st7" d="M115.6,139.6l-1,0.7l-0.2-0.7C114.3,139.6,115.6,139.6,115.6,139.6z"/>
	<path id="path4652" class="st7" d="M115.1,140.9l-1-0.7l0.6-0.5L115.1,140.9z"/>
	<rect id="rect3659" x="86.8" y="120.5" class="st15" width="64" height="40"/>
</g>
</svg>
