<?xml version="1.0" encoding="utf-8"?>
<!-- Generator: Adobe Illustrator 22.0.0, SVG Export Plug-In . SVG Version: 6.00 Build 0)  -->
<svg version="1.1" id="svg2" xmlns:svg="http://www.w3.org/2000/svg"
	 xmlns="http://www.w3.org/2000/svg" xmlns:xlink="http://www.w3.org/1999/xlink" x="0px" y="0px" viewBox="0 0 388 538"
	 style="enable-background:new 0 0 388 538;" xml:space="preserve">
<style type="text/css">
	.st0{fill:#A0C987;stroke:#000000;stroke-width:1.0008;}
	.st1{font-family:'STBaoliSC-Regular';}
	.st2{font-size:36px;}
	.st3{font-family:'STKaiti';}
	.st4{font-size:20px;}
	.st5{fill:#CCE0BD;stroke:#000000;stroke-width:1.001;}
	.st6{fill:#FFFFFF;}
</style>
<rect id="rect3690" x="37.5" y="122.5" class="st0" width="300" height="106"/>
<text transform="matrix(0.9999 1.383809e-02 -1.383809e-02 0.9999 103.8702 180.8589)" class="st1 st2">南美洲计分</text>
<text transform="matrix(1 0 0 1 144 221.3282)" class="st3 st4">双方获分：</text>
<rect id="rect2904" x="37.5" y="228.5" class="st5" width="300" height="161"/>
<rect id="rect3706" x="38" y="229" class="st6" width="299" height="34"/>
<rect id="rect3734" x="38" y="296" class="st6" width="299" height="33"/>
<text transform="matrix(1 0 0 1 159.3804 254.8282)" class="st3 st4">存在：2</text>
<text transform="matrix(1 0 0 1 159.3801 288.0782)" class="st3 st4">支配：5</text>
<text transform="matrix(1 0 0 1 159.3799 321.5782)" class="st3 st4">控制：6</text>
<text transform="matrix(1 0 0 1 104 354.8282)" class="st3 st4">每控制一个在宗教区</text>
<text transform="matrix(1 0 0 1 142.6401 378.8282)" class="st3 st4">的战场国+1</text>
</svg>
