<?xml version="1.0" encoding="utf-8"?>
<!-- Generator: Adobe Illustrator 22.0.0, SVG Export Plug-In . SVG Version: 6.00 Build 0)  -->
<svg version="1.1" id="svg2" xmlns:svg="http://www.w3.org/2000/svg"
	 xmlns="http://www.w3.org/2000/svg" xmlns:xlink="http://www.w3.org/1999/xlink" x="0px" y="0px" viewBox="0 0 388 538"
	 style="enable-background:new 0 0 388 538;" xml:space="preserve">
<style type="text/css">
	.st0{opacity:0.8374;enable-background:new    ;}
	.st1{fill:#AAE0FA;stroke:#84C3D5;stroke-width:4;}
	.st2{fill:#AAE0FA;}
	.st3{fill:none;stroke:#84C3D5;stroke-width:1;stroke-linejoin:bevel;stroke-miterlimit:10;}
	.st4{font-family:'STBaoliSC-Regular';}
	.st5{font-size:36px;}
	.st6{font-family:'STKaiti';}
	.st7{font-size:20px;}
</style>
<g id="g9002">
	<path id="path9781" class="st0" d="M306.3,190.5h-0.4l-11.9-0.4l-6.1-3.7l-7.8,6.1l0.4-4.9l2-1.6l-3.3,0.4l2.9-2l-2-4.5l-2,2.9
		l-0.8-3.7l-0.8,1.2l0.4-1.2l-1.6,0.8l-1.6-2.5l-0.8,1.6v-2.9l-1.2,1.6l-5.3-3.7l-0.4,1.2l-3.7-1.2l-2.5,5.3l2.5,0.4l-2.5,1.2
		l-1.2-2l-4.9,6.1l1.2-4.5l-6.5,1.2l9-2.5l2.9-7.4l-11-2l-2.9,5.7l-0.4-2.9l-2.5,2.9v-3.3l-2.5,2.9l2.5-5.7l8.2-7.8h-1.6l1.2-3.3
		l-4.9-2.5l-3.3-13.9l-1.6-1.2l-0.4,2.5l-4.1-5.7l-11.4-6.5h-17.6l-7.8-7l-2,3.3l1.2-6.1l-3.7-4.1l-6.1-3.7v1.2l0.4,0.8v11l0.4,0.8
		v17.6l0.4,0.8l-0.4,62.6l-0.4,0.8v11l-0.4,0.8v9l-0.4,0.8v0.8h7l1.2,0.4h13.5l0.8,0.4h12.3l0.8,0.4h10.6l0.8,0.4h10.2l0.8,0.4h9
		l0.4,0.4h9l0.8,0.4h7l0.8,0.4h7.8l0.8,0.4h7l0.8,0.4h6.1l0.8,0.4h5.7l0.4-0.8v-3.7l0.4-0.8v-3.7l0.4-0.8v-3.7l0.4-0.8v-4.9l0.4-0.8
		V211l0.4-0.8v-7.4l0.4-1.2v-9l0.4-0.8V190.5L306.3,190.5z M190.5,146l-0.4-0.8v-17.6l-0.4-0.8v-11l-0.4-0.8v-1.2l-1.2-0.8l-4.1,0.4
		v-5.3l-4.9-2.9l-4.5,0.4l-0.8-1.2h-8.6l-0.8-0.4h-30.3l-1.2-0.4h-13.5l0.8,2v2.5l-4.1,1.6l-2.9-4.9l0.8-1.2H90.8l0.4,3.3l-8.2,5.7
		l0.8,4.1l-3.3,8.6l-1.6,14.7l3.3,2l-0.4,1.6l-4.1,6.1l-5.3,1.6l0.4,4.1l-3.3,0.8l0.4,3.7l-6.5,1.6v20.4l0.8-0.8l0.8,2.5l-1.6,4.9
		v21.7l6.5,9.4l4.9,11.4h5.3l1.2-0.4h27.8l0.8,0.4h45l0.8,0.4h22.1l0.8,0.4h10.2V231l0.4-0.8v-9l0.4-0.8v-11l0.4-0.8L190.5,146
		L190.5,146z M182.8,103.4l0.4-4.1l-4.5,0.4l1.2,2.9l-2.9,1.2L182.8,103.4L182.8,103.4z M114.1,103.4l2.9-4.1l-2.5-5.3l5.3-3.3
		l-3.7-2.5l-9.8,7.4l-5.7-0.4l-0.8,2l-3.7-0.8l-2.5,2l-2.9,4.1v0.8C90.8,103.4,114.1,103.4,114.1,103.4z M173.8,104.3l-2.5-2.5
		l6.1-2h-14.7l3.7,1.2l-8.6,2.5l-7.4-3.7l-11.9,0.8l-1.6-4.1l-7.8-2l-2.9-4.5l-1.2,3.7l2.9-0.4v1.6l-2-0.8l-9,4.5l2.5,4.9h13.5
		l1.2,0.4h30.3l0.8,0.4H173.8L173.8,104.3z M182.8,103.4l0.4-4.1l-4.5,0.4l1.2,2.9l-2.9,1.2L182.8,103.4L182.8,103.4z M63.4,188.5
		l-8.2,5.7l2.9,9l-2,2l7.4,4.9V188.5z M63.4,184.4h-1.6l0.8,1.6l0.8-0.8V184.4z M63.4,166l-3.3,3.3l1.2,1.6l-4.1,2.5l0.4,8.6
		l4.1,2.5l1.6-2.5V166z M63.4,161.5l-0.8,0.4l0.8,2.5V161.5z M143.1,127.6l2.5-5.7l4.5-3.3l4.9-1.6l4.9,1.6l15.5-5.7l0.4-1.6
		l-1.2-5.3l1.6,6.5l2.9,0.4l-14.7,4.1l-4.9,1.6l-4.5-1.6l-4.5,1.6L143.1,127.6L143.1,127.6z M173,118.2l-0.8,6.1l-1.2-5.3L173,118.2
		z M63.4,185.2l0.4-0.8h-0.4V185.2z M143.1,127.6l2.5-5.7l4.5-3.3l4.9-1.6l4.9,1.6l15.5-5.7l0.4-1.6l-1.2-5.3l1.6,6.5l2.9,0.4
		l-14.7,4.1l-4.9,1.6l-4.5-1.6l-4.5,1.6L143.1,127.6L143.1,127.6z M173,118.2l-0.8,6.1l-1.2-5.3L173,118.2z M250.6,170.1l2-2.5
		l-4.1,0.4L250.6,170.1z M242.5,184.4l-1.2-3.7l5.3,0.4l-1.6,2.5l0.8,2l-2.5-4.5L242.5,184.4z M220.8,137l0.8,2.5l-3.3,0.4
		L220.8,137L220.8,137z M250.6,170.1l2-2.5l-4.1,0.4L250.6,170.1z M242.5,184.4l-1.2-3.7l5.3,0.4l-1.6,2.5l0.8,2l-2.5-4.5
		L242.5,184.4z M220.8,137l0.8,2.5l-3.3,0.4L220.8,137L220.8,137z M322.6,238l6.9-10.2l1.2-7.8l-1.2-10.6l-1.6-2.5l-7.8-1.6
		l-6.1-8.6l-7.8-6.1v1.2l-0.4,0.8v9l-0.4,1.2v7.4L305,211v5.3l-0.4,0.8v4.9l-0.4,0.8v3.7l-0.4,0.8v3.7l-0.4,0.8v3.7l-0.4,0.8
		l0.8,0.4h6.1l0.8,0.4h4.9l1.2,0.4h4.5L322.6,238L322.6,238z M322.6,238l6.9-10.2l1.2-7.8l-1.2-10.6l-1.6-2.5l-7.8-1.6l-6.1-8.6
		l-7.8-6.1 M202.8,340.6l1.6,15.1l0.8,0.4h11.4l0.8,0.4h9.8l0.8,0.4h1.2l2.9-4.1l6.1-4.1l3.3-8.2l-0.8-5.3l3.3-4.1l-1.6-1.2l2.5,0.4
		l4.5-4.5l6.9-4.5h4.9l6.5-5.3l4.1,1.2l2.9-2.5l-0.4,2l5.3,0.4l0.8-2.9l5.7-2.9v-3.3l7.4-9.4l0.4-1.2v-0.8l0.4-0.8v-0.8l0.4-0.8v-2
		l0.4-0.8v-0.8l0.4-0.8v-1.2l0.4-0.8v-1.6l0.4-0.8v-1.2l0.4-0.8v-1.6l0.4-1.2v-1.6l0.4-0.8v-0.8l0.4-1.2v-1.6l0.4-0.8v-2l0.4-0.8v-2
		l0.4-0.8v-1.6l0.4-1.2v-1.6l0.4-0.8v-2l0.4-0.8v-2l0.4-0.8v-2.9l0.4-0.8v-1.6l0.4-1.2v-2.5l0.4-1.2v-2.5l0.4-1.2V240l0.4-0.8v-2.9
		h-5.7l-0.8-0.4h-6.1l-0.8-0.4h-7l-0.8-0.4H274l-0.8-0.4h-7l-0.8-0.4h-9l-0.4-0.4h-9l-0.8-0.4h-10.2l-0.8-0.4h-10.6l-0.8-0.4h-12.3
		l-0.8-0.4h-13.5l-1.2-0.4h-7v7.4l-0.4,1.2v6.5l-0.4,0.8v5.7l-0.4,0.8v5.7l-0.4,0.8v5.7l-0.4,0.8v4.5l-0.4,1.2v4.5l-0.4,0.8v3.7
		l-0.4,0.8v3.7l-0.4,1.2v3.7l-0.4,0.8v3.7l-0.4,0.8v3.7l-0.4,0.8v3.7l-0.4,0.8v2.9l-0.4,0.8v3.7l-0.4,0.8v2.5l-0.4,1.2v2.5L182,321
		v2.9l-0.4,0.8L202.8,340.6L202.8,340.6z M74.8,231l3.7,8.2l9.4,13.1l-1.2,3.3l2.9,4.9l4.9,4.9l22.5,11.9l7,7l0.8,9.8v9l-3.7,12.7
		l0.8,11l-7,21.3l1.2,5.7l-0.4,0.4l0.8,0.4l65-29.8l0.4-0.8V321l0.4-0.8v-2.5l0.4-1.2V314l0.4-0.8v-3.7l0.4-0.8v-2.9l0.4-0.8v-3.7
		l0.4-0.8v-3.7l0.4-0.8v-3.7l0.4-0.8v-3.7l0.4-1.2v-3.7l0.4-0.8v-3.7l0.4-0.8v-4.5l0.4-1.2v-4.5l0.4-0.8v-5.7l0.4-0.8v-5.7l0.4-0.8
		v-5.7l0.4-0.8v-6.5l0.4-1.2v-7.4h-10.2l-0.8-0.4h-22.1L155,231h-45l-0.8-0.4H81.4l-1.2,0.4L74.8,231L74.8,231z M293.6,298.9l1.6-2
		l2-7.4l3.3-4.1l6.5-30.7l0.8-1.2l0.8,2.5l2.5-2l11.4-15.9l-1.2-0.4h-4.5l-1.2-0.4h-4.9l-0.8-0.4h-6.1l-0.8-0.4v2.9l-0.4,0.8v2.9
		l-0.4,1.2v2.5l-0.4,1.2v2.5l-0.4,1.2v1.6l-0.4,0.8v2.9l-0.4,0.8v2l-0.4,0.8v2l-0.4,0.8v1.6l-0.4,1.2v1.6l-0.4,0.8v2l-0.4,0.8v2
		l-0.4,0.8v1.6l-0.4,1.2v0.8l-0.4,0.8v1.6l-0.4,1.2v1.6l-0.4,0.8v1.2l-0.4,0.8v1.6l-0.4,0.8v1.2l-0.4,0.8v0.8l-0.4,0.8v2l-0.4,0.8
		v0.8l-0.4,0.8v0.8L293.6,298.9L293.6,298.9z M102.2,458.7h0.4H102.2z M104.3,434.2l0.4-2l-2.5,1.2L104.3,434.2L104.3,434.2z
		 M95.3,452.2l2.5,0.4l-1.2-2.5L95.3,452.2z M103.5,454.2l0.4-2.9l1.2,2l0.4-1.6l1.2,3.3L103.5,454.2z M104.3,444.8l1.2-2.5l7,0.4
		h-4.9L104.3,444.8z M111.2,413.8l2.5,1.6l-2.5,0.4V413.8z M105.5,416.6v-2l1.6,1.6L105.5,416.6z M97.3,441.2L99,442l-1.2,1.2
		L97.3,441.2z M95.7,458.7l2-0.4l-1.2-5.7l-0.8,3.7l-2.5-0.4l1.6,2.5l2-2.5L95.7,458.7L95.7,458.7z M102.2,458.7h7.8l1.2,0.4h10.6
		l-0.4-1.2l0.8,1.2h2l2-4.5l8.6-4.9l0.4-3.7l-4.1-0.8l-3.3-4.5l3.7-4.1l6.5-1.6l1.6-6.1l5.3-3.3l-2.9-1.6l2.9-0.8l1.2,2l2.5-1.6
		l-0.4-2.5l-3.7,1.6l-2.5-2l1.2-7l5.7,2.5l7-1.2l1.6-8.2l1.2,0.4l-0.8-3.3l5.7,1.2l5.7-0.8v-1.6l0.4-0.8v-1.2l0.4-0.8v-1.6l0.4-0.8
		v-1.6l0.4-0.8v-1.2l0.4-0.8v-1.6l0.4-0.8v-0.8l0.4-0.8v-1.6l0.4-0.4v-1.6l0.4-0.8v-1.6l0.4-0.8v-2.5l0.4-0.8V377l0.4-0.8v-1.2
		l0.4-0.8l-58.5-19.6l-0.8-0.4l-2.5,3.7v17.2l-8.6,19.2l-2.9,1.2l2.5,11.4l-4.1,8.2l2.5,2.9l2.5-0.4l1.6,0.4l1.6-0.8l-2.9,2.9
		l2.5,1.2l-0.8,1.6l-1.6-1.2l1.6,1.6l-1.6-0.4l-1.2,4.9l1.6,2l-2.9,1.2l3.3,2l-4.5,3.3l3.7,0.8l-3.3,0.4l-0.4,1.6l1.6-0.8l-2,4.5
		l-1.2-2l-2.5,0.4l2-0.4h-1.6l1.2-1.6l-1.6,1.2l-1.2-1.2l-1.6,0.4l2.5,0.8l-1.2,1.6l-3.7,1.6l1.6,1.2l-1.2-1.2l2.9-1.2l0.4,1.6
		l2.5-0.4l1.2,2.5l-2.5,1.2h2.9l-3.7,1.2l4.1-0.8l2.5,2l-2-0.4l1.2,1.6l-5.3-1.2l3.3,1.6l-2.5,1.2l1.6,0.4l-1.6,3.3l1.6-1.2l1.6,2.5
		l-2.9-0.4l0.8,1.6L102.2,458.7L102.2,458.7z M104.3,434.2l0.4-2l-2.5,1.2L104.3,434.2L104.3,434.2z M95.3,452.2l2.5,0.4l-1.2-2.5
		L95.3,452.2z M103.5,454.2l0.4-2.9l1.2,2l0.4-1.6l1.2,3.3L103.5,454.2z M104.3,444.8l1.2-2.5l7,0.4h-4.9L104.3,444.8z M111.2,413.8
		l2.5,1.6l-2.5,0.4V413.8z M105.5,416.6v-2l1.6,1.6L105.5,416.6z M97.3,441.2L99,442l-1.2,1.2L97.3,441.2z M175,374.1l-0.4,0.8v1.2
		l-0.4,0.8v1.6l-0.4,0.8v2.5l-0.4,0.8v1.6l-0.4,0.8v1.6l-0.4,0.4v1.6l-0.4,0.8v0.8l-0.4,0.8v1.6l-0.4,0.8v1.2l-0.4,0.8v1.6l-0.4,0.8
		v1.6l-0.4,0.8v1.2l-0.4,0.8v1.6l7.4-1.2l4.9-2.5l5.7-6.1l0.4-3.3l-2.9-2l2-3.7l-6.1-4.9l1.2-2.9l2.5,3.3l7.8,2.9l10.2-1.2l9.8-9
		l3.7-7l7.8-8.2l-0.8-2l3.3,2.9l-9.8,9.4l7.8-5.7l4.9-6.1h-1.2l-0.8-0.4h-9.8l-0.8-0.4h-11.4l-0.8-0.4L175,374.1L175,374.1z
		 M102.6,458.7l4.9,0.8l-4.1,0.8v1.6l-1.2-3.3C102.2,458.7,102.6,458.7,102.6,458.7z M125.5,480.8l6.1-1.6l-9-3.3l-3.3-5.7l-6.5,1.2
		v2.5l4.1,0.4l-3.3,2.5l4.1,1.6l-1.6,1.2V478l-1.2,0.8l-4.5-1.6l2.9,1.6l-2,0.4l-0.4-1.2l-4.1,1.2L125.5,480.8z M113.7,481.2l2,1.6
		l-0.4-1.2h2.5l-0.4,1.2l3.3,0.8l-3.7-2.9l2.5-0.4L113.7,481.2L113.7,481.2z M102.6,476.7l3.3-1.2l-3.3-1.6l-2.5,1.2l2,1.6l2-0.8
		L102.6,476.7z M103.1,473.1l2,1.2l-0.8-1.2l4.5-2h-4.5L103.1,473.1z M99,472.6l3.7,1.2l-6.1-2.9L99,472.6L99,472.6z M110.8,476.3
		l2.5,1.2l-0.8-2.9L110.8,476.3L110.8,476.3z M110.4,477.5l-2.5-1.2v1.2H110.4z M95.3,459.2h-1.6l0.4,1.6L95.3,459.2z M122.3,459.2
		l0.4,0.4l1.6-0.4C124.3,459.2,122.3,459.2,122.3,459.2z M102.6,458.7l4.9,0.8l-4.1,0.8v1.6l-1.2-3.3H99l0.8,1.6l-3.3-0.4l2.9,0.8v2
		l1.6-2l1.2,1.2l-3.7,1.2l2,0.8l-1.2,2l2.5,2v-2l0.8,2l-0.8-2.5l2.9,1.2l-3.3-1.6l2-1.2l-0.8,1.6l2.5,1.2l-1.6,2.9l0.8-2l-1.2,1.6
		v-1.2h-2.9v3.3l3.3-1.2l-2,2l1.6,0.4l0.4-2.5h5.3l0.4,2.5l-2.5,2l0.8-1.6l-2.5,0.8l4.1,2l2-4.9l7-2l3.3,0.4l-2-3.3H117h2.5l-1.6-2
		l4.9-4.1l-0.8-0.8h-10.6l-1.2-0.4L102.6,458.7L102.6,458.7z M125.5,480.8l6.1-1.6l-9-3.3l-3.3-5.7l-6.5,1.2v2.5l4.1,0.4l-3.3,2.5
		l4.1,1.6l-1.6,1.2V478l-1.2,0.8l-4.5-1.6l2.9,1.6l-2,0.4l-0.4-1.2l-4.1,1.2L125.5,480.8z M113.7,481.2l2,1.6l-0.4-1.2h2.5l-0.4,1.2
		l3.3,0.8l-3.7-2.9l2.5-0.4L113.7,481.2L113.7,481.2z M102.6,476.7l3.3-1.2l-3.3-1.6l-2.5,1.2l2,1.6l2-0.8L102.6,476.7z
		 M103.1,473.1l2,1.2l-0.8-1.2l4.5-2h-4.5L103.1,473.1z M99,472.6l3.7,1.2l-6.1-2.9L99,472.6L99,472.6z M110.8,476.3l2.5,1.2
		l-0.8-2.9L110.8,476.3L110.8,476.3z M110.4,477.5l-2.5-1.2v1.2H110.4z M95.3,459.2h-1.6l0.4,1.6L95.3,459.2z"/>
	<path id="path9779" class="st1" d="M303.3,189.5h-0.4l-11.9-0.4l-6.1-3.7l-7.8,6.1l0.4-4.9l2-1.6l-3.3,0.4l2.9-2l-2-4.5l-2,2.9
		l-0.8-3.7l-0.8,1.2l0.4-1.2l-1.6,0.8l-1.6-2.5l-0.8,1.6v-2.9l-1.2,1.6l-5.3-3.7l-0.4,1.2l-3.7-1.2l-2.5,5.3l2.5,0.4l-2.5,1.2
		l-1.2-2l-4.9,6.1l1.2-4.5l-6.5,1.2l9-2.5l2.9-7.4l-11-2l-2.9,5.7l-0.4-2.9l-2.5,2.9v-3.3l-2.5,2.9l2.5-5.7l8.2-7.8h-1.6l1.2-3.3
		l-4.9-2.5l-3.3-13.9l-1.6-1.2l-0.4,2.5l-4.1-5.7l-11.4-6.5h-17.6l-7.8-7l-2,3.3l1.2-6.1l-3.7-4.1l-6.1-3.7v1.2l0.4,0.8v11l0.4,0.8
		v17.6l0.4,0.8l-0.4,62.6l-0.4,0.8v11l-0.4,0.8v9l-0.4,0.8v0.8h7l1.2,0.4h13.5l0.8,0.4h12.3l0.8,0.4h10.6l0.8,0.4h10.2l0.8,0.4h9
		l0.4,0.4h9l0.8,0.4h7l0.8,0.4h7.8l0.8,0.4h7l0.8,0.4h6.1l0.8,0.4h5.7l0.4-0.8v-3.7l0.4-0.8v-3.7l0.4-0.8v-3.7l0.4-0.8v-4.9l0.4-0.8
		V210l0.4-0.8v-7.4l0.4-1.2v-9l0.4-0.8L303.3,189.5L303.3,189.5z M187.5,145l-0.4-0.8v-17.6l-0.4-0.8v-11l-0.4-0.8v-1.2l-1.2-0.8
		l-4.1,0.4v-5.3l-4.9-2.9l-4.5,0.4l-0.8-1.2h-8.6l-0.8-0.4h-30.3l-1.2-0.4h-13.5l0.8,2v2.5l-4.1,1.6l-2.9-4.9l0.8-1.2H87.8l0.4,3.3
		l-8.2,5.7l0.8,4.1l-3.3,8.6l-1.6,14.7l3.3,2l-0.4,1.6l-4.1,6.1l-5.3,1.6l0.4,4.1l-3.3,0.8l0.4,3.7l-6.5,1.6v20.4l0.8-0.8l0.8,2.5
		l-1.6,4.9v21.7l6.5,9.4l4.9,11.4h5.3l1.2-0.4h27.8l0.8,0.4h45l0.8,0.4h22.1l0.8,0.4h10.2V230l0.4-0.8v-9l0.4-0.8v-11l0.4-0.8
		L187.5,145L187.5,145z M179.8,102.4l0.4-4.1l-4.5,0.4l1.2,2.9l-2.9,1.2L179.8,102.4L179.8,102.4z M111.1,102.4l2.9-4.1l-2.5-5.3
		l5.3-3.3l-3.7-2.5l-9.8,7.4l-5.7-0.4l-0.8,2l-3.7-0.8l-2.5,2l-2.9,4.1v0.8L111.1,102.4L111.1,102.4z M170.8,103.3l-2.5-2.5l6.1-2
		h-14.7l3.7,1.2l-8.6,2.5l-7.4-3.7l-11.9,0.8l-1.6-4.1l-7.8-2l-2.9-4.5l-1.2,3.7l2.9-0.4v1.6l-2-0.8l-9,4.5l2.5,4.9h13.5l1.2,0.4
		h30.3l0.8,0.4L170.8,103.3L170.8,103.3z M179.8,102.4l0.4-4.1l-4.5,0.4l1.2,2.9l-2.9,1.2L179.8,102.4L179.8,102.4z M60.4,187.5
		l-8.2,5.7l2.9,9l-2,2l7.4,4.9V187.5z M60.4,183.4h-1.6l0.8,1.6l0.8-0.8V183.4z M60.4,165l-3.3,3.3l1.2,1.6l-4.1,2.5l0.4,8.6
		l4.1,2.5l1.6-2.5V165z M60.4,160.5l-0.8,0.4l0.8,2.5V160.5z M140.1,126.6l2.5-5.7l4.5-3.3l4.9-1.6l4.9,1.6l15.5-5.7l0.4-1.6
		l-1.2-5.3l1.6,6.5l2.9,0.4l-14.7,4.1l-4.9,1.6l-4.5-1.6l-4.5,1.6L140.1,126.6L140.1,126.6z M170,117.2l-0.8,6.1l-1.2-5.3L170,117.2
		z M60.4,184.2l0.4-0.8h-0.4V184.2z M140.1,126.6l2.5-5.7l4.5-3.3l4.9-1.6l4.9,1.6l15.5-5.7l0.4-1.6l-1.2-5.3l1.6,6.5l2.9,0.4
		l-14.7,4.1l-4.9,1.6l-4.5-1.6l-4.5,1.6L140.1,126.6L140.1,126.6z M170,117.2l-0.8,6.1l-1.2-5.3L170,117.2z M247.6,169.1l2-2.5
		l-4.1,0.4L247.6,169.1z M239.5,183.4l-1.2-3.7l5.3,0.4l-1.6,2.5l0.8,2l-2.5-4.5L239.5,183.4z M217.8,136l0.8,2.5l-3.3,0.4
		L217.8,136L217.8,136z M247.6,169.1l2-2.5l-4.1,0.4L247.6,169.1z M239.5,183.4l-1.2-3.7l5.3,0.4l-1.6,2.5l0.8,2l-2.5-4.5
		L239.5,183.4z M217.8,136l0.8,2.5l-3.3,0.4L217.8,136L217.8,136z M319.6,237l6.9-10.2l1.2-7.8l-1.2-10.6l-1.6-2.5l-7.8-1.6
		l-6.1-8.6l-7.8-6.1v1.2l-0.4,0.8v9l-0.4,1.2v7.4L302,210v5.3l-0.4,0.8v4.9l-0.4,0.8v3.7l-0.4,0.8v3.7l-0.4,0.8v3.7l-0.4,0.8
		l0.8,0.4h6.1l0.8,0.4h4.9l1.2,0.4h4.5L319.6,237L319.6,237z M319.6,237l6.9-10.2l1.2-7.8l-1.2-10.6l-1.6-2.5l-7.8-1.6l-6.1-8.6
		l-7.8-6.1 M199.8,339.6l1.6,15.1l0.8,0.4h11.4l0.8,0.4h9.8l0.8,0.4h1.2l2.9-4.1l6.1-4.1l3.3-8.2l-0.8-5.3l3.3-4.1l-1.6-1.2l2.5,0.4
		l4.5-4.5l6.9-4.5h4.9l6.5-5.3l4.1,1.2l2.9-2.5l-0.4,2l5.3,0.4l0.8-2.9l5.7-2.9v-3.3l7.4-9.4l0.4-1.2v-0.8l0.4-0.8v-0.8l0.4-0.8v-2
		l0.4-0.8v-0.8l0.4-0.8v-1.2l0.4-0.8v-1.6l0.4-0.8v-1.2l0.4-0.8v-1.6l0.4-1.2v-1.6l0.4-0.8v-0.8l0.4-1.2v-1.6l0.4-0.8v-2l0.4-0.8v-2
		l0.4-0.8v-1.6l0.4-1.2v-1.6l0.4-0.8v-2l0.4-0.8v-2l0.4-0.8v-2.9l0.4-0.8v-1.6l0.4-1.2v-2.5l0.4-1.2v-2.5l0.4-1.2V239l0.4-0.8v-2.9
		h-5.7l-0.8-0.4h-6.1l-0.8-0.4h-7l-0.8-0.4H271l-0.8-0.4h-7l-0.8-0.4h-9l-0.4-0.4h-9l-0.8-0.4h-10.2l-0.8-0.4h-10.6l-0.8-0.4h-12.3
		l-0.8-0.4h-13.5l-1.2-0.4h-7v7.4l-0.4,1.2v6.5l-0.4,0.8v5.7l-0.4,0.8v5.7l-0.4,0.8v5.7l-0.4,0.8v4.5l-0.4,1.2v4.5l-0.4,0.8v3.7
		l-0.4,0.8v3.7l-0.4,1.2v3.7l-0.4,0.8v3.7l-0.4,0.8v3.7l-0.4,0.8v3.7l-0.4,0.8v2.9l-0.4,0.8v3.7l-0.4,0.8v2.5l-0.4,1.2v2.5L179,320
		v2.9l-0.4,0.8L199.8,339.6L199.8,339.6z M71.8,230l3.7,8.2l9.4,13.1l-1.2,3.3l2.9,4.9l4.9,4.9l22.5,11.9l7,7l0.8,9.8v9l-3.7,12.7
		l0.8,11l-7,21.3l1.2,5.7l-0.4,0.4l0.8,0.4l65-29.8l0.4-0.8V320l0.4-0.8v-2.5l0.4-1.2V313l0.4-0.8v-3.7l0.4-0.8v-2.9l0.4-0.8v-3.7
		l0.4-0.8v-3.7l0.4-0.8v-3.7l0.4-0.8v-3.7l0.4-1.2v-3.7l0.4-0.8v-3.7l0.4-0.8v-4.5l0.4-1.2v-4.5l0.4-0.8v-5.7l0.4-0.8v-5.7l0.4-0.8
		v-5.7l0.4-0.8v-6.5l0.4-1.2v-7.4h-10.2l-0.8-0.4h-22.1L152,230h-45l-0.8-0.4H78.4l-1.2,0.4L71.8,230L71.8,230z M290.6,297.9l1.6-2
		l2-7.4l3.3-4.1l6.5-30.7l0.8-1.2l0.8,2.5l2.5-2l11.4-15.9l-1.2-0.4h-4.5l-1.2-0.4h-4.9l-0.8-0.4h-6.1l-0.8-0.4v2.9l-0.4,0.8v2.9
		l-0.4,1.2v2.5l-0.4,1.2v2.5l-0.4,1.2v1.6l-0.4,0.8v2.9l-0.4,0.8v2l-0.4,0.8v2l-0.4,0.8v1.6l-0.4,1.2v1.6l-0.4,0.8v2l-0.4,0.8v2
		l-0.4,0.8v1.6l-0.4,1.2v0.8l-0.4,0.8v1.6l-0.4,1.2v1.6l-0.4,0.8v1.2l-0.4,0.8v1.6l-0.4,0.8v1.2l-0.4,0.8v0.8l-0.4,0.8v2l-0.4,0.8
		v0.8l-0.4,0.8v0.8L290.6,297.9L290.6,297.9z M99.2,457.7h0.4H99.2z M101.3,433.2l0.4-2l-2.5,1.2L101.3,433.2L101.3,433.2z
		 M92.3,451.2l2.5,0.4l-1.2-2.5L92.3,451.2z M100.5,453.2l0.4-2.9l1.2,2l0.4-1.6l1.2,3.3L100.5,453.2z M101.3,443.8l1.2-2.5l7,0.4
		h-4.9L101.3,443.8z M108.2,412.8l2.5,1.6l-2.5,0.4V412.8z M102.5,415.6v-2l1.6,1.6L102.5,415.6z M94.3,440.2L96,441l-1.2,1.2
		L94.3,440.2z M92.7,457.7l2-0.4l-1.2-5.7l-0.8,3.7l-2.5-0.4l1.6,2.5l2-2.5L92.7,457.7L92.7,457.7z M99.2,457.7h7.8l1.2,0.4h10.6
		l-0.4-1.2l0.8,1.2h2l2-4.5l8.6-4.9l0.4-3.7l-4.1-0.8l-3.3-4.5l3.7-4.1l6.5-1.6l1.6-6.1l5.3-3.3l-2.9-1.6l2.9-0.8l1.2,2l2.5-1.6
		l-0.4-2.5l-3.7,1.6l-2.5-2l1.2-7l5.7,2.5l7-1.2l1.6-8.2l1.2,0.4l-0.8-3.3l5.7,1.2l5.7-0.8v-1.6l0.4-0.8v-1.2l0.4-0.8v-1.6l0.4-0.8
		v-1.6l0.4-0.8v-1.2l0.4-0.8v-1.6l0.4-0.8v-0.8l0.4-0.8v-1.6l0.4-0.4v-1.6l0.4-0.8v-1.6l0.4-0.8v-2.5l0.4-0.8V376l0.4-0.8v-1.2
		l0.4-0.8l-58.5-19.6l-0.8-0.4l-2.5,3.7v17.2l-8.6,19.2l-2.9,1.2l2.5,11.4l-4.1,8.2l2.5,2.9l2.5-0.4l1.6,0.4l1.6-0.8l-2.9,2.9
		l2.5,1.2l-0.8,1.6l-1.6-1.2l1.6,1.6l-1.6-0.4l-1.2,4.9l1.6,2l-2.9,1.2l3.3,2l-4.5,3.3l3.7,0.8l-3.3,0.4l-0.4,1.6l1.6-0.8l-2,4.5
		l-1.2-2l-2.5,0.4l2-0.4h-1.6l1.2-1.6l-1.6,1.2l-1.2-1.2l-1.6,0.4l2.5,0.8l-1.2,1.6l-3.7,1.6l1.6,1.2l-1.2-1.2l2.9-1.2l0.4,1.6
		l2.5-0.4l1.2,2.5l-2.5,1.2h2.9l-3.7,1.2l4.1-0.8l2.5,2l-2-0.4l1.2,1.6l-5.3-1.2l3.3,1.6l-2.5,1.2l1.6,0.4l-1.6,3.3l1.6-1.2l1.6,2.5
		l-2.9-0.4l0.8,1.6L99.2,457.7L99.2,457.7z M101.3,433.2l0.4-2l-2.5,1.2L101.3,433.2L101.3,433.2z M92.3,451.2l2.5,0.4l-1.2-2.5
		L92.3,451.2z M100.5,453.2l0.4-2.9l1.2,2l0.4-1.6l1.2,3.3L100.5,453.2z M101.3,443.8l1.2-2.5l7,0.4h-4.9L101.3,443.8z M108.2,412.8
		l2.5,1.6l-2.5,0.4V412.8z M102.5,415.6v-2l1.6,1.6L102.5,415.6z M94.3,440.2L96,441l-1.2,1.2L94.3,440.2z M172,373.1l-0.4,0.8v1.2
		l-0.4,0.8v1.6l-0.4,0.8v2.5l-0.4,0.8v1.6l-0.4,0.8v1.6l-0.4,0.4v1.6l-0.4,0.8v0.8l-0.4,0.8v1.6l-0.4,0.8v1.2l-0.4,0.8v1.6l-0.4,0.8
		v1.6l-0.4,0.8v1.2l-0.4,0.8v1.6l7.4-1.2l4.9-2.5l5.7-6.1l0.4-3.3l-2.9-2l2-3.7l-6.1-4.9l1.2-2.9l2.5,3.3l7.8,2.9l10.2-1.2l9.8-9
		l3.7-7l7.8-8.2l-0.8-2l3.3,2.9l-9.8,9.4l7.8-5.7l4.9-6.1h-1.2l-0.8-0.4h-9.8l-0.8-0.4h-11.4l-0.8-0.4L172,373.1L172,373.1z
		 M99.6,457.7l4.9,0.8l-4.1,0.8v1.6l-1.2-3.3H99.6z M122.5,479.8l6.1-1.6l-9-3.3l-3.3-5.7l-6.5,1.2v2.5l4.1,0.4l-3.3,2.5l4.1,1.6
		l-1.6,1.2V477l-1.2,0.8l-4.5-1.6l2.9,1.6l-2,0.4l-0.4-1.2l-4.1,1.2C103.7,478.2,122.5,479.8,122.5,479.8z M110.7,480.2l2,1.6
		l-0.4-1.2h2.5l-0.4,1.2l3.3,0.8l-3.7-2.9l2.5-0.4L110.7,480.2L110.7,480.2z M99.6,475.7l3.3-1.2l-3.3-1.6l-2.5,1.2l2,1.6l2-0.8
		L99.6,475.7z M100.1,472.1l2,1.2l-0.8-1.2l4.5-2h-4.5L100.1,472.1z M96,471.6l3.7,1.2l-6.1-2.9L96,471.6L96,471.6z M107.8,475.3
		l2.5,1.2l-0.8-2.9L107.8,475.3L107.8,475.3z M107.4,476.5l-2.5-1.2v1.2H107.4z M92.3,458.2h-1.6l0.4,1.6L92.3,458.2z M119.3,458.2
		l0.4,0.4l1.6-0.4C121.3,458.2,119.3,458.2,119.3,458.2z M99.6,457.7l4.9,0.8l-4.1,0.8v1.6l-1.2-3.3H96l0.8,1.6l-3.3-0.4l2.9,0.8v2
		l1.6-2l1.2,1.2l-3.7,1.2l2,0.8l-1.2,2l2.5,2v-2l0.8,2l-0.8-2.5l2.9,1.2l-3.3-1.6l2-1.2l-0.8,1.6l2.5,1.2l-1.6,2.9l0.8-2l-1.2,1.6
		v-1.2h-2.9v3.3l3.3-1.2l-2,2l1.6,0.4l0.4-2.5h5.3l0.4,2.5l-2.5,2l0.8-1.6l-2.5,0.8l4.1,2l2-4.9l7-2l3.3,0.4l-2-3.3H114h2.5l-1.6-2
		l4.9-4.1l-0.8-0.8h-10.6l-1.2-0.4L99.6,457.7L99.6,457.7z M122.5,479.8l6.1-1.6l-9-3.3l-3.3-5.7l-6.5,1.2v2.5l4.1,0.4l-3.3,2.5
		l4.1,1.6l-1.6,1.2V477l-1.2,0.8l-4.5-1.6l2.9,1.6l-2,0.4l-0.4-1.2l-4.1,1.2C103.7,478.2,122.5,479.8,122.5,479.8z M110.7,480.2
		l2,1.6l-0.4-1.2h2.5l-0.4,1.2l3.3,0.8l-3.7-2.9l2.5-0.4L110.7,480.2L110.7,480.2z M99.6,475.7l3.3-1.2l-3.3-1.6l-2.5,1.2l2,1.6
		l2-0.8L99.6,475.7z M100.1,472.1l2,1.2l-0.8-1.2l4.5-2h-4.5L100.1,472.1z M96,471.6l3.7,1.2l-6.1-2.9L96,471.6L96,471.6z
		 M107.8,475.3l2.5,1.2l-0.8-2.9L107.8,475.3L107.8,475.3z M107.4,476.5l-2.5-1.2v1.2H107.4z M92.3,458.2h-1.6l0.4,1.6L92.3,458.2z"
		/>
	<path id="path2940" class="st2" d="M303.3,189.5h-0.4l-11.9-0.4l-6.1-3.7l-7.8,6.1l0.4-4.9l2-1.6l-3.3,0.4l2.9-2l-2-4.5l-2,2.9
		l-0.8-3.7l-0.8,1.2l0.4-1.2l-1.6,0.8l-1.6-2.5l-0.8,1.6v-2.9l-1.2,1.6l-5.3-3.7l-0.4,1.2l-3.7-1.2l-2.5,5.3l2.5,0.4l-2.5,1.2
		l-1.2-2l-4.9,6.1l1.2-4.5l-6.5,1.2l9-2.5l2.9-7.4l-11-2l-2.9,5.7l-0.4-2.9l-2.5,2.9v-3.3l-2.5,2.9l2.5-5.7l8.2-7.8h-1.6l1.2-3.3
		l-4.9-2.5l-3.3-13.9l-1.6-1.2l-0.4,2.5l-4.1-5.7l-11.4-6.5h-17.6l-7.8-7l-2,3.3l1.2-6.1l-3.7-4.1l-6.1-3.7v1.2l0.4,0.8v11l0.4,0.8
		v17.6l0.4,0.8v42.1h9.4l5.3-4.5l5.7,1.2l3.7-4.1l7,0.4l2.5,1.2l-0.4,1.6h2l9-4.9l-8.2,4.9l-5.3,0.4l-2.9,7.4l1.2-8.2l3.3,0.4
		l-5.7-1.2h3.3l-2.9-1.6l-6.5,3.7l-5.3-1.2l-7,6.1l-6.5-1.6l-1.6,0.8v0.8l-0.4,0.8v18l-0.4,0.8v11l-0.4,0.8v9l-0.4,0.8v0.8h7
		l1.2,0.4h13.5l0.8,0.4h12.3l0.8,0.4h10.6l0.8,0.4h10.2l0.8,0.4h9l0.4,0.4h9l0.8,0.4h7l0.8,0.4h7.8l0.8,0.4h7l0.8,0.4h6.1l0.8,0.4
		h5.7l0.4-0.8v-3.7l0.4-0.8v-3.7l0.4-0.8v-3.7l0.4-0.8v-4.9l0.4-0.8V210l0.4-0.8v-7.4l0.4-1.2v-9l0.4-0.8L303.3,189.5L303.3,189.5z
		 M187.5,187.9l-11.4,4.1l-3.7-2l-7,4.9l-0.8-2.5l2-0.4l-8.6-4.1l-0.8,1.2l-2.9-5.3l-4.5-1.6h-9l-4.9,6.1l-7-0.4l-2,3.3l1.2,0.8
		l-3.3,2l-2.5-3.3l-7.4-1.2l-2.5-3.3l-7.8,1.6l2.5-1.2l-1.6-0.4l2.9,0.4l4.1-0.8l2.5,3.7l7.4,0.4l2.9,3.7l2.9-1.6l-1.6-0.8l2.5-3.3
		l7.4-0.4l4.5-5.3l12.7-0.8l6.5,7.4l8.2,3.7l4.1-2.5l2.9,1.6l6.1-2l0.8-2.9l5.3,0.4l-3.7-0.8l-6.5-10.2l-12.7-7l-17.2-0.4l3.3-1.2
		l13.5,0.8l13.5,7.4l9.8,11.4V145l-0.4-0.8v-17.6l-0.4-0.8v-11l-0.4-0.8v-1.2l-1.2-0.8l-4.1,0.4v-5.3l-4.9-2.9l-4.5,0.4l-0.8-1.2
		h-8.6l-0.8-0.4h-30.3l-1.2-0.4h-13.5l0.8,2v2.5l-4.1,1.6l-2.9-4.9l0.8-1.2H87.8l0.4,3.3l-8.2,5.7l0.8,4.1l-3.3,8.6l-1.6,14.7l3.3,2
		l-0.4,1.6l-4.1,6.1l-5.3,1.6l0.4,4.1l-3.3,0.8l0.4,3.7l-6.5,1.6v20.4l0.8-0.8l0.8,2.5l-1.6,4.9v21.7l6.5,9.4l4.9,11.4h5.3l1.2-0.4
		h27.8l0.8,0.4h45l0.8,0.4h22.1l0.8,0.4h10.2V230l0.4-0.8v-9l0.4-0.8v-11l0.4-0.8v-18l0.4-0.8L187.5,187.9L187.5,187.9z
		 M179.8,102.4l0.4-4.1l-4.5,0.4l1.2,2.9l-2.9,1.2L179.8,102.4L179.8,102.4z M111.1,102.4l2.9-4.1l-2.5-5.3l5.3-3.3l-3.7-2.5
		l-9.8,7.4l-5.7-0.4l-0.8,2l-3.7-0.8l-2.5,2l-2.9,4.1v0.8L111.1,102.4L111.1,102.4z M170.8,103.3l-2.5-2.5l6.1-2h-14.7l3.7,1.2
		l-8.6,2.5l-7.4-3.7l-11.9,0.8l-1.6-4.1l-7.8-2l-2.9-4.5l-1.2,3.7l2.9-0.4v1.6l-2-0.8l-9,4.5l2.5,4.9h13.5l1.2,0.4h30.3l0.8,0.4
		L170.8,103.3L170.8,103.3z M179.8,102.4l0.4-4.1l-4.5,0.4l1.2,2.9l-2.9,1.2L179.8,102.4L179.8,102.4z M60.4,187.5l-8.2,5.7l2.9,9
		l-2,2l7.4,4.9V187.5z M60.4,183.4h-1.6l0.8,1.6l0.8-0.8V183.4z M60.4,165l-3.3,3.3l1.2,1.6l-4.1,2.5l0.4,8.6l4.1,2.5l1.6-2.5V165z
		 M60.4,160.5l-0.8,0.4l0.8,2.5V160.5z M140.1,126.6l2.5-5.7l4.5-3.3l4.9-1.6l4.9,1.6l15.5-5.7l0.4-1.6l-1.2-5.3l1.6,6.5l2.9,0.4
		l-14.7,4.1l-4.9,1.6l-4.5-1.6l-4.5,1.6L140.1,126.6L140.1,126.6z M170,117.2l-0.8,6.1l-1.2-5.3L170,117.2z M60.4,184.2l0.4-0.8
		h-0.4V184.2z M140.1,126.6l2.5-5.7l4.5-3.3l4.9-1.6l4.9,1.6l15.5-5.7l0.4-1.6l-1.2-5.3l1.6,6.5l2.9,0.4l-14.7,4.1l-4.9,1.6
		l-4.5-1.6l-4.5,1.6L140.1,126.6L140.1,126.6z M170,117.2l-0.8,6.1l-1.2-5.3L170,117.2z M247.6,169.1l2-2.5l-4.1,0.4L247.6,169.1z
		 M239.5,183.4l-1.2-3.7l5.3,0.4l-1.6,2.5l0.8,2l-2.5-4.5L239.5,183.4z M217.8,136l0.8,2.5l-3.3,0.4L217.8,136L217.8,136z
		 M208,175.6l4.1,0.8l0.8,2.5L208,175.6z M187.5,187.1h0.4H187.5z M247.6,169.1l2-2.5l-4.1,0.4L247.6,169.1z M239.5,183.4l-1.2-3.7
		l5.3,0.4l-1.6,2.5l0.8,2l-2.5-4.5L239.5,183.4z M217.8,136l0.8,2.5l-3.3,0.4L217.8,136L217.8,136z M319.6,237l6.9-10.2l1.2-7.8
		l-1.2-10.6l-1.6-2.5l-7.8-1.6l-6.1-8.6l-7.8-6.1v1.2l-0.4,0.8v9l-0.4,1.2v7.4L302,210v5.3l-0.4,0.8v4.9l-0.4,0.8v3.7l-0.4,0.8v3.7
		l-0.4,0.8v3.7l-0.4,0.8l0.8,0.4h6.1l0.8,0.4h4.9l1.2,0.4h4.5L319.6,237L319.6,237z M319.6,237l6.9-10.2l1.2-7.8l-1.2-10.6l-1.6-2.5
		l-7.8-1.6l-6.1-8.6l-7.8-6.1 M176.5,354.3l0.8-4.5l1.2-1.2l4.5-9l2.9-1.6l13.9,1.6H183l-5.3,11.4l-0.8,3.3h10.6l0.8,0.4h13.1
		l0.8,0.4h11.4l0.8,0.4h9.8l0.8,0.4h1.2l2.9-4.1l6.1-4.1l3.3-8.2l-0.8-5.3l3.3-4.1l-1.6-1.2l2.5,0.4l4.5-4.5l6.9-4.5h4.9l6.5-5.3
		l4.1,1.2l2.9-2.5l-0.4,2l5.3,0.4l0.8-2.9l5.7-2.9v-3.3l7.4-9.4l0.4-1.2v-0.8l0.4-0.8v-0.8l0.4-0.8v-2l0.4-0.8v-0.8l0.4-0.8v-1.2
		l0.4-0.8v-1.6l0.4-0.8v-1.2l0.4-0.8v-1.6l0.4-1.2v-1.6l0.4-0.8v-0.8l0.4-1.2v-1.6l0.4-0.8v-2l0.4-0.8v-2l0.4-0.8v-1.6l0.4-1.2v-1.6
		l0.4-0.8v-2l0.4-0.8v-2l0.4-0.8v-2.9l0.4-0.8v-1.6l0.4-1.2v-2.5l0.4-1.2v-2.5l0.4-1.2V239l0.4-0.8v-2.9h-5.7l-0.8-0.4h-6.1
		l-0.8-0.4h-7l-0.8-0.4H271l-0.8-0.4h-7l-0.8-0.4h-9l-0.4-0.4h-9l-0.8-0.4h-10.2l-0.8-0.4h-10.6l-0.8-0.4h-12.3l-0.8-0.4h-13.5
		l-1.2-0.4h-7v7.4l-0.4,1.2v6.5l-0.4,0.8v5.7l-0.4,0.8v5.7l-0.4,0.8v5.7l-0.4,0.8v4.5l-0.4,1.2v4.5l-0.4,0.8v3.7l-0.4,0.8v3.7
		l-0.4,1.2v3.7l-0.4,0.8v3.7l-0.4,0.8v3.7l-0.4,0.8v3.7l-0.4,0.8v2.9l-0.4,0.8v3.7l-0.4,0.8v2.5l-0.4,1.2v2.5L179,320v2.9l-0.4,0.8
		v2.9l-0.4,0.8v2.5l-0.4,0.8v2.9l-0.4,0.8v1.6l-0.4,0.8v2.9l-0.4,0.8v2.5l-0.4,0.8v2l-0.4,0.8v1.6l-0.4,0.8v2.5l-0.4,0.8v2
		L176.5,354.3L176.5,354.3z M71.8,230l3.7,8.2l9.4,13.1l-1.2,3.3l2.9,4.9l4.9,4.9l22.5,11.9l7,7l0.8,9.8v9l-3.7,12.7l0.8,11l-7,21.3
		l1.2,5.7l-0.4,0.4l0.8,0.4h36.8l0.4,0.4h20l0.8,0.4h3.3v-2l0.4-0.8V349l0.4-0.8v-1.6l0.4-0.8v-2l0.4-0.8v-2.5l0.4-0.8v-2.9l0.4-0.8
		v-1.6l0.4-0.8v-2.9l0.4-0.8v-2.5l0.4-0.8v-2.9l0.4-0.8V320l0.4-0.8v-2.5l0.4-1.2V313l0.4-0.8v-3.7l0.4-0.8v-2.9l0.4-0.8v-3.7
		l0.4-0.8v-3.7l0.4-0.8v-3.7l0.4-0.8v-3.7l0.4-1.2v-3.7l0.4-0.8v-3.7l0.4-0.8v-4.5l0.4-1.2v-4.5l0.4-0.8v-5.7l0.4-0.8v-5.7l0.4-0.8
		v-5.7l0.4-0.8v-6.5l0.4-1.2v-7.4h-10.2l-0.8-0.4h-22.1L152,230h-45l-0.8-0.4H78.4l-1.2,0.4L71.8,230L71.8,230z M290.6,297.9l1.6-2
		l2-7.4l3.3-4.1l6.5-30.7l0.8-1.2l0.8,2.5l2.5-2l11.4-15.9l-1.2-0.4h-4.5l-1.2-0.4h-4.9l-0.8-0.4h-6.1l-0.8-0.4v2.9l-0.4,0.8v2.9
		l-0.4,1.2v2.5l-0.4,1.2v2.5l-0.4,1.2v1.6l-0.4,0.8v2.9l-0.4,0.8v2l-0.4,0.8v2l-0.4,0.8v1.6l-0.4,1.2v1.6l-0.4,0.8v2l-0.4,0.8v2
		l-0.4,0.8v1.6l-0.4,1.2v0.8l-0.4,0.8v1.6l-0.4,1.2v1.6l-0.4,0.8v1.2l-0.4,0.8v1.6l-0.4,0.8v1.2l-0.4,0.8v0.8l-0.4,0.8v2l-0.4,0.8
		v0.8l-0.4,0.8v0.8L290.6,297.9L290.6,297.9z M99.2,457.7h0.4H99.2z M96.8,426.3l2.5-1.2v-7h-2.5l-0.8,2.5l-1.2,4.9L96.8,426.3z
		 M101.3,433.2l0.4-2l-2.5,1.2L101.3,433.2L101.3,433.2z M92.3,451.2l2.5,0.4l-1.2-2.5L92.3,451.2z M100.5,453.2l0.4-2.9l1.2,2
		l0.4-1.6l1.2,3.3L100.5,453.2z M101.3,443.8l1.2-2.5l7,0.4h-4.9L101.3,443.8z M108.2,412.8l2.5,1.6l-2.5,0.4V412.8z M102.5,415.6
		v-2l1.6,1.6L102.5,415.6z M94.3,440.2L96,441l-1.2,1.2L94.3,440.2z M92.7,457.7l2-0.4l-1.2-5.7l-0.8,3.7l-2.5-0.4l1.6,2.5l2-2.5
		L92.7,457.7L92.7,457.7z M99.2,457.7h7.8l1.2,0.4h10.6l-0.4-1.2l0.8,1.2h2l2-4.5l8.6-4.9l0.4-3.7l-4.1-0.8l-3.3-4.5l3.7-4.1
		l6.5-1.6l1.6-6.1l5.3-3.3l-2.9-1.6l2.9-0.8l1.2,2l2.5-1.6l-0.4-2.5l-3.7,1.6l-2.5-2l1.2-7l5.7,2.5l7-1.2l1.6-8.2l1.2,0.4l-0.8-3.3
		l5.7,1.2l5.7-0.8v-1.6l0.4-0.8v-1.2l0.4-0.8v-1.6l0.4-0.8v-1.6l0.4-0.8v-1.2l0.4-0.8v-1.6l0.4-0.8v-0.8l0.4-0.8v-1.6l0.4-0.4v-1.6
		l0.4-0.8v-1.6l0.4-0.8v-2.5l0.4-0.8V376l0.4-0.8v-1.2l0.4-0.8v-1.6l0.4-0.8V369l0.4-0.8v-1.6l0.4-0.8v-2.5l0.4-0.8v-1.6l-4.1,4.5v7
		l-0.4-7.4l4.9-4.9v-2l0.4-0.8v-1.6l0.4-0.8v-0.4h-3.3l-0.8-0.4h-20l-0.4-0.4h-36.8l-0.8-0.4l-2.5,3.7v17.2l-8.6,19.2l-2.9,1.2
		l2.5,11.4l-4.1,8.2l2.5,2.9l-1.6,0.8l4.1-1.2l1.6,0.4l1.6-0.8l-2.9,2.9l2.5,1.2l-0.8,1.6l-1.6-1.2l1.6,1.6l-1.6-0.4l-1.2,4.9l1.6,2
		l-2.9,1.2l3.3,2l-4.5,3.3l3.7,0.8l-3.3,0.4l-0.4,1.6l1.6-0.8l-2,4.5l-1.2-2l-2.5,0.4l2-0.4h-1.6l1.2-1.6l-1.6,1.2l-1.2-1.2
		l-1.6,0.4l2.5,0.8l-1.2,1.6l-3.7,1.6l1.6,1.2l-1.2-1.2l2.9-1.2l0.4,1.6l2.5-0.4l1.2,2.5l-2.5,1.2h2.9l-3.7,1.2l4.1-0.8l2.5,2
		l-2-0.4l1.2,1.6l-5.3-1.2l3.3,1.6l-2.5,1.2l1.6,0.4l-1.6,3.3l1.6-1.2l1.6,2.5l-2.9-0.4l0.8,1.6L99.2,457.7L99.2,457.7z M96.8,426.3
		l2.5-1.2v-7h-2.5l-0.8,2.5l-1.2,4.9L96.8,426.3z M101.3,433.2l0.4-2l-2.5,1.2L101.3,433.2L101.3,433.2z M92.3,451.2l2.5,0.4
		l-1.2-2.5L92.3,451.2z M100.5,453.2l0.4-2.9l1.2,2l0.4-1.6l1.2,3.3L100.5,453.2z M101.3,443.8l1.2-2.5l7,0.4h-4.9L101.3,443.8z
		 M108.2,412.8l2.5,1.6l-2.5,0.4V412.8z M102.5,415.6v-2l1.6,1.6L102.5,415.6z M94.3,440.2L96,441l-1.2,1.2L94.3,440.2z
		 M176.9,354.3l-0.4,3.7l-2.9,2.9v1.6l-0.4,0.8v2.5l-0.4,0.8v1.6l-0.4,0.8v1.6l-0.4,0.8v1.6l-0.4,0.8v1.2l-0.4,0.8v1.6l-0.4,0.8v2.5
		l-0.4,0.8v1.6l-0.4,0.8v1.6l-0.4,0.4v1.6l-0.4,0.8v0.8l-0.4,0.8v1.6l-0.4,0.8v1.2l-0.4,0.8v1.6l-0.4,0.8v1.6l-0.4,0.8v1.2l-0.4,0.8
		v1.6l7.4-1.2l4.9-2.5l5.7-6.1l0.4-3.3l-2.9-2l2-3.7l-6.1-4.9l2-7.8l-0.8,4.9l2.5,3.3l7.8,2.9l10.2-1.2l9.8-9l3.7-7l7.8-8.2l-0.8-2
		l3.3,2.9l-9.8,9.4l7.8-5.7l4.9-6.1h-1.2l-0.8-0.4h-9.8l-0.8-0.4h-11.4l-0.8-0.4h-13.1l-0.8-0.4L176.9,354.3L176.9,354.3z
		 M99.6,457.7l4.9,0.8l-4.1,0.8v1.6l-1.2-3.3H99.6z M122.5,479.8l6.1-1.6l-9-3.3l-3.3-5.7l-6.5,1.2v2.5l4.1,0.4l-3.3,2.5l4.1,1.6
		l-1.6,1.2V477l-1.2,0.8l-4.5-1.6l2.9,1.6l-2,0.4l-0.4-1.2l-4.1,1.2C103.7,478.2,122.5,479.8,122.5,479.8z M110.7,480.2l2,1.6
		l-0.4-1.2h2.5l-0.4,1.2l3.3,0.8l-3.7-2.9l2.5-0.4L110.7,480.2L110.7,480.2z M99.6,475.7l3.3-1.2l-3.3-1.6l-2.5,1.2l2,1.6l2-0.8
		L99.6,475.7z M100.1,472.1l2,1.2l-0.8-1.2l4.5-2h-4.5L100.1,472.1z M96,471.6l3.7,1.2l-6.1-2.9L96,471.6L96,471.6z M107.8,475.3
		l2.5,1.2l-0.8-2.9L107.8,475.3L107.8,475.3z M107.4,476.5l-2.5-1.2v1.2H107.4z M92.3,458.2h-1.6l0.4,1.6L92.3,458.2z M119.3,458.2
		l0.4,0.4l1.6-0.4C121.3,458.2,119.3,458.2,119.3,458.2z M99.6,457.7l4.9,0.8l-4.1,0.8v1.6l-1.2-3.3H96l0.8,1.6l-3.3-0.4l2.9,0.8v2
		l1.6-2l1.2,1.2l-3.7,1.2l2,0.8l-1.2,2l2.5,2v-2l0.8,2l-0.8-2.5l2.9,1.2l-3.3-1.6l2-1.2l-0.8,1.6l2.5,1.2l-1.6,2.9l0.8-2l-1.2,1.6
		v-1.2h-2.9v3.3l3.3-1.2l-2,2l1.6,0.4l0.4-2.5h5.3l0.4,2.5l-2.5,2l0.8-1.6l-2.5,0.8l4.1,2l2-4.9l7-2l3.3,0.4l-2-3.3H114h2.5l-1.6-2
		l4.9-4.1l-0.8-0.8h-10.6l-1.2-0.4L99.6,457.7L99.6,457.7z M122.5,479.8l6.1-1.6l-9-3.3l-3.3-5.7l-6.5,1.2v2.5l4.1,0.4l-3.3,2.5
		l4.1,1.6l-1.6,1.2V477l-1.2,0.8l-4.5-1.6l2.9,1.6l-2,0.4l-0.4-1.2l-4.1,1.2C103.7,478.2,122.5,479.8,122.5,479.8z M110.7,480.2
		l2,1.6l-0.4-1.2h2.5l-0.4,1.2l3.3,0.8l-3.7-2.9l2.5-0.4L110.7,480.2L110.7,480.2z M99.6,475.7l3.3-1.2l-3.3-1.6l-2.5,1.2l2,1.6
		l2-0.8L99.6,475.7z M100.1,472.1l2,1.2l-0.8-1.2l4.5-2h-4.5L100.1,472.1z M96,471.6l3.7,1.2l-6.1-2.9L96,471.6L96,471.6z
		 M107.8,475.3l2.5,1.2l-0.8-2.9L107.8,475.3L107.8,475.3z M107.4,476.5l-2.5-1.2v1.2H107.4z M92.3,458.2h-1.6l0.4,1.6L92.3,458.2z"
		/>
	<path id="path1319" class="st3" d="M115.2,91l-7,4.5l-3.3,7 M60.4,193.6l-0.8-0.4 M59.6,193.2l-2.5,0.8l2-3.3l-1.2-3.3 M67.8,156.4
		l9.4,7l7-0.8l9.4,4.1l11.9,14.7l7.8-2l10.6,3.3l-4.1,7.4l4.9,2.9l3.7-19.6l-4.1-6.5v-4.5l5.3-0.4 M144.2,230l0.8-0.4l7.8-1.2v2
		 M124.2,193.6l-4.9-1.2l-13.5,6.1l-1.6,8.6l-5.7,7l7,9.4l-1.6,2.5l5.7,0.8l0.8,3.3 M113.1,230h2.5l4.9-3.7v3.7 M186.3,133.5v4.5
		l0.8,0.8 M105,102.4l-2.5,4.9l4.1,0.8l2.9,6.1l-1.2,3.7l4.1,3.3l11,0.4l4.5,5.3l12.3-0.4 M90.6,166.2h-2.5l2.9,5.7l-2.5,3.7l-7,6.5
		L71,187.5l-4.5,10.2l-6.1-4.1 M158.1,139.2l4.1,11l4.1,0.4v2l-13.5,9l-0.4-2l-4.5,1.6l-3.7-3.3 M182.6,133.5l0.8,1.6l-2.5,2.5
		l-10.6,2.9l-0.8,3.3l-11.4-4.5 M186.3,133.5h-3.7l-4.1-4.9l1.2-4.5l5.3-2l-2.9-3.3l2.5-2 M140.5,126.6l-2.9,10.2l4.1,7.4l-3.7,4.1
		 M144.2,158l-3.3-5.7l-3.3,2.5l-1.6-1.6v1.6h-10.6 M138.1,148.2l4.1,2.5l2,7.4 M125.4,154.8v4.1l3.7,0.4l0.4,2.5 M184.7,116.8
		l2-1.6 M187.1,138.8l3.3,2.9l-2.9,7l1.6,6.1l5.7,4.5l9-4.9l5.3,0.4l-9.8-13.5l0.4-4.9l4.1-1.2v-2.9 M209.2,154.8l3.3,0.4l-0.4-4.1
		l6.1-0.4l5.3,3.7l2-1.6l4.9,1.2l7-11.4 M220.3,152.7l3.7-7l-3.3-9.4l2.9-5.3 M186.7,115.1l0.8-0.8l-0.8-1.6 M125.8,277.4l2.9,9
		l3.3,3.3l-2,6.1l4.5,14.7l4.9,1.2l-2,6.1l-7.4,4.5l0.4,13.5l-2.9,0.4l-4.9,7.8l-2.5,5.3l0.8,4.1 M138.1,234.5l6.1-4.5 M152.8,230.4
		l-0.4,7.8l2.5,4.9l4.1,3.3l7.4,0.8l7.4,6.1l8.2,1.6l-0.8,8.2l1.6,7.4h1.2 M110.3,230h2.9 M120.5,230l-0.8,6.1l12.3,1.2l6.1-2.9
		 M126.6,236.1l5.3,9.8l-5.3,19.6l3.7,4.5l-4.9,5.3l-1.6,6.1l-3.7,1.2 M138.5,310.6l5.7-6.1l9.4,2.9l1.6,3.7l2.5-5.3l6.5,0.4l9.4,11
		l5.7,2.5 M165.1,307.3l6.5-15.5l10.6-2 M183.9,270.5l9.8,0.4l-0.8,6.1l4.9,6.1l-5.3,12.3 M210.4,338.4l-11.4,6.1l-10.6,10.2
		 M200.6,307.3l3.7,2l0.8,9.8l6.1,0.4l-4.5,14.3l-7,5.7 M179.4,319.5l2.5,1.2 M181,320l11,7.8l-7.4,10.6 M182.2,289.7l10.2,3.3
		l1.2,7.4l-1.6,7 M208,329l3.7,0.8l-1.2,8.6 M184.7,338.4l15.1,1.2 M200.6,307.3H192 M120.9,353.5v0.8l-4.1,6.5l2.9,16.8l-4.1,5.7
		l0.8,4.1l-4.5,4.5l1.2,9.4l-4.5,5.3l-0.8,13.1l-2,0.8l0.8,10.6l3.7,0.8l-4.5,1.2l3.3,2.5l-2.5,1.6l0.4,5.3l-3.3,3.7l-1.2,6.1
		l-4.5,3.3l0.8,2 M188.4,354.7l-1.2,0.8l-4.9,13.1 M205.1,376.4v-3.3l2.5-2l-2-4.1l-8.2-7.4l-2.5,1.2l-3.3-5.7l-4.1,0.4
		 M182.2,368.6l-2.5,9.4 M98.8,457.7l0.8,3.7l3.7-0.4l-0.8,4.1l2,1.6 M117.2,469.6l-1.6,9.8 M104.5,466.7l13.5,2"/>
</g>
<text transform="matrix(0.939 0 0 1 92.5881 174.7495)" class="st4 st5">拉丁美洲债务</text>
<text transform="matrix(0.939 0 0 1 130.2136 209.4238)" class="st4 st5">危机</text>
<text transform="matrix(1 0 0 1 94.0001 256.2951)" class="st6 st7">除非美方玩家立即弃掉</text>
<text transform="matrix(1 0 0 1 111.2301 280.2951)" class="st6 st7">一张“3”或以上行动</text>
<text transform="matrix(1 0 0 1 94.0001 304.2951)" class="st6 st7">点数的牌，否则苏联在</text>
<text transform="matrix(1 0 0 1 114.0001 328.2951)" class="st6 st7">南美洲两个国家的</text>
<text transform="matrix(1 0 0 1 134 351.9291)" class="st6 st7">影响力加倍。</text>
</svg>
